M48
;Layer_Color=9474304
;FILE_FORMAT=4:2
METRIC,LZ
;TYPE=PLATED
T1F00S00C0.30
T2F00S00C0.40
T3F00S00C0.65
T4F00S00C1.30
%
T01
X005519Y00295
Y00305
X005619
X005719
Y00315
X005819
X005919
X006019
Y00305
X005919
X00582
X00592Y00295
X00572
X005619Y00315
X005519
X006519
Y00305
X006819
Y00315
X007119
Y00305
X007419
Y00315
X0065Y00371
X00632Y003593
X006637Y00392
X008307Y005171
X00851Y005326
Y00501
X00873Y005171
X008105Y005425
Y00555
X0081Y00567
Y0058
Y005925
Y00605
Y00618
X008105Y0063
X0083Y00655
X00851Y00673
X00872Y00655
X00798Y007446
X00807Y00754
X00782Y00726
X00739
X00723Y007442
X00712Y00754
X007585Y00772
X007785Y007889
X00779Y00624
X00779Y006115
X00779Y005985
X00779Y00586
Y005735
Y005609
X007766Y00488
X007826Y00458
X00717
X00713Y0051
X00688Y0052
X006637Y005
X00651
X00674Y00489
X00651Y004624
Y004326
X00613Y00433
X006
X005748Y004326
Y004624
X00534Y00459
Y00434
X005701Y005262
X00576Y00549
X00573Y005616
X005746Y006017
X005819
X005891
X005966
X006046
X006444Y005936
X006459Y00561
X006262Y005736
X006241Y005369
X006066Y005172
X00613Y00503
X006002
X005525Y005837
X005332Y005925
X005306Y006026
X005368Y006078
X00546Y00679
Y00687
X004944
X00496Y00669
X00493Y00654
X00476Y006605
Y006935
X00496Y00721
X004395Y00732
X004559Y00749
X00437Y00793
X00417Y00778
X003975Y00732
X00647Y007131
X00663Y007035
X006625Y00673
X00647Y006732
X006349Y006912
X006241Y00682
X00689Y00696
X00708Y006885
X00674Y00403
X00349Y005545
X00329Y005388
Y00573
Y00627
Y006594
X00349Y00643
X0038Y007496
X00379Y00818
X003785Y0084
X00378Y00894
X00366Y00883
X00345Y00895
X00366Y009254
X00323
X00414
X004559Y00925
X004349Y00895
X00431Y00858
X00423Y00858
X00415Y00858
X00415Y00833
X00403Y008363
X00402Y008213
X0041Y008117
X004103Y008026
X004195Y008026
Y008117
X00429Y008117
Y008026
X00431Y00833
X00443Y008332
Y00858
X00484Y00825
X00487Y00813
X00477Y008035
X00496Y00836
X005455Y008575
X00531Y009242
X00561Y00935
X006197Y00924
X00649
Y00881
X006199
X00628Y008592
X006171Y008471
X00696Y008535
X006961Y00822
X006919Y008093
X007031Y007979
X007518Y007985
X007515Y008075
X00761
Y007985
X007705Y007985
Y008075
X0077Y008296
X00755Y008295
X00744Y008171
X00743Y00853
X00753
X007645
X00773
X007319Y00842
X007447Y0089
X007658Y009204
X007228
X00686Y00936
X00813Y009204
X00856
X00835Y0089
X00814Y00877
X00802Y00888
Y008657
Y00843
X00802Y00837
X00802Y008154
X00812Y008249
T02
X00335Y003588
X00372Y003588
X00355Y003412
X00384Y00334
X00432Y003588
X00431Y003867
X0045Y003425
X004673Y003588
X004917Y003445
X005274Y003588
X005255Y003862
X00588Y00386
X00623Y0038
X00651Y003909
X005863Y003427
X008232Y00406
X008215Y0047
X008063
X00802Y00503
X00836Y00715
X008285Y0073
X00836Y00745
X00851Y007525
X008685Y00745
X008735Y0073
X00866Y00715
X00851Y007075
X0079Y006651
X00677Y00676
X00677Y00705
X00623Y006428
X005915Y006505
X005831Y006509
Y006604
X005915
X00538Y00657
X005108Y006323
X00465Y00635
X00472Y00679
Y00709
X00506Y00711
X005262Y007228
X005468Y00713
X00506Y00677
X005016Y00592
X004836Y005825
X00467Y005828
X00523Y005809
X005159Y005631
X005077Y005543
X005Y0052
X005034Y005124
X00486Y0052
X004853Y004943
X005306Y005056
X00538Y00499
X00552
X005648Y004993
X005737Y005073
X005486Y005237
X006563Y00536
X006575Y005751
X006789Y00588
Y00561
X00732Y004063
X007496Y00406
X00768
X005456Y00405
X005078Y00404
X004497Y00405
X00413Y00404
Y00452
Y005033
X00409Y005756
Y00621
X003988Y006487
X00373Y005925
Y0058
X003Y005925
Y00488
X00347Y00417
Y00404
X00362
Y00417
X00344Y00715
X003515Y0073
X003465Y00745
X00329Y007525
X00314Y00745
X003065Y0073
X00314Y00715
X00329Y007075
X003Y007889
Y009006
X005819Y00919
X00653Y00855
X00851Y008236
T03
X005772Y007097
X005899Y00697
X006026Y007097
T04
X00483Y009
X00518
X00661
X00696
M30
