G04*
G04 #@! TF.GenerationSoftware,Altium Limited,Altium Designer,19.0.15 (446)*
G04*
G04 Layer_Color=8388736*
%FSLAX42Y42*%
%MOMM*%
G71*
G01*
G75*
%ADD14C,2.40*%
%ADD15R,0.85X1.40*%
%ADD16R,0.68X1.00*%
%ADD17R,0.55X1.00*%
%ADD18R,2.70X1.78*%
%ADD19R,1.20X1.20*%
%ADD20R,2.45X2.15*%
%ADD21R,1.20X1.20*%
%ADD22R,1.05X0.60*%
%ADD23R,1.80X1.00*%
%ADD24R,3.20X2.30*%
G04:AMPARAMS|DCode=25|XSize=0.45mm|YSize=1.4mm|CornerRadius=0mm|HoleSize=0mm|Usage=FLASHONLY|Rotation=135.000|XOffset=0mm|YOffset=0mm|HoleType=Round|Shape=Round|*
%AMOVALD25*
21,1,0.95,0.45,0.00,0.00,225.0*
1,1,0.45,0.34,0.34*
1,1,0.45,-0.34,-0.34*
%
%ADD25OVALD25*%

G04:AMPARAMS|DCode=26|XSize=0.45mm|YSize=1.4mm|CornerRadius=0mm|HoleSize=0mm|Usage=FLASHONLY|Rotation=45.000|XOffset=0mm|YOffset=0mm|HoleType=Round|Shape=Round|*
%AMOVALD26*
21,1,0.95,0.45,0.00,0.00,135.0*
1,1,0.45,0.34,-0.34*
1,1,0.45,-0.34,0.34*
%
%ADD26OVALD26*%

%ADD27R,1.00X1.00*%
G04:AMPARAMS|DCode=28|XSize=1.1mm|YSize=0.9mm|CornerRadius=0mm|HoleSize=0mm|Usage=FLASHONLY|Rotation=45.000|XOffset=0mm|YOffset=0mm|HoleType=Round|Shape=Rectangle|*
%AMROTATEDRECTD28*
4,1,4,-0.07,-0.71,-0.71,-0.07,0.07,0.71,0.71,0.07,-0.07,-0.71,0.0*
%
%ADD28ROTATEDRECTD28*%

%ADD29R,1.10X0.90*%
%ADD30P,1.70X4X180.0*%
%ADD31R,0.90X0.60*%
G04:AMPARAMS|DCode=32|XSize=2mm|YSize=1.4mm|CornerRadius=0mm|HoleSize=0mm|Usage=FLASHONLY|Rotation=45.000|XOffset=0mm|YOffset=0mm|HoleType=Round|Shape=Rectangle|*
%AMROTATEDRECTD32*
4,1,4,-0.21,-1.20,-1.20,-0.21,0.21,1.20,1.20,0.21,-0.21,-1.20,0.0*
%
%ADD32ROTATEDRECTD32*%

%ADD33R,1.62X1.39*%
%ADD34R,0.90X4.40*%
%ADD35R,0.90X3.40*%
%ADD36R,0.90X1.10*%
%ADD37R,1.70X1.20*%
%ADD38R,1.20X1.10*%
%ADD39R,3.20X5.20*%
%ADD40R,1.40X4.20*%
%ADD41C,2.20*%
%ADD42C,1.20*%
%ADD43R,2.20X2.20*%
%ADD44C,6.20*%
%ADD45C,0.80*%
%ADD46C,1.10*%
D14*
X3230Y8610D02*
D03*
X8535Y3400D02*
D03*
D15*
X8042Y4220D02*
D03*
X8232D02*
D03*
X8137Y4480D02*
D03*
D16*
X7479Y7889D02*
D03*
X4063Y7930D02*
D03*
D17*
X7535Y7889D02*
D03*
X7585D02*
D03*
X7635D02*
D03*
X7685D02*
D03*
X7735D02*
D03*
X7485Y8171D02*
D03*
X7535D02*
D03*
X7585D02*
D03*
X7635D02*
D03*
X7685D02*
D03*
X7735D02*
D03*
X4120Y7930D02*
D03*
X4170D02*
D03*
X4220D02*
D03*
X4270D02*
D03*
X4320D02*
D03*
X4070Y8213D02*
D03*
X4120D02*
D03*
X4170D02*
D03*
X4220D02*
D03*
X4270D02*
D03*
X4320D02*
D03*
D18*
X7610Y8030D02*
D03*
X4195Y8071D02*
D03*
D19*
X6197Y6570D02*
D03*
Y6690D02*
D03*
X4833Y5938D02*
D03*
Y6058D02*
D03*
X3840Y3565D02*
D03*
Y3445D02*
D03*
X5746Y3555D02*
D03*
Y3435D02*
D03*
X4796Y3565D02*
D03*
Y3445D02*
D03*
X4840Y8360D02*
D03*
Y8480D02*
D03*
X6961Y8320D02*
D03*
Y8440D02*
D03*
D20*
X4497Y3862D02*
D03*
Y3588D02*
D03*
X3550D02*
D03*
Y3862D02*
D03*
X4130Y3867D02*
D03*
Y3592D02*
D03*
X6039Y3862D02*
D03*
Y3588D02*
D03*
X5456Y3588D02*
D03*
Y3862D02*
D03*
X5083Y3865D02*
D03*
Y3590D02*
D03*
D21*
X6520Y4030D02*
D03*
X6640D02*
D03*
X6520Y4890D02*
D03*
X6640D02*
D03*
X7670Y8420D02*
D03*
X7550D02*
D03*
X3780Y8830D02*
D03*
X3900D02*
D03*
X3910Y8290D02*
D03*
X3790D02*
D03*
X4255Y8457D02*
D03*
X4135D02*
D03*
X4650Y8130D02*
D03*
X4770D02*
D03*
X8020Y8770D02*
D03*
X7900D02*
D03*
Y8250D02*
D03*
X8020D02*
D03*
X7150Y8090D02*
D03*
X7030D02*
D03*
D22*
X4833Y6670D02*
D03*
Y6605D02*
D03*
Y6540D02*
D03*
X5058D02*
D03*
Y6670D02*
D03*
Y7000D02*
D03*
Y6870D02*
D03*
X4833D02*
D03*
Y6935D02*
D03*
Y7000D02*
D03*
X6770Y6820D02*
D03*
Y6950D02*
D03*
X6995D02*
D03*
Y6885D02*
D03*
Y6820D02*
D03*
D23*
X8220Y6300D02*
D03*
Y5425D02*
D03*
Y5550D02*
D03*
Y5675D02*
D03*
Y5800D02*
D03*
Y5925D02*
D03*
Y6050D02*
D03*
Y6175D02*
D03*
X3580D02*
D03*
Y6050D02*
D03*
Y5925D02*
D03*
Y5800D02*
D03*
D24*
X8510Y6555D02*
D03*
Y5170D02*
D03*
X3290Y5545D02*
D03*
Y6430D02*
D03*
D25*
X5416Y5685D02*
D03*
X5451Y5649D02*
D03*
X5486Y5614D02*
D03*
X5522Y5578D02*
D03*
X5557Y5543D02*
D03*
X5592Y5508D02*
D03*
X5628Y5472D02*
D03*
X5663Y5437D02*
D03*
X5698Y5402D02*
D03*
X5734Y5366D02*
D03*
X5769Y5331D02*
D03*
X5805Y5296D02*
D03*
X6384Y5875D02*
D03*
X6349Y5911D02*
D03*
X6314Y5946D02*
D03*
X6278Y5982D02*
D03*
X6243Y6017D02*
D03*
X6208Y6052D02*
D03*
X6172Y6088D02*
D03*
X6137Y6123D02*
D03*
X6102Y6158D02*
D03*
X6066Y6194D02*
D03*
X6031Y6229D02*
D03*
X5995Y6264D02*
D03*
D26*
Y5296D02*
D03*
X6031Y5331D02*
D03*
X6066Y5366D02*
D03*
X6102Y5402D02*
D03*
X6137Y5437D02*
D03*
X6172Y5472D02*
D03*
X6208Y5508D02*
D03*
X6243Y5543D02*
D03*
X6278Y5578D02*
D03*
X6314Y5614D02*
D03*
X6349Y5649D02*
D03*
X6384Y5685D02*
D03*
X5805Y6264D02*
D03*
X5769Y6229D02*
D03*
X5734Y6194D02*
D03*
X5698Y6158D02*
D03*
X5663Y6123D02*
D03*
X5628Y6088D02*
D03*
X5592Y6052D02*
D03*
X5557Y6017D02*
D03*
X5522Y5982D02*
D03*
X5486Y5946D02*
D03*
X5451Y5911D02*
D03*
X5416Y5875D02*
D03*
D27*
X6790Y5200D02*
D03*
X6630D02*
D03*
D28*
X6351Y5366D02*
D03*
X6449Y5267D02*
D03*
X5061Y6147D02*
D03*
X5160Y6048D02*
D03*
X5170Y6254D02*
D03*
X5269Y6155D02*
D03*
D29*
X4673Y5928D02*
D03*
Y6068D02*
D03*
X6625Y6950D02*
D03*
Y6810D02*
D03*
X5208Y6870D02*
D03*
Y7010D02*
D03*
Y6540D02*
D03*
Y6680D02*
D03*
X7766Y4964D02*
D03*
Y5104D02*
D03*
X7230Y7540D02*
D03*
Y7680D02*
D03*
X7980Y7540D02*
D03*
Y7680D02*
D03*
X7226Y4280D02*
D03*
Y4420D02*
D03*
X7406Y4280D02*
D03*
Y4420D02*
D03*
X7586Y4280D02*
D03*
Y4420D02*
D03*
X7766Y4280D02*
D03*
Y4420D02*
D03*
X7320Y7950D02*
D03*
Y8090D02*
D03*
X3910Y7990D02*
D03*
Y8130D02*
D03*
X3800Y7580D02*
D03*
Y7720D02*
D03*
X7380Y7540D02*
D03*
Y7680D02*
D03*
X3960Y7580D02*
D03*
Y7720D02*
D03*
X7900Y7950D02*
D03*
Y8090D02*
D03*
X4470Y7990D02*
D03*
Y8130D02*
D03*
X4560Y7580D02*
D03*
Y7720D02*
D03*
X7830Y7540D02*
D03*
Y7680D02*
D03*
X4410Y7580D02*
D03*
Y7720D02*
D03*
D30*
X5012Y5352D02*
D03*
X4928Y5268D02*
D03*
X5225Y5565D02*
D03*
X5140Y5480D02*
D03*
X5368Y4838D02*
D03*
X5452Y4922D02*
D03*
X5670Y5140D02*
D03*
X5585Y5055D02*
D03*
D31*
X4010Y6210D02*
D03*
X3870D02*
D03*
X4010Y5756D02*
D03*
X3870D02*
D03*
X7880Y5670D02*
D03*
X8020D02*
D03*
X7880Y5800D02*
D03*
X8020D02*
D03*
X7880Y5925D02*
D03*
X8020D02*
D03*
X7880Y6050D02*
D03*
X8020D02*
D03*
X7880Y6180D02*
D03*
X8020D02*
D03*
D32*
X5113Y4864D02*
D03*
X5396Y5147D02*
D03*
X5227Y5316D02*
D03*
X4944Y5033D02*
D03*
D33*
X3840Y3901D02*
D03*
Y3729D02*
D03*
X5746Y3901D02*
D03*
Y3729D02*
D03*
X4796Y3901D02*
D03*
Y3729D02*
D03*
X3910Y8646D02*
D03*
Y8475D02*
D03*
X4650Y8467D02*
D03*
Y8296D02*
D03*
X7900Y8596D02*
D03*
Y8425D02*
D03*
X7151Y8436D02*
D03*
Y8264D02*
D03*
D34*
X6919Y2500D02*
D03*
X7119D02*
D03*
X7419D02*
D03*
X6319D02*
D03*
X7019D02*
D03*
X6119D02*
D03*
X7219D02*
D03*
X5919D02*
D03*
X5619D02*
D03*
X5519D02*
D03*
X5819D02*
D03*
X6019D02*
D03*
X6519D02*
D03*
X6419D02*
D03*
X6819D02*
D03*
X5719D02*
D03*
X6219D02*
D03*
D35*
X7319Y2550D02*
D03*
D36*
X7410Y4580D02*
D03*
X7270D02*
D03*
X7586D02*
D03*
X7726D02*
D03*
X5820Y9110D02*
D03*
X5960D02*
D03*
D37*
X5725Y9350D02*
D03*
X6075D02*
D03*
D38*
X5900Y9300D02*
D03*
D39*
X7450Y9200D02*
D03*
X8350D02*
D03*
X3450D02*
D03*
X4350D02*
D03*
D40*
X7900Y9250D02*
D03*
X3900D02*
D03*
D41*
X5402Y8356D02*
D03*
X6353Y8350D02*
D03*
X6349Y7917D02*
D03*
X5398Y7923D02*
D03*
X6960Y9000D02*
D03*
X5180D02*
D03*
D42*
X5772Y7097D02*
D03*
X5899Y6970D02*
D03*
X6026Y7097D02*
D03*
D43*
X6610Y9000D02*
D03*
X4830D02*
D03*
D44*
X8510Y7300D02*
D03*
X3290D02*
D03*
D45*
X7515Y8075D02*
D03*
X7610Y7985D02*
D03*
Y8075D02*
D03*
X7705Y7985D02*
D03*
Y8075D02*
D03*
X7518Y7985D02*
D03*
X4100Y8117D02*
D03*
X4195Y8026D02*
D03*
Y8117D02*
D03*
X4290Y8026D02*
D03*
Y8117D02*
D03*
X4103Y8026D02*
D03*
D46*
X8510Y7525D02*
D03*
X8735Y7300D02*
D03*
X8285D02*
D03*
X8510Y7075D02*
D03*
X8660Y7150D02*
D03*
X8360D02*
D03*
X8685Y7450D02*
D03*
X8360D02*
D03*
X3290Y7525D02*
D03*
X3515Y7300D02*
D03*
X3065D02*
D03*
X3290Y7075D02*
D03*
X3440Y7150D02*
D03*
X3140D02*
D03*
X3465Y7450D02*
D03*
X3140D02*
D03*
M02*
