G04*
G04 #@! TF.GenerationSoftware,Altium Limited,Altium Designer,19.0.15 (446)*
G04*
G04 Layer_Physical_Order=1*
G04 Layer_Color=255*
%FSLAX42Y42*%
%MOMM*%
G71*
G01*
G75*
%ADD12C,0.15*%
%ADD47C,0.25*%
%ADD48C,0.25*%
%ADD49C,1.00*%
%ADD50R,0.65X1.20*%
%ADD51R,0.48X0.80*%
%ADD52R,0.35X0.80*%
%ADD53R,2.50X1.58*%
%ADD54R,1.00X1.00*%
%ADD55R,2.25X1.95*%
%ADD56R,1.00X1.00*%
%ADD57R,0.85X0.40*%
%ADD58R,1.60X0.80*%
%ADD59R,3.00X2.10*%
G04:AMPARAMS|DCode=60|XSize=0.25mm|YSize=1.2mm|CornerRadius=0mm|HoleSize=0mm|Usage=FLASHONLY|Rotation=135.000|XOffset=0mm|YOffset=0mm|HoleType=Round|Shape=Round|*
%AMOVALD60*
21,1,0.95,0.25,0.00,0.00,225.0*
1,1,0.25,0.34,0.34*
1,1,0.25,-0.34,-0.34*
%
%ADD60OVALD60*%

G04:AMPARAMS|DCode=61|XSize=0.25mm|YSize=1.2mm|CornerRadius=0mm|HoleSize=0mm|Usage=FLASHONLY|Rotation=45.000|XOffset=0mm|YOffset=0mm|HoleType=Round|Shape=Round|*
%AMOVALD61*
21,1,0.95,0.25,0.00,0.00,135.0*
1,1,0.25,0.34,-0.34*
1,1,0.25,-0.34,0.34*
%
%ADD61OVALD61*%

%ADD62R,0.80X0.80*%
G04:AMPARAMS|DCode=63|XSize=0.9mm|YSize=0.7mm|CornerRadius=0mm|HoleSize=0mm|Usage=FLASHONLY|Rotation=45.000|XOffset=0mm|YOffset=0mm|HoleType=Round|Shape=Rectangle|*
%AMROTATEDRECTD63*
4,1,4,-0.07,-0.57,-0.57,-0.07,0.07,0.57,0.57,0.07,-0.07,-0.57,0.0*
%
%ADD63ROTATEDRECTD63*%

%ADD64R,0.90X0.70*%
%ADD65P,1.41X4X180.0*%
%ADD66R,0.70X0.40*%
G04:AMPARAMS|DCode=67|XSize=1.8mm|YSize=1.2mm|CornerRadius=0mm|HoleSize=0mm|Usage=FLASHONLY|Rotation=45.000|XOffset=0mm|YOffset=0mm|HoleType=Round|Shape=Rectangle|*
%AMROTATEDRECTD67*
4,1,4,-0.21,-1.06,-1.06,-0.21,0.21,1.06,1.06,0.21,-0.21,-1.06,0.0*
%
%ADD67ROTATEDRECTD67*%

%ADD68R,1.42X1.19*%
%ADD69R,0.70X4.20*%
%ADD70R,0.70X3.20*%
%ADD71R,0.70X0.90*%
%ADD72R,1.50X1.00*%
%ADD73R,1.00X0.90*%
%ADD74R,3.00X5.00*%
%ADD75R,1.20X4.00*%
%ADD76C,0.50*%
%ADD77C,0.40*%
%ADD78C,0.70*%
%ADD79C,0.80*%
%ADD80C,0.20*%
%ADD81C,1.20*%
%ADD82C,1.00*%
%ADD83C,2.00*%
%ADD84R,2.00X2.00*%
%ADD85C,6.00*%
%ADD86C,0.70*%
%ADD87C,0.50*%
%ADD88C,0.60*%
%ADD89C,0.80*%
%ADD90C,0.90*%
G36*
X7733Y3990D02*
X7632Y3889D01*
X7619Y3894D01*
Y4225D01*
X7733D01*
Y3990D01*
D02*
G37*
G36*
X7553Y3890D02*
X7452Y3789D01*
X7439Y3794D01*
Y4225D01*
X7553D01*
Y3890D01*
D02*
G37*
G36*
X3660Y3770D02*
X3430D01*
Y4210D01*
X3660D01*
Y3770D01*
D02*
G37*
G36*
X7373Y3790D02*
X7271Y3687D01*
X7259Y3694D01*
X7259Y3696D01*
Y4225D01*
X7373D01*
Y3790D01*
D02*
G37*
G36*
X4143Y3495D02*
X4240D01*
Y3380D01*
X4338Y3281D01*
X5496D01*
X5562Y3215D01*
Y3171D01*
X5550Y3167D01*
X5544Y3175D01*
X5533Y3183D01*
X5532Y3183D01*
Y3150D01*
Y3117D01*
X5533Y3117D01*
X5544Y3125D01*
X5550Y3133D01*
X5562Y3129D01*
Y3071D01*
X5550Y3067D01*
X5544Y3075D01*
X5533Y3083D01*
X5532Y3083D01*
Y3050D01*
X5519D01*
Y3037D01*
X5486D01*
X5486Y3036D01*
X5494Y3025D01*
X5497Y3023D01*
X5493Y3010D01*
X5440D01*
X5400Y3050D01*
X4090D01*
X4020Y3120D01*
Y3495D01*
X4117D01*
Y3592D01*
X4143D01*
Y3495D01*
D02*
G37*
G36*
X8900Y3000D02*
X7252D01*
Y3160D01*
X8066Y3974D01*
X8073Y3984D01*
X8076Y3997D01*
Y4140D01*
X8095D01*
Y4300D01*
X7990D01*
Y4140D01*
X8009D01*
Y4011D01*
X7196Y3197D01*
X7188Y3186D01*
X7186Y3174D01*
Y3000D01*
X6452D01*
Y3135D01*
X6684Y3367D01*
X7190D01*
X7203Y3369D01*
X7213Y3377D01*
X7790Y3953D01*
X7797Y3964D01*
X7799Y3976D01*
Y4225D01*
X7831D01*
Y4335D01*
Y4475D01*
X7701D01*
Y4461D01*
X7651D01*
Y4475D01*
X7627D01*
Y4515D01*
X7701D01*
Y4580D01*
Y4645D01*
X7531D01*
Y4515D01*
X7546D01*
Y4475D01*
X7521D01*
Y4461D01*
X7471D01*
Y4475D01*
X7451D01*
Y4515D01*
X7465D01*
Y4645D01*
X7215D01*
Y4626D01*
X7170D01*
X7152Y4622D01*
X7138Y4612D01*
X7128Y4598D01*
X7124Y4580D01*
X7128Y4562D01*
X7138Y4548D01*
X7152Y4538D01*
X7170Y4534D01*
X7215D01*
Y4515D01*
X7369D01*
Y4475D01*
X7341D01*
Y4461D01*
X7291D01*
Y4475D01*
X7161D01*
Y4365D01*
Y4225D01*
X7193D01*
Y3710D01*
X7076Y3593D01*
X6530D01*
X6517Y3591D01*
X6507Y3583D01*
X6096Y3172D01*
X6088Y3162D01*
X6086Y3149D01*
Y3000D01*
X5975D01*
Y3150D01*
X5975Y3150D01*
Y3258D01*
X6079Y3362D01*
X6091Y3380D01*
X6095Y3402D01*
Y3470D01*
X6172Y3470D01*
Y3705D01*
Y3729D01*
X6167Y3734D01*
X6172Y3745D01*
X6172D01*
Y3838D01*
X6039D01*
X5907D01*
Y3756D01*
X5898Y3747D01*
Y3626D01*
X5817D01*
Y3650D01*
X5837D01*
Y3808D01*
X5837Y3809D01*
Y3821D01*
X5837Y3822D01*
Y3980D01*
X5755D01*
X5746Y3981D01*
X5537D01*
Y4050D01*
X5534Y4071D01*
X5526Y4090D01*
X5513Y4107D01*
X5497Y4120D01*
X5477Y4128D01*
X5456Y4131D01*
X5436Y4128D01*
X5416Y4120D01*
X5399Y4107D01*
X5387Y4090D01*
X5378Y4071D01*
X5376Y4050D01*
Y3980D01*
X5324Y3980D01*
Y3745D01*
Y3721D01*
X5329Y3716D01*
X5324Y3705D01*
X5324D01*
Y3612D01*
X5589D01*
Y3694D01*
X5598Y3703D01*
Y3820D01*
X5651D01*
X5655Y3809D01*
X5655Y3807D01*
Y3650D01*
X5676D01*
Y3555D01*
X5676Y3550D01*
Y3485D01*
Y3460D01*
X5746D01*
X5816D01*
Y3484D01*
X5889D01*
X5898Y3475D01*
X5898Y3471D01*
X5900Y3469D01*
X5910Y3469D01*
X5974Y3469D01*
X5983Y3460D01*
Y3425D01*
X5879Y3321D01*
X5867Y3303D01*
X5863Y3281D01*
Y3150D01*
X5863Y3150D01*
Y3050D01*
X5863Y3050D01*
X5863Y3050D01*
Y3000D01*
X5775D01*
Y3150D01*
X5775Y3150D01*
Y3201D01*
X5771Y3222D01*
X5759Y3241D01*
X5600Y3400D01*
X5581Y3412D01*
X5560Y3416D01*
X5173D01*
X5139Y3450D01*
Y3472D01*
X5215Y3472D01*
Y3708D01*
Y3731D01*
X5211Y3736D01*
X5215Y3747D01*
X5215D01*
Y3840D01*
X5083D01*
X4950D01*
Y3759D01*
X4942Y3750D01*
Y3636D01*
X4867D01*
Y3650D01*
X4887D01*
Y3808D01*
X4887Y3809D01*
Y3821D01*
X4887Y3822D01*
Y3980D01*
X4805D01*
X4796Y3981D01*
X4578D01*
Y4050D01*
X4575Y4071D01*
X4567Y4090D01*
X4554Y4107D01*
X4538Y4120D01*
X4518Y4128D01*
X4497Y4131D01*
X4477Y4128D01*
X4457Y4120D01*
X4440Y4107D01*
X4428Y4090D01*
X4419Y4071D01*
X4417Y4050D01*
Y3980D01*
X4365Y3980D01*
Y3745D01*
Y3721D01*
X4370Y3716D01*
X4365Y3705D01*
X4365D01*
Y3612D01*
X4630D01*
Y3694D01*
X4639Y3703D01*
Y3820D01*
X4701D01*
X4705Y3809D01*
X4705Y3807D01*
Y3650D01*
X4726D01*
Y3565D01*
X4726Y3560D01*
Y3495D01*
Y3470D01*
X4796D01*
X4866D01*
Y3494D01*
X4933D01*
X4942Y3485D01*
X4942Y3473D01*
X4944Y3471D01*
X4953Y3471D01*
X5018Y3472D01*
X5027Y3463D01*
Y3427D01*
X5031Y3406D01*
X5043Y3388D01*
X5110Y3320D01*
X5119Y3315D01*
X5115Y3302D01*
X4347D01*
X4260Y3388D01*
Y3475D01*
X4262D01*
Y3620D01*
Y3750D01*
Y3842D01*
X4130D01*
X3997D01*
Y3750D01*
Y3636D01*
X3911D01*
Y3650D01*
X3931D01*
Y3808D01*
X3931Y3809D01*
Y3821D01*
X3931Y3822D01*
Y3980D01*
X3849D01*
X3840Y3981D01*
X3680D01*
Y4036D01*
X3681Y4040D01*
X3680Y4044D01*
Y4166D01*
X3681Y4170D01*
X3680Y4174D01*
Y4210D01*
X3679Y4218D01*
X3674Y4224D01*
X3668Y4229D01*
X3660Y4230D01*
X3624D01*
X3620Y4231D01*
X3616Y4230D01*
X3474D01*
X3470Y4231D01*
X3466Y4230D01*
X3430D01*
X3422Y4229D01*
X3416Y4224D01*
X3411Y4218D01*
X3410Y4210D01*
Y4174D01*
X3409Y4170D01*
X3410Y4166D01*
Y4044D01*
X3409Y4040D01*
X3410Y4036D01*
Y3980D01*
X3409Y3980D01*
Y3721D01*
X3414Y3716D01*
X3417Y3705D01*
X3417D01*
X3417Y3705D01*
Y3612D01*
X3683D01*
Y3705D01*
Y3820D01*
X3744D01*
X3749Y3809D01*
X3749Y3807D01*
Y3650D01*
X3769D01*
Y3565D01*
X3770Y3560D01*
Y3495D01*
Y3470D01*
X3840D01*
X3910D01*
Y3494D01*
X3997D01*
Y3475D01*
X4000D01*
Y3120D01*
X4000Y3120D01*
X4001Y3112D01*
X4006Y3106D01*
X4006Y3106D01*
X4049Y3062D01*
X4045Y3050D01*
X2900D01*
Y9500D01*
X8900D01*
Y3000D01*
D02*
G37*
G36*
X5663Y3178D02*
Y3150D01*
X5663Y3150D01*
Y3050D01*
X5663Y3050D01*
X5663Y3050D01*
Y3000D01*
X5575D01*
Y3055D01*
X5575Y3055D01*
X5576Y3056D01*
X5577Y3056D01*
X5579Y3059D01*
X5580Y3061D01*
X5581Y3062D01*
X5581Y3063D01*
X5582Y3066D01*
X5583Y3069D01*
X5583Y3070D01*
X5583Y3071D01*
Y3129D01*
X5583Y3130D01*
X5583Y3131D01*
X5582Y3134D01*
X5581Y3137D01*
X5581Y3138D01*
X5580Y3139D01*
X5579Y3141D01*
X5577Y3143D01*
X5577Y3148D01*
X5577Y3149D01*
Y3151D01*
X5577Y3154D01*
X5577Y3157D01*
X5579Y3159D01*
X5580Y3161D01*
X5581Y3162D01*
X5581Y3163D01*
X5582Y3166D01*
X5583Y3169D01*
X5583Y3170D01*
X5583Y3171D01*
Y3215D01*
X5581Y3222D01*
X5577Y3229D01*
X5515Y3291D01*
X5520Y3304D01*
X5537D01*
X5663Y3178D01*
D02*
G37*
%LPC*%
G36*
X5506Y3183D02*
X5505Y3183D01*
X5494Y3175D01*
X5486Y3164D01*
X5486Y3163D01*
X5506D01*
Y3183D01*
D02*
G37*
G36*
Y3137D02*
X5486D01*
X5486Y3136D01*
X5494Y3125D01*
X5505Y3117D01*
X5506Y3117D01*
Y3137D01*
D02*
G37*
G36*
Y3083D02*
X5505Y3083D01*
X5494Y3075D01*
X5486Y3064D01*
X5486Y3063D01*
X5506D01*
Y3083D01*
D02*
G37*
G36*
X5700Y9420D02*
X5630D01*
Y9375D01*
X5700D01*
Y9420D01*
D02*
G37*
G36*
X6170D02*
X5980D01*
Y9372D01*
X5970Y9365D01*
X5833D01*
X5830Y9365D01*
X5820Y9372D01*
Y9420D01*
X5750D01*
Y9350D01*
Y9280D01*
X5817D01*
X5820Y9280D01*
X5830Y9273D01*
Y9254D01*
X5820Y9246D01*
X5819Y9246D01*
X5798Y9242D01*
X5779Y9230D01*
X5767Y9211D01*
X5763Y9190D01*
X5764Y9187D01*
X5765Y9175D01*
X5765Y9175D01*
X5765Y9175D01*
Y9045D01*
X6015D01*
Y9118D01*
X6098Y9202D01*
X6106Y9212D01*
X6108Y9225D01*
Y9280D01*
X6170D01*
Y9420D01*
D02*
G37*
G36*
X6860Y9406D02*
X6842Y9402D01*
X6828Y9392D01*
X6818Y9378D01*
X6814Y9360D01*
X6818Y9342D01*
X6828Y9328D01*
X6842Y9318D01*
X6860Y9314D01*
X6878Y9318D01*
X6892Y9328D01*
X6902Y9342D01*
X6906Y9360D01*
X6902Y9378D01*
X6892Y9392D01*
X6878Y9402D01*
X6860Y9406D01*
D02*
G37*
G36*
X5700Y9325D02*
X5630D01*
Y9280D01*
X5700D01*
Y9325D01*
D02*
G37*
G36*
X8520Y9470D02*
X8375D01*
Y9225D01*
X8520D01*
Y9470D01*
D02*
G37*
G36*
X7620D02*
X7475D01*
Y9225D01*
X7620D01*
Y9470D01*
D02*
G37*
G36*
X3620D02*
X3475D01*
Y9225D01*
X3620D01*
Y9470D01*
D02*
G37*
G36*
X8325D02*
X8180D01*
Y9225D01*
X8325D01*
Y9470D01*
D02*
G37*
G36*
X7425D02*
X7280D01*
Y9225D01*
X7425D01*
Y9470D01*
D02*
G37*
G36*
X3425D02*
X3280D01*
Y9225D01*
X3425D01*
Y9470D01*
D02*
G37*
G36*
X4520D02*
X4375D01*
Y9225D01*
X4520D01*
Y9470D01*
D02*
G37*
G36*
X4325D02*
X4180D01*
Y9225D01*
X4325D01*
Y9470D01*
D02*
G37*
G36*
X8520Y9175D02*
X8375D01*
Y8930D01*
X8520D01*
Y9175D01*
D02*
G37*
G36*
X8325D02*
X8180D01*
Y8930D01*
X8325D01*
Y9175D01*
D02*
G37*
G36*
X7620D02*
X7475D01*
Y8930D01*
X7620D01*
Y9175D01*
D02*
G37*
G36*
X7425D02*
X7280D01*
Y8930D01*
X7425D01*
Y9175D01*
D02*
G37*
G36*
X4520Y9175D02*
X4375D01*
Y8930D01*
X4520D01*
Y9175D01*
D02*
G37*
G36*
X4325D02*
X4180D01*
Y8930D01*
X4325D01*
Y9175D01*
D02*
G37*
G36*
X3620Y9175D02*
X3475D01*
Y8930D01*
X3620D01*
Y9175D01*
D02*
G37*
G36*
X3425D02*
X3280D01*
Y8930D01*
X3425D01*
Y9175D01*
D02*
G37*
G36*
X3755Y8900D02*
X3710D01*
Y8855D01*
X3755D01*
Y8900D01*
D02*
G37*
G36*
X8090Y8840D02*
X8045D01*
Y8795D01*
X8090D01*
Y8840D01*
D02*
G37*
G36*
X3755Y8805D02*
X3710D01*
Y8760D01*
X3755D01*
Y8805D01*
D02*
G37*
G36*
X8090Y8745D02*
X8045D01*
Y8700D01*
X8090D01*
Y8745D01*
D02*
G37*
G36*
X4310Y8626D02*
X4292Y8622D01*
X4278Y8612D01*
X4268Y8598D01*
X4264Y8580D01*
X4268Y8562D01*
X4278Y8548D01*
X4290Y8539D01*
X4288Y8527D01*
X4288Y8526D01*
X4280D01*
Y8482D01*
X4325D01*
X4325Y8525D01*
X4326Y8531D01*
X4328Y8538D01*
X4342Y8548D01*
X4352Y8562D01*
X4356Y8580D01*
X4352Y8598D01*
X4342Y8612D01*
X4328Y8622D01*
X4310Y8626D01*
D02*
G37*
G36*
X3230Y8788D02*
X3195Y8785D01*
X3162Y8775D01*
X3131Y8758D01*
X3104Y8736D01*
X3082Y8709D01*
X3065Y8678D01*
X3055Y8645D01*
X3052Y8610D01*
X3055Y8575D01*
X3065Y8542D01*
X3082Y8511D01*
X3104Y8484D01*
X3131Y8462D01*
X3162Y8445D01*
X3195Y8435D01*
X3230Y8432D01*
X3265Y8435D01*
X3298Y8445D01*
X3329Y8462D01*
X3356Y8484D01*
X3378Y8511D01*
X3395Y8542D01*
X3405Y8575D01*
X3408Y8610D01*
X3405Y8645D01*
X3395Y8678D01*
X3378Y8709D01*
X3356Y8736D01*
X3329Y8758D01*
X3298Y8775D01*
X3265Y8785D01*
X3230Y8788D01*
D02*
G37*
G36*
X3980Y9470D02*
X3820D01*
Y9030D01*
X3844D01*
Y8900D01*
X3805D01*
Y8830D01*
Y8760D01*
X3844D01*
Y8725D01*
X3819D01*
Y8567D01*
X3819Y8566D01*
Y8554D01*
X3819Y8553D01*
Y8395D01*
X3854D01*
Y8360D01*
X3815D01*
Y8290D01*
Y8220D01*
X3864D01*
Y8185D01*
X3845D01*
Y8075D01*
Y7935D01*
X3860D01*
X3865Y7922D01*
X3777Y7833D01*
X3769Y7823D01*
X3767Y7810D01*
Y7775D01*
X3735D01*
Y7665D01*
Y7605D01*
X3800D01*
X3865D01*
Y7635D01*
Y7775D01*
X3833D01*
Y7796D01*
X3933Y7897D01*
X3941Y7907D01*
X3943Y7920D01*
Y7935D01*
X3975D01*
Y7957D01*
X3990D01*
X4019Y7927D01*
Y7870D01*
X4087D01*
Y7832D01*
X4035Y7780D01*
X4025Y7775D01*
Y7775D01*
X4025Y7775D01*
X3895D01*
Y7665D01*
Y7525D01*
X3927D01*
Y7442D01*
X3929Y7429D01*
X3937Y7418D01*
X3942Y7413D01*
Y7351D01*
X3933Y7338D01*
X3929Y7320D01*
X3933Y7302D01*
X3943Y7288D01*
X3957Y7278D01*
X3975Y7274D01*
X3993Y7278D01*
X4007Y7288D01*
X4017Y7302D01*
X4021Y7320D01*
X4017Y7338D01*
X4008Y7351D01*
Y7426D01*
X4006Y7439D01*
X3998Y7450D01*
X3993Y7455D01*
Y7525D01*
X4025D01*
Y7635D01*
Y7687D01*
X4035Y7689D01*
X4045Y7697D01*
X4115Y7767D01*
X4126Y7763D01*
X4128Y7762D01*
X4138Y7748D01*
X4152Y7738D01*
X4170Y7734D01*
X4188Y7738D01*
X4202Y7748D01*
X4211Y7760D01*
X4225Y7764D01*
X4292Y7697D01*
X4302Y7689D01*
X4315Y7687D01*
X4345D01*
Y7525D01*
X4377D01*
Y7455D01*
X4372Y7450D01*
X4364Y7439D01*
X4362Y7426D01*
Y7351D01*
X4353Y7338D01*
X4349Y7320D01*
X4353Y7302D01*
X4363Y7288D01*
X4377Y7278D01*
X4395Y7274D01*
X4413Y7278D01*
X4427Y7288D01*
X4437Y7302D01*
X4441Y7320D01*
X4437Y7338D01*
X4428Y7351D01*
Y7413D01*
X4433Y7418D01*
X4441Y7429D01*
X4443Y7442D01*
Y7525D01*
X4475D01*
Y7665D01*
Y7775D01*
X4345D01*
Y7753D01*
X4329D01*
X4279Y7803D01*
X4279Y7806D01*
X4290Y7817D01*
X4390D01*
X4403Y7819D01*
X4413Y7827D01*
X4493Y7907D01*
X4501Y7917D01*
X4503Y7930D01*
Y7935D01*
X4527D01*
Y7775D01*
X4495D01*
Y7665D01*
Y7605D01*
X4560D01*
X4625D01*
Y7635D01*
Y7775D01*
X4593D01*
Y7970D01*
X4591Y7983D01*
X4583Y7993D01*
X4563Y8013D01*
X4553Y8021D01*
X4540Y8023D01*
X4535D01*
Y8084D01*
X4580D01*
Y8060D01*
X4745D01*
Y8130D01*
Y8200D01*
X4696D01*
Y8217D01*
X4741D01*
Y8375D01*
X4741Y8375D01*
Y8388D01*
X4741Y8388D01*
Y8434D01*
X4770D01*
Y8385D01*
X4910D01*
Y8410D01*
Y8550D01*
X4876D01*
Y8880D01*
X4950D01*
Y9120D01*
X4710D01*
Y8880D01*
X4784D01*
Y8550D01*
X4770D01*
Y8526D01*
X4741D01*
Y8546D01*
X4559D01*
Y8388D01*
X4559Y8388D01*
Y8375D01*
X4559Y8375D01*
Y8217D01*
X4604D01*
Y8200D01*
X4580D01*
Y8176D01*
X4535D01*
Y8185D01*
X4514D01*
X4444Y8254D01*
X4444Y8254D01*
X4438Y8259D01*
X4430Y8260D01*
X4358D01*
Y8273D01*
X4319D01*
X4318Y8286D01*
X4328Y8288D01*
X4342Y8298D01*
X4352Y8312D01*
X4356Y8330D01*
X4352Y8348D01*
X4342Y8362D01*
X4328Y8372D01*
X4320Y8374D01*
X4322Y8386D01*
X4325D01*
Y8432D01*
X4255D01*
Y8457D01*
X4230D01*
Y8526D01*
X4196D01*
Y8580D01*
X4192Y8598D01*
X4182Y8612D01*
X4168Y8622D01*
X4150Y8626D01*
X4132Y8622D01*
X4118Y8612D01*
X4108Y8598D01*
X4104Y8580D01*
Y8526D01*
X4065D01*
Y8386D01*
X4121D01*
X4125Y8382D01*
X4122Y8365D01*
X4118Y8362D01*
X4108Y8348D01*
X4106Y8342D01*
X4103Y8330D01*
X4095Y8332D01*
X3980Y8332D01*
Y8360D01*
X3966D01*
Y8395D01*
X4001D01*
Y8553D01*
X4001Y8554D01*
Y8566D01*
X4001Y8567D01*
Y8725D01*
X3956D01*
Y8760D01*
X3970D01*
Y8900D01*
X3956D01*
Y9030D01*
X3980D01*
Y9470D01*
D02*
G37*
G36*
X7980D02*
X7820D01*
Y9030D01*
X7844D01*
Y8840D01*
X7830D01*
Y8700D01*
X7844D01*
Y8675D01*
X7809D01*
Y8517D01*
X7809Y8516D01*
Y8504D01*
X7809Y8503D01*
Y8345D01*
X7854D01*
Y8323D01*
X7841Y8320D01*
X7835Y8320D01*
X7835Y8320D01*
X7830Y8320D01*
Y8319D01*
X7827Y8319D01*
X7821Y8314D01*
X7738Y8232D01*
X7718D01*
Y8254D01*
X7732Y8264D01*
X7742Y8278D01*
X7746Y8296D01*
X7742Y8314D01*
X7732Y8328D01*
X7719Y8337D01*
X7719Y8344D01*
X7721Y8350D01*
X7740D01*
Y8395D01*
X7670D01*
Y8445D01*
X7740D01*
Y8486D01*
X7748Y8488D01*
X7762Y8498D01*
X7772Y8512D01*
X7776Y8530D01*
X7772Y8548D01*
X7762Y8562D01*
X7748Y8572D01*
X7730Y8576D01*
X7712Y8572D01*
X7698Y8562D01*
X7688Y8548D01*
X7684Y8530D01*
X7688Y8512D01*
X7694Y8503D01*
X7688Y8490D01*
X7576D01*
Y8530D01*
X7572Y8548D01*
X7562Y8562D01*
X7548Y8572D01*
X7530Y8576D01*
X7512Y8572D01*
X7498Y8562D01*
X7488Y8548D01*
X7484Y8530D01*
Y8490D01*
X7480D01*
Y8350D01*
X7522D01*
X7530Y8337D01*
X7530Y8336D01*
X7518Y8327D01*
X7508Y8313D01*
X7504Y8295D01*
X7500Y8290D01*
X7325Y8290D01*
X7325Y8290D01*
X7317Y8289D01*
X7311Y8284D01*
X7276Y8249D01*
X7271Y8243D01*
X7270Y8235D01*
X7270Y8154D01*
X7261Y8145D01*
X7255D01*
Y8136D01*
X7220D01*
Y8160D01*
X7196D01*
Y8185D01*
X7242D01*
Y8343D01*
X7242Y8344D01*
Y8356D01*
X7242Y8357D01*
Y8515D01*
X7060D01*
Y8481D01*
X7031D01*
Y8510D01*
X7007D01*
Y8649D01*
X7003Y8667D01*
X6993Y8681D01*
X6730Y8945D01*
Y9120D01*
X6490D01*
Y8880D01*
X6665D01*
X6915Y8630D01*
Y8540D01*
X6914Y8535D01*
X6915Y8530D01*
Y8510D01*
X6891D01*
Y8370D01*
Y8345D01*
X7031D01*
Y8390D01*
X7060D01*
Y8357D01*
X7060Y8356D01*
Y8344D01*
X7060Y8343D01*
Y8185D01*
X7104D01*
Y8160D01*
X7055D01*
Y8090D01*
X7030D01*
D01*
X7055D01*
Y8020D01*
X7220D01*
Y8044D01*
X7255D01*
Y7895D01*
X7287D01*
Y7854D01*
X7207Y7773D01*
X7199Y7763D01*
X7197Y7750D01*
Y7735D01*
X7165D01*
Y7625D01*
Y7565D01*
X7230D01*
X7295D01*
Y7595D01*
Y7735D01*
X7280D01*
X7275Y7748D01*
X7343Y7817D01*
X7351Y7827D01*
X7353Y7840D01*
Y7895D01*
X7385D01*
Y7917D01*
X7403D01*
X7435Y7886D01*
Y7829D01*
X7502D01*
Y7786D01*
X7456Y7740D01*
X7445Y7735D01*
Y7735D01*
X7445Y7735D01*
X7315D01*
Y7625D01*
Y7485D01*
X7347D01*
Y7389D01*
X7349Y7376D01*
X7357Y7365D01*
X7357Y7365D01*
Y7291D01*
X7348Y7278D01*
X7344Y7260D01*
X7348Y7242D01*
X7358Y7228D01*
X7372Y7218D01*
X7390Y7214D01*
X7408Y7218D01*
X7422Y7228D01*
X7432Y7242D01*
X7436Y7260D01*
X7432Y7278D01*
X7423Y7291D01*
Y7378D01*
X7423Y7379D01*
X7421Y7391D01*
X7413Y7402D01*
X7413Y7402D01*
X7413Y7402D01*
Y7485D01*
X7445D01*
Y7647D01*
X7455Y7649D01*
X7466Y7657D01*
X7527Y7717D01*
X7540Y7713D01*
X7543Y7702D01*
X7553Y7688D01*
X7567Y7678D01*
X7585Y7674D01*
X7603Y7678D01*
X7617Y7688D01*
X7627Y7702D01*
X7631Y7719D01*
X7633Y7721D01*
X7643Y7725D01*
X7712Y7657D01*
X7722Y7649D01*
X7735Y7647D01*
X7765D01*
Y7485D01*
X7797D01*
Y7402D01*
X7797Y7402D01*
X7797Y7402D01*
Y7402D01*
X7789Y7391D01*
X7787Y7378D01*
Y7291D01*
X7778Y7278D01*
X7774Y7260D01*
X7778Y7242D01*
X7788Y7228D01*
X7802Y7218D01*
X7820Y7214D01*
X7838Y7218D01*
X7852Y7228D01*
X7862Y7242D01*
X7866Y7260D01*
X7862Y7278D01*
X7853Y7291D01*
Y7365D01*
X7853Y7365D01*
X7861Y7376D01*
X7863Y7388D01*
Y7485D01*
X7895D01*
Y7625D01*
Y7735D01*
X7765D01*
Y7713D01*
X7749D01*
X7707Y7754D01*
X7709Y7760D01*
X7713Y7767D01*
X7800D01*
X7813Y7769D01*
X7823Y7777D01*
X7923Y7877D01*
X7931Y7887D01*
X7932Y7895D01*
X7947D01*
Y7735D01*
X7915D01*
Y7625D01*
Y7565D01*
X7980D01*
X8045D01*
Y7595D01*
Y7735D01*
X8013D01*
Y7930D01*
X8011Y7943D01*
X8003Y7953D01*
X7983Y7973D01*
X7973Y7981D01*
X7965Y7982D01*
Y8005D01*
X7965D01*
Y8035D01*
X7965D01*
Y8145D01*
X7965D01*
Y8145D01*
X7946D01*
Y8180D01*
X7995D01*
Y8250D01*
Y8320D01*
X7946D01*
Y8345D01*
X7991D01*
Y8503D01*
X7991Y8504D01*
Y8516D01*
X7991Y8517D01*
Y8675D01*
X7956D01*
Y8700D01*
X7995D01*
Y8770D01*
Y8840D01*
X7956D01*
Y9030D01*
X7980D01*
Y9470D01*
D02*
G37*
G36*
X3765Y8360D02*
X3720D01*
Y8315D01*
X3765D01*
Y8360D01*
D02*
G37*
G36*
X4910Y8335D02*
X4865D01*
Y8290D01*
X4910D01*
Y8335D01*
D02*
G37*
G36*
X4815D02*
X4770D01*
Y8290D01*
X4815D01*
Y8335D01*
D02*
G37*
G36*
X8090Y8320D02*
X8045D01*
Y8275D01*
X8090D01*
Y8320D01*
D02*
G37*
G36*
X7031Y8295D02*
X6986D01*
Y8250D01*
X7031D01*
Y8295D01*
D02*
G37*
G36*
X6936D02*
X6891D01*
Y8250D01*
X6936D01*
Y8295D01*
D02*
G37*
G36*
X3765Y8265D02*
X3720D01*
Y8220D01*
X3765D01*
Y8265D01*
D02*
G37*
G36*
X8090Y8225D02*
X8045D01*
Y8180D01*
X8090D01*
Y8225D01*
D02*
G37*
G36*
X4840Y8200D02*
X4795D01*
Y8155D01*
X4840D01*
Y8200D01*
D02*
G37*
G36*
X7005Y8160D02*
X6960D01*
Y8115D01*
X7005D01*
Y8160D01*
D02*
G37*
G36*
X4840Y8105D02*
X4795D01*
Y8060D01*
X4840D01*
Y8105D01*
D02*
G37*
G36*
X7005Y8065D02*
X6960D01*
Y8020D01*
X7005D01*
Y8065D01*
D02*
G37*
G36*
X4625Y7555D02*
X4585D01*
Y7525D01*
X4625D01*
Y7555D01*
D02*
G37*
G36*
X4535D02*
X4495D01*
Y7525D01*
X4535D01*
Y7555D01*
D02*
G37*
G36*
X3865D02*
X3825D01*
Y7525D01*
X3865D01*
Y7555D01*
D02*
G37*
G36*
X3775D02*
X3735D01*
Y7525D01*
X3775D01*
Y7555D01*
D02*
G37*
G36*
X8045Y7515D02*
X8005D01*
Y7485D01*
X8045D01*
Y7515D01*
D02*
G37*
G36*
X7955D02*
X7915D01*
Y7485D01*
X7955D01*
Y7515D01*
D02*
G37*
G36*
X7295D02*
X7255D01*
Y7485D01*
X7295D01*
Y7515D01*
D02*
G37*
G36*
X7205D02*
X7165D01*
Y7485D01*
X7205D01*
Y7515D01*
D02*
G37*
G36*
X4960Y7256D02*
X4942Y7252D01*
X4928Y7242D01*
X4918Y7228D01*
X4914Y7210D01*
X4918Y7192D01*
X4928Y7178D01*
X4942Y7168D01*
X4960Y7164D01*
X4978Y7168D01*
X4992Y7178D01*
X5002Y7192D01*
X5006Y7210D01*
X5002Y7228D01*
X4992Y7242D01*
X4978Y7252D01*
X4960Y7256D01*
D02*
G37*
G36*
X6026Y7168D02*
X6008Y7165D01*
X5991Y7158D01*
X5976Y7147D01*
X5965Y7132D01*
X5958Y7115D01*
X5955Y7097D01*
X5958Y7079D01*
X5965Y7062D01*
X5976Y7047D01*
X5991Y7036D01*
X6008Y7029D01*
X6026Y7026D01*
X6044Y7029D01*
X6061Y7036D01*
X6076Y7047D01*
X6087Y7062D01*
X6094Y7079D01*
X6097Y7097D01*
X6094Y7115D01*
X6087Y7132D01*
X6076Y7147D01*
X6061Y7158D01*
X6044Y7165D01*
X6026Y7168D01*
D02*
G37*
G36*
X6530Y8606D02*
X6509Y8602D01*
X6490Y8590D01*
X6478Y8571D01*
X6474Y8550D01*
X6478Y8529D01*
X6490Y8510D01*
X6509Y8498D01*
X6530Y8494D01*
X6551Y8498D01*
X6560Y8504D01*
X6731D01*
X6773Y8462D01*
Y7118D01*
X6759Y7104D01*
X6749Y7102D01*
X6730Y7090D01*
X6718Y7071D01*
X6714Y7050D01*
X6718Y7029D01*
X6730Y7010D01*
X6742Y7003D01*
X6738Y6990D01*
X6707D01*
Y6983D01*
X6693D01*
Y7005D01*
X6679D01*
X6672Y7015D01*
X6672Y7018D01*
X6676Y7035D01*
X6672Y7053D01*
X6662Y7067D01*
X6648Y7077D01*
X6630Y7081D01*
X6612Y7077D01*
X6598Y7067D01*
X6588Y7053D01*
X6584Y7035D01*
X6588Y7018D01*
X6588Y7015D01*
X6581Y7005D01*
X6560D01*
Y6895D01*
X6563D01*
Y6865D01*
X6560D01*
Y6755D01*
X6579D01*
Y6730D01*
X6582Y6712D01*
X6592Y6698D01*
X6607Y6688D01*
X6625Y6684D01*
X6642Y6688D01*
X6657Y6698D01*
X6667Y6712D01*
X6671Y6730D01*
Y6755D01*
X6693D01*
Y6917D01*
X6707D01*
Y6910D01*
X6832D01*
Y6990D01*
X6802D01*
X6798Y7003D01*
X6810Y7010D01*
X6822Y7029D01*
X6824Y7039D01*
X6851Y7067D01*
X6861Y7081D01*
X6865Y7099D01*
Y8481D01*
X6861Y8499D01*
X6851Y8513D01*
X6782Y8582D01*
X6768Y8592D01*
X6750Y8596D01*
X6560D01*
X6551Y8602D01*
X6530Y8606D01*
D02*
G37*
G36*
X4895Y7040D02*
X4770D01*
Y6989D01*
X4760Y6981D01*
X4760Y6981D01*
X4743Y6977D01*
X4728Y6967D01*
X4718Y6953D01*
X4714Y6935D01*
X4718Y6917D01*
X4728Y6903D01*
X4743Y6893D01*
X4760Y6889D01*
X4760Y6889D01*
X4770Y6881D01*
Y6830D01*
X4808D01*
Y6870D01*
X4833D01*
Y6895D01*
X4895D01*
Y6895D01*
Y6960D01*
Y7040D01*
D02*
G37*
G36*
X6970Y6990D02*
X6932D01*
Y6975D01*
X6970D01*
Y6990D01*
D02*
G37*
G36*
X5060Y7166D02*
X5039Y7162D01*
X5020Y7150D01*
X5008Y7131D01*
X5004Y7110D01*
X5008Y7089D01*
X5019Y7072D01*
Y7040D01*
X4995D01*
Y6960D01*
X5054D01*
X5058Y6959D01*
X5058Y6959D01*
X5143D01*
Y6903D01*
X5120D01*
Y6910D01*
X4995D01*
Y6830D01*
X5028D01*
X5032Y6817D01*
X5020Y6810D01*
X5008Y6791D01*
X5004Y6770D01*
X5008Y6749D01*
X5017Y6736D01*
Y6710D01*
X5001D01*
X4992Y6722D01*
X4978Y6732D01*
X4960Y6736D01*
X4942Y6732D01*
X4928Y6722D01*
X4918Y6708D01*
X4914Y6690D01*
X4918Y6672D01*
X4928Y6658D01*
X4942Y6648D01*
X4960Y6644D01*
X4978Y6648D01*
X4982Y6651D01*
X4995Y6644D01*
Y6630D01*
X5054D01*
X5058Y6629D01*
X5143D01*
Y6573D01*
X5120D01*
Y6580D01*
X4995D01*
Y6500D01*
X5120D01*
Y6507D01*
X5134D01*
X5143Y6498D01*
X5143Y6485D01*
X5131Y6483D01*
X4050D01*
X4037Y6481D01*
X4027Y6473D01*
X3847Y6293D01*
X3839Y6283D01*
X3837Y6270D01*
Y6250D01*
X3815D01*
Y6243D01*
X3771D01*
X3758Y6241D01*
X3748Y6234D01*
X3722Y6208D01*
X3680D01*
Y6235D01*
X3480D01*
Y6115D01*
X3480D01*
Y6110D01*
X3480D01*
Y5990D01*
X3480D01*
Y5985D01*
X3480D01*
Y5873D01*
X3480Y5865D01*
X3480Y5852D01*
Y5825D01*
X3580D01*
X3680D01*
Y5852D01*
X3680Y5860D01*
X3680Y5870D01*
X3689Y5879D01*
X3700D01*
X3709Y5873D01*
X3730Y5869D01*
X3751Y5873D01*
X3770Y5885D01*
X3782Y5904D01*
X3786Y5925D01*
X3785Y5931D01*
X3797Y5937D01*
X3837Y5897D01*
Y5796D01*
X3815D01*
Y5716D01*
X3863D01*
X3928Y5652D01*
X3938Y5644D01*
X3951Y5642D01*
X4114D01*
X4127Y5644D01*
X4138Y5652D01*
X4597Y6110D01*
X4608Y6106D01*
Y6013D01*
Y5873D01*
X4614D01*
Y5828D01*
X4618Y5807D01*
X4630Y5789D01*
X4648Y5777D01*
X4670Y5772D01*
X4691Y5777D01*
X4709Y5789D01*
X4721Y5807D01*
X4726Y5828D01*
Y5873D01*
X4738D01*
Y6025D01*
X4763D01*
Y5988D01*
Y5963D01*
X4903D01*
Y5988D01*
Y6028D01*
X4912Y6028D01*
X4956Y6039D01*
X4997Y6056D01*
X5036Y6080D01*
X5036Y6080D01*
X5054Y6062D01*
X5146Y6154D01*
X5068Y6232D01*
X4976Y6140D01*
X4981Y6135D01*
X4979Y6122D01*
X4951Y6108D01*
X4916Y6097D01*
X4903Y6105D01*
Y6128D01*
X4763D01*
Y6091D01*
X4738D01*
Y6123D01*
X4626D01*
X4621Y6135D01*
X4844Y6358D01*
X5240D01*
X5398Y6200D01*
X5392Y6188D01*
X5389Y6189D01*
X5328D01*
X5276Y6240D01*
X5184Y6148D01*
X5200Y6133D01*
X5183Y6117D01*
X5167Y6133D01*
X5075Y6041D01*
X5153Y5963D01*
X5245Y6055D01*
X5230Y6070D01*
X5246Y6086D01*
X5262Y6071D01*
X5314Y6122D01*
X5330D01*
X5334Y6114D01*
X5335Y6110D01*
X5325Y6095D01*
X5322Y6082D01*
X5311Y6071D01*
X5306Y6072D01*
X5288Y6069D01*
X5274Y6059D01*
X5264Y6044D01*
X5260Y6026D01*
X5264Y6009D01*
X5274Y5994D01*
X5288Y5984D01*
X5305Y5981D01*
X5308Y5978D01*
X5306Y5962D01*
X5300Y5957D01*
X5290Y5943D01*
X5286Y5925D01*
X5290Y5907D01*
X5300Y5893D01*
X5314Y5883D01*
X5332Y5879D01*
X5350Y5883D01*
X5359Y5886D01*
X5423Y5822D01*
X5425Y5806D01*
X5413Y5794D01*
Y5778D01*
X5431Y5760D01*
X5429Y5744D01*
X5426Y5742D01*
X5359Y5674D01*
X5327Y5642D01*
X5269D01*
X5256Y5640D01*
X5252Y5637D01*
X5225Y5664D01*
X5221Y5660D01*
X5205Y5661D01*
X5199Y5670D01*
X5180Y5683D01*
X5159Y5687D01*
X5137Y5683D01*
X5119Y5670D01*
X5107Y5652D01*
X5103Y5631D01*
X5107Y5609D01*
X5119Y5591D01*
X5128Y5585D01*
X5130Y5569D01*
X5108Y5547D01*
X5158Y5498D01*
X5207Y5448D01*
X5225Y5466D01*
X5324Y5565D01*
Y5565D01*
X5328Y5576D01*
X5340D01*
X5353Y5579D01*
X5364Y5586D01*
X5376Y5598D01*
X5392Y5596D01*
X5394Y5592D01*
X5405Y5585D01*
X5417Y5582D01*
X5420Y5580D01*
X5422Y5568D01*
X5429Y5557D01*
X5440Y5550D01*
X5453Y5547D01*
X5455Y5545D01*
X5457Y5532D01*
X5465Y5521D01*
X5468Y5519D01*
X5470Y5503D01*
X5426Y5458D01*
X5336D01*
X5323Y5456D01*
X5312Y5449D01*
X5282Y5418D01*
X5249Y5451D01*
X5248D01*
X5183Y5386D01*
X5161D01*
X5156Y5397D01*
X5172Y5413D01*
X5140Y5445D01*
X5108Y5413D01*
X5124Y5397D01*
X5119Y5386D01*
X5078D01*
X5012Y5451D01*
X4913Y5352D01*
X4896Y5335D01*
X4945Y5285D01*
X4995Y5236D01*
X5012Y5253D01*
X5078Y5319D01*
X5100D01*
X5105Y5308D01*
X4965Y5168D01*
X4905Y5108D01*
X4961Y5051D01*
X5018Y4995D01*
X5078Y5055D01*
X5090Y5043D01*
X5094Y5046D01*
X5106Y5041D01*
Y4970D01*
X4979Y4843D01*
X5092Y4729D01*
X5175Y4804D01*
X5302D01*
X5368Y4739D01*
X5452Y4823D01*
X5484Y4855D01*
X5435Y4905D01*
X5385Y4954D01*
X5353Y4922D01*
X5302Y4871D01*
X5266D01*
X5261Y4883D01*
X5380Y4990D01*
X5380Y5007D01*
X5382Y5019D01*
X5435Y5072D01*
X5379Y5129D01*
X5396Y5147D01*
X5379Y5164D01*
X5456Y5242D01*
X5424Y5274D01*
X5423Y5291D01*
X5553Y5421D01*
X5568Y5419D01*
X5571Y5415D01*
X5581Y5408D01*
X5594Y5406D01*
X5596Y5403D01*
X5599Y5391D01*
X5606Y5380D01*
X5610Y5378D01*
X5612Y5362D01*
X5573Y5323D01*
X5565Y5312D01*
X5563Y5299D01*
Y5214D01*
X5565Y5201D01*
X5573Y5191D01*
X5597Y5166D01*
X5571Y5140D01*
X5553Y5122D01*
X5603Y5073D01*
X5652Y5023D01*
X5675Y5046D01*
X5691Y5044D01*
X5698Y5033D01*
X5716Y5021D01*
X5737Y5017D01*
X5759Y5021D01*
X5777Y5033D01*
X5789Y5051D01*
X5793Y5073D01*
X5789Y5094D01*
X5777Y5112D01*
X5774Y5114D01*
X5772Y5129D01*
X5787Y5130D01*
X5911Y5007D01*
X5922Y4999D01*
X5935Y4997D01*
X5971D01*
X5984Y4988D01*
X6002Y4984D01*
X6020Y4988D01*
X6034Y4998D01*
X6044Y5012D01*
X6048Y5030D01*
X6044Y5048D01*
X6034Y5062D01*
X6020Y5072D01*
X6002Y5076D01*
X5984Y5072D01*
X5971Y5063D01*
X5948D01*
X5802Y5209D01*
Y5247D01*
X5862Y5306D01*
X5862Y5306D01*
X5878Y5308D01*
X5891Y5296D01*
X5912D01*
X5925Y5309D01*
X5937Y5308D01*
X5938Y5306D01*
X6033Y5211D01*
Y5203D01*
X6024Y5190D01*
X6020Y5172D01*
X6024Y5154D01*
X6034Y5140D01*
X6049Y5130D01*
X6066Y5126D01*
X6084Y5130D01*
X6085Y5131D01*
X6097Y5125D01*
Y5061D01*
X6087Y5048D01*
X6084Y5030D01*
X6087Y5012D01*
X6097Y4998D01*
X6112Y4988D01*
X6130Y4984D01*
X6147Y4988D01*
X6162Y4998D01*
X6172Y5012D01*
X6176Y5030D01*
X6172Y5048D01*
X6163Y5061D01*
Y5232D01*
X6160Y5245D01*
X6153Y5255D01*
X6117Y5291D01*
X6120Y5307D01*
X6123Y5309D01*
X6130Y5320D01*
X6133Y5333D01*
X6135Y5335D01*
X6148Y5337D01*
X6159Y5345D01*
X6161Y5348D01*
X6177Y5350D01*
X6182Y5345D01*
X6193Y5338D01*
X6205Y5336D01*
X6210D01*
X6224Y5326D01*
X6241Y5323D01*
X6259Y5326D01*
X6274Y5336D01*
X6274Y5337D01*
X6286Y5338D01*
X6343Y5281D01*
X6435Y5373D01*
X6358Y5451D01*
X6335Y5428D01*
X6295Y5468D01*
X6297Y5484D01*
X6300Y5486D01*
X6307Y5497D01*
X6310Y5510D01*
X6312Y5512D01*
X6325Y5514D01*
X6335Y5521D01*
X6343Y5532D01*
X6345Y5545D01*
X6347Y5547D01*
X6360Y5550D01*
X6371Y5557D01*
X6378Y5568D01*
X6380Y5580D01*
X6383Y5582D01*
X6395Y5585D01*
X6404Y5591D01*
X6409Y5592D01*
X6419Y5589D01*
X6427Y5578D01*
X6442Y5568D01*
X6459Y5564D01*
X6477Y5568D01*
X6492Y5578D01*
X6502Y5592D01*
X6505Y5610D01*
X6502Y5628D01*
X6492Y5642D01*
X6477Y5652D01*
X6461Y5656D01*
X6408Y5708D01*
X6407Y5709D01*
X6374Y5742D01*
X6372Y5743D01*
X6371Y5755D01*
X6384Y5769D01*
Y5790D01*
X6373Y5802D01*
X6374Y5818D01*
X6374Y5818D01*
X6446Y5890D01*
X6462Y5893D01*
X6477Y5903D01*
X6487Y5918D01*
X6490Y5936D01*
X6487Y5953D01*
X6477Y5968D01*
X6462Y5978D01*
X6444Y5981D01*
X6427Y5978D01*
X6418Y5972D01*
X6416Y5971D01*
X6408Y5976D01*
X6407Y5991D01*
X7103Y6688D01*
X7111Y6699D01*
X7113Y6711D01*
Y6854D01*
X7122Y6867D01*
X7126Y6885D01*
X7122Y6903D01*
X7112Y6917D01*
X7098Y6927D01*
X7080Y6931D01*
X7070Y6929D01*
X7058Y6938D01*
X7057Y6938D01*
Y6990D01*
X7020D01*
Y6950D01*
X6995D01*
Y6925D01*
X6932D01*
Y6910D01*
Y6845D01*
Y6780D01*
X7047D01*
Y6725D01*
X6354Y6032D01*
X6338Y6034D01*
X6335Y6039D01*
X6325Y6046D01*
X6312Y6048D01*
X6310Y6050D01*
X6307Y6063D01*
X6300Y6074D01*
X6289Y6081D01*
X6277Y6084D01*
X6274Y6086D01*
X6272Y6099D01*
X6265Y6109D01*
X6254Y6116D01*
X6241Y6119D01*
X6239Y6121D01*
X6236Y6134D01*
X6229Y6145D01*
X6219Y6152D01*
X6206Y6154D01*
X6204Y6157D01*
X6201Y6169D01*
X6194Y6180D01*
X6183Y6187D01*
X6170Y6190D01*
X6168Y6192D01*
X6166Y6205D01*
X6159Y6215D01*
X6148Y6223D01*
X6135Y6225D01*
X6133Y6227D01*
X6130Y6240D01*
X6123Y6251D01*
X6112Y6258D01*
X6100Y6260D01*
X6098Y6263D01*
X6095Y6275D01*
X6088Y6286D01*
X6077Y6293D01*
X6064Y6296D01*
X6062Y6298D01*
X6060Y6311D01*
X6052Y6321D01*
X6042Y6329D01*
X6029Y6331D01*
X6016Y6329D01*
X6006Y6321D01*
X5938Y6254D01*
X5938Y6254D01*
X5922Y6253D01*
X5912Y6263D01*
X5886D01*
X5872Y6248D01*
X5862Y6254D01*
X5794Y6321D01*
X5784Y6329D01*
X5771Y6331D01*
X5758Y6329D01*
X5748Y6321D01*
X5740Y6311D01*
X5738Y6298D01*
X5736Y6296D01*
X5723Y6293D01*
X5712Y6286D01*
X5705Y6275D01*
X5702Y6263D01*
X5700Y6260D01*
X5688Y6258D01*
X5677Y6251D01*
X5670Y6240D01*
X5667Y6227D01*
X5665Y6225D01*
X5652Y6223D01*
X5641Y6215D01*
X5634Y6205D01*
X5632Y6192D01*
X5630Y6190D01*
X5617Y6187D01*
X5606Y6180D01*
X5604Y6176D01*
X5588Y6174D01*
X5289Y6473D01*
X5282Y6478D01*
X5278Y6481D01*
X5273Y6489D01*
X5273Y6492D01*
Y6508D01*
X5278Y6509D01*
X5289Y6517D01*
X5317Y6544D01*
X5333Y6542D01*
X5340Y6530D01*
X5359Y6518D01*
X5380Y6514D01*
X5401Y6518D01*
X5420Y6530D01*
X5432Y6549D01*
X5436Y6570D01*
X5432Y6591D01*
X5420Y6610D01*
X5401Y6622D01*
X5380Y6626D01*
X5359Y6622D01*
X5352Y6617D01*
X5341Y6623D01*
Y6724D01*
X5374Y6757D01*
X5429D01*
X5442Y6748D01*
X5460Y6744D01*
X5478Y6748D01*
X5492Y6758D01*
X5502Y6772D01*
X5506Y6790D01*
X5502Y6808D01*
X5493Y6822D01*
X5491Y6825D01*
Y6835D01*
X5493Y6838D01*
X5502Y6852D01*
X5506Y6870D01*
X5502Y6888D01*
X5492Y6902D01*
X5478Y6912D01*
X5460Y6916D01*
X5442Y6912D01*
X5429Y6903D01*
X5273D01*
Y6955D01*
Y7065D01*
X5143D01*
Y7041D01*
X5101D01*
Y7072D01*
X5112Y7089D01*
X5116Y7110D01*
X5112Y7131D01*
X5100Y7150D01*
X5081Y7162D01*
X5060Y7166D01*
D02*
G37*
G36*
X4895Y6845D02*
X4858D01*
Y6830D01*
X4895D01*
Y6845D01*
D02*
G37*
G36*
X6770Y6861D02*
X6766Y6860D01*
X6707D01*
Y6780D01*
X6708D01*
X6716Y6770D01*
X6714Y6760D01*
X6718Y6739D01*
X6730Y6720D01*
X6749Y6708D01*
X6770Y6704D01*
X6791Y6708D01*
X6810Y6720D01*
X6822Y6739D01*
X6826Y6760D01*
X6824Y6770D01*
X6832Y6780D01*
X6832D01*
Y6860D01*
X6774D01*
X6770Y6861D01*
D02*
G37*
G36*
X4895Y6710D02*
X4770D01*
Y6659D01*
X4760Y6651D01*
X4760Y6651D01*
X4743Y6647D01*
X4728Y6637D01*
X4718Y6623D01*
X4714Y6605D01*
X4718Y6587D01*
X4728Y6573D01*
X4743Y6563D01*
X4760Y6559D01*
X4760Y6559D01*
X4770Y6551D01*
Y6500D01*
X4808D01*
Y6540D01*
X4833D01*
Y6565D01*
X4895D01*
Y6565D01*
Y6630D01*
Y6710D01*
D02*
G37*
G36*
X6241Y6866D02*
X6224Y6862D01*
X6209Y6852D01*
X6199Y6838D01*
X6195Y6821D01*
X6174Y6800D01*
X6167Y6789D01*
X6164Y6776D01*
Y6760D01*
X6127D01*
Y6620D01*
Y6595D01*
X6197D01*
X6267D01*
Y6620D01*
Y6760D01*
X6258D01*
X6251Y6773D01*
X6253Y6776D01*
X6259Y6778D01*
X6274Y6788D01*
X6283Y6802D01*
X6287Y6820D01*
X6283Y6838D01*
X6274Y6852D01*
X6259Y6862D01*
X6241Y6866D01*
D02*
G37*
G36*
X8680Y6680D02*
X8535D01*
Y6580D01*
X8680D01*
Y6680D01*
D02*
G37*
G36*
X8485D02*
X8340D01*
Y6580D01*
X8485D01*
Y6680D01*
D02*
G37*
G36*
X4895Y6515D02*
X4858D01*
Y6500D01*
X4895D01*
Y6515D01*
D02*
G37*
G36*
X6267Y6545D02*
X6222D01*
Y6500D01*
X6267D01*
Y6545D01*
D02*
G37*
G36*
X6172D02*
X6127D01*
Y6500D01*
X6172D01*
Y6545D01*
D02*
G37*
G36*
X3460Y6555D02*
X3315D01*
Y6455D01*
X3460D01*
Y6555D01*
D02*
G37*
G36*
X3265D02*
X3120D01*
Y6455D01*
X3265D01*
Y6555D01*
D02*
G37*
G36*
X8680Y6530D02*
X8535D01*
Y6430D01*
X8680D01*
Y6530D01*
D02*
G37*
G36*
X8485D02*
X8340D01*
Y6430D01*
X8485D01*
Y6530D01*
D02*
G37*
G36*
X8320Y6360D02*
X8245D01*
Y6325D01*
X8320D01*
Y6360D01*
D02*
G37*
G36*
X8195D02*
X8120D01*
Y6325D01*
X8195D01*
Y6360D01*
D02*
G37*
G36*
X3460Y6405D02*
X3315D01*
Y6305D01*
X3460D01*
Y6405D01*
D02*
G37*
G36*
X3265D02*
X3120D01*
Y6305D01*
X3265D01*
Y6405D01*
D02*
G37*
G36*
X5177Y6339D02*
X5149Y6311D01*
X5170Y6290D01*
X5198Y6318D01*
X5177Y6339D01*
D02*
G37*
G36*
X5234Y6283D02*
X5205Y6254D01*
X5226Y6233D01*
X5255Y6261D01*
X5234Y6283D01*
D02*
G37*
G36*
X5113Y6276D02*
X5085Y6247D01*
X5106Y6226D01*
X5135Y6254D01*
X5113Y6276D01*
D02*
G37*
G36*
X8320Y6275D02*
X8220D01*
X8120D01*
Y6248D01*
X8120Y6235D01*
X8107Y6224D01*
X8100Y6226D01*
X8082Y6222D01*
X8075Y6220D01*
X8075Y6220D01*
X8075Y6220D01*
X7965D01*
Y6140D01*
X8075D01*
X8075Y6140D01*
X8082Y6138D01*
X8082Y6138D01*
X8100Y6134D01*
X8107Y6136D01*
X8120Y6125D01*
X8120Y6115D01*
Y6105D01*
X8107Y6094D01*
X8100Y6096D01*
X8082Y6092D01*
X8075Y6090D01*
X8075Y6090D01*
X8075Y6090D01*
X7965D01*
Y6010D01*
X8075D01*
X8075Y6010D01*
X8082Y6008D01*
X8082Y6008D01*
X8100Y6004D01*
X8107Y6006D01*
X8120Y5995D01*
Y5980D01*
X8107Y5969D01*
X8100Y5971D01*
X8082Y5967D01*
X8075Y5965D01*
X8075Y5965D01*
X8075Y5965D01*
X7965D01*
Y5885D01*
X8075D01*
X8075Y5885D01*
X8082Y5883D01*
X8082Y5883D01*
X8100Y5879D01*
X8107Y5881D01*
X8120Y5870D01*
Y5855D01*
X8107Y5844D01*
X8100Y5846D01*
X8082Y5842D01*
X8075Y5840D01*
X8075Y5840D01*
X8075Y5840D01*
X7965D01*
Y5760D01*
X8075D01*
X8075Y5760D01*
X8082Y5758D01*
X8082Y5758D01*
X8100Y5754D01*
X8107Y5756D01*
X8120Y5745D01*
Y5740D01*
X8120Y5725D01*
X8107Y5714D01*
X8100Y5716D01*
X8082Y5712D01*
X8075Y5710D01*
X8075Y5710D01*
X8075Y5710D01*
X7965D01*
Y5630D01*
X8075D01*
X8075Y5630D01*
X8082Y5628D01*
X8082Y5628D01*
X8100Y5624D01*
X8107Y5626D01*
X8120Y5615D01*
X8120Y5602D01*
Y5575D01*
X8220D01*
X8320D01*
Y5602D01*
X8320Y5610D01*
X8320Y5623D01*
Y5727D01*
X8320Y5735D01*
X8320Y5748D01*
Y5852D01*
X8320Y5860D01*
X8320Y5873D01*
Y5977D01*
X8320Y5985D01*
X8320Y5998D01*
Y6102D01*
X8320Y6110D01*
X8320Y6123D01*
Y6227D01*
X8320Y6235D01*
X8320Y6248D01*
Y6275D01*
D02*
G37*
G36*
X7935Y6220D02*
X7905D01*
Y6205D01*
X7935D01*
Y6220D01*
D02*
G37*
G36*
X7855D02*
X7825D01*
Y6205D01*
X7855D01*
Y6220D01*
D02*
G37*
G36*
X5170Y6219D02*
X5142Y6191D01*
X5163Y6170D01*
X5191Y6198D01*
X5170Y6219D01*
D02*
G37*
G36*
X7935Y6155D02*
X7905D01*
Y6140D01*
X7935D01*
Y6155D01*
D02*
G37*
G36*
X7855D02*
X7825D01*
Y6140D01*
X7855D01*
Y6155D01*
D02*
G37*
G36*
X7935Y6090D02*
X7905D01*
Y6075D01*
X7935D01*
Y6090D01*
D02*
G37*
G36*
X7855D02*
X7825D01*
Y6075D01*
X7855D01*
Y6090D01*
D02*
G37*
G36*
X7935Y6025D02*
X7905D01*
Y6010D01*
X7935D01*
Y6025D01*
D02*
G37*
G36*
X7855D02*
X7825D01*
Y6010D01*
X7855D01*
Y6025D01*
D02*
G37*
G36*
X7935Y5965D02*
X7905D01*
Y5950D01*
X7935D01*
Y5965D01*
D02*
G37*
G36*
X7855D02*
X7825D01*
Y5950D01*
X7855D01*
Y5965D01*
D02*
G37*
G36*
X7935Y5900D02*
X7905D01*
Y5885D01*
X7935D01*
Y5900D01*
D02*
G37*
G36*
X7855D02*
X7825D01*
Y5885D01*
X7855D01*
Y5900D01*
D02*
G37*
G36*
X4903Y5913D02*
X4858D01*
Y5868D01*
X4903D01*
Y5913D01*
D02*
G37*
G36*
X4808D02*
X4763D01*
Y5868D01*
X4808D01*
Y5913D01*
D02*
G37*
G36*
X7935Y5840D02*
X7905D01*
Y5825D01*
X7935D01*
Y5840D01*
D02*
G37*
G36*
X7855D02*
X7825D01*
Y5825D01*
X7855D01*
Y5840D01*
D02*
G37*
G36*
X7935Y5775D02*
X7905D01*
Y5760D01*
X7935D01*
Y5775D01*
D02*
G37*
G36*
X7855D02*
X7825D01*
Y5760D01*
X7855D01*
Y5775D01*
D02*
G37*
G36*
X5230Y5865D02*
X5209Y5861D01*
X5190Y5849D01*
X5178Y5830D01*
X5174Y5809D01*
X5178Y5787D01*
X5190Y5769D01*
X5209Y5757D01*
X5230Y5753D01*
X5251Y5757D01*
X5270Y5769D01*
X5282Y5787D01*
X5286Y5809D01*
X5282Y5830D01*
X5270Y5849D01*
X5251Y5861D01*
X5230Y5865D01*
D02*
G37*
G36*
X3680Y5775D02*
X3605D01*
Y5740D01*
X3680D01*
Y5775D01*
D02*
G37*
G36*
X3555D02*
X3480D01*
Y5740D01*
X3555D01*
Y5775D01*
D02*
G37*
G36*
X7935Y5710D02*
X7905D01*
Y5695D01*
X7935D01*
Y5710D01*
D02*
G37*
G36*
X7855D02*
X7825D01*
Y5695D01*
X7855D01*
Y5710D01*
D02*
G37*
G36*
X6575Y5807D02*
X6554Y5802D01*
X6535Y5790D01*
X6523Y5772D01*
X6519Y5751D01*
X6523Y5729D01*
X6535Y5711D01*
X6554Y5699D01*
X6575Y5694D01*
X6596Y5699D01*
X6615Y5711D01*
X6627Y5729D01*
X6631Y5751D01*
X6627Y5772D01*
X6615Y5790D01*
X6596Y5802D01*
X6575Y5807D01*
D02*
G37*
G36*
X7935Y5645D02*
X7905D01*
Y5630D01*
X7935D01*
Y5645D01*
D02*
G37*
G36*
X7855D02*
X7825D01*
Y5630D01*
X7855D01*
Y5645D01*
D02*
G37*
G36*
X3460Y5670D02*
X3315D01*
Y5570D01*
X3460D01*
Y5670D01*
D02*
G37*
G36*
X3265D02*
X3120D01*
Y5570D01*
X3265D01*
Y5670D01*
D02*
G37*
G36*
X8320Y5525D02*
X8220D01*
X8120D01*
Y5498D01*
X8120Y5490D01*
X8120Y5478D01*
X8110Y5470D01*
X8105Y5471D01*
X8087Y5467D01*
X8073Y5457D01*
X8063Y5443D01*
X8059Y5425D01*
X8063Y5407D01*
X8073Y5393D01*
X8087Y5383D01*
X8105Y5379D01*
X8110Y5380D01*
X8120Y5372D01*
Y5365D01*
X8320D01*
Y5477D01*
X8320Y5485D01*
X8320Y5498D01*
Y5525D01*
D02*
G37*
G36*
X5073Y5512D02*
X5041Y5480D01*
X5073Y5448D01*
X5105Y5480D01*
X5073Y5512D01*
D02*
G37*
G36*
X3460Y5520D02*
X3315D01*
Y5420D01*
X3460D01*
Y5520D01*
D02*
G37*
G36*
X3265D02*
X3120D01*
Y5420D01*
X3265D01*
Y5520D01*
D02*
G37*
G36*
X4860Y5299D02*
X4829Y5268D01*
X4860Y5236D01*
X4892Y5268D01*
X4860Y5299D01*
D02*
G37*
G36*
X6850Y5260D02*
X6815D01*
Y5225D01*
X6850D01*
Y5260D01*
D02*
G37*
G36*
X6765D02*
X6730D01*
Y5225D01*
X6765D01*
Y5260D01*
D02*
G37*
G36*
X8680Y5295D02*
X8535D01*
Y5195D01*
X8680D01*
Y5295D01*
D02*
G37*
G36*
X8485D02*
X8340D01*
Y5195D01*
X8485D01*
Y5295D01*
D02*
G37*
G36*
X4928Y5232D02*
X4896Y5200D01*
X4928Y5169D01*
X4959Y5200D01*
X4928Y5232D01*
D02*
G37*
G36*
X6850Y5175D02*
X6815D01*
Y5140D01*
X6850D01*
Y5175D01*
D02*
G37*
G36*
X6765D02*
X6730D01*
Y5140D01*
X6765D01*
Y5175D01*
D02*
G37*
G36*
X6457Y5352D02*
X6365Y5260D01*
X6442Y5182D01*
X6465Y5204D01*
X6491Y5185D01*
X6524Y5171D01*
X6559Y5166D01*
Y5166D01*
X6570Y5163D01*
Y5140D01*
X6690D01*
Y5260D01*
X6570D01*
Y5237D01*
X6569Y5236D01*
X6557Y5233D01*
X6541Y5236D01*
X6524Y5242D01*
X6520Y5246D01*
X6519Y5258D01*
X6534Y5274D01*
X6457Y5352D01*
D02*
G37*
G36*
X7831Y5159D02*
X7701D01*
Y5133D01*
X7161D01*
X7148Y5142D01*
X7130Y5146D01*
X7112Y5142D01*
X7098Y5132D01*
X7088Y5118D01*
X7084Y5100D01*
X7088Y5082D01*
X7098Y5068D01*
X7112Y5058D01*
X7130Y5054D01*
X7148Y5058D01*
X7161Y5067D01*
X7701D01*
Y4909D01*
X7720D01*
Y4880D01*
X7724Y4862D01*
X7734Y4848D01*
X7749Y4838D01*
X7766Y4834D01*
X7784Y4838D01*
X7799Y4848D01*
X7809Y4862D01*
X7812Y4880D01*
Y4909D01*
X7831D01*
Y5041D01*
X7844Y5046D01*
X8104Y4786D01*
Y4560D01*
X8085D01*
Y4400D01*
X8190D01*
Y4560D01*
X8171D01*
Y4800D01*
X8168Y4812D01*
X8161Y4823D01*
X7858Y5126D01*
X7847Y5134D01*
X7834Y5136D01*
X7831D01*
Y5159D01*
D02*
G37*
G36*
X5492Y5207D02*
X5432Y5147D01*
X5471Y5108D01*
X5531Y5168D01*
X5492Y5207D01*
D02*
G37*
G36*
X8680Y5145D02*
X8535D01*
Y5045D01*
X8680D01*
Y5145D01*
D02*
G37*
G36*
X8485D02*
X8340D01*
Y5045D01*
X8485D01*
Y5145D01*
D02*
G37*
G36*
X5518Y5087D02*
X5486Y5055D01*
X5518Y5023D01*
X5550Y5055D01*
X5518Y5087D01*
D02*
G37*
G36*
X4869Y5072D02*
X4809Y5012D01*
X4848Y4973D01*
X4908Y5033D01*
X4869Y5072D01*
D02*
G37*
G36*
X5452Y5021D02*
X5421Y4990D01*
X5452Y4958D01*
X5484Y4990D01*
X5452Y5021D01*
D02*
G37*
G36*
X5585Y5020D02*
X5553Y4988D01*
X5585Y4956D01*
X5617Y4988D01*
X5585Y5020D01*
D02*
G37*
G36*
X6495Y4960D02*
X6450D01*
Y4915D01*
X6495D01*
Y4960D01*
D02*
G37*
G36*
X4944Y4998D02*
X4884Y4938D01*
X4923Y4899D01*
X4983Y4959D01*
X4944Y4998D01*
D02*
G37*
G36*
X5520Y4954D02*
X5488Y4922D01*
X5520Y4891D01*
X5551Y4922D01*
X5520Y4954D01*
D02*
G37*
G36*
X6637Y5046D02*
X6619Y5042D01*
X6605Y5032D01*
X6595Y5018D01*
X6591Y5000D01*
X6595Y4982D01*
X6601Y4973D01*
X6595Y4960D01*
X6545D01*
Y4890D01*
Y4820D01*
X6710D01*
Y4844D01*
X6740D01*
X6758Y4847D01*
X6772Y4857D01*
X6782Y4872D01*
X6786Y4890D01*
X6782Y4907D01*
X6772Y4922D01*
X6758Y4932D01*
X6740Y4936D01*
X6710D01*
Y4960D01*
X6679D01*
X6673Y4973D01*
X6679Y4982D01*
X6683Y5000D01*
X6679Y5018D01*
X6669Y5032D01*
X6655Y5042D01*
X6637Y5046D01*
D02*
G37*
G36*
X6495Y4865D02*
X6450D01*
Y4820D01*
X6495D01*
Y4865D01*
D02*
G37*
G36*
X7781Y4645D02*
X7751D01*
Y4605D01*
X7781D01*
Y4645D01*
D02*
G37*
G36*
X5340Y4636D02*
X5322Y4632D01*
X5308Y4622D01*
X5298Y4608D01*
X5294Y4590D01*
X5298Y4572D01*
X5308Y4558D01*
X5322Y4548D01*
X5340Y4544D01*
X5358Y4548D01*
X5372Y4558D01*
X5382Y4572D01*
X5386Y4590D01*
X5382Y4608D01*
X5372Y4622D01*
X5358Y4632D01*
X5340Y4636D01*
D02*
G37*
G36*
X7781Y4555D02*
X7751D01*
Y4515D01*
X7781D01*
Y4555D01*
D02*
G37*
G36*
X5340Y4386D02*
X5322Y4382D01*
X5308Y4372D01*
X5298Y4358D01*
X5294Y4340D01*
X5298Y4322D01*
X5308Y4308D01*
X5322Y4298D01*
X5340Y4294D01*
X5358Y4298D01*
X5372Y4308D01*
X5382Y4322D01*
X5386Y4340D01*
X5382Y4358D01*
X5372Y4372D01*
X5358Y4382D01*
X5340Y4386D01*
D02*
G37*
G36*
X8285Y4300D02*
X8257D01*
Y4245D01*
X8285D01*
Y4300D01*
D02*
G37*
G36*
X8207D02*
X8180D01*
Y4245D01*
X8207D01*
Y4300D01*
D02*
G37*
G36*
X8285Y4195D02*
X8257D01*
Y4140D01*
X8285D01*
Y4195D01*
D02*
G37*
G36*
X8207D02*
X8180D01*
Y4140D01*
X8207D01*
Y4195D01*
D02*
G37*
G36*
X4262Y3985D02*
X4155D01*
Y3892D01*
X4262D01*
Y3985D01*
D02*
G37*
G36*
X4105D02*
X3997D01*
Y3892D01*
X4105D01*
Y3985D01*
D02*
G37*
G36*
X5215Y3983D02*
X5108D01*
Y3890D01*
X5215D01*
Y3983D01*
D02*
G37*
G36*
X5058D02*
X4950D01*
Y3890D01*
X5058D01*
Y3983D01*
D02*
G37*
G36*
X6172Y3980D02*
X6064D01*
Y3888D01*
X6172D01*
Y3980D01*
D02*
G37*
G36*
X6014D02*
X5907D01*
Y3888D01*
X6014D01*
Y3980D01*
D02*
G37*
G36*
X6710Y4100D02*
X6545D01*
Y4030D01*
Y3960D01*
X6595D01*
X6601Y3947D01*
X6595Y3938D01*
X6591Y3920D01*
X6595Y3902D01*
X6605Y3888D01*
X6619Y3878D01*
X6637Y3874D01*
X6655Y3878D01*
X6669Y3888D01*
X6679Y3902D01*
X6683Y3920D01*
X6679Y3938D01*
X6673Y3947D01*
X6679Y3960D01*
X6710D01*
Y3984D01*
X6740D01*
X6758Y3988D01*
X6772Y3998D01*
X6782Y4013D01*
X6786Y4030D01*
X6782Y4048D01*
X6772Y4063D01*
X6758Y4073D01*
X6740Y4076D01*
X6710D01*
Y4100D01*
D02*
G37*
G36*
X6130Y4376D02*
X6112Y4372D01*
X6098Y4362D01*
X6088Y4348D01*
X6084Y4330D01*
X6088Y4312D01*
X6098Y4298D01*
X6112Y4288D01*
X6129Y4284D01*
X6377Y4036D01*
Y3800D01*
X6379Y3787D01*
X6387Y3777D01*
X6454Y3709D01*
X6458Y3692D01*
X6468Y3678D01*
X6482Y3668D01*
X6500Y3664D01*
X6518Y3668D01*
X6532Y3678D01*
X6542Y3692D01*
X6546Y3710D01*
X6542Y3728D01*
X6532Y3742D01*
X6518Y3752D01*
X6501Y3756D01*
X6443Y3814D01*
Y3950D01*
X6450Y3960D01*
X6456Y3960D01*
X6495D01*
Y4030D01*
Y4100D01*
X6450D01*
Y4071D01*
X6437Y4068D01*
X6433Y4073D01*
X6176Y4331D01*
X6172Y4348D01*
X6162Y4362D01*
X6148Y4372D01*
X6130Y4376D01*
D02*
G37*
G36*
X6000D02*
X5982Y4372D01*
X5968Y4362D01*
X5958Y4348D01*
X5954Y4330D01*
X5958Y4312D01*
X5968Y4298D01*
X5982Y4288D01*
X5999Y4284D01*
X6287Y3996D01*
Y3624D01*
X6278Y3610D01*
X6274Y3593D01*
X6278Y3575D01*
X6288Y3560D01*
X6302Y3551D01*
X6320Y3547D01*
X6338Y3551D01*
X6352Y3560D01*
X6362Y3575D01*
X6366Y3593D01*
X6362Y3610D01*
X6353Y3624D01*
Y4010D01*
X6351Y4023D01*
X6343Y4033D01*
X6046Y4331D01*
X6042Y4348D01*
X6032Y4362D01*
X6018Y4372D01*
X6000Y4376D01*
D02*
G37*
G36*
X5589Y3562D02*
X5481D01*
Y3470D01*
X5589D01*
Y3562D01*
D02*
G37*
G36*
X5431D02*
X5324D01*
Y3470D01*
X5431D01*
Y3562D01*
D02*
G37*
G36*
X4630D02*
X4522D01*
Y3470D01*
X4630D01*
Y3562D01*
D02*
G37*
G36*
X4472D02*
X4365D01*
Y3470D01*
X4472D01*
Y3562D01*
D02*
G37*
G36*
X3683D02*
X3575D01*
Y3470D01*
X3683D01*
Y3562D01*
D02*
G37*
G36*
X3525D02*
X3417D01*
Y3470D01*
X3525D01*
Y3562D01*
D02*
G37*
G36*
X4866Y3420D02*
X4821D01*
Y3375D01*
X4866D01*
Y3420D01*
D02*
G37*
G36*
X4771D02*
X4726D01*
Y3375D01*
X4771D01*
Y3420D01*
D02*
G37*
G36*
X3910D02*
X3865D01*
Y3375D01*
X3910D01*
Y3420D01*
D02*
G37*
G36*
X3815D02*
X3770D01*
Y3375D01*
X3815D01*
Y3420D01*
D02*
G37*
G36*
X5816Y3410D02*
X5771D01*
Y3365D01*
X5816D01*
Y3410D01*
D02*
G37*
G36*
X5721D02*
X5676D01*
Y3365D01*
X5721D01*
Y3410D01*
D02*
G37*
G36*
X8535Y3578D02*
X8500Y3575D01*
X8467Y3565D01*
X8436Y3548D01*
X8409Y3526D01*
X8387Y3499D01*
X8370Y3468D01*
X8360Y3435D01*
X8357Y3400D01*
X8360Y3365D01*
X8370Y3332D01*
X8387Y3301D01*
X8409Y3274D01*
X8436Y3252D01*
X8467Y3235D01*
X8500Y3225D01*
X8535Y3222D01*
X8570Y3225D01*
X8603Y3235D01*
X8634Y3252D01*
X8661Y3274D01*
X8683Y3301D01*
X8700Y3332D01*
X8710Y3365D01*
X8713Y3400D01*
X8710Y3435D01*
X8700Y3468D01*
X8683Y3499D01*
X8661Y3526D01*
X8634Y3548D01*
X8603Y3565D01*
X8570Y3575D01*
X8535Y3578D01*
D02*
G37*
%LPD*%
G36*
X4095Y8311D02*
X4125Y8282D01*
X3947Y8282D01*
X3907Y8242D01*
X3875Y8242D01*
X3875Y8276D01*
X3910Y8311D01*
X4095Y8311D01*
D02*
G37*
G36*
X4500Y8170D02*
X4500Y8130D01*
X4430D01*
Y8170D01*
X4410Y8190D01*
X4320D01*
Y8240D01*
X4430D01*
X4500Y8170D01*
D02*
G37*
G36*
X4033Y8238D02*
X4070D01*
Y8188D01*
X4033D01*
Y8153D01*
X4050D01*
Y8096D01*
X4195D01*
X4340D01*
Y8153D01*
X4358D01*
Y8170D01*
X4402D01*
X4405Y8166D01*
Y8075D01*
Y7935D01*
X4412D01*
X4416Y7923D01*
X4376Y7883D01*
X4358D01*
Y7905D01*
X4320D01*
Y7955D01*
X4358D01*
Y7990D01*
X4340D01*
Y8046D01*
X4195D01*
X4050D01*
Y8007D01*
X4038Y8002D01*
X4027Y8013D01*
X4016Y8021D01*
X4003Y8023D01*
X3975D01*
Y8075D01*
Y8185D01*
X3956D01*
Y8220D01*
X3980D01*
Y8258D01*
X4033D01*
Y8238D01*
D02*
G37*
G36*
X7510Y8270D02*
X7540Y8240D01*
X7390Y8240D01*
X7350Y8200D01*
Y8110D01*
X7290D01*
X7290Y8235D01*
X7325Y8270D01*
X7510Y8270D01*
D02*
G37*
G36*
X7900Y8200D02*
X7800D01*
X7735Y8135D01*
Y8200D01*
X7835Y8300D01*
X7900D01*
X7900Y8200D01*
D02*
G37*
G36*
X7447Y8196D02*
X7485D01*
Y8146D01*
X7447D01*
Y8111D01*
X7465D01*
Y8055D01*
X7610D01*
X7755D01*
Y8111D01*
X7772D01*
Y8144D01*
X7808Y8180D01*
X7854D01*
Y8145D01*
X7835D01*
Y7895D01*
X7835D01*
X7836Y7883D01*
X7786Y7833D01*
X7772D01*
Y7864D01*
X7735D01*
Y7914D01*
X7772D01*
Y7949D01*
X7755D01*
Y8005D01*
X7610D01*
X7465D01*
Y7965D01*
X7453Y7961D01*
X7440Y7973D01*
X7430Y7981D01*
X7417Y7983D01*
X7385D01*
Y8005D01*
Y8145D01*
X7370D01*
Y8192D01*
X7396Y8217D01*
X7447D01*
Y8196D01*
D02*
G37*
G36*
X4640Y6404D02*
X4629Y6402D01*
X4610Y6390D01*
X4598Y6371D01*
X4594Y6350D01*
X4598Y6329D01*
X4610Y6310D01*
X4629Y6298D01*
X4650Y6294D01*
X4671Y6298D01*
X4675Y6301D01*
X4683Y6291D01*
X4101Y5708D01*
X4074D01*
X4065Y5716D01*
Y5731D01*
X4010D01*
Y5756D01*
X3985D01*
Y5796D01*
X3903D01*
Y5911D01*
X3901Y5923D01*
X3893Y5934D01*
X3754Y6073D01*
X3743Y6081D01*
X3731Y6083D01*
X3680D01*
Y6110D01*
X3680D01*
Y6115D01*
X3680D01*
Y6142D01*
X3736D01*
X3748Y6144D01*
X3759Y6152D01*
X3785Y6177D01*
X3815D01*
Y6170D01*
X3985D01*
Y6210D01*
Y6250D01*
X3915D01*
X3910Y6263D01*
X4064Y6417D01*
X4639D01*
X4640Y6404D01*
D02*
G37*
%LPC*%
G36*
X4065Y6250D02*
X4035D01*
Y6235D01*
X4065D01*
Y6250D01*
D02*
G37*
G36*
Y6185D02*
X4035D01*
Y6170D01*
X4065D01*
Y6185D01*
D02*
G37*
G36*
Y5796D02*
X4035D01*
Y5781D01*
X4065D01*
Y5796D01*
D02*
G37*
%LPD*%
D12*
X3380Y8610D02*
G03*
X3380Y8610I-150J0D01*
G01*
X8685Y3400D02*
G03*
X8685Y3400I-150J0D01*
G01*
D47*
X4867Y6058D02*
G03*
X5046Y6132I0J254D01*
G01*
X6486Y5230D02*
G03*
X6559Y5200I73J73D01*
G01*
X7735Y7680D02*
X7830D01*
X7635Y7780D02*
X7735Y7680D01*
X7635Y7780D02*
Y7889D01*
X7585Y7720D02*
Y7889D01*
X7535Y7772D02*
Y7889D01*
X7443Y7680D02*
X7535Y7772D01*
X7380Y7680D02*
X7443D01*
X4315Y7720D02*
X4410D01*
X4220Y7815D02*
X4315Y7720D01*
X4220Y7815D02*
Y7930D01*
X4170Y7780D02*
Y7930D01*
X4120Y7818D02*
Y7930D01*
X4022Y7720D02*
X4120Y7818D01*
X3960Y7720D02*
X4022D01*
X4290Y7850D02*
X4390D01*
X4270Y7870D02*
X4290Y7850D01*
X4270Y7870D02*
Y7930D01*
X8137Y4480D02*
Y4800D01*
X7834Y5103D02*
X8137Y4800D01*
X7767Y5103D02*
X7834D01*
X7766Y5104D02*
X7767Y5103D01*
X7130Y5100D02*
X7763D01*
X7766Y5104D01*
X8232Y4060D02*
Y4220D01*
X7219Y3174D02*
X8042Y3997D01*
Y4220D01*
X7219Y2500D02*
Y3174D01*
X6197Y6480D02*
X6230Y6447D01*
Y6428D02*
Y6447D01*
X6197Y6480D02*
Y6570D01*
X5308Y6737D02*
X5360Y6790D01*
X5308Y6582D02*
Y6737D01*
X5266Y6540D02*
X5308Y6582D01*
X6197Y6776D02*
X6241Y6820D01*
X6197Y6690D02*
Y6776D01*
X5701Y5262D02*
Y5263D01*
X5769Y5331D01*
Y5260D02*
X5805Y5296D01*
X5769Y5195D02*
Y5260D01*
Y5195D02*
X5935Y5030D01*
X6002D01*
X6066Y5172D02*
Y5225D01*
X6075Y9225D02*
Y9350D01*
X5960Y9110D02*
X6075Y9225D01*
X3771Y6210D02*
X3870D01*
X3736Y6175D02*
X3771Y6210D01*
X3580Y6175D02*
X3736D01*
X5265Y6450D02*
X5628Y6088D01*
X4050Y6450D02*
X5265D01*
X4830Y6391D02*
X5254D01*
X4114Y5675D02*
X4830Y6391D01*
X3951Y5675D02*
X4114D01*
X3870Y5756D02*
X3951Y5675D01*
X5254Y6391D02*
X5499Y6146D01*
X3870Y6270D02*
X4050Y6450D01*
X3870Y6210D02*
Y6270D01*
Y5756D02*
X3870Y5756D01*
Y5911D01*
X3731Y6050D02*
X3870Y5911D01*
X3580Y6050D02*
X3731D01*
X5162Y6048D02*
X5269Y6155D01*
X5160Y6048D02*
X5162D01*
X4833Y6058D02*
X4867D01*
X4673Y6068D02*
X4683Y6058D01*
X4833D01*
X5046Y6132D02*
X5061Y6147D01*
X6000Y4330D02*
X6320Y4010D01*
Y3593D02*
Y4010D01*
X6130Y4330D02*
X6410Y4050D01*
Y3800D02*
Y4050D01*
Y3800D02*
X6500Y3710D01*
X6530Y3560D02*
X7090D01*
X6119Y3149D02*
X6530Y3560D01*
X6119Y2500D02*
Y3149D01*
X6581Y3510D02*
X7140D01*
X6219Y3148D02*
X6581Y3510D01*
X6219Y2500D02*
Y3148D01*
X6630Y3460D02*
X7170D01*
X6319Y3149D02*
X6630Y3460D01*
X6319Y2500D02*
Y3149D01*
X6670Y3400D02*
X7190D01*
X6419Y3149D02*
X6670Y3400D01*
X6419Y2500D02*
Y3149D01*
X7226Y3696D02*
Y4280D01*
X7090Y3560D02*
X7226Y3696D01*
X7406Y3776D02*
Y4280D01*
X7140Y3510D02*
X7406Y3776D01*
X7586Y3876D02*
Y4280D01*
X7170Y3460D02*
X7586Y3876D01*
X7190Y3400D02*
X7766Y3976D01*
Y4280D01*
X5332Y5925D02*
X5366D01*
X5416Y5875D01*
X6630Y6955D02*
X6635Y6950D01*
X6770D01*
X6630Y6955D02*
Y7035D01*
X7380Y7389D02*
X7390Y7379D01*
X7380Y7389D02*
Y7540D01*
X6315Y5946D02*
X7080Y6711D01*
Y6885D01*
X6384Y5875D02*
X6444Y5936D01*
X6385Y5685D02*
X6459Y5610D01*
X6384Y5685D02*
X6385D01*
X6205Y5369D02*
X6241D01*
X6137Y5437D02*
X6205Y5369D01*
X5716Y5490D02*
X5760D01*
X5663Y5437D02*
X5716Y5490D01*
X5628Y5472D02*
X5730Y5575D01*
X6449Y5267D02*
X6486Y5230D01*
X6559Y5200D02*
X6630D01*
X6209Y5508D02*
X6351Y5366D01*
X6208Y5508D02*
X6209D01*
X5995Y5296D02*
X6066Y5225D01*
X6262Y5736D02*
X6349Y5649D01*
X5451Y5911D02*
X5525Y5837D01*
X6130Y5030D02*
Y5232D01*
X6031Y5331D02*
X6130Y5232D01*
X8105Y6300D02*
X8220D01*
X8105Y5425D02*
X8220D01*
X8105Y5550D02*
X8220D01*
X8100Y6050D02*
X8220D01*
X8020D02*
X8100D01*
Y5925D02*
X8220D01*
X8020D02*
X8100D01*
Y5800D02*
X8220D01*
X8020D02*
X8100D01*
Y5670D02*
X8215D01*
X8020D02*
X8100D01*
Y6180D02*
X8215D01*
X8020D02*
X8100D01*
X8215Y5670D02*
X8220Y5675D01*
X8215Y6180D02*
X8220Y6175D01*
X5698Y6158D02*
X5746Y6110D01*
Y6017D02*
Y6110D01*
X5734Y6194D02*
X5819Y6108D01*
Y6017D02*
Y6108D01*
X5769Y6229D02*
X5891Y6108D01*
Y6017D02*
Y6108D01*
X5805Y6264D02*
X5966Y6103D01*
Y6017D02*
Y6103D01*
X6017Y6145D02*
X6066Y6194D01*
X6017Y6057D02*
Y6145D01*
X6046Y6017D02*
Y6028D01*
X6017Y6057D02*
X6046Y6028D01*
X5730Y5575D02*
Y5616D01*
X7820Y7378D02*
X7820Y7378D01*
X7820Y7260D02*
Y7378D01*
X7390D02*
X7390Y7379D01*
X7390Y7260D02*
Y7378D01*
X4833Y6870D02*
X4944D01*
X5208Y6540D02*
X5266D01*
X5058D02*
X5208D01*
X4930D02*
X4930Y6540D01*
X4833Y6540D02*
X4930D01*
X5306Y6026D02*
X5340Y5992D01*
X5440D01*
X5486Y5946D01*
X5368Y6078D02*
X5402Y6044D01*
X5460D01*
X5522Y5982D01*
X5456Y6089D02*
X5485D01*
X5389Y6155D02*
X5456Y6089D01*
X5269Y6155D02*
X5389D01*
X4760Y6605D02*
X4833D01*
X4760Y6935D02*
X4833D01*
X6995Y6885D02*
X7080D01*
X6314Y5946D02*
X6315D01*
X3975Y7320D02*
Y7426D01*
X4395Y7320D02*
Y7426D01*
X5360Y6790D02*
X5460D01*
X5208Y6870D02*
X5460D01*
X5058D02*
X5208D01*
X5485Y6089D02*
X5557Y6017D01*
X5499Y6146D02*
X5592Y6052D01*
X5670Y5140D02*
X5737Y5073D01*
X5340Y5609D02*
X5416Y5685D01*
X5269Y5609D02*
X5340D01*
X5225Y5565D02*
X5269Y5609D01*
X5596Y5299D02*
X5698Y5402D01*
X5596Y5214D02*
Y5299D01*
Y5214D02*
X5670Y5140D01*
X5140Y5055D02*
X5592Y5508D01*
X5140Y4890D02*
Y5055D01*
X5113Y4864D02*
X5140Y4890D01*
X5227Y5316D02*
X5336Y5425D01*
X5439D01*
X5190Y5352D02*
X5227Y5316D01*
X5012Y5352D02*
X5190D01*
X5113Y4864D02*
X5140Y4838D01*
X5368D01*
X5439Y5425D02*
X5557Y5543D01*
X7735Y7889D02*
Y7949D01*
X7705Y7979D02*
X7735Y7949D01*
X7485Y8108D02*
Y8171D01*
Y8108D02*
X7515Y8079D01*
X7735Y7889D02*
X7785D01*
X7900Y7900D02*
Y7950D01*
X7800Y7800D02*
X7900Y7900D01*
X7710Y7800D02*
X7800D01*
X7685Y7825D02*
X7710Y7800D01*
X7685Y7825D02*
Y7889D01*
X4470Y7980D02*
X4480Y7970D01*
X4460Y7990D02*
X4470Y7980D01*
Y7990D01*
Y7930D02*
Y7980D01*
X4390Y7850D02*
X4470Y7930D01*
X4560Y7720D02*
Y7970D01*
X4540Y7990D02*
X4560Y7970D01*
X4470Y7990D02*
X4540D01*
X7980Y7680D02*
Y7930D01*
X7960Y7950D02*
X7980Y7930D01*
X7900Y7950D02*
X7960D01*
X7320Y7840D02*
Y7950D01*
X7230Y7750D02*
X7320Y7840D01*
X7230Y7680D02*
Y7750D01*
X7320Y7950D02*
X7417D01*
X7479Y7889D01*
X7820Y7378D02*
X7830Y7388D01*
Y7540D01*
X4395Y7426D02*
X4410Y7442D01*
Y7580D01*
X3960Y7442D02*
X3975Y7426D01*
X3960Y7442D02*
Y7580D01*
X3800Y7720D02*
Y7810D01*
X3910Y7920D01*
Y7990D01*
X4003D01*
X4063Y7930D01*
X4320D02*
X4370D01*
X4070Y8150D02*
X4100Y8120D01*
X4070Y8150D02*
Y8213D01*
X4290Y8020D02*
X4320Y7990D01*
Y7930D02*
Y7990D01*
X4020Y8213D02*
X4070D01*
X4460Y7990D02*
X4470D01*
X3910Y8267D02*
X3935Y8292D01*
X7320Y8220D02*
X7350Y8250D01*
X7514D01*
X7535Y8229D01*
X4170Y8213D02*
Y8310D01*
X4150Y8330D02*
X4170Y8310D01*
X3935Y8292D02*
X4099D01*
X4120Y8270D01*
Y8213D02*
Y8270D01*
X4270Y8290D02*
X4310Y8330D01*
X4270Y8213D02*
Y8290D01*
X4220Y8213D02*
Y8346D01*
X4135Y8431D02*
X4220Y8346D01*
X4135Y8431D02*
Y8457D01*
X7535Y8171D02*
Y8229D01*
X7585Y8171D02*
Y8260D01*
X7550Y8295D02*
X7585Y8260D01*
X7685Y8171D02*
Y8281D01*
X7700Y8296D01*
X7635Y8171D02*
Y8295D01*
X7550Y8380D02*
X7635Y8295D01*
X7550Y8380D02*
Y8420D01*
X7440Y8171D02*
X7485D01*
D48*
X6486Y5230D02*
D03*
D49*
X3230Y8610D02*
D03*
X8535Y3400D02*
D03*
X5772Y7097D02*
D03*
X5899Y6970D02*
D03*
X6026Y7097D02*
D03*
D50*
X8042Y4220D02*
D03*
X8232D02*
D03*
X8137Y4480D02*
D03*
D51*
X7479Y7889D02*
D03*
X4063Y7930D02*
D03*
D52*
X7535Y7889D02*
D03*
X7585D02*
D03*
X7635D02*
D03*
X7685D02*
D03*
X7735D02*
D03*
X7485Y8171D02*
D03*
X7535D02*
D03*
X7585D02*
D03*
X7635D02*
D03*
X7685D02*
D03*
X7735D02*
D03*
X4120Y7930D02*
D03*
X4170D02*
D03*
X4220D02*
D03*
X4270D02*
D03*
X4320D02*
D03*
X4070Y8213D02*
D03*
X4120D02*
D03*
X4170D02*
D03*
X4220D02*
D03*
X4270D02*
D03*
X4320D02*
D03*
D53*
X7610Y8030D02*
D03*
X4195Y8071D02*
D03*
D54*
X6197Y6570D02*
D03*
Y6690D02*
D03*
X4833Y5938D02*
D03*
Y6058D02*
D03*
X3840Y3565D02*
D03*
Y3445D02*
D03*
X5746Y3555D02*
D03*
Y3435D02*
D03*
X4796Y3565D02*
D03*
Y3445D02*
D03*
X4840Y8360D02*
D03*
Y8480D02*
D03*
X6961Y8320D02*
D03*
Y8440D02*
D03*
D55*
X4497Y3862D02*
D03*
Y3588D02*
D03*
X3550D02*
D03*
Y3862D02*
D03*
X4130Y3867D02*
D03*
Y3592D02*
D03*
X6039Y3862D02*
D03*
Y3588D02*
D03*
X5456Y3588D02*
D03*
Y3862D02*
D03*
X5083Y3865D02*
D03*
Y3590D02*
D03*
D56*
X6520Y4030D02*
D03*
X6640D02*
D03*
X6520Y4890D02*
D03*
X6640D02*
D03*
X7670Y8420D02*
D03*
X7550D02*
D03*
X3780Y8830D02*
D03*
X3900D02*
D03*
X3910Y8290D02*
D03*
X3790D02*
D03*
X4255Y8457D02*
D03*
X4135D02*
D03*
X4650Y8130D02*
D03*
X4770D02*
D03*
X8020Y8770D02*
D03*
X7900D02*
D03*
Y8250D02*
D03*
X8020D02*
D03*
X7150Y8090D02*
D03*
X7030D02*
D03*
D57*
X4833Y6670D02*
D03*
Y6605D02*
D03*
Y6540D02*
D03*
X5058D02*
D03*
Y6670D02*
D03*
Y7000D02*
D03*
Y6870D02*
D03*
X4833D02*
D03*
Y6935D02*
D03*
Y7000D02*
D03*
X6770Y6820D02*
D03*
Y6950D02*
D03*
X6995D02*
D03*
Y6885D02*
D03*
Y6820D02*
D03*
D58*
X8220Y6300D02*
D03*
Y5425D02*
D03*
Y5550D02*
D03*
Y5675D02*
D03*
Y5800D02*
D03*
Y5925D02*
D03*
Y6050D02*
D03*
Y6175D02*
D03*
X3580D02*
D03*
Y6050D02*
D03*
Y5925D02*
D03*
Y5800D02*
D03*
D59*
X8510Y6555D02*
D03*
Y5170D02*
D03*
X3290Y5545D02*
D03*
Y6430D02*
D03*
D60*
X5416Y5685D02*
D03*
X5451Y5649D02*
D03*
X5486Y5614D02*
D03*
X5522Y5578D02*
D03*
X5557Y5543D02*
D03*
X5592Y5508D02*
D03*
X5628Y5472D02*
D03*
X5663Y5437D02*
D03*
X5698Y5402D02*
D03*
X5734Y5366D02*
D03*
X5769Y5331D02*
D03*
X5805Y5296D02*
D03*
X6384Y5875D02*
D03*
X6349Y5911D02*
D03*
X6314Y5946D02*
D03*
X6278Y5982D02*
D03*
X6243Y6017D02*
D03*
X6208Y6052D02*
D03*
X6172Y6088D02*
D03*
X6137Y6123D02*
D03*
X6102Y6158D02*
D03*
X6066Y6194D02*
D03*
X6031Y6229D02*
D03*
X5995Y6264D02*
D03*
D61*
Y5296D02*
D03*
X6031Y5331D02*
D03*
X6066Y5366D02*
D03*
X6102Y5402D02*
D03*
X6137Y5437D02*
D03*
X6172Y5472D02*
D03*
X6208Y5508D02*
D03*
X6243Y5543D02*
D03*
X6278Y5578D02*
D03*
X6314Y5614D02*
D03*
X6349Y5649D02*
D03*
X6384Y5685D02*
D03*
X5805Y6264D02*
D03*
X5769Y6229D02*
D03*
X5734Y6194D02*
D03*
X5698Y6158D02*
D03*
X5663Y6123D02*
D03*
X5628Y6088D02*
D03*
X5592Y6052D02*
D03*
X5557Y6017D02*
D03*
X5522Y5982D02*
D03*
X5486Y5946D02*
D03*
X5451Y5911D02*
D03*
X5416Y5875D02*
D03*
D62*
X6790Y5200D02*
D03*
X6630D02*
D03*
D63*
X6351Y5366D02*
D03*
X6449Y5267D02*
D03*
X5061Y6147D02*
D03*
X5160Y6048D02*
D03*
X5170Y6254D02*
D03*
X5269Y6155D02*
D03*
D64*
X4673Y5928D02*
D03*
Y6068D02*
D03*
X6625Y6950D02*
D03*
Y6810D02*
D03*
X5208Y6870D02*
D03*
Y7010D02*
D03*
Y6540D02*
D03*
Y6680D02*
D03*
X7766Y4964D02*
D03*
Y5104D02*
D03*
X7230Y7540D02*
D03*
Y7680D02*
D03*
X7980Y7540D02*
D03*
Y7680D02*
D03*
X7226Y4280D02*
D03*
Y4420D02*
D03*
X7406Y4280D02*
D03*
Y4420D02*
D03*
X7586Y4280D02*
D03*
Y4420D02*
D03*
X7766Y4280D02*
D03*
Y4420D02*
D03*
X7320Y7950D02*
D03*
Y8090D02*
D03*
X3910Y7990D02*
D03*
Y8130D02*
D03*
X3800Y7580D02*
D03*
Y7720D02*
D03*
X7380Y7540D02*
D03*
Y7680D02*
D03*
X3960Y7580D02*
D03*
Y7720D02*
D03*
X7900Y7950D02*
D03*
Y8090D02*
D03*
X4470Y7990D02*
D03*
Y8130D02*
D03*
X4560Y7580D02*
D03*
Y7720D02*
D03*
X7830Y7540D02*
D03*
Y7680D02*
D03*
X4410Y7580D02*
D03*
Y7720D02*
D03*
D65*
X5012Y5352D02*
D03*
X4928Y5268D02*
D03*
X5225Y5565D02*
D03*
X5140Y5480D02*
D03*
X5368Y4838D02*
D03*
X5452Y4922D02*
D03*
X5670Y5140D02*
D03*
X5585Y5055D02*
D03*
D66*
X4010Y6210D02*
D03*
X3870D02*
D03*
X4010Y5756D02*
D03*
X3870D02*
D03*
X7880Y5670D02*
D03*
X8020D02*
D03*
X7880Y5800D02*
D03*
X8020D02*
D03*
X7880Y5925D02*
D03*
X8020D02*
D03*
X7880Y6050D02*
D03*
X8020D02*
D03*
X7880Y6180D02*
D03*
X8020D02*
D03*
D67*
X5113Y4864D02*
D03*
X5396Y5147D02*
D03*
X5227Y5316D02*
D03*
X4944Y5033D02*
D03*
D68*
X3840Y3901D02*
D03*
Y3729D02*
D03*
X5746Y3901D02*
D03*
Y3729D02*
D03*
X4796Y3901D02*
D03*
Y3729D02*
D03*
X3910Y8646D02*
D03*
Y8475D02*
D03*
X4650Y8467D02*
D03*
Y8296D02*
D03*
X7900Y8596D02*
D03*
Y8425D02*
D03*
X7151Y8436D02*
D03*
Y8264D02*
D03*
D69*
X6919Y2500D02*
D03*
X7119D02*
D03*
X7419D02*
D03*
X6319D02*
D03*
X7019D02*
D03*
X6119D02*
D03*
X7219D02*
D03*
X5919D02*
D03*
X5619D02*
D03*
X5519D02*
D03*
X5819D02*
D03*
X6019D02*
D03*
X6519D02*
D03*
X6419D02*
D03*
X6819D02*
D03*
X5719D02*
D03*
X6219D02*
D03*
D70*
X7319Y2550D02*
D03*
D71*
X7410Y4580D02*
D03*
X7270D02*
D03*
X7586D02*
D03*
X7726D02*
D03*
X5820Y9110D02*
D03*
X5960D02*
D03*
D72*
X5725Y9350D02*
D03*
X6075D02*
D03*
D73*
X5900Y9300D02*
D03*
D74*
X7450Y9200D02*
D03*
X8350D02*
D03*
X3450D02*
D03*
X4350D02*
D03*
D75*
X7900Y9250D02*
D03*
X3900D02*
D03*
D76*
X6530Y8550D02*
X6750D01*
X6961Y8440D02*
Y8649D01*
X4673Y5928D02*
X4683D01*
X6819Y7099D02*
Y8481D01*
X6770Y7050D02*
X6819Y7099D01*
X6750Y8550D02*
X6819Y8481D01*
X6961Y8440D02*
X6965Y8436D01*
X7151D01*
X5819Y9111D02*
Y9190D01*
Y9111D02*
X5820Y9110D01*
X3580Y5800D02*
X3730D01*
X3580Y5925D02*
X3730D01*
X5108Y6323D02*
X5170Y6261D01*
Y6254D02*
Y6261D01*
X6510Y4020D02*
X6520Y4030D01*
X6510Y3909D02*
Y4020D01*
X6625Y6730D02*
Y6810D01*
X6770Y6760D02*
X6770Y6760D01*
X7726Y4580D02*
X7826D01*
X7170D02*
X7270D01*
X6640Y4890D02*
X6740D01*
X6640Y4030D02*
X6740D01*
X6510Y4900D02*
X6520Y4890D01*
X6510Y4900D02*
Y5000D01*
X6637Y4893D02*
X6640Y4890D01*
X7766Y4880D02*
Y4964D01*
X5585Y5055D02*
X5648Y4993D01*
X5077Y5543D02*
X5140Y5480D01*
X5159Y5631D02*
X5225Y5565D01*
X4944Y5033D02*
X5034Y5124D01*
X4853Y4943D02*
X4944Y5033D01*
X5306Y5056D02*
X5396Y5147D01*
X5486Y5237D01*
X5452Y4922D02*
X5520Y4990D01*
X5380D02*
X5448Y4922D01*
X4932Y5268D02*
X5000Y5200D01*
X4928Y5268D02*
X4932D01*
X4860Y5200D02*
X4928Y5268D01*
X7645Y8445D02*
Y8530D01*
Y8445D02*
X7670Y8420D01*
Y8432D01*
X7530Y8440D02*
Y8530D01*
Y8440D02*
X7550Y8420D01*
X4230Y8490D02*
Y8580D01*
Y8490D02*
X4255Y8465D01*
Y8457D02*
Y8465D01*
X4135Y8457D02*
X4150Y8471D01*
Y8580D01*
X3910Y8267D02*
Y8290D01*
Y8130D02*
Y8267D01*
X7900Y8250D02*
Y8425D01*
Y8090D02*
Y8250D01*
X4470Y8130D02*
X4650D01*
Y8296D01*
Y8467D02*
X4663Y8480D01*
X4840D01*
X4830Y8490D02*
X4840Y8480D01*
X4830Y8490D02*
Y9000D01*
X7150Y8264D02*
X7151Y8264D01*
X7150Y8090D02*
Y8264D01*
Y8090D02*
X7320D01*
X6610Y9000D02*
X6961Y8649D01*
D77*
X5058Y6670D02*
Y6778D01*
Y6670D02*
X5208D01*
X4010Y6210D02*
X4090D01*
X4010Y5756D02*
X4090D01*
X6770Y6760D02*
Y6820D01*
X5060Y6770D02*
Y6775D01*
X5058Y6778D02*
X5060Y6775D01*
X5198Y7000D02*
X5208Y7010D01*
X5058Y7000D02*
X5198D01*
X5058D02*
X5060Y7002D01*
Y7110D01*
X7586Y4420D02*
Y4580D01*
X7406Y4420D02*
X7410Y4424D01*
Y4580D01*
X7586Y4420D02*
X7766D01*
X7406D02*
X7586D01*
X7226D02*
X7406D01*
D78*
X4670Y5924D02*
X4673Y5928D01*
X4670Y5828D02*
Y5924D01*
X6019Y2500D02*
Y3150D01*
X5819Y2500D02*
Y3150D01*
X5619Y2500D02*
Y3150D01*
X7419Y3050D02*
Y3150D01*
Y2500D02*
Y3050D01*
X7119D02*
Y3150D01*
Y2500D02*
Y3050D01*
X6819D02*
Y3150D01*
Y2500D02*
Y3050D01*
X6519D02*
Y3150D01*
Y2500D02*
Y3050D01*
X3900Y8656D02*
Y9300D01*
Y8656D02*
X3910Y8646D01*
Y8290D02*
Y8475D01*
X7900Y8770D02*
Y9250D01*
Y8596D02*
Y8770D01*
X5083Y3427D02*
Y3550D01*
X5719Y2500D02*
Y3150D01*
X5560Y3360D02*
X5719Y3201D01*
X5150Y3360D02*
X5560D01*
X5083Y3427D02*
X5150Y3360D01*
X5719Y3150D02*
Y3201D01*
X5919Y2500D02*
Y3150D01*
X6039Y3402D02*
Y3588D01*
X5919Y3281D02*
X6039Y3402D01*
X5919Y3150D02*
Y3281D01*
X5519Y2500D02*
Y3150D01*
D79*
X6167Y3862D02*
X6230Y3800D01*
X6039Y3862D02*
X6167D01*
D80*
X7485Y8171D02*
X7485D01*
D81*
X4497Y3862D02*
Y4050D01*
X5456Y3862D02*
Y4050D01*
X3550Y3862D02*
X3588Y3901D01*
X3840D01*
X4497Y3862D02*
X4535Y3901D01*
X4796D01*
X5456Y3862D02*
X5494Y3901D01*
X5746D01*
D82*
X4103Y3565D02*
X4130Y3592D01*
X3840Y3565D02*
X4103D01*
X5068D02*
X5083Y3550D01*
X4796Y3565D02*
X5068D01*
X4796D02*
Y3729D01*
X3840Y3565D02*
Y3729D01*
X5746Y3555D02*
Y3729D01*
X6007Y3555D02*
X6039Y3588D01*
X5746Y3555D02*
X6007D01*
D83*
X5402Y8356D02*
D03*
X6353Y8350D02*
D03*
X6349Y7917D02*
D03*
X5398Y7923D02*
D03*
X6960Y9000D02*
D03*
X5180D02*
D03*
D84*
X6610D02*
D03*
X4830D02*
D03*
D85*
X8510Y7300D02*
D03*
X3290D02*
D03*
D86*
X6530Y8550D02*
D03*
X8232Y4060D02*
D03*
X5262Y7228D02*
D03*
X3988Y6487D02*
D03*
X4130Y5033D02*
D03*
Y4520D02*
D03*
X7900Y6651D02*
D03*
X8510Y8236D02*
D03*
X3000Y9006D02*
D03*
Y7889D02*
D03*
Y5925D02*
D03*
Y4880D02*
D03*
X8020Y5030D02*
D03*
X8215Y4700D02*
D03*
X8063D02*
D03*
X6230Y6428D02*
D03*
X5380Y6570D02*
D03*
X5831Y6509D02*
D03*
X5915Y6505D02*
D03*
X5915Y6604D02*
D03*
X5831D02*
D03*
X7680Y4060D02*
D03*
X7496D02*
D03*
X7320Y4063D02*
D03*
X4836Y5825D02*
D03*
X5880Y3860D02*
D03*
X5863Y3427D02*
D03*
X5274Y3588D02*
D03*
X5255Y3862D02*
D03*
X5078Y4040D02*
D03*
X4130D02*
D03*
X4310Y3867D02*
D03*
X4320Y3588D02*
D03*
X4673D02*
D03*
X4500Y3425D02*
D03*
X4917Y3445D02*
D03*
X3840Y3340D02*
D03*
X3720Y3588D02*
D03*
X3350Y3588D02*
D03*
X3550Y3412D02*
D03*
X4650Y6350D02*
D03*
X4670Y5828D02*
D03*
X5819Y9190D02*
D03*
X4090Y6210D02*
D03*
X3730Y5925D02*
D03*
Y5800D02*
D03*
X4090Y5756D02*
D03*
X5468Y7130D02*
D03*
X5108Y6323D02*
D03*
X6510Y3909D02*
D03*
X6230Y3800D02*
D03*
X5016Y5920D02*
D03*
X5230Y5809D02*
D03*
X6770Y7050D02*
D03*
X6563Y5360D02*
D03*
X6789Y5880D02*
D03*
Y5610D02*
D03*
X6575Y5751D02*
D03*
X5060Y6770D02*
D03*
X4720Y6790D02*
D03*
Y7090D02*
D03*
X6770Y6760D02*
D03*
X5060Y7110D02*
D03*
X5648Y4993D02*
D03*
X5077Y5543D02*
D03*
X5159Y5631D02*
D03*
X5737Y5073D02*
D03*
X5034Y5124D02*
D03*
X4853Y4943D02*
D03*
X5306Y5056D02*
D03*
X5486Y5237D02*
D03*
X5520Y4990D02*
D03*
X5380D02*
D03*
X5000Y5200D02*
D03*
X4860D02*
D03*
X7419Y3050D02*
D03*
X7119D02*
D03*
X6819D02*
D03*
X6519D02*
D03*
X7419Y3150D02*
D03*
X7119D02*
D03*
X6819D02*
D03*
X6519D02*
D03*
X5920Y2950D02*
D03*
X5720D02*
D03*
X5519D02*
D03*
Y3050D02*
D03*
X5619D02*
D03*
X6019D02*
D03*
X5919D02*
D03*
X5820D02*
D03*
X5719D02*
D03*
X6019Y3150D02*
D03*
X5919D02*
D03*
X5819D02*
D03*
X5719D02*
D03*
X5619D02*
D03*
X5519D02*
D03*
D87*
X6860Y9360D02*
D03*
X5455Y8575D02*
D03*
X7585Y7720D02*
D03*
X4170Y7780D02*
D03*
X6630Y7035D02*
D03*
X5460Y6790D02*
D03*
X6241Y6820D02*
D03*
X5460Y6870D02*
D03*
X6066Y5172D02*
D03*
X5701Y5262D02*
D03*
X6002Y5030D02*
D03*
X6349Y6912D02*
D03*
X6960Y8535D02*
D03*
X7790Y5609D02*
D03*
Y5735D02*
D03*
Y5860D02*
D03*
X7790Y5985D02*
D03*
Y6240D02*
D03*
X7790Y6115D02*
D03*
X3490Y5545D02*
D03*
Y6430D02*
D03*
X3290Y6270D02*
D03*
Y6594D02*
D03*
Y5388D02*
D03*
Y5730D02*
D03*
X8300Y6550D02*
D03*
X8307Y5171D02*
D03*
X8510Y5326D02*
D03*
X8730Y5171D02*
D03*
X8510Y5010D02*
D03*
X8720Y6550D02*
D03*
X8510Y6730D02*
D03*
X8020Y8430D02*
D03*
X7430Y8530D02*
D03*
X7319Y8420D02*
D03*
X6199Y8810D02*
D03*
X6490D02*
D03*
Y9240D02*
D03*
X6197D02*
D03*
X5310Y9242D02*
D03*
X4030Y8363D02*
D03*
X6880Y5200D02*
D03*
X7120Y7540D02*
D03*
X7230Y7442D02*
D03*
X8070Y7540D02*
D03*
X7980Y7446D02*
D03*
X8020Y8370D02*
D03*
X8120Y8249D02*
D03*
X8020Y8154D02*
D03*
Y8657D02*
D03*
Y8880D02*
D03*
X8140Y8770D02*
D03*
X5610Y9350D02*
D03*
X8560Y9204D02*
D03*
X8130D02*
D03*
X8350Y8900D02*
D03*
X7658Y9204D02*
D03*
X7228D02*
D03*
X7447Y8900D02*
D03*
X3450Y8950D02*
D03*
X3230Y9254D02*
D03*
X3660D02*
D03*
X4140D02*
D03*
X4559Y9250D02*
D03*
X4349Y8950D02*
D03*
X6171Y8471D02*
D03*
X6280Y8592D02*
D03*
X6961Y8220D02*
D03*
X6919Y8093D02*
D03*
X7031Y7979D02*
D03*
X3800Y7496D02*
D03*
X4559Y7490D02*
D03*
X4870Y8130D02*
D03*
X4770Y8035D02*
D03*
X4960Y8360D02*
D03*
X4840Y8250D02*
D03*
X4430Y8332D02*
D03*
Y8580D02*
D03*
X3785Y8400D02*
D03*
X3790Y8180D02*
D03*
X3780Y8940D02*
D03*
X3660Y8830D02*
D03*
X6470Y6732D02*
D03*
Y7131D02*
D03*
X5340Y4590D02*
D03*
Y4340D02*
D03*
X6320Y3593D02*
D03*
X6000Y4330D02*
D03*
X6130D02*
D03*
X6500Y3710D02*
D03*
X5332Y5925D02*
D03*
X6625Y6730D02*
D03*
X6444Y5936D02*
D03*
X6241Y5369D02*
D03*
X6459Y5610D02*
D03*
X5760Y5490D02*
D03*
X7826Y4580D02*
D03*
X7170D02*
D03*
X6637Y3920D02*
D03*
X6740Y4030D02*
D03*
X6510Y4326D02*
D03*
X5748D02*
D03*
X6510Y4624D02*
D03*
X5748D02*
D03*
X7130Y5100D02*
D03*
X6262Y5736D02*
D03*
X5525Y5837D02*
D03*
X6740Y4890D02*
D03*
X6637Y5000D02*
D03*
X6510D02*
D03*
X6130Y5030D02*
D03*
X8105Y6300D02*
D03*
Y5425D02*
D03*
Y5550D02*
D03*
X7766Y4880D02*
D03*
X8100Y5925D02*
D03*
Y6050D02*
D03*
Y5670D02*
D03*
Y5800D02*
D03*
Y6180D02*
D03*
X5730Y5616D02*
D03*
X6046Y6017D02*
D03*
X5966D02*
D03*
X5891D02*
D03*
X5819D02*
D03*
X5746D02*
D03*
X7390Y7260D02*
D03*
X7820D02*
D03*
X4960Y6690D02*
D03*
X4944Y6870D02*
D03*
X4960Y7210D02*
D03*
X4930Y6540D02*
D03*
X5306Y6026D02*
D03*
X5368Y6078D02*
D03*
X4760Y6935D02*
D03*
Y6605D02*
D03*
X6890Y6960D02*
D03*
X7080Y6885D02*
D03*
X3975Y7320D02*
D03*
X4395D02*
D03*
X7645Y8530D02*
D03*
X7730D02*
D03*
X7530D02*
D03*
X4230Y8580D02*
D03*
X4150Y8580D02*
D03*
X4310D02*
D03*
X7785Y7889D02*
D03*
X4370Y7930D02*
D03*
X4020Y8213D02*
D03*
X4150Y8330D02*
D03*
X4310D02*
D03*
X7700Y8296D02*
D03*
X7550Y8295D02*
D03*
X7440Y8171D02*
D03*
D88*
X7515Y8075D02*
D03*
X7610Y7985D02*
D03*
Y8075D02*
D03*
X7705Y7985D02*
D03*
Y8075D02*
D03*
X7518Y7985D02*
D03*
X4100Y8117D02*
D03*
X4195Y8026D02*
D03*
Y8117D02*
D03*
X4290Y8026D02*
D03*
Y8117D02*
D03*
X4103Y8026D02*
D03*
D89*
X4497Y4050D02*
D03*
X5456D02*
D03*
X3620Y4040D02*
D03*
X3470D02*
D03*
X3620Y4170D02*
D03*
X3470D02*
D03*
D90*
X8510Y7525D02*
D03*
X8735Y7300D02*
D03*
X8285D02*
D03*
X8510Y7075D02*
D03*
X8660Y7150D02*
D03*
X8360D02*
D03*
X8685Y7450D02*
D03*
X8360D02*
D03*
X3290Y7525D02*
D03*
X3515Y7300D02*
D03*
X3065D02*
D03*
X3290Y7075D02*
D03*
X3440Y7150D02*
D03*
X3140D02*
D03*
X3465Y7450D02*
D03*
X3140D02*
D03*
M02*
