G04*
G04 #@! TF.GenerationSoftware,Altium Limited,Altium Designer,19.0.15 (446)*
G04*
G04 Layer_Physical_Order=3*
G04 Layer_Color=16440176*
%FSLAX42Y42*%
%MOMM*%
G71*
G01*
G75*
%ADD76C,0.50*%
%ADD83C,2.00*%
%ADD85C,6.00*%
%ADD86C,0.70*%
%ADD87C,0.50*%
%ADD88C,0.60*%
%ADD89C,0.80*%
%ADD90C,0.90*%
G36*
X8900Y3000D02*
X5966D01*
X5963Y3004D01*
X5960Y3013D01*
X5971Y3029D01*
X5975Y3050D01*
X5971Y3071D01*
X5959Y3090D01*
X5953Y3094D01*
Y3106D01*
X5959Y3110D01*
X5971Y3129D01*
X5975Y3150D01*
X5971Y3171D01*
X5959Y3190D01*
X5940Y3202D01*
X5919Y3206D01*
X5898Y3202D01*
X5879Y3190D01*
X5867Y3171D01*
X5863Y3150D01*
X5867Y3129D01*
X5879Y3110D01*
X5885Y3106D01*
Y3094D01*
X5879Y3090D01*
X5867Y3071D01*
X5863Y3050D01*
X5867Y3029D01*
X5878Y3013D01*
X5874Y3000D01*
X5766D01*
X5763Y3004D01*
X5760Y3013D01*
X5771Y3029D01*
X5775Y3050D01*
X5771Y3071D01*
X5759Y3090D01*
X5753Y3094D01*
Y3106D01*
X5759Y3110D01*
X5771Y3129D01*
X5775Y3150D01*
X5771Y3171D01*
X5759Y3190D01*
X5740Y3202D01*
X5719Y3206D01*
X5698Y3202D01*
X5679Y3190D01*
X5667Y3171D01*
X5663Y3150D01*
X5667Y3129D01*
X5679Y3110D01*
X5685Y3106D01*
Y3094D01*
X5679Y3090D01*
X5667Y3071D01*
X5663Y3050D01*
X5667Y3029D01*
X5678Y3013D01*
X5674Y3000D01*
X5564D01*
X5560Y3013D01*
X5571Y3029D01*
X5575Y3050D01*
X5571Y3071D01*
X5559Y3090D01*
X5553Y3094D01*
Y3106D01*
X5559Y3110D01*
X5571Y3129D01*
X5575Y3150D01*
X5571Y3171D01*
X5559Y3190D01*
X5540Y3202D01*
X5519Y3206D01*
X5498Y3202D01*
X5479Y3190D01*
X5467Y3171D01*
X5463Y3150D01*
X5467Y3129D01*
X5479Y3110D01*
X5485Y3106D01*
Y3094D01*
X5479Y3090D01*
X5467Y3071D01*
X5463Y3050D01*
X5467Y3029D01*
X5478Y3013D01*
X5474Y3000D01*
X5450D01*
X5400Y3050D01*
X2900D01*
Y9500D01*
X8900D01*
Y3000D01*
D02*
G37*
%LPC*%
G36*
X4841Y9470D02*
X4834Y9469D01*
X4827Y9464D01*
X4727Y9364D01*
X4723Y9358D01*
X4721Y9350D01*
X4722Y9345D01*
Y9247D01*
X4722Y9247D01*
X4724Y9240D01*
X4728Y9233D01*
X4826Y9136D01*
X4830Y9133D01*
X4828Y9121D01*
X4828Y9120D01*
X4710D01*
Y8880D01*
X4950D01*
Y9117D01*
X4950Y9120D01*
X4957Y9130D01*
X5793D01*
X5794Y9130D01*
X5795Y9130D01*
X5798Y9131D01*
X5801Y9131D01*
X5802Y9132D01*
X5803Y9132D01*
X5805Y9134D01*
X5807Y9136D01*
X5808Y9136D01*
X5819Y9134D01*
X5830Y9136D01*
X5831Y9136D01*
X5833Y9134D01*
X5835Y9132D01*
X5836Y9132D01*
X5837Y9131D01*
X5840Y9131D01*
X5843Y9130D01*
X5844Y9130D01*
X5845Y9130D01*
X6483D01*
X6490Y9120D01*
X6490Y9117D01*
Y8880D01*
X6730D01*
Y9117D01*
X6730Y9120D01*
X6737Y9130D01*
X6900D01*
X6900Y9130D01*
X6908Y9131D01*
X6914Y9136D01*
X6914Y9136D01*
X6974Y9196D01*
X6979Y9202D01*
X6980Y9210D01*
Y9350D01*
X6979Y9358D01*
X6974Y9364D01*
X6974Y9364D01*
X6874Y9464D01*
X6868Y9469D01*
X6860Y9470D01*
X4841Y9470D01*
X4841Y9470D01*
D02*
G37*
G36*
X3900Y8690D02*
X3892Y8689D01*
X3886Y8684D01*
X3666Y8464D01*
X3661Y8458D01*
X3660Y8450D01*
X3660Y7048D01*
X3278Y6667D01*
X3277Y6665D01*
X3275Y6662D01*
X3274Y6661D01*
X3274Y6660D01*
X3273Y6657D01*
X3272Y6655D01*
X3272Y6654D01*
X3272Y6653D01*
X3273Y6650D01*
X3273Y6647D01*
X3277Y6633D01*
X3279Y6630D01*
X3280Y6627D01*
X3281Y6627D01*
X3281Y6626D01*
X3283Y6624D01*
X3285Y6622D01*
X3286Y6621D01*
X3287Y6621D01*
X3290Y6620D01*
X3293Y6619D01*
X3300Y6617D01*
X3308Y6612D01*
X3313Y6604D01*
X3315Y6594D01*
X3313Y6585D01*
X3308Y6577D01*
X3300Y6571D01*
X3290Y6569D01*
X3280Y6571D01*
X3272Y6577D01*
X3267Y6585D01*
X3265Y6591D01*
X3264Y6594D01*
X3263Y6597D01*
X3263Y6598D01*
X3262Y6599D01*
X3260Y6601D01*
X3258Y6603D01*
X3258Y6604D01*
X3257Y6604D01*
X3254Y6606D01*
X3251Y6607D01*
X3238Y6611D01*
X3235Y6611D01*
X3232Y6612D01*
X3231Y6612D01*
X3230Y6612D01*
X3227Y6611D01*
X3224Y6611D01*
X3223Y6610D01*
X3222Y6610D01*
X3220Y6608D01*
X3217Y6606D01*
X3116Y6504D01*
X3111Y6498D01*
X3110Y6490D01*
Y4220D01*
X3110Y4220D01*
X3111Y4212D01*
X3116Y4206D01*
X3446Y3876D01*
X3452Y3871D01*
X3460Y3870D01*
X3610D01*
X3618Y3871D01*
X3624Y3876D01*
X3624Y3876D01*
X3774Y4026D01*
X3779Y4032D01*
X3780Y4040D01*
Y5610D01*
X3779Y5618D01*
X3774Y5624D01*
X3700Y5698D01*
Y5776D01*
X3700Y5778D01*
Y5780D01*
X3699Y5782D01*
X3699Y5784D01*
X3698Y5785D01*
X3698Y5786D01*
X3695Y5800D01*
X3698Y5814D01*
X3698Y5815D01*
X3699Y5816D01*
X3699Y5818D01*
X3700Y5820D01*
Y5822D01*
X3700Y5824D01*
Y5865D01*
X3713Y5872D01*
X3730Y5869D01*
X3751Y5873D01*
X3760Y5879D01*
X4012D01*
X4099Y5792D01*
X4101Y5791D01*
X4102Y5790D01*
X4115Y5781D01*
X4124Y5768D01*
X4125Y5767D01*
X4126Y5765D01*
X4413Y5478D01*
X4420Y5474D01*
X4428Y5472D01*
X4885Y5472D01*
X5057Y5322D01*
Y5157D01*
X5057Y5155D01*
Y5153D01*
X5058Y5151D01*
X5059Y5149D01*
X5060Y5148D01*
X5060Y5146D01*
X5066Y5137D01*
X5069Y5124D01*
X5066Y5110D01*
X5060Y5101D01*
X5060Y5099D01*
X5059Y5098D01*
X5058Y5096D01*
X5057Y5094D01*
Y5092D01*
X5057Y5090D01*
Y4723D01*
Y4198D01*
X5057Y4198D01*
X5059Y4190D01*
X5063Y4183D01*
X5063Y4183D01*
X5352Y3895D01*
X5358Y3890D01*
X5366Y3889D01*
X5619D01*
X5627Y3890D01*
X5633Y3895D01*
X5633Y3895D01*
X5694Y3956D01*
X5699Y3962D01*
X5700Y3970D01*
Y4280D01*
X5702Y4280D01*
X5703Y4281D01*
X5705Y4281D01*
X5707Y4282D01*
X5709Y4283D01*
X5710Y4285D01*
X5711Y4286D01*
X5713Y4288D01*
X5714Y4289D01*
X5722Y4302D01*
X5723Y4305D01*
X5725Y4309D01*
Y4309D01*
X5725Y4309D01*
X5725Y4313D01*
Y4317D01*
X5723Y4326D01*
X5725Y4335D01*
X5730Y4343D01*
X5738Y4349D01*
X5748Y4351D01*
X5758Y4349D01*
X5766Y4343D01*
X5771Y4335D01*
X5773Y4326D01*
X5771Y4317D01*
Y4313D01*
X5771Y4309D01*
X5771Y4309D01*
Y4309D01*
X5773Y4305D01*
X5774Y4302D01*
X5782Y4289D01*
X5783Y4288D01*
X5785Y4286D01*
X5786Y4285D01*
X5787Y4283D01*
X5789Y4282D01*
X5791Y4281D01*
X5793Y4281D01*
X5794Y4280D01*
X5797Y4280D01*
X5799Y4280D01*
X5951D01*
X5953Y4280D01*
X5954Y4280D01*
X5956Y4281D01*
X5959Y4281D01*
X5960Y4282D01*
X5962Y4283D01*
X5963Y4284D01*
X5965Y4286D01*
X5978Y4291D01*
X5982Y4288D01*
X6000Y4284D01*
X6018Y4288D01*
X6022Y4291D01*
X6035Y4286D01*
X6037Y4284D01*
X6038Y4283D01*
X6040Y4282D01*
X6041Y4281D01*
X6044Y4281D01*
X6046Y4280D01*
X6047Y4280D01*
X6049Y4280D01*
X6081D01*
X6083Y4280D01*
X6084Y4280D01*
X6086Y4281D01*
X6089Y4281D01*
X6090Y4282D01*
X6092Y4283D01*
X6093Y4284D01*
X6095Y4286D01*
X6108Y4291D01*
X6112Y4288D01*
X6130Y4284D01*
X6148Y4288D01*
X6152Y4291D01*
X6165Y4286D01*
X6167Y4284D01*
X6168Y4283D01*
X6170Y4282D01*
X6171Y4281D01*
X6174Y4281D01*
X6176Y4280D01*
X6177Y4280D01*
X6179Y4280D01*
X6459D01*
X6461Y4280D01*
X6464Y4280D01*
X6465Y4281D01*
X6467Y4281D01*
X6469Y4282D01*
X6471Y4283D01*
X6472Y4285D01*
X6473Y4286D01*
X6475Y4288D01*
X6476Y4289D01*
X6484Y4302D01*
X6485Y4305D01*
X6487Y4309D01*
Y4309D01*
X6487Y4309D01*
X6487Y4313D01*
Y4317D01*
X6485Y4326D01*
X6487Y4335D01*
X6492Y4343D01*
X6500Y4349D01*
X6510Y4351D01*
X6520Y4349D01*
X6528Y4343D01*
X6533Y4335D01*
X6535Y4326D01*
X6533Y4316D01*
X6528Y4308D01*
X6520Y4302D01*
X6515Y4301D01*
X6513Y4301D01*
X6511Y4300D01*
X6510Y4299D01*
X6508Y4298D01*
X6506Y4297D01*
X6505Y4296D01*
X6503Y4294D01*
X6502Y4293D01*
X6501Y4291D01*
X6500Y4289D01*
X6500Y4287D01*
X6499Y4285D01*
Y4283D01*
X6499Y4281D01*
Y3963D01*
X6499Y3961D01*
Y3959D01*
X6500Y3957D01*
X6500Y3955D01*
X6501Y3954D01*
X6502Y3952D01*
X6503Y3951D01*
X6505Y3949D01*
X6506Y3948D01*
X6508Y3946D01*
X6510Y3946D01*
X6511Y3944D01*
X6513Y3944D01*
X6515Y3943D01*
X6524Y3942D01*
X6535Y3934D01*
X6543Y3923D01*
X6545Y3909D01*
X6543Y3895D01*
X6533Y3881D01*
X6532Y3879D01*
X6531Y3877D01*
X6530Y3875D01*
X6530Y3873D01*
Y3871D01*
X6529Y3869D01*
X6530Y3867D01*
Y3865D01*
X6530Y3864D01*
X6531Y3862D01*
X6532Y3860D01*
X6533Y3858D01*
X6534Y3857D01*
X6535Y3855D01*
X6605Y3786D01*
X6611Y3781D01*
X6619Y3780D01*
X6740D01*
X6740Y3780D01*
X6748Y3781D01*
X6754Y3786D01*
X6864Y3896D01*
X6869Y3902D01*
X6870Y3910D01*
Y4092D01*
X7532Y4754D01*
X8074D01*
X8082Y4755D01*
X8088Y4760D01*
X8088Y4760D01*
X8814Y5486D01*
X8819Y5492D01*
X8820Y5500D01*
Y6350D01*
X8820Y6350D01*
X8819Y6358D01*
X8814Y6364D01*
X8814Y6364D01*
X8714Y6464D01*
X8708Y6469D01*
X8700Y6470D01*
X8550D01*
X8550Y6470D01*
X8542Y6469D01*
X8536Y6464D01*
X8436Y6364D01*
X8431Y6358D01*
X8430Y6350D01*
Y5658D01*
X8314Y5543D01*
X8141D01*
X8139Y5542D01*
X8137D01*
X8135Y5542D01*
X8133Y5541D01*
X8131Y5540D01*
X8129Y5539D01*
X8128Y5538D01*
X8126Y5537D01*
X8125Y5535D01*
X8124Y5534D01*
X8123Y5532D01*
X8115Y5527D01*
X8105Y5525D01*
X8094Y5527D01*
X8092D01*
X8090Y5528D01*
X8088Y5527D01*
X8086D01*
X8084Y5526D01*
X8082Y5526D01*
X8080Y5525D01*
X8078Y5524D01*
X8077Y5523D01*
X8075Y5522D01*
X7999Y5445D01*
X7005D01*
X6928Y5522D01*
X6928Y5627D01*
X6926Y5635D01*
X6922Y5641D01*
X6922Y5641D01*
X6551Y6012D01*
X6551Y6012D01*
X6544Y6017D01*
X6536Y6018D01*
X6437Y6018D01*
X6437Y6018D01*
X6430Y6017D01*
X6423Y6012D01*
X6359Y5948D01*
X6354Y5941D01*
X6353Y5934D01*
X6353Y5716D01*
X6132Y5495D01*
X6128Y5489D01*
X6126Y5481D01*
Y5373D01*
X6128Y5365D01*
X6132Y5358D01*
X6198Y5292D01*
X6205Y5288D01*
X6213Y5286D01*
X6286D01*
X6543Y5030D01*
Y4812D01*
X6427Y4696D01*
X5775D01*
X5774Y4696D01*
X5773Y4696D01*
X5770Y4695D01*
X5767Y4695D01*
X5766Y4694D01*
X5765Y4694D01*
X5763Y4692D01*
X5761Y4690D01*
X5760Y4689D01*
X5759Y4689D01*
X5758Y4686D01*
X5756Y4684D01*
X5756Y4683D01*
X5756Y4682D01*
X5755Y4679D01*
X5741D01*
X5740Y4682D01*
X5740Y4683D01*
X5740Y4684D01*
X5738Y4686D01*
X5737Y4689D01*
X5736Y4689D01*
X5735Y4690D01*
X5733Y4692D01*
X5731Y4694D01*
X5730Y4694D01*
X5729Y4695D01*
X5726Y4695D01*
X5723Y4696D01*
X5722Y4696D01*
X5721Y4696D01*
X5700D01*
Y4766D01*
X5858Y4923D01*
X5862Y4930D01*
X5864Y4937D01*
Y5531D01*
X5864Y5531D01*
X5862Y5539D01*
X5858Y5546D01*
X5858Y5546D01*
X5798Y5606D01*
X5797Y5607D01*
X5796Y5607D01*
X5794Y5609D01*
X5791Y5610D01*
X5790Y5611D01*
X5789Y5611D01*
X5788Y5611D01*
X5776Y5616D01*
X5773Y5634D01*
X5763Y5649D01*
X5748Y5659D01*
X5735Y5661D01*
X5728Y5667D01*
X5725Y5674D01*
X5725Y5675D01*
X5725Y5676D01*
X5724Y5677D01*
X5723Y5679D01*
X5721Y5682D01*
X5721Y5683D01*
X5720Y5684D01*
X5584Y5820D01*
X5583Y5820D01*
X5582Y5821D01*
X5580Y5822D01*
X5577Y5824D01*
X5576Y5824D01*
X5575Y5825D01*
X5572Y5825D01*
X5570Y5826D01*
X5569Y5825D01*
X5568Y5826D01*
X5556Y5824D01*
X5555Y5824D01*
X5554D01*
X5551Y5823D01*
X5548Y5822D01*
X5547Y5821D01*
X5546Y5821D01*
X5535Y5813D01*
X5525Y5811D01*
X5516Y5813D01*
X5507Y5819D01*
X5502Y5827D01*
X5500Y5837D01*
X5502Y5846D01*
X5510Y5858D01*
X5510Y5859D01*
X5511Y5859D01*
X5512Y5862D01*
X5513Y5865D01*
Y5866D01*
X5513Y5867D01*
X5514Y5879D01*
X5514Y5880D01*
X5514Y5881D01*
X5514Y5884D01*
X5513Y5887D01*
X5513Y5888D01*
X5513Y5889D01*
X5511Y5891D01*
X5510Y5894D01*
X5509Y5894D01*
X5508Y5895D01*
X5382Y6022D01*
X5385Y6036D01*
X5400Y6045D01*
X5410Y6060D01*
X5413Y6078D01*
X5410Y6095D01*
X5400Y6110D01*
X5385Y6120D01*
X5368Y6124D01*
X5350Y6120D01*
X5335Y6110D01*
X5325Y6095D01*
X5324Y6089D01*
X5314Y6087D01*
X5311Y6088D01*
X5310Y6089D01*
X5309Y6092D01*
X5308Y6093D01*
X5307Y6094D01*
X5299Y6104D01*
X5298Y6104D01*
X5298Y6104D01*
X5295Y6106D01*
X5292Y6108D01*
X5292Y6109D01*
X5291Y6109D01*
X5288Y6110D01*
X5285Y6110D01*
X5284Y6110D01*
X5283Y6110D01*
X4729D01*
X4621Y6219D01*
X4627Y6230D01*
X4630Y6230D01*
X4744D01*
X4744Y6230D01*
X4752Y6231D01*
X4758Y6236D01*
X5042Y6520D01*
X5343D01*
X5346Y6520D01*
X5349Y6520D01*
X5349Y6521D01*
X5350Y6521D01*
X5352Y6522D01*
X5359Y6518D01*
X5380Y6514D01*
X5401Y6518D01*
X5408Y6522D01*
X5410Y6521D01*
X5411Y6521D01*
X5411Y6520D01*
X5414Y6520D01*
X5417Y6520D01*
X5785D01*
X5787Y6520D01*
X5789D01*
X5791Y6521D01*
X5793Y6521D01*
X5795Y6522D01*
X5796Y6523D01*
X5798Y6524D01*
X5800Y6526D01*
X5801Y6527D01*
X5802Y6529D01*
X5806Y6535D01*
X5806Y6535D01*
X5808Y6536D01*
X5809Y6538D01*
X5810Y6539D01*
X5811Y6541D01*
X5812Y6542D01*
X5813Y6544D01*
X5813Y6546D01*
Y6548D01*
X5814Y6550D01*
Y6563D01*
X5813Y6565D01*
Y6567D01*
X5813Y6569D01*
X5812Y6571D01*
X5811Y6572D01*
X5810Y6574D01*
X5809Y6576D01*
X5808Y6577D01*
X5806Y6578D01*
X5806Y6578D01*
X5798Y6591D01*
X5795Y6604D01*
X5798Y6618D01*
X5806Y6629D01*
X5817Y6637D01*
X5831Y6640D01*
X5844Y6637D01*
X5852Y6631D01*
X5854Y6631D01*
X5856Y6629D01*
X5866Y6626D01*
X5869Y6625D01*
X5872Y6625D01*
X5873Y6625D01*
X5874Y6625D01*
X5877Y6625D01*
X5880Y6626D01*
X5889Y6629D01*
X5892Y6631D01*
X5894Y6631D01*
X5902Y6637D01*
X5915Y6640D01*
X5929Y6637D01*
X5940Y6629D01*
X5948Y6618D01*
X5951Y6604D01*
X5948Y6591D01*
X5940Y6579D01*
X5938Y6578D01*
X5937Y6577D01*
X5935Y6576D01*
X5934Y6574D01*
X5933Y6572D01*
X5932Y6571D01*
X5931Y6569D01*
X5931Y6567D01*
X5930Y6565D01*
Y6563D01*
X5929Y6561D01*
Y6548D01*
X5930Y6546D01*
Y6544D01*
X5931Y6543D01*
X5931Y6541D01*
X5932Y6539D01*
X5933Y6537D01*
X5934Y6536D01*
X5935Y6534D01*
X5937Y6533D01*
X5938Y6531D01*
X5940Y6530D01*
X5941Y6529D01*
X5943Y6527D01*
X5944Y6526D01*
X5946Y6524D01*
X5947Y6523D01*
X5949Y6522D01*
X5951Y6521D01*
X5952Y6521D01*
X5954Y6520D01*
X5956D01*
X5958Y6520D01*
X6800D01*
X6800Y6520D01*
X6808Y6521D01*
X6814Y6526D01*
X6814Y6526D01*
X6879Y6591D01*
X6879Y6591D01*
X6974Y6686D01*
X6979Y6692D01*
X6980Y6700D01*
Y7070D01*
X6980Y7070D01*
X6979Y7078D01*
X6974Y7084D01*
X6914Y7144D01*
X6908Y7149D01*
X6900Y7150D01*
X6740D01*
X6732Y7149D01*
X6726Y7144D01*
X6726Y7144D01*
X6686Y7104D01*
X6681Y7098D01*
X6680Y7090D01*
Y7065D01*
X6667Y7061D01*
X6662Y7067D01*
X6648Y7077D01*
X6630Y7081D01*
X6612Y7077D01*
X6598Y7067D01*
X6588Y7053D01*
X6584Y7035D01*
X6588Y7017D01*
X6598Y7003D01*
X6612Y6993D01*
X6612Y6992D01*
X6606Y6980D01*
X6382D01*
X6381Y6980D01*
X6380Y6980D01*
X6377Y6979D01*
X6374Y6979D01*
X6373Y6978D01*
X6372Y6978D01*
X6370Y6976D01*
X6367Y6974D01*
X6367Y6974D01*
X6366Y6973D01*
X6364Y6970D01*
X6363Y6968D01*
X6363Y6967D01*
X6362Y6966D01*
X6358Y6953D01*
X6358Y6952D01*
X6358Y6951D01*
Y6948D01*
X6357Y6945D01*
X6358Y6944D01*
Y6943D01*
X6359Y6941D01*
X6360Y6938D01*
X6360Y6937D01*
X6361Y6936D01*
X6363Y6934D01*
X6365Y6932D01*
X6366Y6931D01*
X6366Y6930D01*
X6367Y6930D01*
X6372Y6922D01*
X6374Y6912D01*
X6372Y6903D01*
X6367Y6895D01*
X6359Y6889D01*
X6349Y6887D01*
X6339Y6889D01*
X6331Y6895D01*
X6326Y6903D01*
X6324Y6912D01*
X6326Y6922D01*
X6331Y6930D01*
X6332Y6930D01*
X6332Y6931D01*
X6333Y6932D01*
X6335Y6934D01*
X6337Y6936D01*
X6338Y6937D01*
X6338Y6938D01*
X6339Y6941D01*
X6340Y6943D01*
Y6944D01*
X6341Y6945D01*
X6340Y6948D01*
Y6951D01*
X6340Y6952D01*
X6340Y6953D01*
X6336Y6966D01*
X6335Y6967D01*
X6335Y6968D01*
X6334Y6970D01*
X6332Y6973D01*
X6331Y6974D01*
X6331Y6974D01*
X6328Y6976D01*
X6326Y6978D01*
X6325Y6978D01*
X6324Y6979D01*
X6321Y6979D01*
X6318Y6980D01*
X6317Y6980D01*
X6316Y6980D01*
X6275D01*
X6271Y6992D01*
X6492Y7213D01*
X6496Y7220D01*
X6498Y7228D01*
X6498Y7250D01*
X6498Y7250D01*
X6498Y7250D01*
X6497Y7254D01*
X6496Y7258D01*
X6496Y7258D01*
X6496Y7258D01*
X6494Y7261D01*
X6492Y7264D01*
X6492Y7264D01*
X6492Y7264D01*
X6160Y7594D01*
X6157Y7597D01*
X6154Y7599D01*
X6154Y7599D01*
X6154Y7599D01*
X6150Y7600D01*
X6146Y7600D01*
X4370Y7600D01*
X4370Y7600D01*
X4362Y7599D01*
X4356Y7594D01*
X4096Y7334D01*
X4091Y7328D01*
X4090Y7320D01*
Y6487D01*
X4006Y6403D01*
X4001Y6397D01*
X4000Y6389D01*
X4000Y5971D01*
X3760D01*
X3751Y5977D01*
X3730Y5981D01*
X3713Y5978D01*
X3700Y5985D01*
Y6272D01*
X4034Y6606D01*
X4039Y6612D01*
X4040Y6620D01*
Y7283D01*
X4040Y7284D01*
X4040Y7285D01*
X4039Y7288D01*
X4039Y7291D01*
X4038Y7292D01*
X4038Y7293D01*
X4036Y7295D01*
X4034Y7298D01*
X4034Y7298D01*
X4033Y7299D01*
X4030Y7301D01*
X4028Y7302D01*
X4019Y7312D01*
X4021Y7320D01*
X4019Y7328D01*
X4028Y7338D01*
X4030Y7339D01*
X4033Y7341D01*
X4034Y7342D01*
X4034Y7342D01*
X4036Y7345D01*
X4038Y7347D01*
X4038Y7348D01*
X4039Y7349D01*
X4039Y7352D01*
X4040Y7355D01*
X4040Y7356D01*
X4040Y7357D01*
Y8082D01*
X4064Y8105D01*
X4065Y8107D01*
X4067Y8108D01*
X4067Y8110D01*
X4068Y8112D01*
X4069Y8114D01*
X4070Y8116D01*
X4072Y8128D01*
X4079Y8138D01*
X4088Y8144D01*
X4101Y8147D01*
X4103Y8148D01*
X4105Y8148D01*
X4106Y8149D01*
X4108Y8150D01*
X4110Y8151D01*
X4111Y8152D01*
X4128Y8170D01*
X6912Y8170D01*
X6914Y8170D01*
X6915Y8170D01*
X6917Y8171D01*
X6920Y8171D01*
X6921Y8172D01*
X6923Y8173D01*
X6924Y8174D01*
X6926Y8176D01*
X6927Y8177D01*
X6929Y8178D01*
X6936Y8189D01*
X6936Y8189D01*
X6936Y8189D01*
X6937Y8193D01*
X6939Y8196D01*
X6939Y8196D01*
X6939Y8196D01*
X6939Y8200D01*
X6939Y8204D01*
X6939Y8204D01*
X6939Y8204D01*
X6939Y8207D01*
X6939Y8207D01*
Y8207D01*
X6936Y8220D01*
X6938Y8230D01*
X6943Y8238D01*
X6951Y8243D01*
X6961Y8245D01*
X6971Y8243D01*
X6979Y8238D01*
X6984Y8230D01*
X6986Y8220D01*
X6983Y8207D01*
Y8207D01*
X6983Y8207D01*
X6983Y8204D01*
X6983Y8204D01*
X6983Y8204D01*
X6983Y8200D01*
X6983Y8196D01*
X6983Y8196D01*
X6983Y8196D01*
X6985Y8193D01*
X6986Y8189D01*
X6986Y8189D01*
X6986Y8189D01*
X6993Y8178D01*
X6995Y8177D01*
X6996Y8176D01*
X6998Y8174D01*
X6999Y8173D01*
X7001Y8172D01*
X7002Y8171D01*
X7005Y8171D01*
X7007Y8170D01*
X7008Y8170D01*
X7010Y8170D01*
X7398D01*
X7400Y8170D01*
X7402D01*
X7404Y8171D01*
X7406Y8171D01*
X7408Y8172D01*
X7410Y8173D01*
X7411Y8174D01*
X7413Y8176D01*
X7414Y8177D01*
X7415Y8179D01*
X7422Y8189D01*
X7430Y8195D01*
X7440Y8197D01*
X7450Y8195D01*
X7458Y8189D01*
X7465Y8179D01*
X7466Y8177D01*
X7467Y8176D01*
X7469Y8174D01*
X7470Y8173D01*
X7472Y8172D01*
X7474Y8171D01*
X7476Y8171D01*
X7478Y8170D01*
X7480D01*
X7482Y8170D01*
X7710D01*
X7710Y8170D01*
X7718Y8171D01*
X7724Y8176D01*
X7814Y8266D01*
X7819Y8272D01*
X7820Y8280D01*
X7820Y8620D01*
X7820Y8620D01*
X7819Y8628D01*
X7814Y8634D01*
X7814Y8634D01*
X7764Y8684D01*
X7764Y8684D01*
X7758Y8689D01*
X7750Y8690D01*
X3900Y8690D01*
X3900Y8690D01*
D02*
G37*
G36*
X4170Y7826D02*
X4152Y7822D01*
X4138Y7812D01*
X4128Y7798D01*
X4124Y7780D01*
X4128Y7762D01*
X4138Y7748D01*
X4152Y7738D01*
X4170Y7734D01*
X4188Y7738D01*
X4202Y7748D01*
X4212Y7762D01*
X4216Y7780D01*
X4212Y7798D01*
X4202Y7812D01*
X4188Y7822D01*
X4170Y7826D01*
D02*
G37*
G36*
X7585Y7766D02*
X7567Y7762D01*
X7553Y7752D01*
X7543Y7738D01*
X7539Y7720D01*
X7543Y7702D01*
X7553Y7688D01*
X7567Y7678D01*
X7585Y7674D01*
X7603Y7678D01*
X7617Y7688D01*
X7627Y7702D01*
X7631Y7720D01*
X7627Y7738D01*
X7617Y7752D01*
X7603Y7762D01*
X7585Y7766D01*
D02*
G37*
G36*
X7820Y7306D02*
X7802Y7302D01*
X7788Y7292D01*
X7778Y7278D01*
X7774Y7260D01*
X7778Y7242D01*
X7788Y7228D01*
X7802Y7218D01*
X7820Y7214D01*
X7838Y7218D01*
X7852Y7228D01*
X7862Y7242D01*
X7866Y7260D01*
X7862Y7278D01*
X7852Y7292D01*
X7838Y7302D01*
X7820Y7306D01*
D02*
G37*
G36*
X7390D02*
X7372Y7302D01*
X7358Y7292D01*
X7348Y7278D01*
X7344Y7260D01*
X7348Y7242D01*
X7358Y7228D01*
X7372Y7218D01*
X7390Y7214D01*
X7408Y7218D01*
X7422Y7228D01*
X7432Y7242D01*
X7436Y7260D01*
X7432Y7278D01*
X7422Y7292D01*
X7408Y7302D01*
X7390Y7306D01*
D02*
G37*
G36*
X7080Y6931D02*
X7062Y6927D01*
X7048Y6917D01*
X7038Y6903D01*
X7034Y6885D01*
X7038Y6867D01*
X7048Y6853D01*
X7062Y6843D01*
X7080Y6839D01*
X7098Y6843D01*
X7112Y6853D01*
X7122Y6867D01*
X7126Y6885D01*
X7122Y6903D01*
X7112Y6917D01*
X7098Y6927D01*
X7080Y6931D01*
D02*
G37*
G36*
X8100Y6226D02*
X8082Y6222D01*
X8068Y6212D01*
X8058Y6198D01*
X8054Y6180D01*
X8058Y6162D01*
X8068Y6148D01*
X8082Y6138D01*
X8100Y6134D01*
X8118Y6138D01*
X8132Y6148D01*
X8142Y6162D01*
X8146Y6180D01*
X8142Y6198D01*
X8132Y6212D01*
X8118Y6222D01*
X8100Y6226D01*
D02*
G37*
G36*
X6046Y6063D02*
X6029Y6059D01*
X6014Y6049D01*
X6012Y6047D01*
X6000D01*
X5998Y6049D01*
X5984Y6059D01*
X5966Y6063D01*
X5948Y6059D01*
X5934Y6049D01*
X5923D01*
X5908Y6059D01*
X5891Y6063D01*
X5873Y6059D01*
X5858Y6049D01*
X5851D01*
X5837Y6059D01*
X5819Y6063D01*
X5801Y6059D01*
X5787Y6049D01*
X5779D01*
X5764Y6059D01*
X5746Y6063D01*
X5729Y6059D01*
X5714Y6049D01*
X5704Y6034D01*
X5701Y6017D01*
X5704Y5999D01*
X5714Y5984D01*
X5729Y5974D01*
X5746Y5971D01*
X5764Y5974D01*
X5779Y5984D01*
X5787D01*
X5801Y5974D01*
X5819Y5971D01*
X5837Y5974D01*
X5851Y5984D01*
X5858D01*
X5873Y5974D01*
X5891Y5971D01*
X5908Y5974D01*
X5923Y5984D01*
X5934D01*
X5948Y5974D01*
X5966Y5971D01*
X5984Y5974D01*
X5998Y5984D01*
X6000Y5986D01*
X6012D01*
X6014Y5984D01*
X6029Y5974D01*
X6046Y5971D01*
X6064Y5974D01*
X6079Y5984D01*
X6088Y5999D01*
X6092Y6017D01*
X6088Y6034D01*
X6079Y6049D01*
X6064Y6059D01*
X6046Y6063D01*
D02*
G37*
G36*
X8100Y6096D02*
X8082Y6092D01*
X8068Y6082D01*
X8058Y6068D01*
X8054Y6050D01*
X8058Y6032D01*
X8068Y6018D01*
X8082Y6008D01*
X8100Y6004D01*
X8118Y6008D01*
X8132Y6018D01*
X8142Y6032D01*
X8146Y6050D01*
X8142Y6068D01*
X8132Y6082D01*
X8118Y6092D01*
X8100Y6096D01*
D02*
G37*
G36*
Y5971D02*
X8082Y5967D01*
X8068Y5957D01*
X8058Y5943D01*
X8054Y5925D01*
X8058Y5907D01*
X8068Y5893D01*
X8082Y5883D01*
X8100Y5879D01*
X8118Y5883D01*
X8132Y5893D01*
X8142Y5907D01*
X8146Y5925D01*
X8142Y5943D01*
X8132Y5957D01*
X8118Y5967D01*
X8100Y5971D01*
D02*
G37*
G36*
Y5846D02*
X8082Y5842D01*
X8068Y5832D01*
X8058Y5818D01*
X8054Y5800D01*
X8058Y5782D01*
X8068Y5768D01*
X8082Y5758D01*
X8100Y5754D01*
X8118Y5758D01*
X8132Y5768D01*
X8142Y5782D01*
X8146Y5800D01*
X8142Y5818D01*
X8132Y5832D01*
X8118Y5842D01*
X8100Y5846D01*
D02*
G37*
G36*
Y5716D02*
X8082Y5712D01*
X8068Y5702D01*
X8058Y5688D01*
X8054Y5670D01*
X8058Y5652D01*
X8068Y5638D01*
X8082Y5628D01*
X8100Y5624D01*
X8118Y5628D01*
X8132Y5638D01*
X8142Y5652D01*
X8146Y5670D01*
X8142Y5688D01*
X8132Y5702D01*
X8118Y5712D01*
X8100Y5716D01*
D02*
G37*
G36*
X6066Y5218D02*
X6049Y5214D01*
X6034Y5204D01*
X6024Y5190D01*
X6020Y5172D01*
X6024Y5154D01*
X6034Y5140D01*
X6049Y5130D01*
X6066Y5126D01*
X6084Y5130D01*
X6099Y5140D01*
X6109Y5154D01*
X6112Y5172D01*
X6109Y5190D01*
X6099Y5204D01*
X6084Y5214D01*
X6066Y5218D01*
D02*
G37*
G36*
X6130Y5076D02*
X6112Y5072D01*
X6097Y5062D01*
X6087Y5048D01*
X6084Y5030D01*
X6087Y5012D01*
X6097Y4998D01*
X6112Y4988D01*
X6130Y4984D01*
X6147Y4988D01*
X6162Y4998D01*
X6172Y5012D01*
X6176Y5030D01*
X6172Y5048D01*
X6162Y5062D01*
X6147Y5072D01*
X6130Y5076D01*
D02*
G37*
G36*
X6002D02*
X5984Y5072D01*
X5970Y5062D01*
X5960Y5048D01*
X5956Y5030D01*
X5960Y5012D01*
X5970Y4998D01*
X5984Y4988D01*
X6002Y4984D01*
X6020Y4988D01*
X6034Y4998D01*
X6044Y5012D01*
X6048Y5030D01*
X6044Y5048D01*
X6034Y5062D01*
X6020Y5072D01*
X6002Y5076D01*
D02*
G37*
G36*
X4497Y4111D02*
X4474Y4107D01*
X4454Y4093D01*
X4441Y4073D01*
X4436Y4050D01*
X4441Y4027D01*
X4454Y4007D01*
X4474Y3993D01*
X4497Y3989D01*
X4521Y3993D01*
X4541Y4007D01*
X4554Y4027D01*
X4559Y4050D01*
X4554Y4073D01*
X4541Y4093D01*
X4521Y4107D01*
X4497Y4111D01*
D02*
G37*
G36*
X6500Y3756D02*
X6482Y3752D01*
X6468Y3742D01*
X6458Y3728D01*
X6454Y3710D01*
X6458Y3692D01*
X6468Y3678D01*
X6482Y3668D01*
X6500Y3664D01*
X6518Y3668D01*
X6532Y3678D01*
X6542Y3692D01*
X6546Y3710D01*
X6542Y3728D01*
X6532Y3742D01*
X6518Y3752D01*
X6500Y3756D01*
D02*
G37*
G36*
X6320Y3639D02*
X6302Y3635D01*
X6288Y3625D01*
X6278Y3610D01*
X6274Y3593D01*
X6278Y3575D01*
X6288Y3560D01*
X6302Y3551D01*
X6320Y3547D01*
X6338Y3551D01*
X6352Y3560D01*
X6362Y3575D01*
X6366Y3593D01*
X6362Y3610D01*
X6352Y3625D01*
X6338Y3635D01*
X6320Y3639D01*
D02*
G37*
%LPD*%
G36*
X6860Y9450D02*
X6960Y9350D01*
Y9210D01*
X6900Y9150D01*
X5845D01*
X5841Y9163D01*
X5844Y9165D01*
X5852Y9176D01*
X5852Y9177D01*
X5786D01*
X5786Y9176D01*
X5794Y9165D01*
X5797Y9163D01*
X5793Y9150D01*
X4840D01*
X4743Y9247D01*
Y9349D01*
X4741Y9350D01*
X4841Y9450D01*
X6860Y9450D01*
D02*
G37*
%LPC*%
G36*
X6873Y9382D02*
Y9373D01*
X6882D01*
X6878Y9378D01*
X6873Y9382D01*
D02*
G37*
G36*
X6847D02*
X6842Y9378D01*
X6838Y9373D01*
X6847D01*
Y9382D01*
D02*
G37*
G36*
X6882Y9347D02*
X6873D01*
Y9338D01*
X6878Y9342D01*
X6882Y9347D01*
D02*
G37*
G36*
X6847D02*
X6838D01*
X6842Y9342D01*
X6847Y9338D01*
Y9347D01*
D02*
G37*
G36*
X5610Y9396D02*
X5592Y9392D01*
X5578Y9382D01*
X5568Y9368D01*
X5564Y9350D01*
X5568Y9332D01*
X5578Y9318D01*
X5592Y9308D01*
X5610Y9304D01*
X5628Y9308D01*
X5642Y9318D01*
X5652Y9332D01*
X5656Y9350D01*
X5652Y9368D01*
X5642Y9382D01*
X5628Y9392D01*
X5610Y9396D01*
D02*
G37*
G36*
X5832Y9223D02*
Y9203D01*
X5852D01*
X5852Y9204D01*
X5844Y9215D01*
X5833Y9223D01*
X5832Y9223D01*
D02*
G37*
G36*
X5806D02*
X5805Y9223D01*
X5794Y9215D01*
X5786Y9204D01*
X5786Y9203D01*
X5806D01*
Y9223D01*
D02*
G37*
G36*
X5310Y9288D02*
X5292Y9284D01*
X5278Y9274D01*
X5268Y9259D01*
X5264Y9242D01*
X5268Y9224D01*
X5278Y9209D01*
X5292Y9199D01*
X5310Y9196D01*
X5328Y9199D01*
X5342Y9209D01*
X5352Y9224D01*
X5356Y9242D01*
X5352Y9259D01*
X5342Y9274D01*
X5328Y9284D01*
X5310Y9288D01*
D02*
G37*
G36*
X6490Y9286D02*
X6472Y9282D01*
X6458Y9272D01*
X6448Y9258D01*
X6444Y9240D01*
X6448Y9222D01*
X6458Y9208D01*
X6472Y9198D01*
X6490Y9194D01*
X6508Y9198D01*
X6522Y9208D01*
X6532Y9222D01*
X6536Y9240D01*
X6532Y9258D01*
X6522Y9272D01*
X6508Y9282D01*
X6490Y9286D01*
D02*
G37*
G36*
X6197D02*
X6180Y9282D01*
X6165Y9272D01*
X6155Y9258D01*
X6151Y9240D01*
X6155Y9222D01*
X6165Y9208D01*
X6180Y9198D01*
X6197Y9194D01*
X6215Y9198D01*
X6230Y9208D01*
X6240Y9222D01*
X6243Y9240D01*
X6240Y9258D01*
X6230Y9272D01*
X6215Y9282D01*
X6197Y9286D01*
D02*
G37*
%LPD*%
G36*
X7750Y8670D02*
X7800Y8620D01*
X7800Y8280D01*
X7710Y8190D01*
X7482D01*
X7472Y8204D01*
X7458Y8214D01*
X7440Y8217D01*
X7422Y8214D01*
X7408Y8204D01*
X7398Y8190D01*
X7010D01*
X7003Y8200D01*
X7003Y8203D01*
X7007Y8220D01*
X7003Y8238D01*
X6993Y8252D01*
X6979Y8262D01*
X6961Y8266D01*
X6943Y8262D01*
X6929Y8252D01*
X6919Y8238D01*
X6915Y8220D01*
X6919Y8203D01*
X6919Y8200D01*
X6912Y8190D01*
X4120Y8190D01*
X4097Y8167D01*
X4080Y8164D01*
X4064Y8153D01*
X4053Y8136D01*
X4050Y8120D01*
X4020Y8090D01*
Y7357D01*
X4007Y7352D01*
X3993Y7362D01*
X3975Y7366D01*
X3957Y7362D01*
X3943Y7352D01*
X3933Y7338D01*
X3929Y7320D01*
X3933Y7302D01*
X3943Y7288D01*
X3957Y7278D01*
X3975Y7274D01*
X3993Y7278D01*
X4007Y7288D01*
X4020Y7283D01*
Y6620D01*
X3680Y6280D01*
Y5949D01*
X3678Y5946D01*
X3674Y5925D01*
X3678Y5904D01*
X3680Y5901D01*
Y5824D01*
X3678Y5821D01*
X3674Y5800D01*
X3678Y5779D01*
X3680Y5776D01*
Y5690D01*
X3760Y5610D01*
Y4040D01*
X3610Y3890D01*
X3460D01*
X3130Y4220D01*
Y6490D01*
X3232Y6592D01*
X3245Y6588D01*
X3248Y6577D01*
X3258Y6562D01*
X3272Y6552D01*
X3290Y6548D01*
X3308Y6552D01*
X3322Y6562D01*
X3332Y6577D01*
X3336Y6594D01*
X3332Y6612D01*
X3322Y6627D01*
X3308Y6637D01*
X3297Y6639D01*
X3293Y6653D01*
X3680Y7040D01*
X3680Y8450D01*
X3900Y8670D01*
X7750Y8670D01*
D02*
G37*
G36*
X6146Y7580D02*
X6477Y7250D01*
X6477Y7228D01*
X6242Y6992D01*
X5966D01*
X5960Y7005D01*
X5949Y7020D01*
X5934Y7031D01*
X5917Y7038D01*
X5899Y7041D01*
X5881Y7038D01*
X5864Y7031D01*
X5849Y7020D01*
X5838Y7005D01*
X5833Y6992D01*
X5673D01*
X5521Y7145D01*
X5519Y7151D01*
X5507Y7170D01*
X5489Y7182D01*
X5483Y7183D01*
X5363Y7302D01*
X4687Y7302D01*
X4550Y7166D01*
Y6260D01*
X4720Y6090D01*
X5283D01*
X5292Y6080D01*
X5290Y6070D01*
X5288Y6069D01*
X5274Y6059D01*
X5264Y6044D01*
X5260Y6026D01*
X5264Y6009D01*
X5274Y5994D01*
X5288Y5984D01*
X5306Y5980D01*
X5324Y5984D01*
X5338Y5994D01*
X5348Y6009D01*
X5350Y6011D01*
X5362Y6013D01*
X5494Y5881D01*
X5493Y5869D01*
X5483Y5854D01*
X5479Y5837D01*
X5483Y5819D01*
X5493Y5804D01*
X5508Y5794D01*
X5525Y5791D01*
X5543Y5794D01*
X5558Y5804D01*
X5570Y5805D01*
X5706Y5669D01*
X5704Y5653D01*
X5698Y5649D01*
X5688Y5634D01*
X5684Y5616D01*
X5688Y5599D01*
X5698Y5584D01*
X5713Y5574D01*
X5730Y5570D01*
X5748Y5574D01*
X5763Y5584D01*
X5767Y5590D01*
X5783Y5592D01*
X5843Y5531D01*
Y4937D01*
X5680Y4774D01*
Y4676D01*
X5721D01*
X5725Y4663D01*
X5716Y4657D01*
X5706Y4642D01*
X5702Y4624D01*
X5706Y4607D01*
X5716Y4592D01*
X5730Y4582D01*
X5748Y4579D01*
X5766Y4582D01*
X5780Y4592D01*
X5790Y4607D01*
X5794Y4624D01*
X5790Y4642D01*
X5780Y4657D01*
X5771Y4663D01*
X5775Y4676D01*
X6435D01*
X6563Y4804D01*
Y5038D01*
X6294Y5307D01*
X6213D01*
X6147Y5373D01*
Y5481D01*
X6373Y5707D01*
X6373Y5934D01*
X6437Y5998D01*
X6536Y5998D01*
X6908Y5627D01*
X6908Y5514D01*
X6996Y5425D01*
X8008D01*
X8090Y5507D01*
X8105Y5504D01*
X8123Y5508D01*
X8137Y5518D01*
X8141Y5522D01*
X8322D01*
X8450Y5650D01*
Y6350D01*
X8550Y6450D01*
X8700D01*
X8800Y6350D01*
Y5500D01*
X8074Y4774D01*
X7524D01*
X6850Y4100D01*
Y3910D01*
X6740Y3800D01*
X6619D01*
X6550Y3869D01*
X6562Y3888D01*
X6566Y3909D01*
X6562Y3930D01*
X6550Y3949D01*
X6531Y3961D01*
X6519Y3963D01*
Y4281D01*
X6528Y4283D01*
X6542Y4293D01*
X6552Y4308D01*
X6556Y4326D01*
X6552Y4343D01*
X6542Y4358D01*
X6528Y4368D01*
X6510Y4371D01*
X6492Y4368D01*
X6478Y4358D01*
X6468Y4343D01*
X6464Y4326D01*
X6467Y4313D01*
X6459Y4300D01*
X6179D01*
X6172Y4310D01*
X6172Y4313D01*
X6176Y4330D01*
X6172Y4348D01*
X6162Y4362D01*
X6148Y4372D01*
X6130Y4376D01*
X6112Y4372D01*
X6098Y4362D01*
X6088Y4348D01*
X6084Y4330D01*
X6088Y4313D01*
X6088Y4310D01*
X6081Y4300D01*
X6049D01*
X6042Y4310D01*
X6042Y4313D01*
X6046Y4330D01*
X6042Y4348D01*
X6032Y4362D01*
X6018Y4372D01*
X6000Y4376D01*
X5982Y4372D01*
X5968Y4362D01*
X5958Y4348D01*
X5954Y4330D01*
X5958Y4313D01*
X5958Y4310D01*
X5951Y4300D01*
X5799D01*
X5791Y4313D01*
X5794Y4326D01*
X5790Y4343D01*
X5780Y4358D01*
X5766Y4368D01*
X5748Y4371D01*
X5730Y4368D01*
X5716Y4358D01*
X5706Y4343D01*
X5702Y4326D01*
X5705Y4313D01*
X5697Y4300D01*
X5680D01*
Y3970D01*
X5619Y3909D01*
X5366D01*
X5077Y4198D01*
Y4723D01*
Y5090D01*
X5086Y5102D01*
X5090Y5124D01*
X5086Y5145D01*
X5077Y5157D01*
Y5332D01*
X4892Y5492D01*
X4428Y5492D01*
X4141Y5779D01*
X4130Y5796D01*
X4113Y5807D01*
X4020Y5900D01*
X4020Y6389D01*
X4110Y6479D01*
Y7320D01*
X4370Y7580D01*
X6146Y7580D01*
D02*
G37*
G36*
X5355Y7282D02*
X5468Y7169D01*
X5470Y7168D01*
X5471Y7166D01*
X5473Y7165D01*
X5475Y7164D01*
X5477Y7164D01*
X5479Y7163D01*
X5481Y7163D01*
X5493Y7155D01*
X5500Y7144D01*
X5501Y7141D01*
X5501Y7139D01*
X5502Y7137D01*
X5503Y7135D01*
X5504Y7134D01*
X5505Y7132D01*
X5506Y7131D01*
X5645Y6992D01*
X5640Y6980D01*
X5368D01*
X5079Y7269D01*
X5085Y7282D01*
X5355Y7282D01*
D02*
G37*
G36*
X5360Y6960D02*
X5830D01*
X5831Y6952D01*
X5838Y6935D01*
X5849Y6920D01*
X5864Y6909D01*
X5881Y6902D01*
X5899Y6899D01*
X5917Y6902D01*
X5934Y6909D01*
X5949Y6920D01*
X5960Y6935D01*
X5967Y6952D01*
X5968Y6960D01*
X6316D01*
X6320Y6947D01*
X6317Y6945D01*
X6307Y6930D01*
X6303Y6912D01*
X6307Y6895D01*
X6317Y6880D01*
X6331Y6870D01*
X6349Y6867D01*
X6367Y6870D01*
X6381Y6880D01*
X6391Y6895D01*
X6395Y6912D01*
X6391Y6930D01*
X6381Y6945D01*
X6378Y6947D01*
X6382Y6960D01*
X6660D01*
X6700Y7000D01*
Y7090D01*
X6740Y7130D01*
X6900D01*
X6960Y7070D01*
Y6700D01*
X6865Y6605D01*
X6800Y6540D01*
X5958D01*
X5955Y6545D01*
X5950Y6548D01*
Y6561D01*
X5955Y6565D01*
X5967Y6583D01*
X5971Y6604D01*
X5967Y6626D01*
X5955Y6644D01*
X5937Y6656D01*
X5915Y6660D01*
X5894Y6656D01*
X5882Y6648D01*
X5873Y6645D01*
X5863Y6648D01*
X5852Y6656D01*
X5831Y6660D01*
X5809Y6656D01*
X5791Y6644D01*
X5779Y6626D01*
X5774Y6604D01*
X5779Y6583D01*
X5791Y6565D01*
X5793Y6563D01*
Y6550D01*
X5791Y6549D01*
X5785Y6540D01*
X5417D01*
X5411Y6553D01*
X5413Y6556D01*
X5413Y6557D01*
X5347D01*
X5347Y6556D01*
X5349Y6553D01*
X5343Y6540D01*
X5034D01*
X4744Y6250D01*
X4630D01*
X4600Y6280D01*
Y7090D01*
X4770Y7260D01*
X5060D01*
X5360Y6960D01*
D02*
G37*
%LPC*%
G36*
X4323Y8602D02*
Y8593D01*
X4332D01*
X4328Y8598D01*
X4323Y8602D01*
D02*
G37*
G36*
X4137D02*
X4132Y8598D01*
X4128Y8593D01*
X4137D01*
Y8602D01*
D02*
G37*
G36*
X4230Y8626D02*
X4212Y8622D01*
X4198Y8612D01*
X4188Y8598D01*
X4186Y8591D01*
X4175Y8590D01*
X4173Y8590D01*
X4168Y8598D01*
X4163Y8602D01*
Y8580D01*
Y8558D01*
X4168Y8562D01*
X4173Y8570D01*
X4175Y8570D01*
X4186Y8569D01*
X4188Y8562D01*
X4198Y8548D01*
X4212Y8538D01*
X4230Y8534D01*
X4248Y8538D01*
X4262Y8548D01*
X4272Y8562D01*
X4274Y8569D01*
X4285Y8570D01*
X4287Y8570D01*
X4292Y8562D01*
X4297Y8558D01*
Y8580D01*
Y8602D01*
X4292Y8598D01*
X4287Y8590D01*
X4285Y8590D01*
X4274Y8591D01*
X4272Y8598D01*
X4262Y8612D01*
X4248Y8622D01*
X4230Y8626D01*
D02*
G37*
G36*
X4332Y8567D02*
X4323D01*
Y8558D01*
X4328Y8562D01*
X4332Y8567D01*
D02*
G37*
G36*
X4137D02*
X4128D01*
X4132Y8562D01*
X4137Y8558D01*
Y8567D01*
D02*
G37*
G36*
X6280Y8638D02*
X6262Y8635D01*
X6248Y8625D01*
X6238Y8610D01*
X6234Y8592D01*
X6238Y8575D01*
X6248Y8560D01*
X6262Y8550D01*
X6280Y8547D01*
X6298Y8550D01*
X6312Y8560D01*
X6322Y8575D01*
X6326Y8592D01*
X6322Y8610D01*
X6312Y8625D01*
X6298Y8635D01*
X6280Y8638D01*
D02*
G37*
G36*
X7743Y8552D02*
Y8543D01*
X7752D01*
X7748Y8548D01*
X7743Y8552D01*
D02*
G37*
G36*
X7717D02*
X7712Y8548D01*
X7708Y8543D01*
X7717D01*
Y8552D01*
D02*
G37*
G36*
X7543D02*
Y8543D01*
X7552D01*
X7548Y8548D01*
X7543Y8552D01*
D02*
G37*
G36*
X7517D02*
X7512Y8548D01*
X7508Y8543D01*
X7517D01*
Y8552D01*
D02*
G37*
G36*
X4430Y8626D02*
X4412Y8622D01*
X4398Y8612D01*
X4388Y8598D01*
X4384Y8580D01*
X4388Y8562D01*
X4398Y8548D01*
X4412Y8538D01*
X4430Y8534D01*
X4448Y8538D01*
X4462Y8548D01*
X4472Y8562D01*
X4476Y8580D01*
X4472Y8598D01*
X4462Y8612D01*
X4448Y8622D01*
X4430Y8626D01*
D02*
G37*
G36*
X5455Y8621D02*
X5437Y8617D01*
X5423Y8607D01*
X5413Y8593D01*
X5409Y8575D01*
X5413Y8557D01*
X5423Y8543D01*
X5437Y8533D01*
X5455Y8529D01*
X5473Y8533D01*
X5487Y8543D01*
X5497Y8557D01*
X5501Y8575D01*
X5497Y8593D01*
X5487Y8607D01*
X5473Y8617D01*
X5455Y8621D01*
D02*
G37*
G36*
X7752Y8517D02*
X7743D01*
Y8508D01*
X7748Y8512D01*
X7752Y8517D01*
D02*
G37*
G36*
X7717D02*
X7708D01*
X7712Y8512D01*
X7717Y8508D01*
Y8517D01*
D02*
G37*
G36*
X7552D02*
X7543D01*
Y8508D01*
X7548Y8512D01*
X7552Y8517D01*
D02*
G37*
G36*
X7517D02*
X7508D01*
X7512Y8512D01*
X7517Y8508D01*
Y8517D01*
D02*
G37*
G36*
X6530Y8606D02*
X6509Y8602D01*
X6490Y8590D01*
X6478Y8571D01*
X6474Y8550D01*
X6478Y8529D01*
X6490Y8510D01*
X6509Y8498D01*
X6530Y8494D01*
X6551Y8498D01*
X6570Y8510D01*
X6582Y8529D01*
X6586Y8550D01*
X6582Y8571D01*
X6570Y8590D01*
X6551Y8602D01*
X6530Y8606D01*
D02*
G37*
G36*
X6960Y8581D02*
X6942Y8577D01*
X6928Y8567D01*
X6918Y8553D01*
X6914Y8535D01*
X6918Y8517D01*
X6928Y8503D01*
X6942Y8493D01*
X6960Y8489D01*
X6978Y8493D01*
X6992Y8503D01*
X7002Y8517D01*
X7006Y8535D01*
X7002Y8553D01*
X6992Y8567D01*
X6978Y8577D01*
X6960Y8581D01*
D02*
G37*
G36*
X7645Y8576D02*
X7627Y8572D01*
X7613Y8562D01*
X7603Y8548D01*
X7599Y8530D01*
X7603Y8512D01*
X7613Y8498D01*
X7627Y8488D01*
X7645Y8484D01*
X7663Y8488D01*
X7677Y8498D01*
X7687Y8512D01*
X7691Y8530D01*
X7687Y8548D01*
X7677Y8562D01*
X7663Y8572D01*
X7645Y8576D01*
D02*
G37*
G36*
X7430D02*
X7412Y8572D01*
X7398Y8562D01*
X7388Y8548D01*
X7384Y8530D01*
X7388Y8512D01*
X7398Y8498D01*
X7412Y8488D01*
X7430Y8484D01*
X7448Y8488D01*
X7462Y8498D01*
X7472Y8512D01*
X7476Y8530D01*
X7472Y8548D01*
X7462Y8562D01*
X7448Y8572D01*
X7430Y8576D01*
D02*
G37*
G36*
X6171Y8517D02*
X6154Y8514D01*
X6139Y8504D01*
X6129Y8489D01*
X6126Y8471D01*
X6129Y8454D01*
X6139Y8439D01*
X6154Y8429D01*
X6171Y8426D01*
X6189Y8429D01*
X6204Y8439D01*
X6214Y8454D01*
X6217Y8471D01*
X6214Y8489D01*
X6204Y8504D01*
X6189Y8514D01*
X6171Y8517D01*
D02*
G37*
G36*
X7319Y8466D02*
X7301Y8462D01*
X7287Y8452D01*
X7277Y8438D01*
X7273Y8420D01*
X7277Y8402D01*
X7287Y8388D01*
X7301Y8378D01*
X7319Y8374D01*
X7337Y8378D01*
X7351Y8388D01*
X7361Y8402D01*
X7365Y8420D01*
X7361Y8438D01*
X7351Y8452D01*
X7337Y8462D01*
X7319Y8466D01*
D02*
G37*
G36*
X3785Y8446D02*
X3767Y8442D01*
X3753Y8432D01*
X3743Y8418D01*
X3739Y8400D01*
X3743Y8382D01*
X3753Y8368D01*
X3767Y8358D01*
X3785Y8354D01*
X3803Y8358D01*
X3817Y8368D01*
X3827Y8382D01*
X3831Y8400D01*
X3827Y8418D01*
X3817Y8432D01*
X3803Y8442D01*
X3785Y8446D01*
D02*
G37*
G36*
X4323Y8352D02*
Y8343D01*
X4332D01*
X4328Y8348D01*
X4323Y8352D01*
D02*
G37*
G36*
X4297D02*
X4292Y8348D01*
X4288Y8343D01*
X4297D01*
Y8352D01*
D02*
G37*
G36*
X4163D02*
Y8343D01*
X4172D01*
X4168Y8348D01*
X4163Y8352D01*
D02*
G37*
G36*
X4137D02*
X4132Y8348D01*
X4128Y8343D01*
X4137D01*
Y8352D01*
D02*
G37*
G36*
X4030Y8409D02*
X4012Y8406D01*
X3998Y8396D01*
X3988Y8381D01*
X3984Y8363D01*
X3988Y8346D01*
X3998Y8331D01*
X4012Y8321D01*
X4030Y8317D01*
X4048Y8321D01*
X4062Y8331D01*
X4072Y8346D01*
X4076Y8363D01*
X4072Y8381D01*
X4062Y8396D01*
X4048Y8406D01*
X4030Y8409D01*
D02*
G37*
G36*
X4960Y8406D02*
X4942Y8402D01*
X4928Y8392D01*
X4918Y8378D01*
X4914Y8360D01*
X4918Y8342D01*
X4928Y8328D01*
X4942Y8318D01*
X4960Y8314D01*
X4978Y8318D01*
X4992Y8328D01*
X5002Y8342D01*
X5006Y8360D01*
X5002Y8378D01*
X4992Y8392D01*
X4978Y8402D01*
X4960Y8406D01*
D02*
G37*
G36*
X7713Y8318D02*
Y8309D01*
X7722D01*
X7718Y8314D01*
X7713Y8318D01*
D02*
G37*
G36*
X7687D02*
X7682Y8314D01*
X7678Y8309D01*
X7687D01*
Y8318D01*
D02*
G37*
G36*
X4332Y8317D02*
X4323D01*
Y8308D01*
X4328Y8312D01*
X4332Y8317D01*
D02*
G37*
G36*
X4297D02*
X4288D01*
X4292Y8312D01*
X4297Y8308D01*
Y8317D01*
D02*
G37*
G36*
X4172D02*
X4163D01*
Y8308D01*
X4168Y8312D01*
X4172Y8317D01*
D02*
G37*
G36*
X4137D02*
X4128D01*
X4132Y8312D01*
X4137Y8308D01*
Y8317D01*
D02*
G37*
G36*
X7563Y8317D02*
Y8308D01*
X7572D01*
X7568Y8313D01*
X7563Y8317D01*
D02*
G37*
G36*
X7537D02*
X7532Y8313D01*
X7528Y8308D01*
X7537D01*
Y8317D01*
D02*
G37*
G36*
X4430Y8378D02*
X4412Y8375D01*
X4398Y8365D01*
X4388Y8350D01*
X4384Y8332D01*
X4388Y8315D01*
X4398Y8300D01*
X4412Y8290D01*
X4430Y8286D01*
X4448Y8290D01*
X4462Y8300D01*
X4472Y8315D01*
X4476Y8332D01*
X4472Y8350D01*
X4462Y8365D01*
X4448Y8375D01*
X4430Y8378D01*
D02*
G37*
G36*
X7722Y8283D02*
X7713D01*
Y8274D01*
X7718Y8278D01*
X7722Y8283D01*
D02*
G37*
G36*
X7687D02*
X7678D01*
X7682Y8278D01*
X7687Y8274D01*
Y8283D01*
D02*
G37*
G36*
X7572Y8282D02*
X7563D01*
Y8273D01*
X7568Y8277D01*
X7572Y8282D01*
D02*
G37*
G36*
X7537D02*
X7528D01*
X7532Y8277D01*
X7537Y8273D01*
Y8282D01*
D02*
G37*
G36*
X5402Y8477D02*
X5371Y8473D01*
X5341Y8461D01*
X5316Y8442D01*
X5297Y8417D01*
X5285Y8387D01*
X5281Y8356D01*
X5285Y8325D01*
X5297Y8295D01*
X5316Y8270D01*
X5341Y8251D01*
X5371Y8239D01*
X5402Y8235D01*
X5433Y8239D01*
X5463Y8251D01*
X5488Y8270D01*
X5507Y8295D01*
X5519Y8325D01*
X5523Y8356D01*
X5519Y8387D01*
X5507Y8417D01*
X5488Y8442D01*
X5463Y8461D01*
X5433Y8473D01*
X5402Y8477D01*
D02*
G37*
G36*
X6353Y8471D02*
X6322Y8467D01*
X6292Y8455D01*
X6267Y8436D01*
X6248Y8411D01*
X6236Y8381D01*
X6232Y8350D01*
X6236Y8319D01*
X6248Y8290D01*
X6267Y8264D01*
X6292Y8245D01*
X6322Y8233D01*
X6353Y8229D01*
X6384Y8233D01*
X6413Y8245D01*
X6439Y8264D01*
X6458Y8290D01*
X6470Y8319D01*
X6474Y8350D01*
X6470Y8381D01*
X6458Y8411D01*
X6439Y8436D01*
X6413Y8455D01*
X6384Y8467D01*
X6353Y8471D01*
D02*
G37*
G36*
X4840Y8296D02*
X4822Y8292D01*
X4808Y8282D01*
X4798Y8268D01*
X4794Y8250D01*
X4798Y8232D01*
X4808Y8218D01*
X4822Y8208D01*
X4840Y8204D01*
X4858Y8208D01*
X4872Y8218D01*
X4882Y8232D01*
X4886Y8250D01*
X4882Y8268D01*
X4872Y8282D01*
X4858Y8292D01*
X4840Y8296D01*
D02*
G37*
G36*
X4020Y8259D02*
X4002Y8255D01*
X3988Y8245D01*
X3978Y8231D01*
X3974Y8213D01*
X3978Y8195D01*
X3988Y8181D01*
X4002Y8171D01*
X4020Y8167D01*
X4038Y8171D01*
X4052Y8181D01*
X4062Y8195D01*
X4066Y8213D01*
X4062Y8231D01*
X4052Y8245D01*
X4038Y8255D01*
X4020Y8259D01*
D02*
G37*
G36*
X3790Y8226D02*
X3772Y8222D01*
X3758Y8212D01*
X3748Y8198D01*
X3744Y8180D01*
X3748Y8162D01*
X3758Y8148D01*
X3772Y8138D01*
X3790Y8134D01*
X3808Y8138D01*
X3822Y8148D01*
X3832Y8162D01*
X3836Y8180D01*
X3832Y8198D01*
X3822Y8212D01*
X3808Y8222D01*
X3790Y8226D01*
D02*
G37*
G36*
X3800Y7542D02*
X3782Y7539D01*
X3768Y7529D01*
X3758Y7514D01*
X3754Y7496D01*
X3758Y7479D01*
X3768Y7464D01*
X3782Y7454D01*
X3800Y7451D01*
X3818Y7454D01*
X3832Y7464D01*
X3842Y7479D01*
X3846Y7496D01*
X3842Y7514D01*
X3832Y7529D01*
X3818Y7539D01*
X3800Y7542D01*
D02*
G37*
G36*
X3490Y6476D02*
X3472Y6472D01*
X3458Y6462D01*
X3448Y6448D01*
X3444Y6430D01*
X3448Y6412D01*
X3458Y6398D01*
X3472Y6388D01*
X3490Y6384D01*
X3508Y6388D01*
X3522Y6398D01*
X3532Y6412D01*
X3536Y6430D01*
X3532Y6448D01*
X3522Y6462D01*
X3508Y6472D01*
X3490Y6476D01*
D02*
G37*
G36*
X3290Y6316D02*
X3272Y6312D01*
X3258Y6302D01*
X3248Y6288D01*
X3244Y6270D01*
X3248Y6252D01*
X3258Y6238D01*
X3272Y6228D01*
X3290Y6224D01*
X3308Y6228D01*
X3322Y6238D01*
X3332Y6252D01*
X3336Y6270D01*
X3332Y6288D01*
X3322Y6302D01*
X3308Y6312D01*
X3290Y6316D01*
D02*
G37*
G36*
Y5776D02*
X3272Y5772D01*
X3258Y5762D01*
X3248Y5747D01*
X3244Y5730D01*
X3248Y5712D01*
X3258Y5697D01*
X3272Y5687D01*
X3290Y5684D01*
X3308Y5687D01*
X3322Y5697D01*
X3332Y5712D01*
X3336Y5730D01*
X3332Y5747D01*
X3322Y5762D01*
X3308Y5772D01*
X3290Y5776D01*
D02*
G37*
G36*
X3490Y5591D02*
X3472Y5587D01*
X3458Y5577D01*
X3448Y5562D01*
X3444Y5545D01*
X3448Y5527D01*
X3458Y5512D01*
X3472Y5502D01*
X3490Y5499D01*
X3508Y5502D01*
X3522Y5512D01*
X3532Y5527D01*
X3536Y5545D01*
X3532Y5562D01*
X3522Y5577D01*
X3508Y5587D01*
X3490Y5591D01*
D02*
G37*
G36*
X3290Y5434D02*
X3272Y5430D01*
X3258Y5420D01*
X3248Y5406D01*
X3244Y5388D01*
X3248Y5370D01*
X3258Y5356D01*
X3272Y5346D01*
X3290Y5342D01*
X3308Y5346D01*
X3322Y5356D01*
X3332Y5370D01*
X3336Y5388D01*
X3332Y5406D01*
X3322Y5420D01*
X3308Y5430D01*
X3290Y5434D01*
D02*
G37*
G36*
X3633Y4208D02*
Y4183D01*
X3658D01*
X3658Y4186D01*
X3649Y4199D01*
X3636Y4208D01*
X3633Y4208D01*
D02*
G37*
G36*
X3607D02*
X3604Y4208D01*
X3591Y4199D01*
X3582Y4186D01*
X3582Y4183D01*
X3607D01*
Y4208D01*
D02*
G37*
G36*
X3483D02*
Y4183D01*
X3508D01*
X3508Y4186D01*
X3499Y4199D01*
X3486Y4208D01*
X3483Y4208D01*
D02*
G37*
G36*
X3457D02*
X3454Y4208D01*
X3441Y4199D01*
X3432Y4186D01*
X3432Y4183D01*
X3457D01*
Y4208D01*
D02*
G37*
G36*
X3658Y4157D02*
X3633D01*
Y4132D01*
X3636Y4132D01*
X3649Y4141D01*
X3658Y4154D01*
X3658Y4157D01*
D02*
G37*
G36*
X3607D02*
X3582D01*
X3582Y4154D01*
X3591Y4141D01*
X3604Y4132D01*
X3607Y4132D01*
Y4157D01*
D02*
G37*
G36*
X3508D02*
X3483D01*
Y4132D01*
X3486Y4132D01*
X3499Y4141D01*
X3508Y4154D01*
X3508Y4157D01*
D02*
G37*
G36*
X3457D02*
X3432D01*
X3432Y4154D01*
X3441Y4141D01*
X3454Y4132D01*
X3457Y4132D01*
Y4157D01*
D02*
G37*
G36*
X3633Y4078D02*
Y4053D01*
X3658D01*
X3658Y4056D01*
X3649Y4069D01*
X3636Y4078D01*
X3633Y4078D01*
D02*
G37*
G36*
X3607D02*
X3604Y4078D01*
X3591Y4069D01*
X3582Y4056D01*
X3582Y4053D01*
X3607D01*
Y4078D01*
D02*
G37*
G36*
X3483D02*
Y4053D01*
X3508D01*
X3508Y4056D01*
X3499Y4069D01*
X3486Y4078D01*
X3483Y4078D01*
D02*
G37*
G36*
X3457D02*
X3454Y4078D01*
X3441Y4069D01*
X3432Y4056D01*
X3432Y4053D01*
X3457D01*
Y4078D01*
D02*
G37*
G36*
X3658Y4027D02*
X3633D01*
Y4002D01*
X3636Y4002D01*
X3649Y4011D01*
X3658Y4024D01*
X3658Y4027D01*
D02*
G37*
G36*
X3607D02*
X3582D01*
X3582Y4024D01*
X3591Y4011D01*
X3604Y4002D01*
X3607Y4002D01*
Y4027D01*
D02*
G37*
G36*
X3508D02*
X3483D01*
Y4002D01*
X3486Y4002D01*
X3499Y4011D01*
X3508Y4024D01*
X3508Y4027D01*
D02*
G37*
G36*
X3457D02*
X3432D01*
X3432Y4024D01*
X3441Y4011D01*
X3454Y4002D01*
X3457Y4002D01*
Y4027D01*
D02*
G37*
%LPD*%
G36*
X5428Y8453D02*
X5452Y8443D01*
X5473Y8427D01*
X5489Y8406D01*
X5499Y8382D01*
X5502Y8356D01*
X5499Y8330D01*
X5489Y8306D01*
X5473Y8285D01*
X5452Y8269D01*
X5428Y8259D01*
X5402Y8256D01*
X5376Y8259D01*
X5352Y8269D01*
X5331Y8285D01*
X5315Y8306D01*
X5305Y8330D01*
X5302Y8356D01*
X5305Y8382D01*
X5315Y8406D01*
X5331Y8427D01*
X5352Y8443D01*
X5376Y8453D01*
X5402Y8456D01*
X5428Y8453D01*
D02*
G37*
G36*
X6379Y8447D02*
X6403Y8437D01*
X6424Y8421D01*
X6440Y8400D01*
X6450Y8376D01*
X6453Y8350D01*
X6450Y8324D01*
X6440Y8300D01*
X6424Y8279D01*
X6403Y8263D01*
X6379Y8253D01*
X6353Y8250D01*
X6327Y8253D01*
X6303Y8263D01*
X6282Y8279D01*
X6266Y8300D01*
X6256Y8324D01*
X6252Y8350D01*
X6256Y8376D01*
X6266Y8400D01*
X6282Y8421D01*
X6303Y8437D01*
X6327Y8447D01*
X6353Y8451D01*
X6379Y8447D01*
D02*
G37*
%LPC*%
G36*
X4559Y7536D02*
X4541Y7532D01*
X4527Y7522D01*
X4517Y7508D01*
X4513Y7490D01*
X4517Y7472D01*
X4527Y7458D01*
X4541Y7448D01*
X4559Y7444D01*
X4577Y7448D01*
X4591Y7458D01*
X4601Y7472D01*
X4605Y7490D01*
X4601Y7508D01*
X4591Y7522D01*
X4577Y7532D01*
X4559Y7536D01*
D02*
G37*
G36*
X4395Y7366D02*
X4377Y7362D01*
X4363Y7352D01*
X4353Y7338D01*
X4349Y7320D01*
X4353Y7302D01*
X4363Y7288D01*
X4377Y7278D01*
X4395Y7274D01*
X4413Y7278D01*
X4427Y7288D01*
X4437Y7302D01*
X4441Y7320D01*
X4437Y7338D01*
X4427Y7352D01*
X4413Y7362D01*
X4395Y7366D01*
D02*
G37*
G36*
X5735Y7269D02*
X5640D01*
Y7175D01*
X5735Y7175D01*
Y7269D01*
D02*
G37*
G36*
X6026Y7168D02*
X6008Y7165D01*
X5991Y7158D01*
X5976Y7147D01*
X5965Y7132D01*
X5958Y7115D01*
X5955Y7097D01*
X5958Y7079D01*
X5965Y7062D01*
X5976Y7047D01*
X5991Y7036D01*
X6008Y7029D01*
X6026Y7026D01*
X6044Y7029D01*
X6061Y7036D01*
X6076Y7047D01*
X6087Y7062D01*
X6094Y7079D01*
X6097Y7097D01*
X6094Y7115D01*
X6087Y7132D01*
X6076Y7147D01*
X6061Y7158D01*
X6044Y7165D01*
X6026Y7168D01*
D02*
G37*
G36*
X5772D02*
X5754Y7165D01*
X5737Y7158D01*
X5722Y7147D01*
X5711Y7132D01*
X5704Y7115D01*
X5701Y7097D01*
X5704Y7079D01*
X5711Y7062D01*
X5722Y7047D01*
X5737Y7036D01*
X5754Y7029D01*
X5772Y7026D01*
X5790Y7029D01*
X5807Y7036D01*
X5822Y7047D01*
X5833Y7062D01*
X5840Y7079D01*
X5843Y7097D01*
X5840Y7115D01*
X5833Y7132D01*
X5822Y7147D01*
X5807Y7158D01*
X5790Y7165D01*
X5772Y7168D01*
D02*
G37*
G36*
X4090Y6266D02*
X4069Y6262D01*
X4050Y6250D01*
X4038Y6232D01*
X4034Y6210D01*
X4038Y6189D01*
X4050Y6171D01*
X4069Y6158D01*
X4090Y6154D01*
X4111Y6158D01*
X4130Y6171D01*
X4142Y6189D01*
X4146Y6210D01*
X4142Y6232D01*
X4130Y6250D01*
X4111Y6262D01*
X4090Y6266D01*
D02*
G37*
G36*
X6457Y5957D02*
Y5948D01*
X6466D01*
X6462Y5954D01*
X6457Y5957D01*
D02*
G37*
G36*
X6432D02*
X6426Y5954D01*
X6423Y5948D01*
X6432D01*
Y5957D01*
D02*
G37*
G36*
X5345Y5947D02*
Y5938D01*
X5354D01*
X5350Y5943D01*
X5345Y5947D01*
D02*
G37*
G36*
X5319D02*
X5314Y5943D01*
X5310Y5938D01*
X5319D01*
Y5947D01*
D02*
G37*
G36*
X6466Y5923D02*
X6457D01*
Y5914D01*
X6462Y5918D01*
X6466Y5923D01*
D02*
G37*
G36*
X6432D02*
X6423D01*
X6426Y5918D01*
X6432Y5914D01*
Y5923D01*
D02*
G37*
G36*
X5354Y5912D02*
X5345D01*
Y5903D01*
X5350Y5907D01*
X5354Y5912D01*
D02*
G37*
G36*
X5319D02*
X5310D01*
X5314Y5907D01*
X5319Y5903D01*
Y5912D01*
D02*
G37*
G36*
X5016Y5976D02*
X4994Y5972D01*
X4976Y5960D01*
X4964Y5941D01*
X4960Y5920D01*
X4964Y5899D01*
X4976Y5880D01*
X4994Y5868D01*
X5016Y5864D01*
X5037Y5868D01*
X5055Y5880D01*
X5068Y5899D01*
X5072Y5920D01*
X5068Y5941D01*
X5055Y5960D01*
X5037Y5972D01*
X5016Y5976D01*
D02*
G37*
G36*
X4682Y5862D02*
Y5841D01*
X4703D01*
X4703Y5842D01*
X4695Y5854D01*
X4683Y5861D01*
X4682Y5862D01*
D02*
G37*
G36*
X4657D02*
X4656Y5861D01*
X4644Y5854D01*
X4637Y5842D01*
X4636Y5841D01*
X4657D01*
Y5862D01*
D02*
G37*
G36*
X5243Y5842D02*
Y5822D01*
X5263D01*
X5263Y5823D01*
X5255Y5834D01*
X5244Y5842D01*
X5243Y5842D01*
D02*
G37*
G36*
X5217D02*
X5216Y5842D01*
X5205Y5834D01*
X5197Y5823D01*
X5197Y5822D01*
X5217D01*
Y5842D01*
D02*
G37*
G36*
X4703Y5816D02*
X4682D01*
Y5795D01*
X4683Y5795D01*
X4695Y5803D01*
X4703Y5815D01*
X4703Y5816D01*
D02*
G37*
G36*
X4657D02*
X4636D01*
X4637Y5815D01*
X4644Y5803D01*
X4656Y5795D01*
X4657Y5795D01*
Y5816D01*
D02*
G37*
G36*
X5263Y5796D02*
X5243D01*
Y5776D01*
X5244Y5776D01*
X5255Y5784D01*
X5263Y5795D01*
X5263Y5796D01*
D02*
G37*
G36*
X5217D02*
X5197D01*
X5197Y5795D01*
X5205Y5784D01*
X5216Y5776D01*
X5217Y5776D01*
Y5796D01*
D02*
G37*
G36*
X4836Y5881D02*
X4815Y5877D01*
X4796Y5865D01*
X4784Y5846D01*
X4780Y5825D01*
X4784Y5804D01*
X4796Y5785D01*
X4815Y5773D01*
X4836Y5769D01*
X4857Y5773D01*
X4876Y5785D01*
X4888Y5804D01*
X4892Y5825D01*
X4888Y5846D01*
X4876Y5865D01*
X4857Y5877D01*
X4836Y5881D01*
D02*
G37*
G36*
X6588Y5784D02*
Y5763D01*
X6608D01*
X6608Y5764D01*
X6600Y5776D01*
X6589Y5784D01*
X6588Y5784D01*
D02*
G37*
G36*
X6562D02*
X6561Y5784D01*
X6550Y5776D01*
X6542Y5764D01*
X6542Y5763D01*
X6562D01*
Y5784D01*
D02*
G37*
G36*
X6608Y5738D02*
X6588D01*
Y5717D01*
X6589Y5718D01*
X6600Y5725D01*
X6608Y5737D01*
X6608Y5738D01*
D02*
G37*
G36*
X6562D02*
X6542D01*
X6542Y5737D01*
X6550Y5725D01*
X6561Y5718D01*
X6562Y5717D01*
Y5738D01*
D02*
G37*
G36*
X5172Y5664D02*
Y5644D01*
X5192D01*
X5192Y5644D01*
X5184Y5656D01*
X5173Y5664D01*
X5172Y5664D01*
D02*
G37*
G36*
X5146D02*
X5145Y5664D01*
X5134Y5656D01*
X5126Y5644D01*
X5126Y5644D01*
X5146D01*
Y5664D01*
D02*
G37*
G36*
X6472Y5632D02*
Y5623D01*
X6481D01*
X6477Y5628D01*
X6472Y5632D01*
D02*
G37*
G36*
X6447D02*
X6441Y5628D01*
X6438Y5623D01*
X6447D01*
Y5632D01*
D02*
G37*
G36*
X5192Y5618D02*
X5172D01*
Y5598D01*
X5173Y5598D01*
X5184Y5606D01*
X5192Y5617D01*
X5192Y5618D01*
D02*
G37*
G36*
X5146D02*
X5126D01*
X5126Y5617D01*
X5134Y5606D01*
X5145Y5598D01*
X5146Y5598D01*
Y5618D01*
D02*
G37*
G36*
X6481Y5597D02*
X6472D01*
Y5588D01*
X6477Y5592D01*
X6481Y5597D01*
D02*
G37*
G36*
X6447D02*
X6438D01*
X6441Y5592D01*
X6447Y5588D01*
Y5597D01*
D02*
G37*
G36*
X6789Y5666D02*
X6767Y5661D01*
X6749Y5649D01*
X6737Y5631D01*
X6733Y5610D01*
X6737Y5588D01*
X6749Y5570D01*
X6767Y5558D01*
X6789Y5554D01*
X6810Y5558D01*
X6829Y5570D01*
X6841Y5588D01*
X6845Y5610D01*
X6841Y5631D01*
X6829Y5649D01*
X6810Y5661D01*
X6789Y5666D01*
D02*
G37*
G36*
X5077Y5599D02*
X5056Y5594D01*
X5038Y5582D01*
X5026Y5564D01*
X5021Y5543D01*
X5026Y5521D01*
X5038Y5503D01*
X5056Y5491D01*
X5077Y5487D01*
X5099Y5491D01*
X5117Y5503D01*
X5129Y5521D01*
X5133Y5543D01*
X5129Y5564D01*
X5117Y5582D01*
X5099Y5594D01*
X5077Y5599D01*
D02*
G37*
G36*
X5760Y5536D02*
X5742Y5532D01*
X5728Y5522D01*
X5718Y5508D01*
X5714Y5490D01*
X5718Y5472D01*
X5728Y5458D01*
X5742Y5448D01*
X5760Y5444D01*
X5778Y5448D01*
X5792Y5458D01*
X5802Y5472D01*
X5806Y5490D01*
X5802Y5508D01*
X5792Y5522D01*
X5778Y5532D01*
X5760Y5536D01*
D02*
G37*
G36*
X8118Y5447D02*
Y5438D01*
X8127D01*
X8123Y5443D01*
X8118Y5447D01*
D02*
G37*
G36*
X8092D02*
X8087Y5443D01*
X8083Y5438D01*
X8092D01*
Y5447D01*
D02*
G37*
G36*
X8127Y5412D02*
X8118D01*
Y5403D01*
X8123Y5407D01*
X8127Y5412D01*
D02*
G37*
G36*
X8092D02*
X8083D01*
X8087Y5407D01*
X8092Y5403D01*
Y5412D01*
D02*
G37*
G36*
X6254Y5390D02*
Y5381D01*
X6263D01*
X6259Y5387D01*
X6254Y5390D01*
D02*
G37*
G36*
X6228D02*
X6223Y5387D01*
X6220Y5381D01*
X6228D01*
Y5390D01*
D02*
G37*
G36*
X6263Y5356D02*
X6254D01*
Y5347D01*
X6259Y5351D01*
X6263Y5356D01*
D02*
G37*
G36*
X6228D02*
X6220D01*
X6223Y5351D01*
X6228Y5347D01*
Y5356D01*
D02*
G37*
G36*
X6563Y5416D02*
X6542Y5412D01*
X6523Y5400D01*
X6511Y5381D01*
X6507Y5360D01*
X6511Y5339D01*
X6523Y5320D01*
X6542Y5308D01*
X6563Y5304D01*
X6584Y5308D01*
X6603Y5320D01*
X6615Y5339D01*
X6619Y5360D01*
X6615Y5381D01*
X6603Y5400D01*
X6584Y5412D01*
X6563Y5416D01*
D02*
G37*
G36*
X8510Y5372D02*
X8492Y5369D01*
X8478Y5359D01*
X8468Y5344D01*
X8464Y5326D01*
X8468Y5309D01*
X8478Y5294D01*
X8492Y5284D01*
X8510Y5280D01*
X8528Y5284D01*
X8542Y5294D01*
X8552Y5309D01*
X8556Y5326D01*
X8552Y5344D01*
X8542Y5359D01*
X8528Y5369D01*
X8510Y5372D01*
D02*
G37*
G36*
X5701Y5307D02*
X5683Y5304D01*
X5668Y5294D01*
X5659Y5279D01*
X5655Y5262D01*
X5659Y5244D01*
X5668Y5229D01*
X5683Y5219D01*
X5701Y5216D01*
X5718Y5219D01*
X5733Y5229D01*
X5743Y5244D01*
X5747Y5262D01*
X5743Y5279D01*
X5733Y5294D01*
X5718Y5304D01*
X5701Y5307D01*
D02*
G37*
G36*
X5486Y5293D02*
X5465Y5288D01*
X5447Y5276D01*
X5435Y5258D01*
X5430Y5237D01*
X5435Y5215D01*
X5447Y5197D01*
X5465Y5185D01*
X5486Y5181D01*
X5508Y5185D01*
X5526Y5197D01*
X5538Y5215D01*
X5542Y5237D01*
X5538Y5258D01*
X5526Y5276D01*
X5508Y5288D01*
X5486Y5293D01*
D02*
G37*
G36*
X6880Y5246D02*
X6862Y5242D01*
X6848Y5232D01*
X6838Y5218D01*
X6834Y5200D01*
X6838Y5182D01*
X6848Y5168D01*
X6862Y5158D01*
X6880Y5154D01*
X6898Y5158D01*
X6912Y5168D01*
X6922Y5182D01*
X6926Y5200D01*
X6922Y5218D01*
X6912Y5232D01*
X6898Y5242D01*
X6880Y5246D01*
D02*
G37*
G36*
X8307Y5217D02*
X8289Y5214D01*
X8274Y5204D01*
X8264Y5189D01*
X8261Y5171D01*
X8264Y5154D01*
X8274Y5139D01*
X8289Y5129D01*
X8307Y5125D01*
X8324Y5129D01*
X8339Y5139D01*
X8349Y5154D01*
X8353Y5171D01*
X8349Y5189D01*
X8339Y5204D01*
X8324Y5214D01*
X8307Y5217D01*
D02*
G37*
G36*
X5750Y5106D02*
Y5085D01*
X5771D01*
X5770Y5086D01*
X5763Y5098D01*
X5751Y5106D01*
X5750Y5106D01*
D02*
G37*
G36*
X5725D02*
X5724Y5106D01*
X5712Y5098D01*
X5704Y5086D01*
X5704Y5085D01*
X5725D01*
Y5106D01*
D02*
G37*
G36*
X7130Y5146D02*
X7112Y5142D01*
X7098Y5132D01*
X7088Y5118D01*
X7084Y5100D01*
X7088Y5082D01*
X7098Y5068D01*
X7112Y5058D01*
X7130Y5054D01*
X7148Y5058D01*
X7162Y5068D01*
X7172Y5082D01*
X7176Y5100D01*
X7172Y5118D01*
X7162Y5132D01*
X7148Y5142D01*
X7130Y5146D01*
D02*
G37*
G36*
X5771Y5060D02*
X5750D01*
Y5039D01*
X5751Y5040D01*
X5763Y5047D01*
X5770Y5059D01*
X5771Y5060D01*
D02*
G37*
G36*
X5725D02*
X5704D01*
X5704Y5059D01*
X5712Y5047D01*
X5724Y5040D01*
X5725Y5039D01*
Y5060D01*
D02*
G37*
G36*
X6650Y5022D02*
Y5013D01*
X6659D01*
X6655Y5018D01*
X6650Y5022D01*
D02*
G37*
G36*
X6624D02*
X6619Y5018D01*
X6615Y5013D01*
X6624D01*
Y5022D01*
D02*
G37*
G36*
X6659Y4987D02*
X6650D01*
Y4978D01*
X6655Y4982D01*
X6659Y4987D01*
D02*
G37*
G36*
X6624D02*
X6615D01*
X6619Y4982D01*
X6624Y4978D01*
Y4987D01*
D02*
G37*
G36*
X8020Y5086D02*
X7999Y5082D01*
X7980Y5070D01*
X7968Y5051D01*
X7964Y5030D01*
X7968Y5009D01*
X7980Y4990D01*
X7999Y4978D01*
X8020Y4974D01*
X8041Y4978D01*
X8060Y4990D01*
X8072Y5009D01*
X8076Y5030D01*
X8072Y5051D01*
X8060Y5070D01*
X8041Y5082D01*
X8020Y5086D01*
D02*
G37*
G36*
X5648Y5049D02*
X5626Y5044D01*
X5608Y5032D01*
X5596Y5014D01*
X5592Y4993D01*
X5596Y4971D01*
X5608Y4953D01*
X5626Y4941D01*
X5648Y4936D01*
X5669Y4941D01*
X5687Y4953D01*
X5700Y4971D01*
X5704Y4993D01*
X5700Y5014D01*
X5687Y5032D01*
X5669Y5044D01*
X5648Y5049D01*
D02*
G37*
G36*
X5520Y5046D02*
X5499Y5042D01*
X5480Y5030D01*
X5468Y5011D01*
X5464Y4990D01*
X5468Y4969D01*
X5480Y4950D01*
X5499Y4938D01*
X5520Y4934D01*
X5541Y4938D01*
X5560Y4950D01*
X5572Y4969D01*
X5576Y4990D01*
X5572Y5011D01*
X5560Y5030D01*
X5541Y5042D01*
X5520Y5046D01*
D02*
G37*
G36*
X5306Y5112D02*
X5285Y5108D01*
X5266Y5096D01*
X5254Y5078D01*
X5250Y5056D01*
X5254Y5035D01*
X5266Y5017D01*
X5285Y5005D01*
X5306Y5000D01*
X5316Y5002D01*
X5325Y4993D01*
X5324Y4990D01*
X5328Y4969D01*
X5340Y4950D01*
X5359Y4938D01*
X5380Y4934D01*
X5401Y4938D01*
X5420Y4950D01*
X5432Y4969D01*
X5436Y4990D01*
X5432Y5011D01*
X5420Y5030D01*
X5401Y5042D01*
X5380Y5046D01*
X5370Y5044D01*
X5361Y5053D01*
X5362Y5056D01*
X5358Y5078D01*
X5346Y5096D01*
X5327Y5108D01*
X5306Y5112D01*
D02*
G37*
G36*
X6753Y4911D02*
Y4903D01*
X6762D01*
X6758Y4908D01*
X6753Y4911D01*
D02*
G37*
G36*
X6727D02*
X6722Y4908D01*
X6718Y4903D01*
X6727D01*
Y4911D01*
D02*
G37*
G36*
X7779Y4902D02*
Y4893D01*
X7788D01*
X7784Y4898D01*
X7779Y4902D01*
D02*
G37*
G36*
X7754D02*
X7748Y4898D01*
X7745Y4893D01*
X7754D01*
Y4902D01*
D02*
G37*
G36*
X6762Y4877D02*
X6753D01*
Y4868D01*
X6758Y4872D01*
X6762Y4877D01*
D02*
G37*
G36*
X6727D02*
X6718D01*
X6722Y4872D01*
X6727Y4868D01*
Y4877D01*
D02*
G37*
G36*
X7788Y4867D02*
X7779D01*
Y4858D01*
X7784Y4862D01*
X7788Y4867D01*
D02*
G37*
G36*
X7754D02*
X7745D01*
X7748Y4862D01*
X7754Y4858D01*
Y4867D01*
D02*
G37*
G36*
X5353Y4612D02*
Y4603D01*
X5362D01*
X5358Y4608D01*
X5353Y4612D01*
D02*
G37*
G36*
X5327D02*
X5322Y4608D01*
X5318Y4603D01*
X5327D01*
Y4612D01*
D02*
G37*
G36*
X7183Y4602D02*
Y4593D01*
X7192D01*
X7188Y4598D01*
X7183Y4602D01*
D02*
G37*
G36*
X7157D02*
X7152Y4598D01*
X7148Y4593D01*
X7157D01*
Y4602D01*
D02*
G37*
G36*
X6510Y4670D02*
X6492Y4667D01*
X6478Y4657D01*
X6468Y4642D01*
X6464Y4624D01*
X6468Y4607D01*
X6478Y4592D01*
X6492Y4582D01*
X6510Y4579D01*
X6528Y4582D01*
X6542Y4592D01*
X6552Y4607D01*
X6556Y4624D01*
X6552Y4642D01*
X6542Y4657D01*
X6528Y4667D01*
X6510Y4670D01*
D02*
G37*
G36*
X5362Y4577D02*
X5353D01*
Y4568D01*
X5358Y4572D01*
X5362Y4577D01*
D02*
G37*
G36*
X5327D02*
X5318D01*
X5322Y4572D01*
X5327Y4568D01*
Y4577D01*
D02*
G37*
G36*
X7192Y4567D02*
X7183D01*
Y4558D01*
X7188Y4562D01*
X7192Y4567D01*
D02*
G37*
G36*
X7157D02*
X7148D01*
X7152Y4562D01*
X7157Y4558D01*
Y4567D01*
D02*
G37*
G36*
X5353Y4362D02*
Y4353D01*
X5362D01*
X5358Y4358D01*
X5353Y4362D01*
D02*
G37*
G36*
X5327D02*
X5322Y4358D01*
X5318Y4353D01*
X5327D01*
Y4362D01*
D02*
G37*
G36*
X5362Y4327D02*
X5353D01*
Y4318D01*
X5358Y4322D01*
X5362Y4327D01*
D02*
G37*
G36*
X5327D02*
X5318D01*
X5322Y4322D01*
X5327Y4318D01*
Y4327D01*
D02*
G37*
G36*
X5469Y4088D02*
Y4063D01*
X5495D01*
X5494Y4066D01*
X5485Y4079D01*
X5472Y4088D01*
X5469Y4088D01*
D02*
G37*
G36*
X5444D02*
X5441Y4088D01*
X5428Y4079D01*
X5419Y4066D01*
X5418Y4063D01*
X5444D01*
Y4088D01*
D02*
G37*
G36*
X6753Y4052D02*
Y4043D01*
X6762D01*
X6758Y4048D01*
X6753Y4052D01*
D02*
G37*
G36*
X6727D02*
X6722Y4048D01*
X6718Y4043D01*
X6727D01*
Y4052D01*
D02*
G37*
G36*
X5495Y4037D02*
X5469D01*
Y4012D01*
X5472Y4012D01*
X5485Y4021D01*
X5494Y4034D01*
X5495Y4037D01*
D02*
G37*
G36*
X5444D02*
X5418D01*
X5419Y4034D01*
X5428Y4021D01*
X5441Y4012D01*
X5444Y4012D01*
Y4037D01*
D02*
G37*
G36*
X6762Y4017D02*
X6753D01*
Y4009D01*
X6758Y4012D01*
X6762Y4017D01*
D02*
G37*
G36*
X6727D02*
X6718D01*
X6722Y4012D01*
X6727Y4009D01*
Y4017D01*
D02*
G37*
G36*
X6650Y3942D02*
Y3933D01*
X6659D01*
X6655Y3938D01*
X6650Y3942D01*
D02*
G37*
G36*
X6624D02*
X6619Y3938D01*
X6615Y3933D01*
X6624D01*
Y3942D01*
D02*
G37*
G36*
X6659Y3907D02*
X6650D01*
Y3898D01*
X6655Y3902D01*
X6659Y3907D01*
D02*
G37*
G36*
X6624D02*
X6615D01*
X6619Y3902D01*
X6624Y3898D01*
Y3907D01*
D02*
G37*
G36*
X4973Y7232D02*
Y7223D01*
X4982D01*
X4978Y7228D01*
X4973Y7232D01*
D02*
G37*
G36*
X4947D02*
X4942Y7228D01*
X4938Y7223D01*
X4947D01*
Y7232D01*
D02*
G37*
G36*
X4982Y7197D02*
X4973D01*
Y7188D01*
X4978Y7192D01*
X4982Y7197D01*
D02*
G37*
G36*
X4947D02*
X4938D01*
X4942Y7192D01*
X4947Y7188D01*
Y7197D01*
D02*
G37*
G36*
X5073Y7143D02*
Y7123D01*
X5093D01*
X5093Y7124D01*
X5085Y7135D01*
X5074Y7143D01*
X5073Y7143D01*
D02*
G37*
G36*
X5047D02*
X5046Y7143D01*
X5035Y7135D01*
X5027Y7124D01*
X5027Y7123D01*
X5047D01*
Y7143D01*
D02*
G37*
G36*
X5093Y7097D02*
X5073D01*
Y7077D01*
X5074Y7077D01*
X5085Y7085D01*
X5093Y7096D01*
X5093Y7097D01*
D02*
G37*
G36*
X5047D02*
X5027D01*
X5027Y7096D01*
X5035Y7085D01*
X5046Y7077D01*
X5047Y7077D01*
Y7097D01*
D02*
G37*
G36*
X6783Y7083D02*
Y7063D01*
X6803D01*
X6803Y7064D01*
X6795Y7075D01*
X6784Y7083D01*
X6783Y7083D01*
D02*
G37*
G36*
X6757D02*
X6756Y7083D01*
X6745Y7075D01*
X6737Y7064D01*
X6737Y7063D01*
X6757D01*
Y7083D01*
D02*
G37*
G36*
X4720Y7146D02*
X4699Y7142D01*
X4680Y7130D01*
X4668Y7111D01*
X4664Y7090D01*
X4668Y7069D01*
X4680Y7050D01*
X4699Y7038D01*
X4720Y7034D01*
X4741Y7038D01*
X4760Y7050D01*
X4772Y7069D01*
X4776Y7090D01*
X4772Y7111D01*
X4760Y7130D01*
X4741Y7142D01*
X4720Y7146D01*
D02*
G37*
G36*
X6803Y7037D02*
X6783D01*
Y7017D01*
X6784Y7017D01*
X6795Y7025D01*
X6803Y7036D01*
X6803Y7037D01*
D02*
G37*
G36*
X6757D02*
X6737D01*
X6737Y7036D01*
X6745Y7025D01*
X6756Y7017D01*
X6757Y7017D01*
Y7037D01*
D02*
G37*
G36*
X6890Y7006D02*
X6872Y7002D01*
X6858Y6992D01*
X6848Y6978D01*
X6844Y6960D01*
X6848Y6942D01*
X6858Y6928D01*
X6872Y6918D01*
X6890Y6914D01*
X6908Y6918D01*
X6922Y6928D01*
X6932Y6942D01*
X6936Y6960D01*
X6932Y6978D01*
X6922Y6992D01*
X6908Y7002D01*
X6890Y7006D01*
D02*
G37*
G36*
X4760Y6981D02*
X4743Y6977D01*
X4728Y6967D01*
X4718Y6953D01*
X4714Y6935D01*
X4718Y6917D01*
X4728Y6903D01*
X4743Y6893D01*
X4760Y6889D01*
X4778Y6893D01*
X4793Y6903D01*
X4802Y6917D01*
X4806Y6935D01*
X4802Y6953D01*
X4793Y6967D01*
X4778Y6977D01*
X4760Y6981D01*
D02*
G37*
G36*
X4944Y6916D02*
X4926Y6912D01*
X4911Y6902D01*
X4901Y6888D01*
X4898Y6870D01*
X4901Y6852D01*
X4911Y6838D01*
X4926Y6828D01*
X4944Y6824D01*
X4961Y6828D01*
X4976Y6838D01*
X4986Y6852D01*
X4990Y6870D01*
X4986Y6888D01*
X4976Y6902D01*
X4961Y6912D01*
X4944Y6916D01*
D02*
G37*
G36*
X5073Y6803D02*
Y6783D01*
X5093D01*
X5093Y6784D01*
X5085Y6795D01*
X5074Y6803D01*
X5073Y6803D01*
D02*
G37*
G36*
X5047D02*
X5046Y6803D01*
X5035Y6795D01*
X5027Y6784D01*
X5027Y6783D01*
X5047D01*
Y6803D01*
D02*
G37*
G36*
X6241Y6866D02*
X6224Y6862D01*
X6209Y6852D01*
X6199Y6838D01*
X6195Y6820D01*
X6199Y6802D01*
X6209Y6788D01*
X6224Y6778D01*
X6241Y6774D01*
X6259Y6778D01*
X6274Y6788D01*
X6283Y6802D01*
X6287Y6820D01*
X6283Y6838D01*
X6274Y6852D01*
X6259Y6862D01*
X6241Y6866D01*
D02*
G37*
G36*
X6783Y6793D02*
Y6773D01*
X6803D01*
X6803Y6774D01*
X6795Y6785D01*
X6784Y6793D01*
X6783Y6793D01*
D02*
G37*
G36*
X6757D02*
X6756Y6793D01*
X6745Y6785D01*
X6737Y6774D01*
X6737Y6773D01*
X6757D01*
Y6793D01*
D02*
G37*
G36*
X5460Y6916D02*
X5442Y6912D01*
X5428Y6902D01*
X5418Y6888D01*
X5414Y6870D01*
X5418Y6852D01*
X5427Y6838D01*
X5429Y6835D01*
Y6825D01*
X5427Y6822D01*
X5418Y6808D01*
X5414Y6790D01*
X5418Y6772D01*
X5428Y6758D01*
X5442Y6748D01*
X5460Y6744D01*
X5478Y6748D01*
X5492Y6758D01*
X5502Y6772D01*
X5506Y6790D01*
X5502Y6808D01*
X5493Y6822D01*
X5491Y6825D01*
Y6835D01*
X5493Y6838D01*
X5502Y6852D01*
X5506Y6870D01*
X5502Y6888D01*
X5492Y6902D01*
X5478Y6912D01*
X5460Y6916D01*
D02*
G37*
G36*
X6638Y6752D02*
Y6743D01*
X6646D01*
X6643Y6748D01*
X6638Y6752D01*
D02*
G37*
G36*
X6612D02*
X6607Y6748D01*
X6603Y6743D01*
X6612D01*
Y6752D01*
D02*
G37*
G36*
X5093Y6757D02*
X5073D01*
Y6737D01*
X5074Y6737D01*
X5085Y6745D01*
X5093Y6756D01*
X5093Y6757D01*
D02*
G37*
G36*
X5047D02*
X5027D01*
X5027Y6756D01*
X5035Y6745D01*
X5046Y6737D01*
X5047Y6737D01*
Y6757D01*
D02*
G37*
G36*
X4720Y6846D02*
X4699Y6842D01*
X4680Y6830D01*
X4668Y6811D01*
X4664Y6790D01*
X4668Y6769D01*
X4680Y6750D01*
X4699Y6738D01*
X4720Y6734D01*
X4741Y6738D01*
X4760Y6750D01*
X4772Y6769D01*
X4776Y6790D01*
X4772Y6811D01*
X4760Y6830D01*
X4741Y6842D01*
X4720Y6846D01*
D02*
G37*
G36*
X6803Y6747D02*
X6783D01*
Y6727D01*
X6784Y6727D01*
X6795Y6735D01*
X6803Y6746D01*
X6803Y6747D01*
D02*
G37*
G36*
X6757D02*
X6737D01*
X6737Y6746D01*
X6745Y6735D01*
X6756Y6727D01*
X6757Y6727D01*
Y6747D01*
D02*
G37*
G36*
X6646Y6717D02*
X6638D01*
Y6708D01*
X6643Y6712D01*
X6646Y6717D01*
D02*
G37*
G36*
X6612D02*
X6603D01*
X6607Y6712D01*
X6612Y6708D01*
Y6717D01*
D02*
G37*
G36*
X4973Y6712D02*
Y6703D01*
X4982D01*
X4978Y6708D01*
X4973Y6712D01*
D02*
G37*
G36*
X4947D02*
X4942Y6708D01*
X4938Y6703D01*
X4947D01*
Y6712D01*
D02*
G37*
G36*
X6470Y6778D02*
X6452Y6775D01*
X6438Y6765D01*
X6428Y6750D01*
X6424Y6732D01*
X6428Y6715D01*
X6438Y6700D01*
X6452Y6690D01*
X6470Y6687D01*
X6488Y6690D01*
X6502Y6700D01*
X6512Y6715D01*
X6516Y6732D01*
X6512Y6750D01*
X6502Y6765D01*
X6488Y6775D01*
X6470Y6778D01*
D02*
G37*
G36*
X4982Y6677D02*
X4973D01*
Y6668D01*
X4978Y6672D01*
X4982Y6677D01*
D02*
G37*
G36*
X4947D02*
X4938D01*
X4942Y6672D01*
X4947Y6668D01*
Y6677D01*
D02*
G37*
G36*
X5393Y6603D02*
Y6583D01*
X5413D01*
X5413Y6584D01*
X5405Y6595D01*
X5394Y6603D01*
X5393Y6603D01*
D02*
G37*
G36*
X5367D02*
X5366Y6603D01*
X5355Y6595D01*
X5347Y6584D01*
X5347Y6583D01*
X5367D01*
Y6603D01*
D02*
G37*
G36*
X4760Y6651D02*
X4743Y6647D01*
X4728Y6637D01*
X4718Y6623D01*
X4714Y6605D01*
X4718Y6587D01*
X4728Y6573D01*
X4743Y6563D01*
X4760Y6559D01*
X4778Y6563D01*
X4793Y6573D01*
X4802Y6587D01*
X4806Y6605D01*
X4802Y6623D01*
X4793Y6637D01*
X4778Y6647D01*
X4760Y6651D01*
D02*
G37*
G36*
X4930Y6586D02*
X4912Y6582D01*
X4898Y6572D01*
X4888Y6558D01*
X4884Y6540D01*
X4888Y6522D01*
X4898Y6508D01*
X4912Y6498D01*
X4930Y6494D01*
X4948Y6498D01*
X4962Y6508D01*
X4972Y6522D01*
X4976Y6540D01*
X4972Y6558D01*
X4962Y6572D01*
X4948Y6582D01*
X4930Y6586D01*
D02*
G37*
G36*
X4663Y6383D02*
Y6363D01*
X4683D01*
X4683Y6364D01*
X4675Y6375D01*
X4664Y6383D01*
X4663Y6383D01*
D02*
G37*
G36*
X4637D02*
X4636Y6383D01*
X4625Y6375D01*
X4617Y6364D01*
X4617Y6363D01*
X4637D01*
Y6383D01*
D02*
G37*
G36*
X4683Y6337D02*
X4663D01*
Y6317D01*
X4664Y6317D01*
X4675Y6325D01*
X4683Y6336D01*
X4683Y6337D01*
D02*
G37*
G36*
X4637D02*
X4617D01*
X4617Y6336D01*
X4625Y6325D01*
X4636Y6317D01*
X4637Y6317D01*
Y6337D01*
D02*
G37*
%LPD*%
D76*
X3730Y5925D02*
X4076D01*
X4090Y5911D01*
D83*
X5402Y8356D02*
D03*
X6353Y8350D02*
D03*
X6349Y7917D02*
D03*
X5398Y7923D02*
D03*
X6960Y9000D02*
D03*
X5180D02*
D03*
D85*
X8510Y7300D02*
D03*
X3290D02*
D03*
D86*
X8232Y4060D02*
D03*
X5262Y7228D02*
D03*
X3988Y6487D02*
D03*
X4130Y5033D02*
D03*
Y4520D02*
D03*
X7900Y6651D02*
D03*
X8510Y8236D02*
D03*
X3000Y9006D02*
D03*
Y7889D02*
D03*
Y5925D02*
D03*
Y4880D02*
D03*
X8215Y4700D02*
D03*
X8063D02*
D03*
X6230Y6428D02*
D03*
X5380Y6570D02*
D03*
X5831Y6509D02*
D03*
X5915Y6505D02*
D03*
X5915Y6604D02*
D03*
X5831D02*
D03*
X7680Y4060D02*
D03*
X7496D02*
D03*
X7320Y4063D02*
D03*
X5880Y3860D02*
D03*
X5863Y3427D02*
D03*
X5274Y3588D02*
D03*
X5255Y3862D02*
D03*
X5078Y4040D02*
D03*
X4130D02*
D03*
X4310Y3867D02*
D03*
X4320Y3588D02*
D03*
X4673D02*
D03*
X4500Y3425D02*
D03*
X4917Y3445D02*
D03*
X3840Y3340D02*
D03*
X3720Y3588D02*
D03*
X3350Y3588D02*
D03*
X3550Y3412D02*
D03*
X4650Y6350D02*
D03*
X4670Y5828D02*
D03*
X5819Y9190D02*
D03*
X3730Y5925D02*
D03*
Y5800D02*
D03*
X4090Y5756D02*
D03*
X5468Y7130D02*
D03*
X5108Y6323D02*
D03*
X6510Y3909D02*
D03*
X6230Y3800D02*
D03*
X5230Y5809D02*
D03*
X6770Y7050D02*
D03*
X6789Y5880D02*
D03*
X6575Y5751D02*
D03*
X5060Y6770D02*
D03*
X6770Y6760D02*
D03*
X5060Y7110D02*
D03*
X5159Y5631D02*
D03*
X5737Y5073D02*
D03*
X5034Y5124D02*
D03*
X4853Y4943D02*
D03*
X5000Y5200D02*
D03*
X4860D02*
D03*
X7419Y3050D02*
D03*
X7119D02*
D03*
X6819D02*
D03*
X6519D02*
D03*
X7419Y3150D02*
D03*
X7119D02*
D03*
X6819D02*
D03*
X6519D02*
D03*
X5619Y3050D02*
D03*
X6019D02*
D03*
X5820D02*
D03*
X6019Y3150D02*
D03*
X5819D02*
D03*
X5619D02*
D03*
D87*
X6860Y9360D02*
D03*
X6349Y6912D02*
D03*
X7790Y5609D02*
D03*
Y5735D02*
D03*
Y5860D02*
D03*
X7790Y5985D02*
D03*
Y6240D02*
D03*
X7790Y6115D02*
D03*
X3290Y6594D02*
D03*
X8300Y6550D02*
D03*
X8730Y5171D02*
D03*
X8510Y5010D02*
D03*
X8720Y6550D02*
D03*
X8510Y6730D02*
D03*
X8020Y8430D02*
D03*
X6199Y8810D02*
D03*
X6490D02*
D03*
X7120Y7540D02*
D03*
X7230Y7442D02*
D03*
X8070Y7540D02*
D03*
X7980Y7446D02*
D03*
X8020Y8370D02*
D03*
X8120Y8249D02*
D03*
X8020Y8154D02*
D03*
Y8657D02*
D03*
Y8880D02*
D03*
X8140Y8770D02*
D03*
X8560Y9204D02*
D03*
X8130D02*
D03*
X8350Y8900D02*
D03*
X7658Y9204D02*
D03*
X7228D02*
D03*
X7447Y8900D02*
D03*
X3450Y8950D02*
D03*
X3230Y9254D02*
D03*
X3660D02*
D03*
X4140D02*
D03*
X4559Y9250D02*
D03*
X4349Y8950D02*
D03*
X6961Y8220D02*
D03*
X6919Y8093D02*
D03*
X7031Y7979D02*
D03*
X4870Y8130D02*
D03*
X4770Y8035D02*
D03*
X3780Y8940D02*
D03*
X3660Y8830D02*
D03*
X6470Y7131D02*
D03*
X5340Y4590D02*
D03*
Y4340D02*
D03*
X5332Y5925D02*
D03*
X6625Y6730D02*
D03*
X6444Y5936D02*
D03*
X6241Y5369D02*
D03*
X6459Y5610D02*
D03*
X7826Y4580D02*
D03*
X7170D02*
D03*
X6637Y3920D02*
D03*
X6740Y4030D02*
D03*
X6510Y4326D02*
D03*
X5748D02*
D03*
X6262Y5736D02*
D03*
X5525Y5837D02*
D03*
X6740Y4890D02*
D03*
X6637Y5000D02*
D03*
X6510D02*
D03*
X8105Y6300D02*
D03*
Y5425D02*
D03*
Y5550D02*
D03*
X7766Y4880D02*
D03*
X4960Y6690D02*
D03*
Y7210D02*
D03*
X7730Y8530D02*
D03*
X7530D02*
D03*
X4150Y8580D02*
D03*
X4310D02*
D03*
X7785Y7889D02*
D03*
X4370Y7930D02*
D03*
X4150Y8330D02*
D03*
X4310D02*
D03*
X7700Y8296D02*
D03*
X7550Y8295D02*
D03*
X7440Y8171D02*
D03*
D88*
X7515Y8075D02*
D03*
X7610Y7985D02*
D03*
Y8075D02*
D03*
X7705Y7985D02*
D03*
Y8075D02*
D03*
X7518Y7985D02*
D03*
X4100Y8117D02*
D03*
X4195Y8026D02*
D03*
Y8117D02*
D03*
X4290Y8026D02*
D03*
Y8117D02*
D03*
X4103Y8026D02*
D03*
D89*
X5456Y4050D02*
D03*
X3620Y4040D02*
D03*
X3470D02*
D03*
X3620Y4170D02*
D03*
X3470D02*
D03*
D90*
X8510Y7525D02*
D03*
X8735Y7300D02*
D03*
X8285D02*
D03*
X8510Y7075D02*
D03*
X8660Y7150D02*
D03*
X8360D02*
D03*
X8685Y7450D02*
D03*
X8360D02*
D03*
X3290Y7525D02*
D03*
X3515Y7300D02*
D03*
X3065D02*
D03*
X3290Y7075D02*
D03*
X3440Y7150D02*
D03*
X3140D02*
D03*
X3465Y7450D02*
D03*
X3140D02*
D03*
M02*
