G04*
G04 #@! TF.GenerationSoftware,Altium Limited,Altium Designer,19.0.15 (446)*
G04*
G04 Layer_Color=32896*
%FSLAX42Y42*%
%MOMM*%
G71*
G01*
G75*
%ADD13C,0.03*%
%ADD47C,0.25*%
%ADD80C,0.20*%
%ADD97C,0.60*%
G36*
X5340Y6435D02*
X5393D01*
Y6427D01*
X5340Y6390D01*
X5331D01*
Y6426D01*
X5312D01*
Y6435D01*
X5331D01*
Y6446D01*
X5340D01*
Y6435D01*
D02*
G37*
G36*
X5321Y6343D02*
X5323Y6344D01*
X5324Y6345D01*
X5325Y6346D01*
X5326Y6346D01*
X5326Y6347D01*
X5327Y6347D01*
X5327Y6347D01*
X5327Y6348D01*
X5328Y6348D01*
X5329Y6349D01*
X5329Y6350D01*
X5331Y6352D01*
X5333Y6354D01*
X5334Y6356D01*
X5335Y6357D01*
X5336Y6357D01*
X5336Y6358D01*
X5337Y6358D01*
X5337Y6359D01*
X5337Y6359D01*
X5339Y6361D01*
X5340Y6362D01*
X5342Y6364D01*
X5343Y6366D01*
X5344Y6367D01*
X5345Y6368D01*
X5347Y6369D01*
X5347Y6370D01*
X5348Y6371D01*
X5349Y6372D01*
X5350Y6373D01*
X5350Y6373D01*
X5351Y6374D01*
X5351Y6374D01*
X5351Y6374D01*
X5351D01*
X5353Y6376D01*
X5355Y6377D01*
X5357Y6378D01*
X5358Y6379D01*
X5359Y6380D01*
X5360Y6380D01*
X5361Y6381D01*
X5361Y6381D01*
X5363Y6381D01*
X5365Y6382D01*
X5366Y6382D01*
X5368Y6383D01*
X5369Y6383D01*
X5370Y6383D01*
X5370D01*
X5371D01*
X5372Y6383D01*
X5374Y6382D01*
X5376Y6382D01*
X5377Y6382D01*
X5380Y6381D01*
X5381Y6380D01*
X5382Y6379D01*
X5383Y6379D01*
X5384Y6378D01*
X5385Y6377D01*
X5386Y6377D01*
X5386Y6377D01*
X5386Y6376D01*
X5387Y6376D01*
X5387Y6376D01*
X5388Y6375D01*
X5389Y6373D01*
X5390Y6372D01*
X5391Y6370D01*
X5391Y6368D01*
X5392Y6367D01*
X5392Y6364D01*
X5393Y6363D01*
X5393Y6361D01*
X5393Y6360D01*
X5393Y6359D01*
X5393Y6358D01*
Y6357D01*
X5393Y6355D01*
X5393Y6353D01*
X5393Y6351D01*
X5392Y6350D01*
X5392Y6348D01*
X5391Y6346D01*
X5391Y6345D01*
X5390Y6344D01*
X5390Y6343D01*
X5389Y6342D01*
X5389Y6341D01*
X5388Y6340D01*
X5388Y6340D01*
X5387Y6339D01*
X5387Y6339D01*
X5387Y6339D01*
X5386Y6338D01*
X5385Y6336D01*
X5383Y6336D01*
X5382Y6335D01*
X5381Y6334D01*
X5379Y6333D01*
X5376Y6332D01*
X5375Y6332D01*
X5374Y6332D01*
X5373Y6331D01*
X5372Y6331D01*
X5371Y6331D01*
X5370D01*
X5370Y6331D01*
X5370D01*
X5369Y6341D01*
X5372Y6341D01*
X5374Y6342D01*
X5376Y6343D01*
X5378Y6343D01*
X5379Y6344D01*
X5380Y6345D01*
X5381Y6345D01*
X5381Y6346D01*
X5382Y6347D01*
X5383Y6349D01*
X5384Y6351D01*
X5385Y6353D01*
X5385Y6355D01*
X5385Y6355D01*
Y6356D01*
X5385Y6356D01*
Y6357D01*
X5385Y6359D01*
X5384Y6362D01*
X5384Y6364D01*
X5383Y6365D01*
X5382Y6366D01*
X5382Y6367D01*
X5381Y6368D01*
X5381Y6368D01*
X5379Y6370D01*
X5378Y6371D01*
X5376Y6371D01*
X5375Y6372D01*
X5373Y6372D01*
X5372Y6372D01*
X5372Y6372D01*
X5371D01*
X5371D01*
X5371D01*
X5370D01*
X5369Y6372D01*
X5367Y6372D01*
X5365Y6371D01*
X5363Y6370D01*
X5361Y6369D01*
X5361Y6369D01*
X5360Y6368D01*
X5360Y6368D01*
X5359Y6368D01*
X5359Y6368D01*
X5359Y6368D01*
X5358Y6367D01*
X5356Y6366D01*
X5355Y6364D01*
X5354Y6363D01*
X5351Y6360D01*
X5348Y6357D01*
X5347Y6356D01*
X5346Y6354D01*
X5344Y6353D01*
X5344Y6352D01*
X5343Y6351D01*
X5342Y6350D01*
X5342Y6350D01*
X5342Y6350D01*
X5339Y6347D01*
X5337Y6344D01*
X5335Y6342D01*
X5333Y6340D01*
X5331Y6339D01*
X5330Y6338D01*
X5330Y6337D01*
X5330Y6337D01*
X5329Y6337D01*
X5329Y6337D01*
X5327Y6335D01*
X5325Y6334D01*
X5324Y6333D01*
X5322Y6332D01*
X5321Y6331D01*
X5320Y6331D01*
X5319Y6330D01*
X5319Y6330D01*
X5319Y6330D01*
X5319D01*
X5317Y6330D01*
X5316Y6329D01*
X5315Y6329D01*
X5314Y6329D01*
X5313Y6329D01*
X5312D01*
X5312D01*
X5312D01*
Y6383D01*
X5321D01*
Y6343D01*
D02*
G37*
G36*
X5340Y6311D02*
X5338Y6310D01*
X5337Y6310D01*
X5335Y6309D01*
X5333Y6308D01*
X5332Y6308D01*
X5331Y6307D01*
X5330Y6306D01*
X5329Y6305D01*
X5328Y6305D01*
X5327Y6304D01*
X5326Y6303D01*
X5326Y6303D01*
X5325Y6303D01*
X5325Y6302D01*
X5325Y6302D01*
X5325Y6302D01*
X5324Y6301D01*
X5323Y6300D01*
X5322Y6298D01*
X5322Y6297D01*
X5321Y6294D01*
X5320Y6292D01*
X5320Y6291D01*
X5320Y6290D01*
X5320Y6289D01*
X5320Y6288D01*
X5320Y6288D01*
Y6287D01*
X5320Y6284D01*
X5320Y6281D01*
X5321Y6279D01*
X5321Y6277D01*
X5322Y6275D01*
X5323Y6275D01*
X5323Y6274D01*
X5323Y6273D01*
X5323Y6273D01*
X5323Y6273D01*
Y6273D01*
X5325Y6271D01*
X5327Y6269D01*
X5329Y6267D01*
X5331Y6266D01*
X5332Y6265D01*
X5333Y6264D01*
X5334Y6264D01*
X5334Y6264D01*
X5335Y6264D01*
X5335Y6263D01*
X5335D01*
X5338Y6262D01*
X5341Y6262D01*
X5344Y6261D01*
X5347Y6261D01*
X5348Y6261D01*
X5349D01*
X5350Y6261D01*
X5351Y6260D01*
X5352D01*
X5353D01*
X5353D01*
X5353D01*
X5356Y6261D01*
X5359Y6261D01*
X5361Y6261D01*
X5364Y6262D01*
X5365Y6262D01*
X5366Y6262D01*
X5367Y6262D01*
X5367Y6263D01*
X5368Y6263D01*
X5368Y6263D01*
X5368Y6263D01*
X5369D01*
X5371Y6264D01*
X5374Y6265D01*
X5376Y6267D01*
X5377Y6268D01*
X5379Y6270D01*
X5380Y6271D01*
X5380Y6271D01*
X5380Y6271D01*
X5381Y6272D01*
Y6272D01*
X5381Y6273D01*
X5382Y6274D01*
X5383Y6277D01*
X5384Y6280D01*
X5385Y6282D01*
X5385Y6283D01*
X5385Y6284D01*
X5385Y6285D01*
Y6286D01*
X5385Y6287D01*
Y6288D01*
X5385Y6290D01*
X5385Y6293D01*
X5384Y6295D01*
X5383Y6297D01*
X5382Y6299D01*
X5382Y6300D01*
X5382Y6300D01*
X5381Y6301D01*
X5381Y6301D01*
X5381Y6301D01*
Y6301D01*
X5380Y6302D01*
X5379Y6303D01*
X5377Y6305D01*
X5375Y6306D01*
X5373Y6307D01*
X5371Y6308D01*
X5370Y6309D01*
X5370Y6309D01*
X5369Y6309D01*
X5369Y6309D01*
X5368Y6309D01*
X5368D01*
X5371Y6320D01*
X5373Y6319D01*
X5375Y6319D01*
X5377Y6318D01*
X5378Y6317D01*
X5380Y6316D01*
X5381Y6315D01*
X5382Y6314D01*
X5384Y6313D01*
X5385Y6312D01*
X5386Y6311D01*
X5386Y6310D01*
X5387Y6310D01*
X5387Y6309D01*
X5388Y6309D01*
X5388Y6308D01*
X5388Y6308D01*
X5389Y6307D01*
X5390Y6305D01*
X5391Y6303D01*
X5392Y6302D01*
X5392Y6300D01*
X5393Y6298D01*
X5394Y6295D01*
X5394Y6293D01*
X5394Y6292D01*
X5394Y6291D01*
X5394Y6290D01*
X5394Y6289D01*
Y6286D01*
X5394Y6284D01*
X5394Y6280D01*
X5393Y6277D01*
X5392Y6275D01*
X5392Y6274D01*
X5391Y6273D01*
X5391Y6271D01*
X5391Y6270D01*
X5390Y6270D01*
X5390Y6269D01*
X5390Y6268D01*
X5390Y6268D01*
X5389Y6268D01*
X5388Y6266D01*
X5387Y6265D01*
X5385Y6262D01*
X5383Y6260D01*
X5380Y6258D01*
X5379Y6257D01*
X5378Y6256D01*
X5377Y6256D01*
X5377Y6255D01*
X5376Y6255D01*
X5375Y6254D01*
X5375Y6254D01*
X5375Y6254D01*
X5373Y6253D01*
X5371Y6253D01*
X5368Y6251D01*
X5364Y6251D01*
X5362Y6250D01*
X5360Y6250D01*
X5359Y6250D01*
X5357Y6250D01*
X5356Y6250D01*
X5355D01*
X5354Y6249D01*
X5353D01*
X5353D01*
X5353D01*
X5349Y6250D01*
X5345Y6250D01*
X5343Y6250D01*
X5341Y6251D01*
X5339Y6251D01*
X5338Y6252D01*
X5336Y6252D01*
X5335Y6252D01*
X5334Y6253D01*
X5333Y6253D01*
X5332Y6253D01*
X5332Y6253D01*
X5331Y6254D01*
X5331D01*
X5329Y6254D01*
X5328Y6255D01*
X5326Y6256D01*
X5325Y6257D01*
X5323Y6258D01*
X5322Y6260D01*
X5321Y6260D01*
X5320Y6262D01*
X5319Y6262D01*
X5318Y6263D01*
X5317Y6264D01*
X5317Y6265D01*
X5316Y6265D01*
X5316Y6266D01*
X5316Y6266D01*
X5316Y6266D01*
X5315Y6268D01*
X5314Y6269D01*
X5313Y6271D01*
X5313Y6273D01*
X5312Y6277D01*
X5311Y6280D01*
X5311Y6282D01*
X5311Y6283D01*
X5311Y6284D01*
X5310Y6285D01*
X5310Y6286D01*
Y6288D01*
X5310Y6290D01*
X5311Y6292D01*
X5311Y6294D01*
X5311Y6296D01*
X5312Y6298D01*
X5313Y6300D01*
X5313Y6302D01*
X5314Y6303D01*
X5314Y6304D01*
X5315Y6306D01*
X5316Y6307D01*
X5316Y6308D01*
X5317Y6308D01*
X5317Y6309D01*
X5317Y6309D01*
X5317Y6309D01*
X5319Y6311D01*
X5320Y6312D01*
X5322Y6314D01*
X5323Y6315D01*
X5325Y6316D01*
X5327Y6317D01*
X5328Y6318D01*
X5330Y6319D01*
X5331Y6319D01*
X5333Y6320D01*
X5334Y6320D01*
X5335Y6321D01*
X5336Y6321D01*
X5337Y6321D01*
X5337Y6321D01*
X5337D01*
X5340Y6311D01*
D02*
G37*
G36*
X6825Y7081D02*
X6827Y7081D01*
X6830Y7081D01*
X6833Y7080D01*
X6834Y7079D01*
X6835Y7079D01*
X6836Y7078D01*
X6837Y7078D01*
X6838Y7077D01*
X6838Y7077D01*
X6839Y7077D01*
X6839Y7076D01*
X6840Y7076D01*
X6840Y7076D01*
X6841Y7075D01*
X6842Y7074D01*
X6844Y7071D01*
X6845Y7069D01*
X6846Y7066D01*
X6847Y7065D01*
X6847Y7064D01*
X6847Y7063D01*
X6847Y7062D01*
X6848Y7061D01*
X6848Y7061D01*
X6848Y7061D01*
Y7061D01*
X6838Y7059D01*
X6837Y7061D01*
X6837Y7064D01*
X6836Y7065D01*
X6835Y7067D01*
X6834Y7068D01*
X6834Y7069D01*
X6833Y7069D01*
X6833Y7070D01*
X6832Y7071D01*
X6830Y7072D01*
X6828Y7072D01*
X6827Y7073D01*
X6825Y7073D01*
X6824Y7073D01*
X6824Y7073D01*
X6823D01*
X6821Y7073D01*
X6819Y7073D01*
X6818Y7072D01*
X6816Y7072D01*
X6815Y7071D01*
X6814Y7070D01*
X6814Y7070D01*
X6814Y7070D01*
X6813Y7068D01*
X6812Y7067D01*
X6811Y7065D01*
X6810Y7064D01*
X6810Y7063D01*
X6810Y7062D01*
X6810Y7061D01*
Y7061D01*
Y7061D01*
X6810Y7059D01*
X6810Y7058D01*
X6811Y7056D01*
X6812Y7054D01*
X6813Y7053D01*
X6813Y7052D01*
X6814Y7051D01*
X6815Y7051D01*
X6815Y7050D01*
X6815D01*
X6817Y7049D01*
X6819Y7048D01*
X6821Y7048D01*
X6823Y7047D01*
X6824Y7047D01*
X6825Y7047D01*
X6826Y7047D01*
X6827D01*
X6828Y7047D01*
X6828Y7047D01*
X6828D01*
X6829Y7038D01*
X6828Y7039D01*
X6826Y7039D01*
X6825Y7039D01*
X6824Y7039D01*
X6823Y7040D01*
X6822D01*
X6820Y7039D01*
X6817Y7039D01*
X6816Y7038D01*
X6814Y7037D01*
X6813Y7036D01*
X6812Y7036D01*
X6811Y7035D01*
X6811Y7035D01*
X6810Y7034D01*
X6809Y7033D01*
X6808Y7031D01*
X6807Y7030D01*
X6807Y7028D01*
X6806Y7026D01*
X6806Y7025D01*
Y7025D01*
X6806Y7024D01*
Y7024D01*
Y7024D01*
Y7024D01*
Y7023D01*
X6806Y7021D01*
X6807Y7019D01*
X6808Y7017D01*
X6809Y7015D01*
X6810Y7014D01*
X6810Y7013D01*
X6811Y7012D01*
X6811Y7012D01*
X6811Y7012D01*
X6811Y7012D01*
X6812Y7011D01*
X6813Y7010D01*
X6815Y7009D01*
X6817Y7008D01*
X6819Y7008D01*
X6821Y7007D01*
X6821Y7007D01*
X6822D01*
X6822Y7007D01*
X6823D01*
X6825Y7007D01*
X6827Y7008D01*
X6829Y7008D01*
X6830Y7009D01*
X6832Y7009D01*
X6832Y7010D01*
X6833Y7010D01*
X6833Y7011D01*
X6834Y7011D01*
X6835Y7012D01*
X6836Y7014D01*
X6837Y7016D01*
X6838Y7018D01*
X6838Y7020D01*
X6838Y7021D01*
X6839Y7022D01*
X6839Y7022D01*
X6839Y7023D01*
X6839Y7023D01*
Y7023D01*
X6849Y7022D01*
X6849Y7020D01*
X6848Y7018D01*
X6848Y7016D01*
X6847Y7015D01*
X6847Y7013D01*
X6846Y7012D01*
X6845Y7011D01*
X6845Y7009D01*
X6844Y7008D01*
X6843Y7008D01*
X6843Y7007D01*
X6842Y7006D01*
X6841Y7006D01*
X6841Y7005D01*
X6841Y7005D01*
X6841Y7005D01*
X6839Y7004D01*
X6838Y7003D01*
X6837Y7002D01*
X6835Y7001D01*
X6834Y7001D01*
X6832Y7000D01*
X6829Y6999D01*
X6828Y6999D01*
X6827Y6999D01*
X6826Y6999D01*
X6825Y6999D01*
X6824Y6999D01*
X6823D01*
X6821Y6999D01*
X6819Y6999D01*
X6817Y6999D01*
X6815Y7000D01*
X6813Y7000D01*
X6812Y7001D01*
X6810Y7002D01*
X6809Y7002D01*
X6808Y7003D01*
X6807Y7004D01*
X6806Y7004D01*
X6805Y7005D01*
X6804Y7005D01*
X6804Y7006D01*
X6804Y7006D01*
X6804Y7006D01*
X6802Y7007D01*
X6801Y7009D01*
X6800Y7010D01*
X6799Y7012D01*
X6798Y7013D01*
X6798Y7015D01*
X6797Y7016D01*
X6797Y7018D01*
X6796Y7019D01*
X6796Y7020D01*
X6796Y7021D01*
X6796Y7022D01*
X6796Y7023D01*
Y7024D01*
Y7024D01*
Y7024D01*
X6796Y7027D01*
X6796Y7029D01*
X6797Y7031D01*
X6798Y7033D01*
X6798Y7035D01*
X6799Y7036D01*
X6799Y7036D01*
X6799Y7036D01*
X6800Y7037D01*
X6800Y7037D01*
Y7037D01*
X6801Y7039D01*
X6803Y7040D01*
X6805Y7042D01*
X6807Y7042D01*
X6808Y7043D01*
X6809Y7043D01*
X6810Y7044D01*
X6810Y7044D01*
X6811Y7044D01*
X6811Y7044D01*
X6811D01*
X6809Y7045D01*
X6807Y7046D01*
X6806Y7047D01*
X6805Y7048D01*
X6804Y7049D01*
X6803Y7050D01*
X6803Y7051D01*
X6803Y7051D01*
X6802Y7053D01*
X6801Y7054D01*
X6800Y7056D01*
X6800Y7057D01*
X6800Y7059D01*
X6800Y7060D01*
Y7060D01*
Y7060D01*
Y7060D01*
X6800Y7062D01*
X6800Y7064D01*
X6801Y7066D01*
X6801Y7068D01*
X6802Y7069D01*
X6802Y7070D01*
X6803Y7071D01*
X6803Y7071D01*
Y7071D01*
X6804Y7073D01*
X6805Y7074D01*
X6807Y7076D01*
X6808Y7077D01*
X6809Y7078D01*
X6810Y7078D01*
X6811Y7078D01*
X6811Y7079D01*
X6811Y7079D01*
X6811D01*
X6813Y7080D01*
X6816Y7080D01*
X6818Y7081D01*
X6819Y7081D01*
X6821Y7081D01*
X6822D01*
X6822Y7082D01*
X6823D01*
X6825Y7081D01*
D02*
G37*
G36*
X6761D02*
X6763Y7081D01*
X6765Y7081D01*
X6767Y7081D01*
X6768Y7080D01*
X6770Y7080D01*
X6771Y7079D01*
X6773Y7079D01*
X6774Y7078D01*
X6775Y7077D01*
X6776Y7077D01*
X6776Y7077D01*
X6777Y7076D01*
X6777Y7076D01*
X6777Y7076D01*
X6778Y7076D01*
X6779Y7074D01*
X6780Y7073D01*
X6781Y7072D01*
X6782Y7070D01*
X6782Y7069D01*
X6783Y7067D01*
X6784Y7065D01*
X6784Y7063D01*
X6785Y7062D01*
X6785Y7061D01*
X6785Y7060D01*
X6785Y7059D01*
Y7059D01*
X6785Y7058D01*
Y7058D01*
X6775Y7057D01*
X6775Y7060D01*
X6774Y7062D01*
X6774Y7064D01*
X6773Y7066D01*
X6772Y7067D01*
X6771Y7068D01*
X6771Y7069D01*
X6771Y7069D01*
X6769Y7070D01*
X6767Y7072D01*
X6765Y7072D01*
X6763Y7073D01*
X6762Y7073D01*
X6761Y7073D01*
X6760D01*
X6760Y7073D01*
X6759D01*
X6757Y7073D01*
X6755Y7073D01*
X6753Y7072D01*
X6751Y7071D01*
X6750Y7070D01*
X6749Y7070D01*
X6748Y7069D01*
X6748Y7069D01*
X6747Y7068D01*
X6746Y7066D01*
X6745Y7064D01*
X6744Y7063D01*
X6744Y7061D01*
X6744Y7060D01*
X6744Y7060D01*
Y7060D01*
Y7059D01*
Y7059D01*
Y7058D01*
X6744Y7057D01*
X6745Y7055D01*
X6745Y7053D01*
X6746Y7051D01*
X6747Y7050D01*
X6748Y7049D01*
X6748Y7048D01*
X6748Y7048D01*
X6748Y7048D01*
X6748Y7047D01*
X6749Y7047D01*
X6750Y7046D01*
X6751Y7045D01*
X6752Y7043D01*
X6753Y7042D01*
X6756Y7039D01*
X6759Y7036D01*
X6761Y7035D01*
X6762Y7034D01*
X6763Y7033D01*
X6764Y7032D01*
X6765Y7031D01*
X6766Y7031D01*
X6766Y7030D01*
X6766Y7030D01*
X6769Y7027D01*
X6772Y7025D01*
X6774Y7023D01*
X6776Y7021D01*
X6778Y7020D01*
X6779Y7019D01*
X6779Y7018D01*
X6779Y7018D01*
X6779Y7018D01*
X6780Y7018D01*
X6781Y7016D01*
X6782Y7014D01*
X6784Y7012D01*
X6785Y7010D01*
X6785Y7009D01*
X6786Y7008D01*
X6786Y7007D01*
X6786Y7007D01*
X6786Y7007D01*
Y7007D01*
X6787Y7006D01*
X6787Y7004D01*
X6787Y7003D01*
X6787Y7002D01*
X6787Y7001D01*
Y7001D01*
Y7000D01*
Y7000D01*
X6733D01*
Y7010D01*
X6773D01*
X6772Y7012D01*
X6771Y7012D01*
X6771Y7013D01*
X6770Y7014D01*
X6770Y7014D01*
X6769Y7015D01*
X6769Y7015D01*
X6769Y7015D01*
X6768Y7016D01*
X6767Y7017D01*
X6766Y7018D01*
X6764Y7019D01*
X6762Y7021D01*
X6761Y7023D01*
X6760Y7023D01*
X6759Y7024D01*
X6759Y7024D01*
X6758Y7025D01*
X6758Y7025D01*
X6758Y7025D01*
X6756Y7027D01*
X6754Y7028D01*
X6752Y7030D01*
X6751Y7031D01*
X6749Y7032D01*
X6748Y7034D01*
X6747Y7035D01*
X6746Y7036D01*
X6745Y7037D01*
X6744Y7037D01*
X6744Y7038D01*
X6743Y7038D01*
X6743Y7039D01*
X6742Y7039D01*
X6742Y7039D01*
Y7039D01*
X6741Y7041D01*
X6739Y7043D01*
X6738Y7045D01*
X6737Y7046D01*
X6736Y7048D01*
X6736Y7049D01*
X6736Y7049D01*
X6736Y7049D01*
X6735Y7051D01*
X6734Y7053D01*
X6734Y7055D01*
X6734Y7056D01*
X6734Y7057D01*
X6734Y7058D01*
Y7059D01*
Y7059D01*
X6734Y7061D01*
X6734Y7062D01*
X6734Y7064D01*
X6735Y7066D01*
X6736Y7068D01*
X6736Y7070D01*
X6737Y7071D01*
X6738Y7072D01*
X6738Y7072D01*
X6739Y7073D01*
X6739Y7074D01*
X6740Y7074D01*
X6740Y7075D01*
X6740Y7075D01*
X6740Y7075D01*
X6742Y7076D01*
X6743Y7077D01*
X6745Y7078D01*
X6746Y7079D01*
X6748Y7079D01*
X6749Y7080D01*
X6752Y7081D01*
X6754Y7081D01*
X6755Y7081D01*
X6756Y7081D01*
X6757Y7081D01*
X6758Y7082D01*
X6759D01*
X6761Y7081D01*
D02*
G37*
G36*
X6896Y7082D02*
X6899Y7082D01*
X6903Y7081D01*
X6904Y7081D01*
X6906Y7080D01*
X6907Y7080D01*
X6908Y7079D01*
X6909Y7079D01*
X6910Y7078D01*
X6910Y7078D01*
X6911Y7078D01*
X6911Y7078D01*
X6911Y7078D01*
X6913Y7077D01*
X6915Y7076D01*
X6917Y7073D01*
X6920Y7071D01*
X6922Y7069D01*
X6922Y7068D01*
X6923Y7067D01*
X6924Y7066D01*
X6924Y7065D01*
X6925Y7064D01*
X6925Y7064D01*
X6925Y7063D01*
X6925Y7063D01*
X6926Y7061D01*
X6927Y7060D01*
X6928Y7056D01*
X6929Y7052D01*
X6929Y7050D01*
X6929Y7049D01*
X6930Y7047D01*
X6930Y7046D01*
X6930Y7044D01*
Y7043D01*
X6930Y7042D01*
Y7042D01*
Y7041D01*
Y7041D01*
X6930Y7037D01*
X6929Y7033D01*
X6929Y7031D01*
X6929Y7029D01*
X6928Y7028D01*
X6928Y7026D01*
X6927Y7025D01*
X6927Y7023D01*
X6927Y7022D01*
X6926Y7021D01*
X6926Y7020D01*
X6926Y7020D01*
X6926Y7020D01*
Y7019D01*
X6925Y7018D01*
X6924Y7016D01*
X6923Y7014D01*
X6922Y7013D01*
X6921Y7011D01*
X6920Y7010D01*
X6919Y7009D01*
X6918Y7008D01*
X6917Y7007D01*
X6916Y7006D01*
X6915Y7005D01*
X6915Y7005D01*
X6914Y7004D01*
X6914Y7004D01*
X6913Y7004D01*
X6913Y7004D01*
X6912Y7003D01*
X6910Y7002D01*
X6908Y7001D01*
X6906Y7001D01*
X6903Y7000D01*
X6899Y6999D01*
X6898Y6999D01*
X6896Y6999D01*
X6895Y6999D01*
X6894Y6999D01*
X6893Y6999D01*
X6892D01*
X6889Y6999D01*
X6887Y6999D01*
X6885Y6999D01*
X6883Y7000D01*
X6881Y7000D01*
X6879Y7001D01*
X6878Y7001D01*
X6876Y7002D01*
X6875Y7003D01*
X6874Y7003D01*
X6873Y7004D01*
X6872Y7004D01*
X6871Y7005D01*
X6871Y7005D01*
X6870Y7005D01*
X6870Y7005D01*
X6869Y7007D01*
X6867Y7008D01*
X6866Y7010D01*
X6865Y7012D01*
X6864Y7013D01*
X6863Y7015D01*
X6862Y7017D01*
X6861Y7018D01*
X6860Y7020D01*
X6860Y7021D01*
X6859Y7022D01*
X6859Y7023D01*
X6858Y7024D01*
X6858Y7025D01*
X6858Y7026D01*
Y7026D01*
X6869Y7028D01*
X6869Y7027D01*
X6870Y7025D01*
X6871Y7023D01*
X6871Y7022D01*
X6872Y7020D01*
X6873Y7019D01*
X6873Y7018D01*
X6874Y7017D01*
X6875Y7016D01*
X6875Y7015D01*
X6876Y7014D01*
X6876Y7014D01*
X6877Y7014D01*
X6877Y7013D01*
X6877Y7013D01*
X6877Y7013D01*
X6879Y7012D01*
X6880Y7011D01*
X6881Y7011D01*
X6882Y7010D01*
X6885Y7009D01*
X6887Y7008D01*
X6888Y7008D01*
X6890Y7008D01*
X6890Y7008D01*
X6891Y7008D01*
X6892Y7008D01*
X6893D01*
X6895Y7008D01*
X6898Y7008D01*
X6900Y7009D01*
X6902Y7010D01*
X6904Y7010D01*
X6905Y7011D01*
X6905Y7011D01*
X6906Y7011D01*
X6906Y7011D01*
X6906Y7012D01*
X6907D01*
X6909Y7013D01*
X6911Y7015D01*
X6912Y7017D01*
X6914Y7019D01*
X6915Y7020D01*
X6915Y7021D01*
X6915Y7022D01*
X6916Y7022D01*
X6916Y7023D01*
X6916Y7023D01*
Y7023D01*
X6917Y7026D01*
X6918Y7029D01*
X6918Y7032D01*
X6918Y7035D01*
X6919Y7036D01*
Y7038D01*
X6919Y7039D01*
X6919Y7040D01*
Y7040D01*
Y7041D01*
Y7041D01*
Y7041D01*
X6919Y7044D01*
X6918Y7047D01*
X6918Y7050D01*
X6918Y7052D01*
X6917Y7053D01*
X6917Y7054D01*
X6917Y7055D01*
X6917Y7056D01*
X6917Y7056D01*
X6916Y7057D01*
X6916Y7057D01*
Y7057D01*
X6915Y7060D01*
X6914Y7062D01*
X6912Y7064D01*
X6911Y7066D01*
X6910Y7067D01*
X6909Y7068D01*
X6908Y7068D01*
X6908Y7069D01*
X6908Y7069D01*
X6908D01*
X6906Y7070D01*
X6905Y7070D01*
X6902Y7072D01*
X6900Y7072D01*
X6897Y7073D01*
X6896Y7073D01*
X6895Y7073D01*
X6894Y7073D01*
X6893D01*
X6893Y7073D01*
X6892D01*
X6889Y7073D01*
X6886Y7073D01*
X6884Y7072D01*
X6882Y7071D01*
X6880Y7071D01*
X6880Y7070D01*
X6879Y7070D01*
X6879Y7070D01*
X6878Y7070D01*
X6878Y7069D01*
X6878D01*
X6877Y7068D01*
X6876Y7068D01*
X6875Y7066D01*
X6873Y7064D01*
X6872Y7061D01*
X6871Y7059D01*
X6871Y7059D01*
X6871Y7058D01*
X6870Y7057D01*
X6870Y7057D01*
X6870Y7057D01*
Y7056D01*
X6859Y7059D01*
X6860Y7061D01*
X6861Y7063D01*
X6862Y7065D01*
X6863Y7066D01*
X6864Y7068D01*
X6865Y7069D01*
X6866Y7071D01*
X6866Y7072D01*
X6867Y7073D01*
X6868Y7074D01*
X6869Y7075D01*
X6870Y7075D01*
X6870Y7076D01*
X6871Y7076D01*
X6871Y7076D01*
X6871Y7076D01*
X6873Y7077D01*
X6874Y7079D01*
X6876Y7079D01*
X6878Y7080D01*
X6880Y7081D01*
X6881Y7081D01*
X6884Y7082D01*
X6886Y7082D01*
X6887Y7082D01*
X6889Y7082D01*
X6890Y7083D01*
X6890Y7083D01*
X6894D01*
X6896Y7082D01*
D02*
G37*
G36*
X4935Y7261D02*
X4937Y7261D01*
X4940Y7261D01*
X4943Y7260D01*
X4944Y7259D01*
X4945Y7259D01*
X4946Y7258D01*
X4947Y7258D01*
X4948Y7257D01*
X4948Y7257D01*
X4949Y7257D01*
X4949Y7256D01*
X4950Y7256D01*
X4950Y7256D01*
X4951Y7255D01*
X4952Y7254D01*
X4954Y7251D01*
X4955Y7249D01*
X4956Y7246D01*
X4957Y7245D01*
X4957Y7244D01*
X4957Y7243D01*
X4957Y7242D01*
X4958Y7241D01*
X4958Y7241D01*
X4958Y7241D01*
Y7241D01*
X4948Y7239D01*
X4947Y7241D01*
X4947Y7244D01*
X4946Y7245D01*
X4945Y7247D01*
X4944Y7248D01*
X4944Y7249D01*
X4943Y7249D01*
X4943Y7250D01*
X4942Y7251D01*
X4940Y7252D01*
X4938Y7252D01*
X4937Y7253D01*
X4935Y7253D01*
X4934Y7253D01*
X4934Y7253D01*
X4933D01*
X4931Y7253D01*
X4929Y7253D01*
X4928Y7252D01*
X4926Y7252D01*
X4925Y7251D01*
X4924Y7250D01*
X4924Y7250D01*
X4924Y7250D01*
X4923Y7248D01*
X4922Y7247D01*
X4921Y7245D01*
X4920Y7244D01*
X4920Y7243D01*
X4920Y7242D01*
X4920Y7241D01*
Y7241D01*
Y7241D01*
X4920Y7239D01*
X4920Y7238D01*
X4921Y7236D01*
X4922Y7234D01*
X4923Y7233D01*
X4923Y7232D01*
X4924Y7231D01*
X4925Y7231D01*
X4925Y7230D01*
X4925D01*
X4927Y7229D01*
X4929Y7228D01*
X4931Y7228D01*
X4933Y7227D01*
X4934Y7227D01*
X4935Y7227D01*
X4936Y7227D01*
X4937D01*
X4938Y7227D01*
X4938Y7227D01*
X4938D01*
X4939Y7218D01*
X4938Y7219D01*
X4936Y7219D01*
X4935Y7219D01*
X4934Y7219D01*
X4933Y7220D01*
X4932D01*
X4930Y7219D01*
X4927Y7219D01*
X4926Y7218D01*
X4924Y7217D01*
X4923Y7216D01*
X4922Y7216D01*
X4921Y7215D01*
X4921Y7215D01*
X4920Y7214D01*
X4919Y7213D01*
X4918Y7211D01*
X4917Y7210D01*
X4917Y7208D01*
X4916Y7206D01*
X4916Y7205D01*
Y7205D01*
X4916Y7204D01*
Y7204D01*
Y7204D01*
Y7204D01*
Y7203D01*
X4916Y7201D01*
X4917Y7199D01*
X4918Y7197D01*
X4919Y7195D01*
X4920Y7194D01*
X4920Y7193D01*
X4921Y7192D01*
X4921Y7192D01*
X4921Y7192D01*
X4921Y7192D01*
X4922Y7191D01*
X4923Y7190D01*
X4925Y7189D01*
X4927Y7188D01*
X4929Y7188D01*
X4931Y7187D01*
X4931Y7187D01*
X4932D01*
X4932Y7187D01*
X4933D01*
X4935Y7187D01*
X4937Y7188D01*
X4939Y7188D01*
X4940Y7189D01*
X4942Y7189D01*
X4942Y7190D01*
X4943Y7190D01*
X4943Y7191D01*
X4944Y7191D01*
X4945Y7192D01*
X4946Y7194D01*
X4947Y7196D01*
X4948Y7198D01*
X4948Y7200D01*
X4948Y7201D01*
X4949Y7202D01*
X4949Y7202D01*
X4949Y7203D01*
X4949Y7203D01*
Y7203D01*
X4959Y7202D01*
X4959Y7200D01*
X4958Y7198D01*
X4958Y7196D01*
X4957Y7195D01*
X4957Y7193D01*
X4956Y7192D01*
X4955Y7191D01*
X4955Y7189D01*
X4954Y7188D01*
X4953Y7188D01*
X4953Y7187D01*
X4952Y7186D01*
X4951Y7186D01*
X4951Y7185D01*
X4951Y7185D01*
X4951Y7185D01*
X4949Y7184D01*
X4948Y7183D01*
X4947Y7182D01*
X4945Y7181D01*
X4944Y7181D01*
X4942Y7180D01*
X4939Y7179D01*
X4938Y7179D01*
X4937Y7179D01*
X4936Y7179D01*
X4935Y7179D01*
X4934Y7179D01*
X4933D01*
X4931Y7179D01*
X4929Y7179D01*
X4927Y7179D01*
X4925Y7180D01*
X4923Y7180D01*
X4922Y7181D01*
X4920Y7182D01*
X4919Y7182D01*
X4918Y7183D01*
X4917Y7184D01*
X4916Y7184D01*
X4915Y7185D01*
X4914Y7185D01*
X4914Y7186D01*
X4914Y7186D01*
X4914Y7186D01*
X4912Y7187D01*
X4911Y7189D01*
X4910Y7190D01*
X4909Y7192D01*
X4908Y7193D01*
X4908Y7195D01*
X4907Y7196D01*
X4907Y7198D01*
X4906Y7199D01*
X4906Y7200D01*
X4906Y7201D01*
X4906Y7202D01*
X4906Y7203D01*
Y7204D01*
Y7204D01*
Y7204D01*
X4906Y7207D01*
X4906Y7209D01*
X4907Y7211D01*
X4908Y7213D01*
X4908Y7215D01*
X4909Y7216D01*
X4909Y7216D01*
X4909Y7216D01*
X4910Y7217D01*
X4910Y7217D01*
Y7217D01*
X4911Y7219D01*
X4913Y7220D01*
X4915Y7222D01*
X4917Y7222D01*
X4918Y7223D01*
X4919Y7223D01*
X4920Y7224D01*
X4920Y7224D01*
X4921Y7224D01*
X4921Y7224D01*
X4921D01*
X4919Y7225D01*
X4917Y7226D01*
X4916Y7227D01*
X4915Y7228D01*
X4914Y7229D01*
X4913Y7230D01*
X4913Y7231D01*
X4913Y7231D01*
X4912Y7233D01*
X4911Y7234D01*
X4910Y7236D01*
X4910Y7237D01*
X4910Y7239D01*
X4910Y7240D01*
Y7240D01*
Y7240D01*
Y7240D01*
X4910Y7242D01*
X4910Y7244D01*
X4911Y7246D01*
X4911Y7248D01*
X4912Y7249D01*
X4912Y7250D01*
X4913Y7251D01*
X4913Y7251D01*
Y7251D01*
X4914Y7253D01*
X4915Y7254D01*
X4917Y7256D01*
X4918Y7257D01*
X4919Y7258D01*
X4920Y7258D01*
X4921Y7258D01*
X4921Y7259D01*
X4921Y7259D01*
X4921D01*
X4923Y7260D01*
X4926Y7260D01*
X4928Y7261D01*
X4929Y7261D01*
X4931Y7261D01*
X4932D01*
X4932Y7262D01*
X4933D01*
X4935Y7261D01*
D02*
G37*
G36*
X4866Y7260D02*
X4867Y7258D01*
X4869Y7256D01*
X4870Y7254D01*
X4871Y7253D01*
X4873Y7252D01*
X4873Y7251D01*
X4873Y7251D01*
X4873Y7251D01*
X4874Y7251D01*
X4876Y7249D01*
X4878Y7247D01*
X4881Y7245D01*
X4883Y7244D01*
X4885Y7243D01*
X4886Y7242D01*
X4887Y7242D01*
X4887Y7242D01*
X4888Y7241D01*
X4888Y7241D01*
X4888D01*
Y7231D01*
X4886Y7232D01*
X4885Y7233D01*
X4883Y7234D01*
X4881Y7235D01*
X4880Y7235D01*
X4879Y7236D01*
X4878Y7236D01*
X4878Y7237D01*
X4878Y7237D01*
X4878D01*
X4876Y7238D01*
X4874Y7239D01*
X4872Y7240D01*
X4871Y7241D01*
X4870Y7242D01*
X4869Y7243D01*
X4868Y7243D01*
X4868Y7244D01*
Y7180D01*
X4858D01*
Y7262D01*
X4865D01*
X4866Y7260D01*
D02*
G37*
G36*
X5006Y7262D02*
X5009Y7262D01*
X5013Y7261D01*
X5014Y7261D01*
X5016Y7260D01*
X5017Y7260D01*
X5018Y7259D01*
X5019Y7259D01*
X5020Y7258D01*
X5020Y7258D01*
X5021Y7258D01*
X5021Y7258D01*
X5021Y7258D01*
X5023Y7257D01*
X5025Y7256D01*
X5027Y7253D01*
X5030Y7251D01*
X5032Y7249D01*
X5032Y7248D01*
X5033Y7247D01*
X5034Y7246D01*
X5034Y7245D01*
X5035Y7244D01*
X5035Y7244D01*
X5035Y7243D01*
X5035Y7243D01*
X5036Y7241D01*
X5037Y7240D01*
X5038Y7236D01*
X5039Y7232D01*
X5039Y7230D01*
X5039Y7229D01*
X5040Y7227D01*
X5040Y7226D01*
X5040Y7224D01*
Y7223D01*
X5040Y7222D01*
Y7222D01*
Y7221D01*
Y7221D01*
X5040Y7217D01*
X5039Y7213D01*
X5039Y7211D01*
X5039Y7209D01*
X5038Y7208D01*
X5038Y7206D01*
X5037Y7205D01*
X5037Y7203D01*
X5037Y7202D01*
X5036Y7201D01*
X5036Y7200D01*
X5036Y7200D01*
X5036Y7200D01*
Y7199D01*
X5035Y7198D01*
X5034Y7196D01*
X5033Y7194D01*
X5032Y7193D01*
X5031Y7191D01*
X5030Y7190D01*
X5029Y7189D01*
X5028Y7188D01*
X5027Y7187D01*
X5026Y7186D01*
X5025Y7185D01*
X5025Y7185D01*
X5024Y7184D01*
X5024Y7184D01*
X5023Y7184D01*
X5023Y7184D01*
X5022Y7183D01*
X5020Y7182D01*
X5018Y7181D01*
X5016Y7181D01*
X5013Y7180D01*
X5009Y7179D01*
X5008Y7179D01*
X5006Y7179D01*
X5005Y7179D01*
X5004Y7179D01*
X5003Y7179D01*
X5002D01*
X4999Y7179D01*
X4997Y7179D01*
X4995Y7179D01*
X4993Y7180D01*
X4991Y7180D01*
X4989Y7181D01*
X4988Y7181D01*
X4986Y7182D01*
X4985Y7183D01*
X4984Y7183D01*
X4983Y7184D01*
X4982Y7184D01*
X4981Y7185D01*
X4981Y7185D01*
X4980Y7185D01*
X4980Y7185D01*
X4979Y7187D01*
X4977Y7188D01*
X4976Y7190D01*
X4975Y7192D01*
X4974Y7193D01*
X4973Y7195D01*
X4972Y7197D01*
X4971Y7198D01*
X4970Y7200D01*
X4970Y7201D01*
X4969Y7202D01*
X4969Y7203D01*
X4968Y7204D01*
X4968Y7205D01*
X4968Y7206D01*
Y7206D01*
X4979Y7208D01*
X4979Y7207D01*
X4980Y7205D01*
X4981Y7203D01*
X4981Y7202D01*
X4982Y7200D01*
X4983Y7199D01*
X4983Y7198D01*
X4984Y7197D01*
X4985Y7196D01*
X4985Y7195D01*
X4986Y7194D01*
X4986Y7194D01*
X4987Y7194D01*
X4987Y7193D01*
X4987Y7193D01*
X4987Y7193D01*
X4989Y7192D01*
X4990Y7191D01*
X4991Y7191D01*
X4992Y7190D01*
X4995Y7189D01*
X4997Y7188D01*
X4998Y7188D01*
X5000Y7188D01*
X5000Y7188D01*
X5001Y7188D01*
X5002Y7188D01*
X5003D01*
X5005Y7188D01*
X5008Y7188D01*
X5010Y7189D01*
X5012Y7190D01*
X5014Y7190D01*
X5015Y7191D01*
X5015Y7191D01*
X5016Y7191D01*
X5016Y7191D01*
X5016Y7192D01*
X5017D01*
X5019Y7193D01*
X5021Y7195D01*
X5022Y7197D01*
X5024Y7199D01*
X5025Y7200D01*
X5025Y7201D01*
X5025Y7202D01*
X5026Y7202D01*
X5026Y7203D01*
X5026Y7203D01*
Y7203D01*
X5027Y7206D01*
X5028Y7209D01*
X5028Y7212D01*
X5028Y7215D01*
X5029Y7216D01*
Y7218D01*
X5029Y7219D01*
X5029Y7220D01*
Y7220D01*
Y7221D01*
Y7221D01*
Y7221D01*
X5029Y7224D01*
X5028Y7227D01*
X5028Y7230D01*
X5028Y7232D01*
X5027Y7233D01*
X5027Y7234D01*
X5027Y7235D01*
X5027Y7236D01*
X5027Y7236D01*
X5026Y7237D01*
X5026Y7237D01*
Y7237D01*
X5025Y7240D01*
X5024Y7242D01*
X5022Y7244D01*
X5021Y7246D01*
X5020Y7247D01*
X5019Y7248D01*
X5018Y7248D01*
X5018Y7249D01*
X5018Y7249D01*
X5018D01*
X5016Y7250D01*
X5015Y7250D01*
X5012Y7252D01*
X5010Y7252D01*
X5007Y7253D01*
X5006Y7253D01*
X5005Y7253D01*
X5004Y7253D01*
X5003D01*
X5003Y7253D01*
X5002D01*
X4999Y7253D01*
X4996Y7253D01*
X4994Y7252D01*
X4992Y7251D01*
X4990Y7251D01*
X4990Y7250D01*
X4989Y7250D01*
X4989Y7250D01*
X4988Y7250D01*
X4988Y7249D01*
X4988D01*
X4987Y7248D01*
X4986Y7248D01*
X4985Y7246D01*
X4983Y7244D01*
X4982Y7241D01*
X4981Y7239D01*
X4981Y7239D01*
X4981Y7238D01*
X4980Y7237D01*
X4980Y7237D01*
X4980Y7237D01*
Y7236D01*
X4969Y7239D01*
X4970Y7241D01*
X4971Y7243D01*
X4972Y7245D01*
X4973Y7246D01*
X4974Y7248D01*
X4975Y7249D01*
X4976Y7251D01*
X4976Y7252D01*
X4977Y7253D01*
X4978Y7254D01*
X4979Y7255D01*
X4980Y7255D01*
X4980Y7256D01*
X4981Y7256D01*
X4981Y7256D01*
X4981Y7256D01*
X4983Y7257D01*
X4984Y7259D01*
X4986Y7259D01*
X4988Y7260D01*
X4990Y7261D01*
X4991Y7261D01*
X4994Y7262D01*
X4996Y7262D01*
X4997Y7262D01*
X4999Y7262D01*
X5000Y7263D01*
X5000Y7263D01*
X5004D01*
X5006Y7262D01*
D02*
G37*
G36*
X4935Y6921D02*
X4937Y6921D01*
X4940Y6921D01*
X4943Y6920D01*
X4944Y6919D01*
X4945Y6919D01*
X4946Y6918D01*
X4947Y6918D01*
X4948Y6917D01*
X4948Y6917D01*
X4949Y6917D01*
X4949Y6916D01*
X4950Y6916D01*
X4950Y6916D01*
X4951Y6915D01*
X4952Y6914D01*
X4954Y6911D01*
X4955Y6909D01*
X4956Y6906D01*
X4957Y6905D01*
X4957Y6904D01*
X4957Y6903D01*
X4957Y6902D01*
X4958Y6901D01*
X4958Y6901D01*
X4958Y6901D01*
Y6901D01*
X4948Y6899D01*
X4947Y6901D01*
X4947Y6904D01*
X4946Y6905D01*
X4945Y6907D01*
X4944Y6908D01*
X4944Y6909D01*
X4943Y6909D01*
X4943Y6910D01*
X4942Y6911D01*
X4940Y6912D01*
X4938Y6912D01*
X4937Y6913D01*
X4935Y6913D01*
X4934Y6913D01*
X4934Y6913D01*
X4933D01*
X4931Y6913D01*
X4929Y6913D01*
X4928Y6912D01*
X4926Y6912D01*
X4925Y6911D01*
X4924Y6910D01*
X4924Y6910D01*
X4924Y6910D01*
X4923Y6908D01*
X4922Y6907D01*
X4921Y6905D01*
X4920Y6904D01*
X4920Y6903D01*
X4920Y6902D01*
X4920Y6901D01*
Y6901D01*
Y6901D01*
X4920Y6899D01*
X4920Y6898D01*
X4921Y6896D01*
X4922Y6894D01*
X4923Y6893D01*
X4923Y6892D01*
X4924Y6891D01*
X4925Y6891D01*
X4925Y6890D01*
X4925D01*
X4927Y6889D01*
X4929Y6888D01*
X4931Y6888D01*
X4933Y6887D01*
X4934Y6887D01*
X4935Y6887D01*
X4936Y6887D01*
X4937D01*
X4938Y6887D01*
X4938Y6887D01*
X4938D01*
X4939Y6878D01*
X4938Y6879D01*
X4936Y6879D01*
X4935Y6879D01*
X4934Y6879D01*
X4933Y6880D01*
X4932D01*
X4930Y6879D01*
X4927Y6879D01*
X4926Y6878D01*
X4924Y6877D01*
X4923Y6876D01*
X4922Y6876D01*
X4921Y6875D01*
X4921Y6875D01*
X4920Y6874D01*
X4919Y6873D01*
X4918Y6871D01*
X4917Y6870D01*
X4917Y6868D01*
X4916Y6866D01*
X4916Y6865D01*
Y6865D01*
X4916Y6864D01*
Y6864D01*
Y6864D01*
Y6864D01*
Y6863D01*
X4916Y6861D01*
X4917Y6859D01*
X4918Y6857D01*
X4919Y6855D01*
X4920Y6854D01*
X4920Y6853D01*
X4921Y6852D01*
X4921Y6852D01*
X4921Y6852D01*
X4921Y6852D01*
X4922Y6851D01*
X4923Y6850D01*
X4925Y6849D01*
X4927Y6848D01*
X4929Y6848D01*
X4931Y6847D01*
X4931Y6847D01*
X4932D01*
X4932Y6847D01*
X4933D01*
X4935Y6847D01*
X4937Y6848D01*
X4939Y6848D01*
X4940Y6849D01*
X4942Y6849D01*
X4942Y6850D01*
X4943Y6850D01*
X4943Y6851D01*
X4944Y6851D01*
X4945Y6852D01*
X4946Y6854D01*
X4947Y6856D01*
X4948Y6858D01*
X4948Y6860D01*
X4948Y6861D01*
X4949Y6862D01*
X4949Y6862D01*
X4949Y6863D01*
X4949Y6863D01*
Y6863D01*
X4959Y6862D01*
X4959Y6860D01*
X4958Y6858D01*
X4958Y6856D01*
X4957Y6855D01*
X4957Y6853D01*
X4956Y6852D01*
X4955Y6851D01*
X4955Y6849D01*
X4954Y6848D01*
X4953Y6848D01*
X4953Y6847D01*
X4952Y6846D01*
X4951Y6846D01*
X4951Y6845D01*
X4951Y6845D01*
X4951Y6845D01*
X4949Y6844D01*
X4948Y6843D01*
X4947Y6842D01*
X4945Y6841D01*
X4944Y6841D01*
X4942Y6840D01*
X4939Y6839D01*
X4938Y6839D01*
X4937Y6839D01*
X4936Y6839D01*
X4935Y6839D01*
X4934Y6839D01*
X4933D01*
X4931Y6839D01*
X4929Y6839D01*
X4927Y6839D01*
X4925Y6840D01*
X4923Y6840D01*
X4922Y6841D01*
X4920Y6842D01*
X4919Y6842D01*
X4918Y6843D01*
X4917Y6844D01*
X4916Y6844D01*
X4915Y6845D01*
X4914Y6845D01*
X4914Y6846D01*
X4914Y6846D01*
X4914Y6846D01*
X4912Y6847D01*
X4911Y6849D01*
X4910Y6850D01*
X4909Y6852D01*
X4908Y6853D01*
X4908Y6855D01*
X4907Y6856D01*
X4907Y6858D01*
X4906Y6859D01*
X4906Y6860D01*
X4906Y6861D01*
X4906Y6862D01*
X4906Y6863D01*
Y6864D01*
Y6864D01*
Y6864D01*
X4906Y6867D01*
X4906Y6869D01*
X4907Y6871D01*
X4908Y6873D01*
X4908Y6875D01*
X4909Y6876D01*
X4909Y6876D01*
X4909Y6876D01*
X4910Y6877D01*
X4910Y6877D01*
Y6877D01*
X4911Y6879D01*
X4913Y6880D01*
X4915Y6882D01*
X4917Y6882D01*
X4918Y6883D01*
X4919Y6883D01*
X4920Y6884D01*
X4920Y6884D01*
X4921Y6884D01*
X4921Y6884D01*
X4921D01*
X4919Y6885D01*
X4917Y6886D01*
X4916Y6887D01*
X4915Y6888D01*
X4914Y6889D01*
X4913Y6890D01*
X4913Y6891D01*
X4913Y6891D01*
X4912Y6893D01*
X4911Y6894D01*
X4910Y6896D01*
X4910Y6897D01*
X4910Y6899D01*
X4910Y6900D01*
Y6900D01*
Y6900D01*
Y6900D01*
X4910Y6902D01*
X4910Y6904D01*
X4911Y6906D01*
X4911Y6908D01*
X4912Y6909D01*
X4912Y6910D01*
X4913Y6911D01*
X4913Y6911D01*
Y6911D01*
X4914Y6913D01*
X4915Y6914D01*
X4917Y6916D01*
X4918Y6917D01*
X4919Y6918D01*
X4920Y6918D01*
X4921Y6918D01*
X4921Y6919D01*
X4921Y6919D01*
X4921D01*
X4923Y6920D01*
X4926Y6920D01*
X4928Y6921D01*
X4929Y6921D01*
X4931Y6921D01*
X4932D01*
X4932Y6922D01*
X4933D01*
X4935Y6921D01*
D02*
G37*
G36*
X5006Y6922D02*
X5009Y6922D01*
X5013Y6921D01*
X5014Y6921D01*
X5016Y6920D01*
X5017Y6920D01*
X5018Y6919D01*
X5019Y6919D01*
X5020Y6918D01*
X5020Y6918D01*
X5021Y6918D01*
X5021Y6918D01*
X5021Y6918D01*
X5023Y6917D01*
X5025Y6916D01*
X5027Y6913D01*
X5030Y6911D01*
X5032Y6909D01*
X5032Y6908D01*
X5033Y6907D01*
X5034Y6906D01*
X5034Y6905D01*
X5035Y6904D01*
X5035Y6904D01*
X5035Y6903D01*
X5035Y6903D01*
X5036Y6901D01*
X5037Y6900D01*
X5038Y6896D01*
X5039Y6892D01*
X5039Y6890D01*
X5039Y6889D01*
X5040Y6887D01*
X5040Y6886D01*
X5040Y6884D01*
Y6883D01*
X5040Y6882D01*
Y6882D01*
Y6881D01*
Y6881D01*
X5040Y6877D01*
X5039Y6873D01*
X5039Y6871D01*
X5039Y6869D01*
X5038Y6868D01*
X5038Y6866D01*
X5037Y6865D01*
X5037Y6863D01*
X5037Y6862D01*
X5036Y6861D01*
X5036Y6860D01*
X5036Y6860D01*
X5036Y6860D01*
Y6859D01*
X5035Y6858D01*
X5034Y6856D01*
X5033Y6854D01*
X5032Y6853D01*
X5031Y6851D01*
X5030Y6850D01*
X5029Y6849D01*
X5028Y6848D01*
X5027Y6847D01*
X5026Y6846D01*
X5025Y6845D01*
X5025Y6845D01*
X5024Y6844D01*
X5024Y6844D01*
X5023Y6844D01*
X5023Y6844D01*
X5022Y6843D01*
X5020Y6842D01*
X5018Y6841D01*
X5016Y6841D01*
X5013Y6840D01*
X5009Y6839D01*
X5008Y6839D01*
X5006Y6839D01*
X5005Y6839D01*
X5004Y6839D01*
X5003Y6839D01*
X5002D01*
X4999Y6839D01*
X4997Y6839D01*
X4995Y6839D01*
X4993Y6840D01*
X4991Y6840D01*
X4989Y6841D01*
X4988Y6841D01*
X4986Y6842D01*
X4985Y6843D01*
X4984Y6843D01*
X4983Y6844D01*
X4982Y6844D01*
X4981Y6845D01*
X4981Y6845D01*
X4980Y6845D01*
X4980Y6845D01*
X4979Y6847D01*
X4977Y6848D01*
X4976Y6850D01*
X4975Y6852D01*
X4974Y6853D01*
X4973Y6855D01*
X4972Y6857D01*
X4971Y6858D01*
X4970Y6860D01*
X4970Y6861D01*
X4969Y6862D01*
X4969Y6863D01*
X4968Y6864D01*
X4968Y6865D01*
X4968Y6866D01*
Y6866D01*
X4979Y6868D01*
X4979Y6867D01*
X4980Y6865D01*
X4981Y6863D01*
X4981Y6862D01*
X4982Y6860D01*
X4983Y6859D01*
X4983Y6858D01*
X4984Y6857D01*
X4985Y6856D01*
X4985Y6855D01*
X4986Y6854D01*
X4986Y6854D01*
X4987Y6854D01*
X4987Y6853D01*
X4987Y6853D01*
X4987Y6853D01*
X4989Y6852D01*
X4990Y6851D01*
X4991Y6851D01*
X4992Y6850D01*
X4995Y6849D01*
X4997Y6848D01*
X4998Y6848D01*
X5000Y6848D01*
X5000Y6848D01*
X5001Y6848D01*
X5002Y6848D01*
X5003D01*
X5005Y6848D01*
X5008Y6848D01*
X5010Y6849D01*
X5012Y6850D01*
X5014Y6850D01*
X5015Y6851D01*
X5015Y6851D01*
X5016Y6851D01*
X5016Y6851D01*
X5016Y6852D01*
X5017D01*
X5019Y6853D01*
X5021Y6855D01*
X5022Y6857D01*
X5024Y6859D01*
X5025Y6860D01*
X5025Y6861D01*
X5025Y6862D01*
X5026Y6862D01*
X5026Y6863D01*
X5026Y6863D01*
Y6863D01*
X5027Y6866D01*
X5028Y6869D01*
X5028Y6872D01*
X5028Y6875D01*
X5029Y6876D01*
Y6878D01*
X5029Y6879D01*
X5029Y6880D01*
Y6880D01*
Y6881D01*
Y6881D01*
Y6881D01*
X5029Y6884D01*
X5028Y6887D01*
X5028Y6890D01*
X5028Y6892D01*
X5027Y6893D01*
X5027Y6894D01*
X5027Y6895D01*
X5027Y6896D01*
X5027Y6896D01*
X5026Y6897D01*
X5026Y6897D01*
Y6897D01*
X5025Y6900D01*
X5024Y6902D01*
X5022Y6904D01*
X5021Y6906D01*
X5020Y6907D01*
X5019Y6908D01*
X5018Y6908D01*
X5018Y6909D01*
X5018Y6909D01*
X5018D01*
X5016Y6910D01*
X5015Y6910D01*
X5012Y6912D01*
X5010Y6912D01*
X5007Y6913D01*
X5006Y6913D01*
X5005Y6913D01*
X5004Y6913D01*
X5003D01*
X5003Y6913D01*
X5002D01*
X4999Y6913D01*
X4996Y6913D01*
X4994Y6912D01*
X4992Y6911D01*
X4990Y6911D01*
X4990Y6910D01*
X4989Y6910D01*
X4989Y6910D01*
X4988Y6910D01*
X4988Y6909D01*
X4988D01*
X4987Y6908D01*
X4986Y6908D01*
X4985Y6906D01*
X4983Y6904D01*
X4982Y6901D01*
X4981Y6899D01*
X4981Y6899D01*
X4981Y6898D01*
X4980Y6897D01*
X4980Y6897D01*
X4980Y6897D01*
Y6896D01*
X4969Y6899D01*
X4970Y6901D01*
X4971Y6903D01*
X4972Y6905D01*
X4973Y6906D01*
X4974Y6908D01*
X4975Y6909D01*
X4976Y6911D01*
X4976Y6912D01*
X4977Y6913D01*
X4978Y6914D01*
X4979Y6915D01*
X4980Y6915D01*
X4980Y6916D01*
X4981Y6916D01*
X4981Y6916D01*
X4981Y6916D01*
X4983Y6917D01*
X4984Y6919D01*
X4986Y6919D01*
X4988Y6920D01*
X4990Y6921D01*
X4991Y6921D01*
X4994Y6922D01*
X4996Y6922D01*
X4997Y6922D01*
X4999Y6922D01*
X5000Y6923D01*
X5000Y6923D01*
X5004D01*
X5006Y6922D01*
D02*
G37*
G36*
X4873Y6921D02*
X4875Y6921D01*
X4878Y6920D01*
X4880Y6919D01*
X4881Y6919D01*
X4882Y6918D01*
X4882Y6918D01*
X4883Y6918D01*
X4883Y6917D01*
X4884Y6917D01*
X4884Y6917D01*
X4884Y6917D01*
X4886Y6915D01*
X4888Y6913D01*
X4889Y6910D01*
X4891Y6908D01*
X4892Y6906D01*
X4892Y6905D01*
X4892Y6905D01*
X4892Y6904D01*
X4893Y6904D01*
X4893Y6903D01*
Y6903D01*
X4893Y6901D01*
X4894Y6900D01*
X4895Y6896D01*
X4895Y6892D01*
X4895Y6888D01*
X4896Y6887D01*
Y6885D01*
X4896Y6884D01*
X4896Y6882D01*
Y6881D01*
Y6881D01*
Y6880D01*
Y6880D01*
X4896Y6876D01*
X4895Y6872D01*
X4895Y6869D01*
X4895Y6865D01*
X4894Y6862D01*
X4893Y6860D01*
X4892Y6857D01*
X4892Y6855D01*
X4891Y6853D01*
X4890Y6851D01*
X4890Y6850D01*
X4889Y6849D01*
X4889Y6848D01*
X4888Y6848D01*
X4888Y6847D01*
X4888Y6847D01*
X4886Y6845D01*
X4885Y6844D01*
X4884Y6843D01*
X4882Y6842D01*
X4881Y6841D01*
X4879Y6841D01*
X4877Y6840D01*
X4876Y6840D01*
X4875Y6839D01*
X4873Y6839D01*
X4872Y6839D01*
X4871Y6839D01*
X4871D01*
X4870Y6839D01*
X4869D01*
X4868Y6839D01*
X4866Y6839D01*
X4863Y6839D01*
X4861Y6840D01*
X4859Y6841D01*
X4858Y6841D01*
X4857Y6842D01*
X4856Y6842D01*
X4856Y6843D01*
X4855Y6843D01*
X4855Y6843D01*
X4855Y6843D01*
X4855D01*
X4853Y6845D01*
X4851Y6848D01*
X4849Y6850D01*
X4848Y6852D01*
X4847Y6854D01*
X4847Y6855D01*
X4846Y6855D01*
X4846Y6856D01*
X4846Y6856D01*
X4846Y6857D01*
Y6857D01*
X4845Y6859D01*
X4845Y6860D01*
X4844Y6864D01*
X4844Y6868D01*
X4843Y6872D01*
X4843Y6873D01*
X4843Y6875D01*
Y6876D01*
X4843Y6878D01*
Y6879D01*
Y6879D01*
Y6880D01*
Y6880D01*
Y6882D01*
X4843Y6884D01*
X4843Y6886D01*
X4843Y6888D01*
X4843Y6890D01*
X4843Y6891D01*
X4844Y6893D01*
X4844Y6894D01*
X4844Y6895D01*
X4844Y6896D01*
X4844Y6897D01*
X4844Y6898D01*
X4845Y6898D01*
X4845Y6899D01*
X4845Y6899D01*
Y6899D01*
X4845Y6902D01*
X4846Y6904D01*
X4847Y6906D01*
X4848Y6908D01*
X4849Y6909D01*
X4849Y6910D01*
X4849Y6911D01*
X4850Y6911D01*
X4850Y6911D01*
Y6911D01*
X4851Y6913D01*
X4852Y6915D01*
X4854Y6916D01*
X4855Y6917D01*
X4856Y6918D01*
X4857Y6918D01*
X4858Y6919D01*
X4858Y6919D01*
X4858D01*
X4860Y6920D01*
X4862Y6920D01*
X4864Y6921D01*
X4865Y6921D01*
X4867Y6921D01*
X4868D01*
X4868Y6922D01*
X4871D01*
X4873Y6921D01*
D02*
G37*
G36*
X5482Y4510D02*
X5484Y4508D01*
X5485Y4506D01*
X5486Y4504D01*
X5488Y4503D01*
X5489Y4502D01*
X5489Y4501D01*
X5490Y4501D01*
X5490Y4501D01*
X5490Y4501D01*
X5492Y4499D01*
X5495Y4497D01*
X5497Y4495D01*
X5500Y4494D01*
X5502Y4493D01*
X5502Y4492D01*
X5503Y4492D01*
X5504Y4492D01*
X5504Y4491D01*
X5504Y4491D01*
X5505D01*
Y4481D01*
X5503Y4482D01*
X5501Y4483D01*
X5499Y4484D01*
X5498Y4485D01*
X5496Y4485D01*
X5495Y4486D01*
X5495Y4486D01*
X5494Y4487D01*
X5494Y4487D01*
X5494D01*
X5492Y4488D01*
X5490Y4489D01*
X5488Y4490D01*
X5487Y4491D01*
X5486Y4492D01*
X5485Y4493D01*
X5485Y4493D01*
X5485Y4494D01*
Y4430D01*
X5475D01*
Y4512D01*
X5481D01*
X5482Y4510D01*
D02*
G37*
G36*
X5590Y4430D02*
X5579D01*
Y4466D01*
X5565D01*
X5564Y4466D01*
X5563D01*
X5562Y4466D01*
X5562Y4466D01*
X5561D01*
X5561Y4466D01*
X5561D01*
X5559Y4465D01*
X5558Y4465D01*
X5557Y4464D01*
X5557Y4464D01*
X5556Y4464D01*
X5556Y4463D01*
X5556Y4463D01*
X5555Y4463D01*
X5554Y4462D01*
X5553Y4461D01*
X5552Y4460D01*
X5552Y4459D01*
X5551Y4459D01*
X5551Y4458D01*
X5550Y4458D01*
X5549Y4456D01*
X5548Y4455D01*
X5547Y4453D01*
X5545Y4451D01*
X5544Y4449D01*
X5544Y4449D01*
X5543Y4448D01*
X5543Y4448D01*
X5543Y4447D01*
X5543Y4447D01*
Y4447D01*
X5532Y4430D01*
X5518D01*
X5533Y4452D01*
X5534Y4454D01*
X5536Y4456D01*
X5537Y4458D01*
X5539Y4460D01*
X5540Y4461D01*
X5541Y4462D01*
X5541Y4463D01*
X5541Y4463D01*
X5542D01*
X5542Y4463D01*
X5543Y4464D01*
X5546Y4466D01*
X5546Y4466D01*
X5547Y4467D01*
X5548Y4467D01*
X5548Y4467D01*
X5546Y4467D01*
X5544Y4468D01*
X5542Y4468D01*
X5540Y4469D01*
X5539Y4469D01*
X5537Y4470D01*
X5536Y4471D01*
X5535Y4471D01*
X5534Y4472D01*
X5533Y4472D01*
X5532Y4473D01*
X5532Y4473D01*
X5531Y4474D01*
X5531Y4474D01*
X5531Y4474D01*
X5531Y4474D01*
X5530Y4476D01*
X5529Y4477D01*
X5528Y4478D01*
X5527Y4479D01*
X5526Y4482D01*
X5526Y4484D01*
X5525Y4486D01*
X5525Y4487D01*
X5525Y4487D01*
X5525Y4488D01*
Y4489D01*
Y4489D01*
Y4489D01*
X5525Y4491D01*
X5526Y4494D01*
X5526Y4496D01*
X5527Y4498D01*
X5527Y4499D01*
X5528Y4500D01*
X5528Y4501D01*
X5528Y4501D01*
X5528Y4501D01*
Y4501D01*
X5530Y4503D01*
X5531Y4505D01*
X5533Y4506D01*
X5534Y4507D01*
X5535Y4508D01*
X5537Y4509D01*
X5537Y4509D01*
X5537Y4509D01*
X5537Y4509D01*
X5537D01*
X5539Y4509D01*
X5540Y4510D01*
X5542Y4510D01*
X5545Y4511D01*
X5548Y4511D01*
X5549Y4511D01*
X5550Y4511D01*
X5551D01*
X5552Y4511D01*
X5590D01*
Y4430D01*
D02*
G37*
G36*
X5448Y4501D02*
X5409D01*
X5411Y4497D01*
X5414Y4494D01*
X5417Y4490D01*
X5419Y4487D01*
X5420Y4485D01*
X5421Y4484D01*
X5421Y4482D01*
X5422Y4481D01*
X5422Y4481D01*
X5423Y4480D01*
X5423Y4479D01*
X5423Y4479D01*
X5425Y4474D01*
X5427Y4470D01*
X5429Y4465D01*
X5430Y4463D01*
X5431Y4461D01*
X5431Y4460D01*
X5432Y4458D01*
X5432Y4457D01*
X5433Y4455D01*
X5433Y4454D01*
X5433Y4454D01*
X5433Y4453D01*
Y4453D01*
X5434Y4450D01*
X5434Y4448D01*
X5435Y4446D01*
X5435Y4444D01*
X5436Y4442D01*
X5436Y4440D01*
X5436Y4438D01*
X5436Y4436D01*
X5437Y4435D01*
X5437Y4434D01*
X5437Y4433D01*
Y4432D01*
X5437Y4431D01*
Y4430D01*
Y4430D01*
Y4430D01*
X5427D01*
X5426Y4434D01*
X5426Y4439D01*
X5426Y4440D01*
X5425Y4442D01*
X5425Y4444D01*
X5425Y4446D01*
X5424Y4447D01*
X5424Y4448D01*
X5424Y4450D01*
X5423Y4450D01*
X5423Y4451D01*
X5423Y4452D01*
X5423Y4452D01*
Y4452D01*
X5421Y4458D01*
X5419Y4463D01*
X5418Y4465D01*
X5417Y4468D01*
X5417Y4470D01*
X5416Y4472D01*
X5415Y4474D01*
X5414Y4475D01*
X5413Y4477D01*
X5413Y4478D01*
X5412Y4479D01*
X5412Y4480D01*
X5411Y4480D01*
X5411Y4480D01*
X5410Y4483D01*
X5408Y4485D01*
X5407Y4488D01*
X5406Y4490D01*
X5404Y4492D01*
X5403Y4493D01*
X5402Y4495D01*
X5401Y4497D01*
X5400Y4498D01*
X5399Y4499D01*
X5398Y4500D01*
X5397Y4501D01*
X5397Y4502D01*
X5396Y4502D01*
X5396Y4502D01*
X5396Y4502D01*
Y4510D01*
X5448D01*
Y4501D01*
D02*
G37*
G36*
X5560Y4180D02*
X5549D01*
Y4216D01*
X5535D01*
X5534Y4216D01*
X5533D01*
X5532Y4216D01*
X5532Y4216D01*
X5531D01*
X5531Y4216D01*
X5531D01*
X5529Y4215D01*
X5528Y4215D01*
X5527Y4214D01*
X5527Y4214D01*
X5526Y4214D01*
X5526Y4213D01*
X5526Y4213D01*
X5525Y4213D01*
X5524Y4212D01*
X5523Y4211D01*
X5522Y4210D01*
X5522Y4209D01*
X5521Y4209D01*
X5521Y4208D01*
X5520Y4208D01*
X5519Y4206D01*
X5518Y4205D01*
X5517Y4203D01*
X5515Y4201D01*
X5514Y4199D01*
X5514Y4199D01*
X5513Y4198D01*
X5513Y4198D01*
X5513Y4197D01*
X5513Y4197D01*
Y4197D01*
X5502Y4180D01*
X5488D01*
X5503Y4202D01*
X5504Y4204D01*
X5506Y4206D01*
X5507Y4208D01*
X5509Y4210D01*
X5510Y4211D01*
X5511Y4212D01*
X5511Y4213D01*
X5511Y4213D01*
X5512D01*
X5512Y4213D01*
X5513Y4214D01*
X5516Y4216D01*
X5516Y4216D01*
X5517Y4217D01*
X5518Y4217D01*
X5518Y4217D01*
X5516Y4217D01*
X5514Y4218D01*
X5512Y4218D01*
X5510Y4219D01*
X5509Y4219D01*
X5507Y4220D01*
X5506Y4221D01*
X5505Y4221D01*
X5504Y4222D01*
X5503Y4222D01*
X5502Y4223D01*
X5502Y4223D01*
X5501Y4224D01*
X5501Y4224D01*
X5501Y4224D01*
X5501Y4224D01*
X5500Y4226D01*
X5499Y4227D01*
X5498Y4228D01*
X5497Y4229D01*
X5496Y4232D01*
X5496Y4234D01*
X5495Y4236D01*
X5495Y4237D01*
X5495Y4237D01*
X5495Y4238D01*
Y4239D01*
Y4239D01*
Y4239D01*
X5495Y4241D01*
X5496Y4244D01*
X5496Y4246D01*
X5497Y4248D01*
X5497Y4249D01*
X5498Y4250D01*
X5498Y4251D01*
X5498Y4251D01*
X5498Y4251D01*
Y4251D01*
X5500Y4253D01*
X5501Y4255D01*
X5503Y4256D01*
X5504Y4257D01*
X5505Y4258D01*
X5507Y4259D01*
X5507Y4259D01*
X5507Y4259D01*
X5507Y4259D01*
X5507D01*
X5509Y4259D01*
X5510Y4260D01*
X5512Y4260D01*
X5515Y4261D01*
X5518Y4261D01*
X5519Y4261D01*
X5520Y4261D01*
X5521D01*
X5522Y4261D01*
X5560D01*
Y4180D01*
D02*
G37*
G36*
X5458Y4261D02*
X5460Y4261D01*
X5461Y4261D01*
X5463Y4261D01*
X5464Y4260D01*
X5466Y4260D01*
X5467Y4259D01*
X5468Y4259D01*
X5469Y4258D01*
X5470Y4257D01*
X5471Y4257D01*
X5471Y4256D01*
X5472Y4256D01*
X5472Y4256D01*
X5473Y4256D01*
X5473Y4255D01*
X5474Y4254D01*
X5475Y4253D01*
X5476Y4252D01*
X5476Y4251D01*
X5477Y4249D01*
X5477Y4248D01*
X5478Y4246D01*
X5479Y4244D01*
X5479Y4243D01*
X5479Y4242D01*
X5479Y4241D01*
Y4241D01*
Y4241D01*
Y4241D01*
X5479Y4238D01*
X5479Y4237D01*
X5478Y4235D01*
X5477Y4233D01*
X5477Y4232D01*
X5476Y4231D01*
X5476Y4231D01*
X5476Y4231D01*
X5475Y4229D01*
X5473Y4228D01*
X5472Y4227D01*
X5470Y4226D01*
X5469Y4225D01*
X5468Y4224D01*
X5467Y4224D01*
X5467Y4224D01*
X5467Y4224D01*
X5467D01*
X5469Y4223D01*
X5472Y4222D01*
X5474Y4221D01*
X5475Y4220D01*
X5477Y4218D01*
X5477Y4218D01*
X5478Y4217D01*
X5478Y4217D01*
Y4217D01*
X5480Y4215D01*
X5481Y4212D01*
X5481Y4210D01*
X5482Y4208D01*
X5482Y4206D01*
X5482Y4205D01*
Y4205D01*
X5482Y4204D01*
Y4204D01*
Y4204D01*
Y4203D01*
X5482Y4202D01*
X5482Y4200D01*
X5482Y4198D01*
X5481Y4196D01*
X5481Y4195D01*
X5480Y4193D01*
X5479Y4192D01*
X5479Y4191D01*
X5478Y4190D01*
X5477Y4189D01*
X5477Y4188D01*
X5476Y4187D01*
X5476Y4186D01*
X5475Y4186D01*
X5475Y4186D01*
X5475Y4186D01*
X5473Y4184D01*
X5472Y4183D01*
X5470Y4182D01*
X5469Y4182D01*
X5467Y4181D01*
X5466Y4180D01*
X5462Y4179D01*
X5461Y4179D01*
X5460Y4179D01*
X5459Y4179D01*
X5458Y4179D01*
X5457Y4179D01*
X5455D01*
X5453Y4179D01*
X5451Y4179D01*
X5449Y4179D01*
X5447Y4180D01*
X5446Y4180D01*
X5444Y4181D01*
X5443Y4181D01*
X5441Y4182D01*
X5440Y4183D01*
X5439Y4183D01*
X5438Y4184D01*
X5438Y4185D01*
X5437Y4185D01*
X5436Y4185D01*
X5436Y4186D01*
X5436Y4186D01*
X5435Y4187D01*
X5434Y4188D01*
X5433Y4190D01*
X5432Y4191D01*
X5431Y4193D01*
X5431Y4194D01*
X5430Y4196D01*
X5430Y4197D01*
X5429Y4198D01*
X5429Y4199D01*
X5429Y4200D01*
X5429Y4201D01*
X5429Y4202D01*
Y4203D01*
Y4203D01*
Y4203D01*
X5429Y4206D01*
X5429Y4208D01*
X5430Y4211D01*
X5431Y4213D01*
X5431Y4214D01*
X5432Y4215D01*
X5432Y4215D01*
X5432Y4216D01*
X5432Y4216D01*
X5433Y4216D01*
Y4216D01*
X5434Y4218D01*
X5436Y4220D01*
X5438Y4221D01*
X5440Y4222D01*
X5442Y4223D01*
X5442Y4223D01*
X5443Y4224D01*
X5443Y4224D01*
X5444Y4224D01*
X5444Y4224D01*
X5444D01*
X5442Y4225D01*
X5440Y4226D01*
X5439Y4227D01*
X5437Y4228D01*
X5436Y4229D01*
X5436Y4230D01*
X5435Y4230D01*
X5435Y4230D01*
X5434Y4232D01*
X5433Y4234D01*
X5433Y4235D01*
X5432Y4237D01*
X5432Y4238D01*
X5432Y4239D01*
Y4240D01*
Y4240D01*
Y4240D01*
Y4240D01*
X5432Y4242D01*
X5432Y4244D01*
X5433Y4245D01*
X5433Y4246D01*
X5434Y4249D01*
X5435Y4251D01*
X5436Y4252D01*
X5436Y4253D01*
X5437Y4254D01*
X5438Y4254D01*
X5438Y4255D01*
X5438Y4255D01*
X5438Y4255D01*
X5439Y4255D01*
X5440Y4256D01*
X5441Y4257D01*
X5443Y4258D01*
X5444Y4259D01*
X5445Y4260D01*
X5447Y4260D01*
X5450Y4261D01*
X5451Y4261D01*
X5452Y4261D01*
X5453Y4261D01*
X5454Y4261D01*
X5455Y4262D01*
X5456D01*
X5458Y4261D01*
D02*
G37*
G36*
X5089Y5837D02*
X5091Y5835D01*
X5092Y5833D01*
X5094Y5832D01*
X5095Y5830D01*
X5096Y5829D01*
X5097Y5829D01*
X5097Y5829D01*
X5097Y5828D01*
X5097Y5828D01*
X5100Y5826D01*
X5102Y5825D01*
X5105Y5823D01*
X5107Y5821D01*
X5109Y5820D01*
X5110Y5820D01*
X5110Y5820D01*
X5111Y5819D01*
X5111Y5819D01*
X5112Y5819D01*
X5112D01*
Y5809D01*
X5110Y5810D01*
X5108Y5811D01*
X5106Y5812D01*
X5105Y5812D01*
X5103Y5813D01*
X5102Y5814D01*
X5102Y5814D01*
X5102Y5814D01*
X5101Y5814D01*
X5101D01*
X5099Y5816D01*
X5097Y5817D01*
X5096Y5818D01*
X5094Y5819D01*
X5093Y5820D01*
X5092Y5821D01*
X5092Y5821D01*
X5092Y5821D01*
Y5758D01*
X5082D01*
Y5839D01*
X5088D01*
X5089Y5837D01*
D02*
G37*
G36*
X5229Y5840D02*
X5233Y5840D01*
X5236Y5839D01*
X5238Y5838D01*
X5239Y5838D01*
X5240Y5837D01*
X5242Y5837D01*
X5243Y5836D01*
X5243Y5836D01*
X5244Y5836D01*
X5245Y5836D01*
X5245Y5835D01*
X5245Y5835D01*
X5247Y5834D01*
X5248Y5833D01*
X5251Y5831D01*
X5253Y5829D01*
X5255Y5826D01*
X5256Y5825D01*
X5257Y5824D01*
X5257Y5823D01*
X5258Y5823D01*
X5258Y5822D01*
X5259Y5821D01*
X5259Y5821D01*
X5259Y5821D01*
X5260Y5819D01*
X5260Y5817D01*
X5262Y5814D01*
X5262Y5810D01*
X5263Y5808D01*
X5263Y5806D01*
X5263Y5805D01*
X5263Y5803D01*
X5263Y5802D01*
Y5801D01*
X5264Y5800D01*
Y5799D01*
Y5799D01*
Y5799D01*
X5263Y5795D01*
X5263Y5791D01*
X5263Y5789D01*
X5262Y5787D01*
X5262Y5785D01*
X5261Y5784D01*
X5261Y5782D01*
X5261Y5781D01*
X5260Y5780D01*
X5260Y5779D01*
X5260Y5778D01*
X5260Y5778D01*
X5259Y5777D01*
Y5777D01*
X5259Y5775D01*
X5258Y5773D01*
X5257Y5772D01*
X5256Y5770D01*
X5255Y5769D01*
X5253Y5768D01*
X5253Y5767D01*
X5251Y5766D01*
X5251Y5765D01*
X5250Y5764D01*
X5249Y5763D01*
X5248Y5763D01*
X5248Y5762D01*
X5247Y5762D01*
X5247Y5762D01*
X5247Y5762D01*
X5245Y5761D01*
X5244Y5760D01*
X5242Y5759D01*
X5240Y5758D01*
X5236Y5758D01*
X5233Y5757D01*
X5231Y5757D01*
X5230Y5757D01*
X5229Y5756D01*
X5228Y5756D01*
X5227Y5756D01*
X5225D01*
X5223Y5756D01*
X5221Y5757D01*
X5219Y5757D01*
X5217Y5757D01*
X5215Y5758D01*
X5213Y5758D01*
X5211Y5759D01*
X5210Y5760D01*
X5209Y5760D01*
X5207Y5761D01*
X5206Y5762D01*
X5205Y5762D01*
X5205Y5763D01*
X5204Y5763D01*
X5204Y5763D01*
X5204Y5763D01*
X5202Y5765D01*
X5201Y5766D01*
X5199Y5768D01*
X5198Y5769D01*
X5197Y5771D01*
X5196Y5773D01*
X5195Y5774D01*
X5194Y5776D01*
X5194Y5777D01*
X5193Y5779D01*
X5193Y5780D01*
X5192Y5781D01*
X5192Y5782D01*
X5192Y5783D01*
X5192Y5783D01*
Y5783D01*
X5202Y5786D01*
X5203Y5784D01*
X5203Y5782D01*
X5204Y5781D01*
X5205Y5779D01*
X5205Y5778D01*
X5206Y5777D01*
X5207Y5776D01*
X5208Y5775D01*
X5208Y5774D01*
X5209Y5773D01*
X5210Y5772D01*
X5210Y5772D01*
X5210Y5771D01*
X5211Y5771D01*
X5211Y5771D01*
X5211Y5771D01*
X5212Y5770D01*
X5213Y5769D01*
X5215Y5768D01*
X5216Y5768D01*
X5219Y5767D01*
X5221Y5766D01*
X5222Y5766D01*
X5223Y5766D01*
X5224Y5766D01*
X5225Y5766D01*
X5225Y5765D01*
X5226D01*
X5229Y5766D01*
X5232Y5766D01*
X5234Y5767D01*
X5236Y5767D01*
X5238Y5768D01*
X5238Y5768D01*
X5239Y5769D01*
X5240Y5769D01*
X5240Y5769D01*
X5240Y5769D01*
X5240D01*
X5242Y5771D01*
X5244Y5773D01*
X5246Y5775D01*
X5247Y5776D01*
X5248Y5778D01*
X5249Y5779D01*
X5249Y5780D01*
X5249Y5780D01*
X5249Y5780D01*
X5250Y5781D01*
Y5781D01*
X5251Y5784D01*
X5251Y5787D01*
X5252Y5790D01*
X5252Y5793D01*
X5252Y5794D01*
Y5795D01*
X5252Y5796D01*
X5253Y5797D01*
Y5798D01*
Y5798D01*
Y5799D01*
Y5799D01*
X5252Y5802D01*
X5252Y5805D01*
X5252Y5807D01*
X5251Y5810D01*
X5251Y5811D01*
X5251Y5812D01*
X5251Y5812D01*
X5250Y5813D01*
X5250Y5814D01*
X5250Y5814D01*
X5250Y5814D01*
Y5814D01*
X5249Y5817D01*
X5248Y5820D01*
X5246Y5822D01*
X5245Y5823D01*
X5243Y5825D01*
X5242Y5826D01*
X5242Y5826D01*
X5242Y5826D01*
X5241Y5827D01*
X5241D01*
X5240Y5827D01*
X5239Y5828D01*
X5236Y5829D01*
X5233Y5830D01*
X5231Y5831D01*
X5230Y5831D01*
X5229Y5831D01*
X5228Y5831D01*
X5227D01*
X5226Y5831D01*
X5225D01*
X5223Y5831D01*
X5220Y5830D01*
X5218Y5830D01*
X5216Y5829D01*
X5214Y5828D01*
X5213Y5828D01*
X5213Y5828D01*
X5212Y5827D01*
X5212Y5827D01*
X5212Y5827D01*
X5212D01*
X5211Y5826D01*
X5210Y5825D01*
X5208Y5823D01*
X5207Y5821D01*
X5206Y5819D01*
X5205Y5817D01*
X5204Y5816D01*
X5204Y5816D01*
X5204Y5815D01*
X5204Y5814D01*
X5204Y5814D01*
Y5814D01*
X5193Y5817D01*
X5194Y5819D01*
X5194Y5821D01*
X5195Y5822D01*
X5196Y5824D01*
X5197Y5826D01*
X5198Y5827D01*
X5199Y5828D01*
X5200Y5829D01*
X5201Y5831D01*
X5202Y5832D01*
X5203Y5832D01*
X5203Y5833D01*
X5204Y5833D01*
X5204Y5834D01*
X5205Y5834D01*
X5205Y5834D01*
X5206Y5835D01*
X5208Y5836D01*
X5210Y5837D01*
X5211Y5838D01*
X5213Y5838D01*
X5215Y5839D01*
X5218Y5840D01*
X5220Y5840D01*
X5221Y5840D01*
X5222Y5840D01*
X5223Y5840D01*
X5224Y5840D01*
X5227D01*
X5229Y5840D01*
D02*
G37*
G36*
X5186Y5786D02*
Y5777D01*
X5151D01*
Y5758D01*
X5141D01*
Y5777D01*
X5130D01*
Y5786D01*
X5141D01*
Y5839D01*
X5149D01*
X5186Y5786D01*
D02*
G37*
G36*
X6741Y6032D02*
X6744Y6032D01*
X6748Y6031D01*
X6749Y6030D01*
X6751Y6030D01*
X6752Y6029D01*
X6753Y6029D01*
X6754Y6028D01*
X6755Y6028D01*
X6755Y6028D01*
X6756Y6028D01*
X6756Y6027D01*
X6756Y6027D01*
X6758Y6026D01*
X6760Y6025D01*
X6762Y6023D01*
X6765Y6021D01*
X6767Y6018D01*
X6767Y6017D01*
X6768Y6016D01*
X6769Y6015D01*
X6769Y6015D01*
X6770Y6014D01*
X6770Y6013D01*
X6770Y6013D01*
X6770Y6013D01*
X6771Y6011D01*
X6772Y6009D01*
X6773Y6006D01*
X6774Y6002D01*
X6774Y6000D01*
X6774Y5998D01*
X6775Y5997D01*
X6775Y5995D01*
X6775Y5994D01*
Y5993D01*
X6775Y5992D01*
Y5991D01*
Y5991D01*
Y5991D01*
X6775Y5987D01*
X6774Y5983D01*
X6774Y5981D01*
X6774Y5979D01*
X6773Y5977D01*
X6773Y5976D01*
X6772Y5974D01*
X6772Y5973D01*
X6772Y5972D01*
X6771Y5971D01*
X6771Y5970D01*
X6771Y5970D01*
X6771Y5969D01*
Y5969D01*
X6770Y5967D01*
X6769Y5966D01*
X6768Y5964D01*
X6767Y5962D01*
X6766Y5961D01*
X6765Y5960D01*
X6764Y5959D01*
X6763Y5958D01*
X6762Y5957D01*
X6761Y5956D01*
X6760Y5955D01*
X6760Y5955D01*
X6759Y5954D01*
X6758Y5954D01*
X6758Y5954D01*
X6758Y5954D01*
X6757Y5953D01*
X6755Y5952D01*
X6753Y5951D01*
X6751Y5951D01*
X6748Y5950D01*
X6744Y5949D01*
X6743Y5949D01*
X6741Y5949D01*
X6740Y5949D01*
X6739Y5948D01*
X6738Y5948D01*
X6737D01*
X6734Y5948D01*
X6732Y5949D01*
X6730Y5949D01*
X6728Y5949D01*
X6726Y5950D01*
X6724Y5951D01*
X6723Y5951D01*
X6721Y5952D01*
X6720Y5952D01*
X6719Y5953D01*
X6718Y5954D01*
X6717Y5954D01*
X6716Y5955D01*
X6716Y5955D01*
X6715Y5955D01*
X6715Y5955D01*
X6714Y5957D01*
X6712Y5958D01*
X6711Y5960D01*
X6710Y5961D01*
X6709Y5963D01*
X6708Y5965D01*
X6707Y5966D01*
X6706Y5968D01*
X6705Y5969D01*
X6705Y5971D01*
X6704Y5972D01*
X6704Y5973D01*
X6703Y5974D01*
X6703Y5975D01*
X6703Y5975D01*
Y5975D01*
X6714Y5978D01*
X6714Y5976D01*
X6715Y5974D01*
X6715Y5973D01*
X6716Y5971D01*
X6717Y5970D01*
X6717Y5969D01*
X6718Y5968D01*
X6719Y5967D01*
X6720Y5966D01*
X6720Y5965D01*
X6721Y5964D01*
X6721Y5964D01*
X6722Y5963D01*
X6722Y5963D01*
X6722Y5963D01*
X6722Y5963D01*
X6724Y5962D01*
X6725Y5961D01*
X6726Y5960D01*
X6727Y5960D01*
X6730Y5959D01*
X6732Y5958D01*
X6733Y5958D01*
X6735Y5958D01*
X6735Y5958D01*
X6736Y5958D01*
X6737Y5957D01*
X6738D01*
X6740Y5958D01*
X6743Y5958D01*
X6745Y5959D01*
X6747Y5959D01*
X6749Y5960D01*
X6750Y5960D01*
X6750Y5961D01*
X6751Y5961D01*
X6751Y5961D01*
X6751Y5961D01*
X6752D01*
X6754Y5963D01*
X6756Y5965D01*
X6757Y5967D01*
X6759Y5968D01*
X6760Y5970D01*
X6760Y5971D01*
X6760Y5972D01*
X6761Y5972D01*
X6761Y5972D01*
X6761Y5973D01*
Y5973D01*
X6762Y5976D01*
X6763Y5979D01*
X6763Y5982D01*
X6763Y5985D01*
X6764Y5986D01*
Y5987D01*
X6764Y5988D01*
X6764Y5989D01*
Y5990D01*
Y5990D01*
Y5991D01*
Y5991D01*
X6764Y5994D01*
X6763Y5997D01*
X6763Y5999D01*
X6763Y6002D01*
X6762Y6003D01*
X6762Y6004D01*
X6762Y6005D01*
X6762Y6005D01*
X6762Y6006D01*
X6761Y6006D01*
X6761Y6006D01*
Y6007D01*
X6760Y6009D01*
X6759Y6012D01*
X6757Y6014D01*
X6756Y6015D01*
X6755Y6017D01*
X6754Y6018D01*
X6753Y6018D01*
X6753Y6018D01*
X6753Y6019D01*
X6753D01*
X6751Y6019D01*
X6750Y6020D01*
X6747Y6021D01*
X6745Y6022D01*
X6742Y6023D01*
X6741Y6023D01*
X6740Y6023D01*
X6739Y6023D01*
X6738D01*
X6738Y6023D01*
X6737D01*
X6734Y6023D01*
X6731Y6022D01*
X6729Y6022D01*
X6727Y6021D01*
X6725Y6020D01*
X6725Y6020D01*
X6724Y6020D01*
X6724Y6019D01*
X6723Y6019D01*
X6723Y6019D01*
X6723D01*
X6722Y6018D01*
X6721Y6017D01*
X6720Y6015D01*
X6718Y6013D01*
X6717Y6011D01*
X6716Y6009D01*
X6716Y6008D01*
X6715Y6008D01*
X6715Y6007D01*
X6715Y6007D01*
X6715Y6006D01*
Y6006D01*
X6704Y6009D01*
X6705Y6011D01*
X6706Y6013D01*
X6707Y6014D01*
X6708Y6016D01*
X6709Y6018D01*
X6710Y6019D01*
X6711Y6020D01*
X6711Y6022D01*
X6712Y6023D01*
X6713Y6024D01*
X6714Y6024D01*
X6715Y6025D01*
X6715Y6025D01*
X6716Y6026D01*
X6716Y6026D01*
X6716Y6026D01*
X6718Y6027D01*
X6719Y6028D01*
X6721Y6029D01*
X6723Y6030D01*
X6725Y6030D01*
X6726Y6031D01*
X6729Y6032D01*
X6731Y6032D01*
X6732Y6032D01*
X6734Y6032D01*
X6735Y6032D01*
X6735Y6032D01*
X6739D01*
X6741Y6032D01*
D02*
G37*
G36*
X6697Y5978D02*
Y5969D01*
X6662D01*
Y5950D01*
X6652D01*
Y5969D01*
X6641D01*
Y5978D01*
X6652D01*
Y6031D01*
X6660D01*
X6697Y5978D01*
D02*
G37*
G36*
X6607Y6031D02*
X6610Y6031D01*
X6613Y6030D01*
X6615Y6029D01*
X6616Y6028D01*
X6617Y6028D01*
X6617Y6028D01*
X6618Y6027D01*
X6618Y6027D01*
X6619Y6027D01*
X6619Y6027D01*
X6619Y6026D01*
X6621Y6025D01*
X6623Y6022D01*
X6624Y6020D01*
X6626Y6018D01*
X6627Y6016D01*
X6627Y6015D01*
X6627Y6014D01*
X6627Y6014D01*
X6628Y6013D01*
X6628Y6013D01*
Y6013D01*
X6628Y6011D01*
X6629Y6009D01*
X6629Y6006D01*
X6630Y6002D01*
X6630Y5998D01*
X6631Y5996D01*
Y5995D01*
X6631Y5993D01*
X6631Y5992D01*
Y5991D01*
Y5990D01*
Y5990D01*
Y5990D01*
X6631Y5986D01*
X6630Y5982D01*
X6630Y5978D01*
X6629Y5975D01*
X6629Y5972D01*
X6628Y5969D01*
X6627Y5967D01*
X6627Y5965D01*
X6626Y5963D01*
X6625Y5961D01*
X6625Y5960D01*
X6624Y5959D01*
X6624Y5958D01*
X6623Y5957D01*
X6623Y5957D01*
X6623Y5957D01*
X6621Y5955D01*
X6620Y5954D01*
X6619Y5953D01*
X6617Y5952D01*
X6616Y5951D01*
X6614Y5950D01*
X6612Y5950D01*
X6611Y5949D01*
X6610Y5949D01*
X6608Y5949D01*
X6607Y5949D01*
X6606Y5948D01*
X6605D01*
X6605Y5948D01*
X6604D01*
X6603Y5948D01*
X6601Y5949D01*
X6598Y5949D01*
X6596Y5950D01*
X6594Y5951D01*
X6593Y5951D01*
X6592Y5952D01*
X6591Y5952D01*
X6591Y5952D01*
X6590Y5953D01*
X6590Y5953D01*
X6590Y5953D01*
X6590D01*
X6588Y5955D01*
X6586Y5957D01*
X6584Y5959D01*
X6583Y5962D01*
X6582Y5964D01*
X6582Y5964D01*
X6581Y5965D01*
X6581Y5966D01*
X6581Y5966D01*
X6581Y5966D01*
Y5967D01*
X6580Y5968D01*
X6580Y5970D01*
X6579Y5974D01*
X6579Y5978D01*
X6578Y5981D01*
X6578Y5983D01*
X6578Y5985D01*
Y5986D01*
X6578Y5987D01*
Y5988D01*
Y5989D01*
Y5990D01*
Y5990D01*
Y5992D01*
X6578Y5994D01*
X6578Y5996D01*
X6578Y5998D01*
X6578Y6000D01*
X6578Y6001D01*
X6579Y6003D01*
X6579Y6004D01*
X6579Y6005D01*
X6579Y6006D01*
X6579Y6007D01*
X6579Y6008D01*
X6579Y6008D01*
X6580Y6009D01*
X6580Y6009D01*
Y6009D01*
X6580Y6011D01*
X6581Y6014D01*
X6582Y6016D01*
X6583Y6018D01*
X6584Y6019D01*
X6584Y6020D01*
X6584Y6020D01*
X6585Y6021D01*
X6585Y6021D01*
Y6021D01*
X6586Y6023D01*
X6587Y6024D01*
X6589Y6026D01*
X6590Y6027D01*
X6591Y6028D01*
X6592Y6028D01*
X6593Y6028D01*
X6593Y6029D01*
X6593D01*
X6595Y6029D01*
X6597Y6030D01*
X6599Y6031D01*
X6600Y6031D01*
X6602Y6031D01*
X6603D01*
X6603Y6031D01*
X6606D01*
X6607Y6031D01*
D02*
G37*
G36*
X6430Y5511D02*
X6432Y5511D01*
X6435Y5511D01*
X6438Y5510D01*
X6439Y5509D01*
X6440Y5509D01*
X6441Y5508D01*
X6442Y5508D01*
X6443Y5507D01*
X6443Y5507D01*
X6444Y5507D01*
X6444Y5506D01*
X6444Y5506D01*
X6445Y5506D01*
X6446Y5505D01*
X6447Y5504D01*
X6449Y5501D01*
X6450Y5499D01*
X6451Y5496D01*
X6452Y5495D01*
X6452Y5494D01*
X6452Y5493D01*
X6452Y5492D01*
X6453Y5491D01*
X6453Y5491D01*
X6453Y5491D01*
Y5491D01*
X6443Y5489D01*
X6442Y5491D01*
X6442Y5494D01*
X6441Y5495D01*
X6440Y5497D01*
X6439Y5498D01*
X6439Y5499D01*
X6438Y5499D01*
X6438Y5500D01*
X6436Y5501D01*
X6435Y5502D01*
X6433Y5502D01*
X6432Y5503D01*
X6430Y5503D01*
X6429Y5503D01*
X6429Y5503D01*
X6428D01*
X6426Y5503D01*
X6424Y5503D01*
X6423Y5502D01*
X6421Y5502D01*
X6420Y5501D01*
X6419Y5500D01*
X6419Y5500D01*
X6419Y5500D01*
X6417Y5498D01*
X6416Y5497D01*
X6416Y5495D01*
X6415Y5494D01*
X6415Y5493D01*
X6415Y5492D01*
X6415Y5491D01*
Y5491D01*
Y5491D01*
X6415Y5489D01*
X6415Y5488D01*
X6416Y5486D01*
X6416Y5484D01*
X6417Y5483D01*
X6418Y5482D01*
X6419Y5481D01*
X6420Y5481D01*
X6420Y5480D01*
X6420D01*
X6422Y5479D01*
X6424Y5478D01*
X6426Y5478D01*
X6428Y5477D01*
X6429Y5477D01*
X6430Y5477D01*
X6431Y5477D01*
X6432D01*
X6432Y5477D01*
X6433Y5477D01*
X6433D01*
X6434Y5468D01*
X6433Y5469D01*
X6431Y5469D01*
X6430Y5469D01*
X6429Y5469D01*
X6428Y5470D01*
X6427D01*
X6425Y5469D01*
X6422Y5469D01*
X6420Y5468D01*
X6419Y5467D01*
X6417Y5466D01*
X6417Y5466D01*
X6416Y5465D01*
X6416Y5465D01*
X6415Y5464D01*
X6414Y5463D01*
X6413Y5461D01*
X6412Y5460D01*
X6412Y5458D01*
X6411Y5456D01*
X6411Y5455D01*
Y5455D01*
X6411Y5454D01*
Y5454D01*
Y5454D01*
Y5454D01*
Y5453D01*
X6411Y5451D01*
X6412Y5449D01*
X6413Y5447D01*
X6414Y5445D01*
X6414Y5444D01*
X6415Y5443D01*
X6416Y5442D01*
X6416Y5442D01*
X6416Y5442D01*
X6416Y5442D01*
X6417Y5441D01*
X6418Y5440D01*
X6420Y5439D01*
X6422Y5438D01*
X6424Y5438D01*
X6425Y5437D01*
X6426Y5437D01*
X6427D01*
X6427Y5437D01*
X6428D01*
X6430Y5437D01*
X6432Y5438D01*
X6434Y5438D01*
X6435Y5439D01*
X6436Y5439D01*
X6437Y5440D01*
X6438Y5440D01*
X6438Y5441D01*
X6439Y5441D01*
X6439Y5442D01*
X6441Y5444D01*
X6442Y5446D01*
X6442Y5448D01*
X6443Y5450D01*
X6443Y5451D01*
X6443Y5452D01*
X6444Y5452D01*
X6444Y5453D01*
X6444Y5453D01*
Y5453D01*
X6454Y5452D01*
X6454Y5450D01*
X6453Y5448D01*
X6453Y5446D01*
X6452Y5445D01*
X6451Y5443D01*
X6451Y5442D01*
X6450Y5441D01*
X6449Y5439D01*
X6449Y5438D01*
X6448Y5438D01*
X6447Y5437D01*
X6447Y5436D01*
X6446Y5436D01*
X6446Y5435D01*
X6446Y5435D01*
X6446Y5435D01*
X6444Y5434D01*
X6443Y5433D01*
X6441Y5432D01*
X6440Y5431D01*
X6438Y5431D01*
X6437Y5430D01*
X6434Y5429D01*
X6433Y5429D01*
X6432Y5429D01*
X6431Y5429D01*
X6430Y5429D01*
X6429Y5429D01*
X6428D01*
X6426Y5429D01*
X6424Y5429D01*
X6422Y5429D01*
X6420Y5430D01*
X6418Y5430D01*
X6417Y5431D01*
X6415Y5432D01*
X6414Y5432D01*
X6413Y5433D01*
X6411Y5434D01*
X6411Y5434D01*
X6410Y5435D01*
X6409Y5435D01*
X6409Y5436D01*
X6408Y5436D01*
X6408Y5436D01*
X6407Y5437D01*
X6406Y5439D01*
X6405Y5440D01*
X6404Y5442D01*
X6403Y5443D01*
X6402Y5445D01*
X6402Y5446D01*
X6402Y5448D01*
X6401Y5449D01*
X6401Y5450D01*
X6401Y5451D01*
X6401Y5452D01*
X6401Y5453D01*
Y5454D01*
Y5454D01*
Y5454D01*
X6401Y5457D01*
X6401Y5459D01*
X6402Y5461D01*
X6403Y5463D01*
X6403Y5465D01*
X6404Y5466D01*
X6404Y5466D01*
X6404Y5466D01*
X6404Y5467D01*
X6405Y5467D01*
Y5467D01*
X6406Y5469D01*
X6408Y5470D01*
X6410Y5472D01*
X6412Y5472D01*
X6413Y5473D01*
X6414Y5473D01*
X6415Y5474D01*
X6415Y5474D01*
X6415Y5474D01*
X6416Y5474D01*
X6416D01*
X6414Y5475D01*
X6412Y5476D01*
X6411Y5477D01*
X6410Y5478D01*
X6409Y5479D01*
X6408Y5480D01*
X6408Y5481D01*
X6407Y5481D01*
X6406Y5483D01*
X6406Y5484D01*
X6405Y5486D01*
X6405Y5487D01*
X6405Y5489D01*
X6405Y5490D01*
Y5490D01*
Y5490D01*
Y5490D01*
X6405Y5492D01*
X6405Y5494D01*
X6406Y5496D01*
X6406Y5498D01*
X6407Y5499D01*
X6407Y5500D01*
X6408Y5501D01*
X6408Y5501D01*
Y5501D01*
X6409Y5503D01*
X6410Y5504D01*
X6412Y5506D01*
X6413Y5507D01*
X6414Y5508D01*
X6415Y5508D01*
X6416Y5508D01*
X6416Y5509D01*
X6416Y5509D01*
X6416D01*
X6418Y5510D01*
X6420Y5510D01*
X6422Y5511D01*
X6424Y5511D01*
X6426Y5511D01*
X6427D01*
X6427Y5512D01*
X6428D01*
X6430Y5511D01*
D02*
G37*
G36*
X6500Y5512D02*
X6504Y5512D01*
X6508Y5511D01*
X6509Y5511D01*
X6510Y5510D01*
X6512Y5510D01*
X6513Y5509D01*
X6514Y5509D01*
X6515Y5508D01*
X6515Y5508D01*
X6516Y5508D01*
X6516Y5508D01*
X6516Y5508D01*
X6518Y5507D01*
X6519Y5506D01*
X6522Y5503D01*
X6525Y5501D01*
X6527Y5499D01*
X6527Y5498D01*
X6528Y5497D01*
X6529Y5496D01*
X6529Y5495D01*
X6530Y5494D01*
X6530Y5494D01*
X6530Y5493D01*
X6530Y5493D01*
X6531Y5491D01*
X6532Y5490D01*
X6533Y5486D01*
X6534Y5482D01*
X6534Y5480D01*
X6534Y5479D01*
X6534Y5477D01*
X6535Y5476D01*
X6535Y5474D01*
Y5473D01*
X6535Y5472D01*
Y5472D01*
Y5471D01*
Y5471D01*
X6535Y5467D01*
X6534Y5463D01*
X6534Y5461D01*
X6533Y5459D01*
X6533Y5458D01*
X6533Y5456D01*
X6532Y5455D01*
X6532Y5453D01*
X6532Y5452D01*
X6531Y5451D01*
X6531Y5450D01*
X6531Y5450D01*
X6531Y5450D01*
Y5449D01*
X6530Y5448D01*
X6529Y5446D01*
X6528Y5444D01*
X6527Y5443D01*
X6526Y5441D01*
X6525Y5440D01*
X6524Y5439D01*
X6523Y5438D01*
X6522Y5437D01*
X6521Y5436D01*
X6520Y5435D01*
X6519Y5435D01*
X6519Y5434D01*
X6518Y5434D01*
X6518Y5434D01*
X6518Y5434D01*
X6516Y5433D01*
X6515Y5432D01*
X6513Y5431D01*
X6511Y5431D01*
X6508Y5430D01*
X6504Y5429D01*
X6503Y5429D01*
X6501Y5429D01*
X6500Y5429D01*
X6499Y5429D01*
X6498Y5429D01*
X6497D01*
X6494Y5429D01*
X6492Y5429D01*
X6490Y5429D01*
X6488Y5430D01*
X6486Y5430D01*
X6484Y5431D01*
X6483Y5431D01*
X6481Y5432D01*
X6480Y5433D01*
X6479Y5433D01*
X6478Y5434D01*
X6477Y5434D01*
X6476Y5435D01*
X6476Y5435D01*
X6475Y5435D01*
X6475Y5435D01*
X6474Y5437D01*
X6472Y5438D01*
X6471Y5440D01*
X6470Y5442D01*
X6468Y5443D01*
X6467Y5445D01*
X6467Y5447D01*
X6466Y5448D01*
X6465Y5450D01*
X6464Y5451D01*
X6464Y5452D01*
X6464Y5453D01*
X6463Y5454D01*
X6463Y5455D01*
X6463Y5456D01*
Y5456D01*
X6474Y5458D01*
X6474Y5457D01*
X6475Y5455D01*
X6475Y5453D01*
X6476Y5452D01*
X6477Y5450D01*
X6477Y5449D01*
X6478Y5448D01*
X6479Y5447D01*
X6480Y5446D01*
X6480Y5445D01*
X6481Y5444D01*
X6481Y5444D01*
X6482Y5444D01*
X6482Y5443D01*
X6482Y5443D01*
X6482Y5443D01*
X6483Y5442D01*
X6485Y5441D01*
X6486Y5441D01*
X6487Y5440D01*
X6490Y5439D01*
X6492Y5438D01*
X6493Y5438D01*
X6494Y5438D01*
X6495Y5438D01*
X6496Y5438D01*
X6497Y5438D01*
X6498D01*
X6500Y5438D01*
X6503Y5438D01*
X6505Y5439D01*
X6507Y5440D01*
X6509Y5440D01*
X6510Y5441D01*
X6510Y5441D01*
X6511Y5441D01*
X6511Y5441D01*
X6511Y5442D01*
X6511D01*
X6514Y5443D01*
X6516Y5445D01*
X6517Y5447D01*
X6518Y5449D01*
X6520Y5450D01*
X6520Y5451D01*
X6520Y5452D01*
X6521Y5452D01*
X6521Y5453D01*
X6521Y5453D01*
Y5453D01*
X6522Y5456D01*
X6523Y5459D01*
X6523Y5462D01*
X6523Y5465D01*
X6524Y5466D01*
Y5468D01*
X6524Y5469D01*
X6524Y5470D01*
Y5470D01*
Y5471D01*
Y5471D01*
Y5471D01*
X6524Y5474D01*
X6523Y5477D01*
X6523Y5480D01*
X6523Y5482D01*
X6522Y5483D01*
X6522Y5484D01*
X6522Y5485D01*
X6522Y5486D01*
X6521Y5486D01*
X6521Y5487D01*
X6521Y5487D01*
Y5487D01*
X6520Y5490D01*
X6519Y5492D01*
X6517Y5494D01*
X6516Y5496D01*
X6515Y5497D01*
X6514Y5498D01*
X6513Y5498D01*
X6513Y5499D01*
X6513Y5499D01*
X6512D01*
X6511Y5500D01*
X6510Y5500D01*
X6507Y5502D01*
X6505Y5502D01*
X6502Y5503D01*
X6501Y5503D01*
X6500Y5503D01*
X6499Y5503D01*
X6498D01*
X6498Y5503D01*
X6497D01*
X6494Y5503D01*
X6491Y5503D01*
X6489Y5502D01*
X6487Y5501D01*
X6485Y5501D01*
X6485Y5500D01*
X6484Y5500D01*
X6484Y5500D01*
X6483Y5500D01*
X6483Y5499D01*
X6483D01*
X6482Y5498D01*
X6481Y5498D01*
X6480Y5496D01*
X6478Y5494D01*
X6477Y5491D01*
X6476Y5489D01*
X6476Y5489D01*
X6475Y5488D01*
X6475Y5487D01*
X6475Y5487D01*
X6475Y5487D01*
Y5486D01*
X6464Y5489D01*
X6465Y5491D01*
X6466Y5493D01*
X6467Y5495D01*
X6468Y5496D01*
X6469Y5498D01*
X6469Y5499D01*
X6470Y5501D01*
X6471Y5502D01*
X6472Y5503D01*
X6473Y5504D01*
X6474Y5505D01*
X6475Y5505D01*
X6475Y5506D01*
X6476Y5506D01*
X6476Y5506D01*
X6476Y5506D01*
X6478Y5507D01*
X6479Y5509D01*
X6481Y5509D01*
X6483Y5510D01*
X6484Y5511D01*
X6486Y5511D01*
X6489Y5512D01*
X6491Y5512D01*
X6492Y5512D01*
X6493Y5512D01*
X6495Y5513D01*
X6495Y5513D01*
X6499D01*
X6500Y5512D01*
D02*
G37*
G36*
X6366Y5511D02*
X6368Y5511D01*
X6370Y5511D01*
X6371Y5511D01*
X6373Y5510D01*
X6374Y5510D01*
X6376Y5509D01*
X6377Y5509D01*
X6378Y5508D01*
X6379Y5507D01*
X6379Y5507D01*
X6380Y5506D01*
X6380Y5506D01*
X6381Y5506D01*
X6381Y5506D01*
X6381Y5505D01*
X6382Y5504D01*
X6383Y5503D01*
X6384Y5502D01*
X6385Y5501D01*
X6385Y5499D01*
X6386Y5498D01*
X6387Y5496D01*
X6387Y5494D01*
X6387Y5493D01*
X6387Y5492D01*
X6387Y5491D01*
Y5491D01*
Y5491D01*
Y5491D01*
X6387Y5488D01*
X6387Y5487D01*
X6387Y5485D01*
X6386Y5483D01*
X6385Y5482D01*
X6385Y5481D01*
X6385Y5481D01*
X6385Y5481D01*
X6383Y5479D01*
X6382Y5478D01*
X6380Y5477D01*
X6379Y5476D01*
X6377Y5475D01*
X6376Y5474D01*
X6376Y5474D01*
X6376Y5474D01*
X6375Y5474D01*
X6375D01*
X6378Y5473D01*
X6380Y5472D01*
X6382Y5471D01*
X6384Y5470D01*
X6385Y5468D01*
X6386Y5468D01*
X6387Y5467D01*
X6387Y5467D01*
Y5467D01*
X6388Y5465D01*
X6389Y5462D01*
X6390Y5460D01*
X6390Y5458D01*
X6391Y5456D01*
X6391Y5455D01*
Y5455D01*
X6391Y5454D01*
Y5454D01*
Y5454D01*
Y5453D01*
X6391Y5452D01*
X6390Y5450D01*
X6390Y5448D01*
X6390Y5446D01*
X6389Y5445D01*
X6388Y5443D01*
X6388Y5442D01*
X6387Y5441D01*
X6386Y5440D01*
X6386Y5439D01*
X6385Y5438D01*
X6385Y5437D01*
X6384Y5436D01*
X6384Y5436D01*
X6384Y5436D01*
X6383Y5436D01*
X6382Y5434D01*
X6380Y5433D01*
X6379Y5432D01*
X6377Y5432D01*
X6376Y5431D01*
X6374Y5430D01*
X6371Y5429D01*
X6370Y5429D01*
X6368Y5429D01*
X6367Y5429D01*
X6366Y5429D01*
X6365Y5429D01*
X6364D01*
X6362Y5429D01*
X6360Y5429D01*
X6358Y5429D01*
X6356Y5430D01*
X6354Y5430D01*
X6353Y5431D01*
X6351Y5431D01*
X6350Y5432D01*
X6349Y5433D01*
X6348Y5433D01*
X6347Y5434D01*
X6346Y5435D01*
X6345Y5435D01*
X6345Y5435D01*
X6345Y5436D01*
X6345Y5436D01*
X6343Y5437D01*
X6342Y5438D01*
X6341Y5440D01*
X6340Y5441D01*
X6340Y5443D01*
X6339Y5444D01*
X6339Y5446D01*
X6338Y5447D01*
X6338Y5448D01*
X6338Y5449D01*
X6337Y5450D01*
X6337Y5451D01*
X6337Y5452D01*
Y5453D01*
Y5453D01*
Y5453D01*
X6337Y5456D01*
X6338Y5458D01*
X6339Y5461D01*
X6339Y5463D01*
X6340Y5464D01*
X6340Y5465D01*
X6341Y5465D01*
X6341Y5466D01*
X6341Y5466D01*
X6341Y5466D01*
Y5466D01*
X6343Y5468D01*
X6345Y5470D01*
X6346Y5471D01*
X6348Y5472D01*
X6350Y5473D01*
X6351Y5473D01*
X6351Y5474D01*
X6352Y5474D01*
X6352Y5474D01*
X6352Y5474D01*
X6353D01*
X6350Y5475D01*
X6349Y5476D01*
X6347Y5477D01*
X6346Y5478D01*
X6345Y5479D01*
X6344Y5480D01*
X6344Y5480D01*
X6344Y5480D01*
X6343Y5482D01*
X6342Y5484D01*
X6341Y5485D01*
X6341Y5487D01*
X6341Y5488D01*
X6341Y5489D01*
Y5490D01*
Y5490D01*
Y5490D01*
Y5490D01*
X6341Y5492D01*
X6341Y5494D01*
X6341Y5495D01*
X6342Y5496D01*
X6343Y5499D01*
X6344Y5501D01*
X6344Y5502D01*
X6345Y5503D01*
X6346Y5504D01*
X6346Y5504D01*
X6346Y5505D01*
X6347Y5505D01*
X6347Y5505D01*
X6347Y5505D01*
X6348Y5506D01*
X6350Y5507D01*
X6351Y5508D01*
X6352Y5509D01*
X6354Y5510D01*
X6355Y5510D01*
X6358Y5511D01*
X6359Y5511D01*
X6361Y5511D01*
X6362Y5511D01*
X6362Y5511D01*
X6363Y5512D01*
X6364D01*
X6366Y5511D01*
D02*
G37*
G36*
X6670Y5761D02*
X6672Y5761D01*
X6675Y5760D01*
X6678Y5759D01*
X6679Y5759D01*
X6680Y5758D01*
X6681Y5758D01*
X6682Y5757D01*
X6683Y5757D01*
X6683Y5756D01*
X6684Y5756D01*
X6684Y5756D01*
X6685Y5756D01*
X6685Y5756D01*
X6686Y5755D01*
X6687Y5753D01*
X6689Y5751D01*
X6690Y5748D01*
X6691Y5746D01*
X6692Y5745D01*
X6692Y5744D01*
X6692Y5743D01*
X6692Y5742D01*
X6693Y5741D01*
X6693Y5741D01*
X6693Y5740D01*
Y5740D01*
X6683Y5738D01*
X6682Y5741D01*
X6682Y5743D01*
X6681Y5745D01*
X6680Y5747D01*
X6679Y5748D01*
X6679Y5749D01*
X6678Y5749D01*
X6678Y5749D01*
X6676Y5751D01*
X6675Y5751D01*
X6673Y5752D01*
X6672Y5753D01*
X6670Y5753D01*
X6669Y5753D01*
X6669Y5753D01*
X6668D01*
X6666Y5753D01*
X6664Y5752D01*
X6663Y5752D01*
X6661Y5751D01*
X6660Y5750D01*
X6659Y5750D01*
X6659Y5750D01*
X6659Y5749D01*
X6657Y5748D01*
X6657Y5746D01*
X6656Y5745D01*
X6655Y5743D01*
X6655Y5742D01*
X6655Y5741D01*
X6655Y5741D01*
Y5740D01*
Y5740D01*
X6655Y5739D01*
X6655Y5738D01*
X6656Y5736D01*
X6657Y5734D01*
X6657Y5733D01*
X6658Y5731D01*
X6659Y5731D01*
X6660Y5730D01*
X6660Y5730D01*
X6660D01*
X6662Y5729D01*
X6664Y5728D01*
X6666Y5728D01*
X6668Y5727D01*
X6669Y5727D01*
X6670Y5727D01*
X6671Y5727D01*
X6672D01*
X6673Y5727D01*
X6673Y5727D01*
X6673D01*
X6674Y5718D01*
X6673Y5718D01*
X6671Y5719D01*
X6670Y5719D01*
X6669Y5719D01*
X6668Y5719D01*
X6667D01*
X6665Y5719D01*
X6662Y5718D01*
X6661Y5718D01*
X6659Y5717D01*
X6658Y5716D01*
X6657Y5715D01*
X6656Y5715D01*
X6656Y5715D01*
X6655Y5714D01*
X6654Y5713D01*
X6653Y5711D01*
X6652Y5709D01*
X6652Y5707D01*
X6651Y5706D01*
X6651Y5705D01*
Y5705D01*
X6651Y5704D01*
Y5704D01*
Y5704D01*
Y5703D01*
Y5702D01*
X6651Y5701D01*
X6652Y5699D01*
X6653Y5696D01*
X6654Y5695D01*
X6655Y5693D01*
X6655Y5692D01*
X6656Y5692D01*
X6656Y5692D01*
X6656Y5692D01*
X6656Y5691D01*
X6657Y5691D01*
X6658Y5690D01*
X6660Y5689D01*
X6662Y5688D01*
X6664Y5687D01*
X6666Y5687D01*
X6666Y5687D01*
X6667D01*
X6667Y5687D01*
X6668D01*
X6670Y5687D01*
X6672Y5687D01*
X6674Y5688D01*
X6675Y5688D01*
X6677Y5689D01*
X6677Y5690D01*
X6678Y5690D01*
X6678Y5690D01*
X6679Y5691D01*
X6680Y5692D01*
X6681Y5694D01*
X6682Y5696D01*
X6683Y5698D01*
X6683Y5700D01*
X6683Y5700D01*
X6684Y5701D01*
X6684Y5702D01*
X6684Y5702D01*
X6684Y5702D01*
Y5703D01*
X6694Y5701D01*
X6694Y5699D01*
X6693Y5698D01*
X6693Y5696D01*
X6692Y5694D01*
X6691Y5693D01*
X6691Y5692D01*
X6690Y5690D01*
X6689Y5689D01*
X6689Y5688D01*
X6688Y5687D01*
X6687Y5686D01*
X6687Y5686D01*
X6686Y5685D01*
X6686Y5685D01*
X6686Y5685D01*
X6686Y5685D01*
X6684Y5683D01*
X6683Y5683D01*
X6682Y5682D01*
X6680Y5681D01*
X6678Y5680D01*
X6677Y5680D01*
X6674Y5679D01*
X6673Y5679D01*
X6672Y5679D01*
X6671Y5679D01*
X6670Y5678D01*
X6669Y5678D01*
X6668D01*
X6666Y5678D01*
X6664Y5679D01*
X6662Y5679D01*
X6660Y5679D01*
X6658Y5680D01*
X6657Y5681D01*
X6655Y5681D01*
X6654Y5682D01*
X6653Y5683D01*
X6652Y5683D01*
X6651Y5684D01*
X6650Y5684D01*
X6649Y5685D01*
X6649Y5685D01*
X6649Y5685D01*
X6648Y5686D01*
X6647Y5687D01*
X6646Y5688D01*
X6645Y5690D01*
X6644Y5692D01*
X6643Y5693D01*
X6643Y5695D01*
X6642Y5696D01*
X6642Y5697D01*
X6641Y5699D01*
X6641Y5700D01*
X6641Y5701D01*
X6641Y5702D01*
X6641Y5703D01*
Y5703D01*
Y5704D01*
Y5704D01*
X6641Y5707D01*
X6641Y5709D01*
X6642Y5711D01*
X6643Y5713D01*
X6643Y5715D01*
X6644Y5715D01*
X6644Y5716D01*
X6644Y5716D01*
X6644Y5716D01*
X6645Y5717D01*
Y5717D01*
X6646Y5718D01*
X6648Y5720D01*
X6650Y5721D01*
X6652Y5722D01*
X6653Y5723D01*
X6654Y5723D01*
X6655Y5723D01*
X6655Y5723D01*
X6656Y5724D01*
X6656Y5724D01*
X6656D01*
X6654Y5725D01*
X6652Y5726D01*
X6651Y5727D01*
X6650Y5728D01*
X6649Y5729D01*
X6648Y5730D01*
X6648Y5730D01*
X6648Y5730D01*
X6647Y5732D01*
X6646Y5734D01*
X6645Y5735D01*
X6645Y5737D01*
X6645Y5738D01*
X6645Y5739D01*
Y5740D01*
Y5740D01*
Y5740D01*
X6645Y5742D01*
X6645Y5744D01*
X6646Y5746D01*
X6646Y5747D01*
X6647Y5749D01*
X6647Y5750D01*
X6648Y5750D01*
X6648Y5750D01*
Y5751D01*
X6649Y5752D01*
X6650Y5754D01*
X6652Y5755D01*
X6653Y5756D01*
X6654Y5757D01*
X6655Y5758D01*
X6656Y5758D01*
X6656Y5758D01*
X6656Y5758D01*
X6656D01*
X6658Y5759D01*
X6661Y5760D01*
X6663Y5761D01*
X6664Y5761D01*
X6666Y5761D01*
X6667D01*
X6667Y5761D01*
X6668D01*
X6670Y5761D01*
D02*
G37*
G36*
X6607D02*
X6609Y5761D01*
X6611Y5761D01*
X6613Y5760D01*
X6614Y5759D01*
X6616Y5759D01*
X6617Y5758D01*
X6618Y5757D01*
X6620Y5757D01*
X6621Y5756D01*
X6622Y5755D01*
X6622Y5755D01*
X6623Y5754D01*
X6623Y5754D01*
X6623Y5754D01*
X6624Y5754D01*
X6625Y5752D01*
X6626Y5751D01*
X6627Y5749D01*
X6628Y5747D01*
X6628Y5746D01*
X6629Y5744D01*
X6630Y5741D01*
X6630Y5739D01*
X6630Y5738D01*
X6631Y5737D01*
X6631Y5736D01*
X6631Y5735D01*
Y5734D01*
Y5734D01*
Y5734D01*
X6631Y5732D01*
X6630Y5730D01*
X6630Y5728D01*
X6630Y5726D01*
X6629Y5724D01*
X6629Y5722D01*
X6628Y5721D01*
X6627Y5720D01*
X6627Y5719D01*
X6626Y5717D01*
X6625Y5717D01*
X6625Y5716D01*
X6624Y5715D01*
X6624Y5715D01*
X6624Y5715D01*
X6624Y5715D01*
X6622Y5713D01*
X6621Y5712D01*
X6620Y5711D01*
X6618Y5710D01*
X6617Y5710D01*
X6615Y5709D01*
X6614Y5709D01*
X6613Y5708D01*
X6611Y5708D01*
X6610Y5708D01*
X6609Y5707D01*
X6608Y5707D01*
X6608Y5707D01*
X6607D01*
X6605Y5707D01*
X6602Y5708D01*
X6601Y5708D01*
X6599Y5709D01*
X6597Y5709D01*
X6597Y5710D01*
X6596Y5710D01*
X6596Y5710D01*
X6596Y5710D01*
X6596D01*
X6594Y5711D01*
X6592Y5713D01*
X6591Y5714D01*
X6590Y5715D01*
X6589Y5716D01*
X6588Y5717D01*
X6587Y5718D01*
X6587Y5718D01*
Y5717D01*
Y5716D01*
Y5716D01*
Y5716D01*
X6587Y5714D01*
X6588Y5711D01*
X6588Y5709D01*
X6588Y5707D01*
X6588Y5706D01*
X6588Y5705D01*
X6589Y5705D01*
X6589Y5704D01*
Y5704D01*
X6589Y5704D01*
Y5704D01*
X6589Y5702D01*
X6590Y5700D01*
X6591Y5698D01*
X6591Y5697D01*
X6592Y5696D01*
X6592Y5695D01*
X6592Y5694D01*
X6592Y5694D01*
X6593Y5693D01*
X6594Y5692D01*
X6595Y5691D01*
X6596Y5690D01*
X6597Y5689D01*
X6598Y5689D01*
X6598Y5689D01*
X6598Y5689D01*
X6600Y5688D01*
X6601Y5687D01*
X6602Y5687D01*
X6603Y5687D01*
X6605Y5687D01*
X6605Y5687D01*
X6606D01*
X6608Y5687D01*
X6610Y5687D01*
X6611Y5687D01*
X6613Y5688D01*
X6614Y5689D01*
X6614Y5689D01*
X6615Y5689D01*
X6615Y5689D01*
X6616Y5691D01*
X6617Y5692D01*
X6618Y5694D01*
X6619Y5696D01*
X6619Y5697D01*
X6619Y5698D01*
X6620Y5699D01*
Y5699D01*
X6620Y5699D01*
Y5699D01*
X6629Y5698D01*
X6629Y5697D01*
X6629Y5695D01*
X6628Y5694D01*
X6628Y5692D01*
X6627Y5691D01*
X6627Y5689D01*
X6626Y5688D01*
X6625Y5687D01*
X6625Y5687D01*
X6624Y5686D01*
X6624Y5685D01*
X6623Y5685D01*
X6623Y5684D01*
X6622Y5684D01*
X6622Y5684D01*
X6622Y5684D01*
X6621Y5683D01*
X6620Y5682D01*
X6618Y5681D01*
X6617Y5681D01*
X6614Y5680D01*
X6612Y5679D01*
X6611Y5679D01*
X6610Y5679D01*
X6609Y5679D01*
X6608Y5678D01*
X6607Y5678D01*
X6607D01*
X6605Y5678D01*
X6603Y5679D01*
X6600Y5679D01*
X6598Y5680D01*
X6595Y5681D01*
X6594Y5681D01*
X6593Y5682D01*
X6593Y5682D01*
X6592Y5682D01*
X6592Y5683D01*
X6591Y5683D01*
X6591Y5683D01*
X6591D01*
X6588Y5685D01*
X6586Y5687D01*
X6585Y5690D01*
X6583Y5692D01*
X6582Y5694D01*
X6582Y5695D01*
X6581Y5696D01*
X6581Y5696D01*
X6581Y5697D01*
X6581Y5697D01*
Y5697D01*
X6580Y5699D01*
X6580Y5701D01*
X6579Y5705D01*
X6578Y5709D01*
X6578Y5711D01*
X6578Y5713D01*
X6578Y5715D01*
X6578Y5717D01*
X6577Y5718D01*
X6577Y5719D01*
Y5720D01*
Y5721D01*
Y5722D01*
Y5722D01*
Y5725D01*
X6577Y5727D01*
X6578Y5730D01*
X6578Y5732D01*
X6578Y5734D01*
X6578Y5736D01*
X6579Y5737D01*
X6579Y5739D01*
X6579Y5740D01*
X6580Y5741D01*
X6580Y5742D01*
X6580Y5743D01*
X6581Y5744D01*
X6581Y5744D01*
X6581Y5745D01*
Y5745D01*
X6582Y5748D01*
X6584Y5750D01*
X6586Y5752D01*
X6587Y5754D01*
X6589Y5755D01*
X6590Y5756D01*
X6590Y5756D01*
X6590Y5757D01*
X6591Y5757D01*
X6591D01*
X6593Y5758D01*
X6596Y5759D01*
X6598Y5760D01*
X6601Y5761D01*
X6602Y5761D01*
X6603Y5761D01*
X6604D01*
X6605Y5761D01*
X6605D01*
X6607Y5761D01*
D02*
G37*
G36*
X6741Y5762D02*
X6744Y5762D01*
X6748Y5761D01*
X6749Y5760D01*
X6751Y5760D01*
X6752Y5759D01*
X6753Y5759D01*
X6754Y5758D01*
X6755Y5758D01*
X6755Y5758D01*
X6756Y5758D01*
X6756Y5757D01*
X6756Y5757D01*
X6758Y5756D01*
X6760Y5755D01*
X6762Y5753D01*
X6765Y5751D01*
X6767Y5748D01*
X6767Y5747D01*
X6768Y5746D01*
X6769Y5745D01*
X6769Y5745D01*
X6770Y5744D01*
X6770Y5743D01*
X6770Y5743D01*
X6770Y5743D01*
X6771Y5741D01*
X6772Y5739D01*
X6773Y5736D01*
X6774Y5732D01*
X6774Y5730D01*
X6774Y5728D01*
X6775Y5727D01*
X6775Y5725D01*
X6775Y5724D01*
Y5723D01*
X6775Y5722D01*
Y5721D01*
Y5721D01*
Y5721D01*
X6775Y5717D01*
X6774Y5713D01*
X6774Y5711D01*
X6774Y5709D01*
X6773Y5707D01*
X6773Y5706D01*
X6772Y5704D01*
X6772Y5703D01*
X6772Y5702D01*
X6771Y5701D01*
X6771Y5700D01*
X6771Y5700D01*
X6771Y5699D01*
Y5699D01*
X6770Y5697D01*
X6769Y5696D01*
X6768Y5694D01*
X6767Y5692D01*
X6766Y5691D01*
X6765Y5690D01*
X6764Y5689D01*
X6763Y5688D01*
X6762Y5687D01*
X6761Y5686D01*
X6760Y5685D01*
X6760Y5685D01*
X6759Y5684D01*
X6758Y5684D01*
X6758Y5684D01*
X6758Y5684D01*
X6757Y5683D01*
X6755Y5682D01*
X6753Y5681D01*
X6751Y5681D01*
X6748Y5680D01*
X6744Y5679D01*
X6743Y5679D01*
X6741Y5679D01*
X6740Y5679D01*
X6739Y5678D01*
X6738Y5678D01*
X6737D01*
X6734Y5678D01*
X6732Y5679D01*
X6730Y5679D01*
X6728Y5679D01*
X6726Y5680D01*
X6724Y5681D01*
X6723Y5681D01*
X6721Y5682D01*
X6720Y5682D01*
X6719Y5683D01*
X6718Y5684D01*
X6717Y5684D01*
X6716Y5685D01*
X6716Y5685D01*
X6715Y5685D01*
X6715Y5685D01*
X6714Y5687D01*
X6712Y5688D01*
X6711Y5690D01*
X6710Y5691D01*
X6709Y5693D01*
X6708Y5695D01*
X6707Y5696D01*
X6706Y5698D01*
X6705Y5699D01*
X6705Y5701D01*
X6704Y5702D01*
X6704Y5703D01*
X6703Y5704D01*
X6703Y5705D01*
X6703Y5705D01*
Y5705D01*
X6714Y5708D01*
X6714Y5706D01*
X6715Y5704D01*
X6715Y5703D01*
X6716Y5701D01*
X6717Y5700D01*
X6717Y5699D01*
X6718Y5698D01*
X6719Y5697D01*
X6720Y5696D01*
X6720Y5695D01*
X6721Y5694D01*
X6721Y5694D01*
X6722Y5693D01*
X6722Y5693D01*
X6722Y5693D01*
X6722Y5693D01*
X6724Y5692D01*
X6725Y5691D01*
X6726Y5690D01*
X6727Y5690D01*
X6730Y5689D01*
X6732Y5688D01*
X6733Y5688D01*
X6735Y5688D01*
X6735Y5688D01*
X6736Y5688D01*
X6737Y5687D01*
X6738D01*
X6740Y5688D01*
X6743Y5688D01*
X6745Y5689D01*
X6747Y5689D01*
X6749Y5690D01*
X6750Y5690D01*
X6750Y5691D01*
X6751Y5691D01*
X6751Y5691D01*
X6751Y5691D01*
X6752D01*
X6754Y5693D01*
X6756Y5695D01*
X6757Y5697D01*
X6759Y5698D01*
X6760Y5700D01*
X6760Y5701D01*
X6760Y5702D01*
X6761Y5702D01*
X6761Y5702D01*
X6761Y5703D01*
Y5703D01*
X6762Y5706D01*
X6763Y5709D01*
X6763Y5712D01*
X6763Y5715D01*
X6764Y5716D01*
Y5717D01*
X6764Y5718D01*
X6764Y5719D01*
Y5720D01*
Y5720D01*
Y5721D01*
Y5721D01*
X6764Y5724D01*
X6763Y5727D01*
X6763Y5729D01*
X6763Y5732D01*
X6762Y5733D01*
X6762Y5734D01*
X6762Y5735D01*
X6762Y5735D01*
X6762Y5736D01*
X6761Y5736D01*
X6761Y5736D01*
Y5737D01*
X6760Y5739D01*
X6759Y5742D01*
X6757Y5744D01*
X6756Y5745D01*
X6755Y5747D01*
X6754Y5748D01*
X6753Y5748D01*
X6753Y5748D01*
X6753Y5749D01*
X6753D01*
X6751Y5749D01*
X6750Y5750D01*
X6747Y5751D01*
X6745Y5752D01*
X6742Y5753D01*
X6741Y5753D01*
X6740Y5753D01*
X6739Y5753D01*
X6738D01*
X6738Y5753D01*
X6737D01*
X6734Y5753D01*
X6731Y5752D01*
X6729Y5752D01*
X6727Y5751D01*
X6725Y5750D01*
X6725Y5750D01*
X6724Y5750D01*
X6724Y5749D01*
X6723Y5749D01*
X6723Y5749D01*
X6723D01*
X6722Y5748D01*
X6721Y5747D01*
X6720Y5745D01*
X6718Y5743D01*
X6717Y5741D01*
X6716Y5739D01*
X6716Y5738D01*
X6715Y5738D01*
X6715Y5737D01*
X6715Y5737D01*
X6715Y5736D01*
Y5736D01*
X6704Y5739D01*
X6705Y5741D01*
X6706Y5743D01*
X6707Y5744D01*
X6708Y5746D01*
X6709Y5748D01*
X6710Y5749D01*
X6711Y5750D01*
X6711Y5752D01*
X6712Y5753D01*
X6713Y5754D01*
X6714Y5754D01*
X6715Y5755D01*
X6715Y5755D01*
X6716Y5756D01*
X6716Y5756D01*
X6716Y5756D01*
X6718Y5757D01*
X6719Y5758D01*
X6721Y5759D01*
X6723Y5760D01*
X6725Y5760D01*
X6726Y5761D01*
X6729Y5762D01*
X6731Y5762D01*
X6732Y5762D01*
X6734Y5762D01*
X6735Y5762D01*
X6735Y5762D01*
X6739D01*
X6741Y5762D01*
D02*
G37*
G36*
X5660Y5909D02*
X5624D01*
Y5895D01*
X5624Y5894D01*
Y5893D01*
X5624Y5892D01*
X5624Y5892D01*
Y5891D01*
X5624Y5891D01*
Y5891D01*
X5625Y5889D01*
X5625Y5888D01*
X5626Y5887D01*
X5626Y5887D01*
X5626Y5886D01*
X5627Y5886D01*
X5627Y5886D01*
X5627Y5885D01*
X5628Y5884D01*
X5629Y5883D01*
X5630Y5882D01*
X5631Y5882D01*
X5631Y5881D01*
X5632Y5881D01*
X5632Y5880D01*
X5634Y5879D01*
X5635Y5878D01*
X5637Y5877D01*
X5639Y5875D01*
X5641Y5874D01*
X5641Y5874D01*
X5642Y5873D01*
X5642Y5873D01*
X5643Y5873D01*
X5643Y5873D01*
X5643D01*
X5660Y5862D01*
Y5848D01*
X5638Y5863D01*
X5636Y5864D01*
X5634Y5866D01*
X5632Y5867D01*
X5630Y5869D01*
X5629Y5870D01*
X5628Y5871D01*
X5627Y5871D01*
X5627Y5871D01*
Y5872D01*
X5627Y5872D01*
X5626Y5873D01*
X5624Y5876D01*
X5624Y5876D01*
X5623Y5877D01*
X5623Y5878D01*
X5623Y5878D01*
X5623Y5876D01*
X5622Y5874D01*
X5622Y5872D01*
X5621Y5870D01*
X5621Y5869D01*
X5620Y5867D01*
X5619Y5866D01*
X5619Y5865D01*
X5618Y5864D01*
X5618Y5863D01*
X5617Y5862D01*
X5617Y5862D01*
X5616Y5861D01*
X5616Y5861D01*
X5616Y5861D01*
X5616Y5861D01*
X5614Y5860D01*
X5613Y5859D01*
X5612Y5858D01*
X5611Y5857D01*
X5608Y5856D01*
X5606Y5856D01*
X5604Y5855D01*
X5603Y5855D01*
X5603Y5855D01*
X5602Y5855D01*
X5601D01*
X5601D01*
X5601D01*
X5599Y5855D01*
X5596Y5856D01*
X5594Y5856D01*
X5592Y5857D01*
X5591Y5857D01*
X5590Y5858D01*
X5589Y5858D01*
X5589Y5858D01*
X5589Y5858D01*
X5589D01*
X5587Y5860D01*
X5585Y5861D01*
X5584Y5863D01*
X5583Y5864D01*
X5582Y5865D01*
X5581Y5867D01*
X5581Y5867D01*
X5581Y5867D01*
X5581Y5867D01*
Y5867D01*
X5581Y5869D01*
X5580Y5870D01*
X5580Y5872D01*
X5579Y5875D01*
X5579Y5878D01*
X5579Y5879D01*
X5579Y5880D01*
Y5881D01*
X5579Y5882D01*
Y5920D01*
X5660D01*
Y5909D01*
D02*
G37*
G36*
X5641Y5810D02*
X5660D01*
Y5800D01*
X5641D01*
Y5789D01*
X5631D01*
Y5800D01*
X5579D01*
Y5808D01*
X5631Y5846D01*
X5641D01*
Y5810D01*
D02*
G37*
G36*
X5638Y5779D02*
X5640Y5779D01*
X5642Y5779D01*
X5644Y5778D01*
X5645Y5777D01*
X5647Y5777D01*
X5648Y5776D01*
X5649Y5775D01*
X5650Y5775D01*
X5651Y5774D01*
X5652Y5774D01*
X5653Y5773D01*
X5654Y5772D01*
X5654Y5772D01*
X5654Y5772D01*
X5654Y5772D01*
X5656Y5770D01*
X5657Y5769D01*
X5658Y5767D01*
X5658Y5766D01*
X5659Y5764D01*
X5660Y5762D01*
X5661Y5759D01*
X5661Y5758D01*
X5661Y5757D01*
X5661Y5755D01*
X5661Y5754D01*
X5661Y5754D01*
Y5752D01*
X5661Y5750D01*
X5661Y5748D01*
X5661Y5746D01*
X5660Y5744D01*
X5660Y5743D01*
X5659Y5741D01*
X5659Y5740D01*
X5658Y5738D01*
X5657Y5737D01*
X5657Y5736D01*
X5656Y5735D01*
X5655Y5734D01*
X5655Y5734D01*
X5655Y5733D01*
X5654Y5733D01*
X5654Y5733D01*
X5653Y5732D01*
X5652Y5731D01*
X5650Y5730D01*
X5649Y5729D01*
X5647Y5728D01*
X5646Y5727D01*
X5644Y5727D01*
X5643Y5727D01*
X5642Y5726D01*
X5641Y5726D01*
X5640Y5726D01*
X5639Y5726D01*
X5638Y5726D01*
X5637D01*
X5637D01*
X5637D01*
X5634Y5726D01*
X5632Y5726D01*
X5629Y5727D01*
X5627Y5728D01*
X5626Y5728D01*
X5625Y5729D01*
X5625Y5729D01*
X5624Y5729D01*
X5624Y5729D01*
X5624Y5730D01*
X5624D01*
X5622Y5731D01*
X5620Y5733D01*
X5619Y5735D01*
X5618Y5737D01*
X5617Y5738D01*
X5617Y5739D01*
X5616Y5740D01*
X5616Y5740D01*
X5616Y5741D01*
X5616Y5741D01*
Y5741D01*
X5615Y5739D01*
X5614Y5737D01*
X5613Y5736D01*
X5612Y5734D01*
X5611Y5733D01*
X5610Y5733D01*
X5610Y5732D01*
X5610Y5732D01*
X5608Y5731D01*
X5606Y5730D01*
X5605Y5730D01*
X5603Y5729D01*
X5602Y5729D01*
X5601Y5729D01*
X5600D01*
X5600D01*
X5600D01*
X5600D01*
X5598Y5729D01*
X5596Y5729D01*
X5595Y5730D01*
X5594Y5730D01*
X5591Y5731D01*
X5589Y5732D01*
X5588Y5733D01*
X5587Y5733D01*
X5586Y5734D01*
X5586Y5734D01*
X5585Y5735D01*
X5585Y5735D01*
X5585Y5735D01*
X5585Y5736D01*
X5584Y5737D01*
X5583Y5738D01*
X5582Y5740D01*
X5581Y5741D01*
X5580Y5742D01*
X5580Y5744D01*
X5579Y5747D01*
X5579Y5748D01*
X5579Y5749D01*
X5579Y5750D01*
X5579Y5751D01*
X5578Y5752D01*
Y5753D01*
X5579Y5755D01*
X5579Y5756D01*
X5579Y5758D01*
X5579Y5760D01*
X5580Y5761D01*
X5580Y5763D01*
X5581Y5764D01*
X5581Y5765D01*
X5582Y5766D01*
X5583Y5767D01*
X5583Y5768D01*
X5584Y5768D01*
X5584Y5769D01*
X5584Y5769D01*
X5584Y5769D01*
X5585Y5770D01*
X5586Y5771D01*
X5587Y5772D01*
X5588Y5772D01*
X5589Y5773D01*
X5591Y5774D01*
X5592Y5774D01*
X5594Y5775D01*
X5596Y5776D01*
X5597Y5776D01*
X5598Y5776D01*
X5599Y5776D01*
X5599D01*
X5599D01*
X5599D01*
X5602Y5776D01*
X5603Y5775D01*
X5605Y5775D01*
X5607Y5774D01*
X5608Y5774D01*
X5609Y5773D01*
X5609Y5773D01*
X5609Y5773D01*
X5611Y5772D01*
X5612Y5770D01*
X5613Y5769D01*
X5614Y5767D01*
X5615Y5766D01*
X5616Y5765D01*
X5616Y5764D01*
X5616Y5764D01*
X5616Y5764D01*
Y5764D01*
X5617Y5766D01*
X5618Y5769D01*
X5619Y5771D01*
X5620Y5772D01*
X5622Y5773D01*
X5622Y5774D01*
X5623Y5775D01*
X5623Y5775D01*
X5623D01*
X5625Y5777D01*
X5628Y5777D01*
X5630Y5778D01*
X5632Y5779D01*
X5634Y5779D01*
X5635Y5779D01*
X5635D01*
X5636Y5779D01*
X5636D01*
X5636D01*
X5637D01*
X5638Y5779D01*
D02*
G37*
G36*
X4301Y8371D02*
X4303Y8371D01*
X4305Y8371D01*
X4307Y8371D01*
X4308Y8370D01*
X4310Y8370D01*
X4311Y8369D01*
X4313Y8369D01*
X4314Y8368D01*
X4315Y8367D01*
X4316Y8367D01*
X4316Y8367D01*
X4317Y8366D01*
X4317Y8366D01*
X4317Y8366D01*
X4318Y8366D01*
X4319Y8364D01*
X4320Y8363D01*
X4321Y8362D01*
X4322Y8360D01*
X4322Y8359D01*
X4323Y8357D01*
X4324Y8355D01*
X4324Y8353D01*
X4325Y8352D01*
X4325Y8351D01*
X4325Y8350D01*
X4325Y8349D01*
Y8349D01*
X4325Y8348D01*
Y8348D01*
X4315Y8347D01*
X4315Y8350D01*
X4314Y8352D01*
X4314Y8354D01*
X4313Y8356D01*
X4312Y8357D01*
X4311Y8358D01*
X4311Y8359D01*
X4311Y8359D01*
X4309Y8360D01*
X4307Y8362D01*
X4305Y8362D01*
X4303Y8363D01*
X4302Y8363D01*
X4301Y8363D01*
X4300D01*
X4300Y8363D01*
X4299D01*
X4297Y8363D01*
X4295Y8363D01*
X4293Y8362D01*
X4291Y8361D01*
X4290Y8360D01*
X4289Y8360D01*
X4288Y8359D01*
X4288Y8359D01*
X4287Y8358D01*
X4286Y8356D01*
X4285Y8354D01*
X4284Y8353D01*
X4284Y8351D01*
X4284Y8350D01*
X4284Y8350D01*
Y8350D01*
Y8349D01*
Y8349D01*
Y8348D01*
X4284Y8347D01*
X4285Y8345D01*
X4285Y8343D01*
X4286Y8341D01*
X4287Y8340D01*
X4288Y8339D01*
X4288Y8338D01*
X4288Y8338D01*
X4288Y8338D01*
X4288Y8337D01*
X4289Y8337D01*
X4290Y8336D01*
X4291Y8335D01*
X4292Y8333D01*
X4293Y8332D01*
X4296Y8329D01*
X4299Y8326D01*
X4301Y8325D01*
X4302Y8324D01*
X4303Y8323D01*
X4304Y8322D01*
X4305Y8321D01*
X4306Y8321D01*
X4306Y8320D01*
X4306Y8320D01*
X4309Y8317D01*
X4312Y8315D01*
X4314Y8313D01*
X4316Y8311D01*
X4318Y8310D01*
X4319Y8309D01*
X4319Y8308D01*
X4319Y8308D01*
X4319Y8308D01*
X4320Y8308D01*
X4321Y8306D01*
X4322Y8304D01*
X4324Y8302D01*
X4325Y8300D01*
X4325Y8299D01*
X4326Y8298D01*
X4326Y8297D01*
X4326Y8297D01*
X4326Y8297D01*
Y8297D01*
X4327Y8296D01*
X4327Y8294D01*
X4327Y8293D01*
X4327Y8292D01*
X4327Y8291D01*
Y8291D01*
Y8290D01*
Y8290D01*
X4273D01*
Y8300D01*
X4313D01*
X4312Y8302D01*
X4311Y8302D01*
X4311Y8303D01*
X4310Y8304D01*
X4310Y8304D01*
X4309Y8305D01*
X4309Y8305D01*
X4309Y8305D01*
X4308Y8306D01*
X4307Y8307D01*
X4306Y8308D01*
X4304Y8309D01*
X4302Y8311D01*
X4301Y8313D01*
X4300Y8313D01*
X4299Y8314D01*
X4299Y8314D01*
X4298Y8315D01*
X4298Y8315D01*
X4298Y8315D01*
X4296Y8317D01*
X4294Y8318D01*
X4292Y8320D01*
X4291Y8321D01*
X4289Y8322D01*
X4288Y8324D01*
X4287Y8325D01*
X4286Y8326D01*
X4285Y8327D01*
X4284Y8327D01*
X4284Y8328D01*
X4283Y8328D01*
X4283Y8329D01*
X4282Y8329D01*
X4282Y8329D01*
Y8329D01*
X4281Y8331D01*
X4279Y8333D01*
X4278Y8335D01*
X4277Y8336D01*
X4276Y8338D01*
X4276Y8339D01*
X4276Y8339D01*
X4276Y8339D01*
X4275Y8341D01*
X4274Y8343D01*
X4274Y8345D01*
X4274Y8346D01*
X4274Y8347D01*
X4274Y8348D01*
Y8349D01*
Y8349D01*
X4274Y8351D01*
X4274Y8352D01*
X4274Y8354D01*
X4275Y8356D01*
X4276Y8358D01*
X4276Y8360D01*
X4277Y8361D01*
X4278Y8362D01*
X4278Y8362D01*
X4279Y8363D01*
X4279Y8364D01*
X4280Y8364D01*
X4280Y8365D01*
X4280Y8365D01*
X4280Y8365D01*
X4282Y8366D01*
X4283Y8367D01*
X4285Y8368D01*
X4286Y8369D01*
X4288Y8369D01*
X4289Y8370D01*
X4292Y8371D01*
X4294Y8371D01*
X4295Y8371D01*
X4296Y8371D01*
X4297Y8371D01*
X4298Y8372D01*
X4299D01*
X4301Y8371D01*
D02*
G37*
G36*
X4359Y8370D02*
X4360Y8368D01*
X4362Y8366D01*
X4363Y8364D01*
X4365Y8363D01*
X4366Y8362D01*
X4366Y8361D01*
X4366Y8361D01*
X4367Y8361D01*
X4367Y8361D01*
X4369Y8359D01*
X4372Y8357D01*
X4374Y8355D01*
X4376Y8354D01*
X4378Y8353D01*
X4379Y8352D01*
X4380Y8352D01*
X4380Y8352D01*
X4381Y8351D01*
X4381Y8351D01*
X4381D01*
Y8341D01*
X4379Y8342D01*
X4378Y8343D01*
X4376Y8344D01*
X4374Y8345D01*
X4373Y8345D01*
X4372Y8346D01*
X4371Y8346D01*
X4371Y8347D01*
X4371Y8347D01*
X4371D01*
X4369Y8348D01*
X4367Y8349D01*
X4365Y8350D01*
X4364Y8351D01*
X4363Y8352D01*
X4362Y8353D01*
X4361Y8353D01*
X4361Y8354D01*
Y8290D01*
X4351D01*
Y8372D01*
X4358D01*
X4359Y8370D01*
D02*
G37*
G36*
X4436Y8372D02*
X4439Y8372D01*
X4443Y8371D01*
X4444Y8371D01*
X4446Y8370D01*
X4447Y8370D01*
X4448Y8369D01*
X4449Y8369D01*
X4450Y8368D01*
X4450Y8368D01*
X4451Y8368D01*
X4451Y8368D01*
X4451Y8368D01*
X4453Y8367D01*
X4455Y8366D01*
X4457Y8363D01*
X4460Y8361D01*
X4462Y8359D01*
X4462Y8358D01*
X4463Y8357D01*
X4464Y8356D01*
X4464Y8355D01*
X4465Y8354D01*
X4465Y8354D01*
X4465Y8353D01*
X4465Y8353D01*
X4466Y8351D01*
X4467Y8350D01*
X4468Y8346D01*
X4469Y8342D01*
X4469Y8340D01*
X4469Y8339D01*
X4470Y8337D01*
X4470Y8336D01*
X4470Y8334D01*
Y8333D01*
X4470Y8332D01*
Y8332D01*
Y8331D01*
Y8331D01*
X4470Y8327D01*
X4469Y8323D01*
X4469Y8321D01*
X4469Y8319D01*
X4468Y8318D01*
X4468Y8316D01*
X4467Y8315D01*
X4467Y8313D01*
X4467Y8312D01*
X4466Y8311D01*
X4466Y8310D01*
X4466Y8310D01*
X4466Y8310D01*
Y8309D01*
X4465Y8308D01*
X4464Y8306D01*
X4463Y8304D01*
X4462Y8303D01*
X4461Y8301D01*
X4460Y8300D01*
X4459Y8299D01*
X4458Y8298D01*
X4457Y8297D01*
X4456Y8296D01*
X4455Y8295D01*
X4455Y8295D01*
X4454Y8294D01*
X4454Y8294D01*
X4453Y8294D01*
X4453Y8294D01*
X4452Y8293D01*
X4450Y8292D01*
X4448Y8291D01*
X4446Y8291D01*
X4443Y8290D01*
X4439Y8289D01*
X4438Y8289D01*
X4436Y8289D01*
X4435Y8289D01*
X4434Y8289D01*
X4433Y8289D01*
X4432D01*
X4429Y8289D01*
X4427Y8289D01*
X4425Y8289D01*
X4423Y8290D01*
X4421Y8290D01*
X4419Y8291D01*
X4418Y8291D01*
X4416Y8292D01*
X4415Y8293D01*
X4414Y8293D01*
X4413Y8294D01*
X4412Y8294D01*
X4411Y8295D01*
X4411Y8295D01*
X4410Y8295D01*
X4410Y8295D01*
X4409Y8297D01*
X4407Y8298D01*
X4406Y8300D01*
X4405Y8302D01*
X4404Y8303D01*
X4403Y8305D01*
X4402Y8307D01*
X4401Y8308D01*
X4400Y8310D01*
X4400Y8311D01*
X4399Y8312D01*
X4399Y8313D01*
X4398Y8314D01*
X4398Y8315D01*
X4398Y8316D01*
Y8316D01*
X4409Y8318D01*
X4409Y8317D01*
X4410Y8315D01*
X4411Y8313D01*
X4411Y8312D01*
X4412Y8310D01*
X4413Y8309D01*
X4413Y8308D01*
X4414Y8307D01*
X4415Y8306D01*
X4415Y8305D01*
X4416Y8304D01*
X4416Y8304D01*
X4417Y8304D01*
X4417Y8303D01*
X4417Y8303D01*
X4417Y8303D01*
X4419Y8302D01*
X4420Y8301D01*
X4421Y8301D01*
X4422Y8300D01*
X4425Y8299D01*
X4427Y8298D01*
X4428Y8298D01*
X4430Y8298D01*
X4430Y8298D01*
X4431Y8298D01*
X4432Y8298D01*
X4433D01*
X4435Y8298D01*
X4438Y8298D01*
X4440Y8299D01*
X4442Y8300D01*
X4444Y8300D01*
X4445Y8301D01*
X4445Y8301D01*
X4446Y8301D01*
X4446Y8301D01*
X4446Y8302D01*
X4447D01*
X4449Y8303D01*
X4451Y8305D01*
X4452Y8307D01*
X4454Y8309D01*
X4455Y8310D01*
X4455Y8311D01*
X4455Y8312D01*
X4456Y8312D01*
X4456Y8313D01*
X4456Y8313D01*
Y8313D01*
X4457Y8316D01*
X4458Y8319D01*
X4458Y8322D01*
X4458Y8325D01*
X4459Y8326D01*
Y8328D01*
X4459Y8329D01*
X4459Y8330D01*
Y8330D01*
Y8331D01*
Y8331D01*
Y8331D01*
X4459Y8334D01*
X4458Y8337D01*
X4458Y8340D01*
X4458Y8342D01*
X4457Y8343D01*
X4457Y8344D01*
X4457Y8345D01*
X4457Y8346D01*
X4457Y8346D01*
X4456Y8347D01*
X4456Y8347D01*
Y8347D01*
X4455Y8350D01*
X4454Y8352D01*
X4452Y8354D01*
X4451Y8356D01*
X4450Y8357D01*
X4449Y8358D01*
X4448Y8358D01*
X4448Y8359D01*
X4448Y8359D01*
X4448D01*
X4446Y8360D01*
X4445Y8360D01*
X4442Y8362D01*
X4440Y8362D01*
X4437Y8363D01*
X4436Y8363D01*
X4435Y8363D01*
X4434Y8363D01*
X4433D01*
X4433Y8363D01*
X4432D01*
X4429Y8363D01*
X4426Y8363D01*
X4424Y8362D01*
X4422Y8361D01*
X4420Y8361D01*
X4420Y8360D01*
X4419Y8360D01*
X4419Y8360D01*
X4418Y8360D01*
X4418Y8359D01*
X4418D01*
X4417Y8358D01*
X4416Y8358D01*
X4415Y8356D01*
X4413Y8354D01*
X4412Y8351D01*
X4411Y8349D01*
X4411Y8349D01*
X4411Y8348D01*
X4410Y8347D01*
X4410Y8347D01*
X4410Y8347D01*
Y8346D01*
X4399Y8349D01*
X4400Y8351D01*
X4401Y8353D01*
X4402Y8355D01*
X4403Y8356D01*
X4404Y8358D01*
X4405Y8359D01*
X4406Y8361D01*
X4406Y8362D01*
X4407Y8363D01*
X4408Y8364D01*
X4409Y8365D01*
X4410Y8365D01*
X4410Y8366D01*
X4411Y8366D01*
X4411Y8366D01*
X4411Y8366D01*
X4413Y8367D01*
X4414Y8369D01*
X4416Y8369D01*
X4418Y8370D01*
X4420Y8371D01*
X4421Y8371D01*
X4424Y8372D01*
X4426Y8372D01*
X4427Y8372D01*
X4429Y8372D01*
X4430Y8373D01*
X4430Y8373D01*
X4434D01*
X4436Y8372D01*
D02*
G37*
G36*
X4079Y8370D02*
X4080Y8368D01*
X4082Y8366D01*
X4083Y8364D01*
X4085Y8363D01*
X4086Y8362D01*
X4086Y8361D01*
X4086Y8361D01*
X4087Y8361D01*
X4087Y8361D01*
X4089Y8359D01*
X4092Y8357D01*
X4094Y8355D01*
X4096Y8354D01*
X4098Y8353D01*
X4099Y8352D01*
X4100Y8352D01*
X4100Y8352D01*
X4101Y8351D01*
X4101Y8351D01*
X4101D01*
Y8341D01*
X4099Y8342D01*
X4098Y8343D01*
X4096Y8344D01*
X4094Y8345D01*
X4093Y8345D01*
X4092Y8346D01*
X4091Y8346D01*
X4091Y8347D01*
X4091Y8347D01*
X4091D01*
X4089Y8348D01*
X4087Y8349D01*
X4085Y8350D01*
X4084Y8351D01*
X4083Y8352D01*
X4082Y8353D01*
X4081Y8353D01*
X4081Y8354D01*
Y8290D01*
X4071D01*
Y8372D01*
X4078D01*
X4079Y8370D01*
D02*
G37*
G36*
X4156Y8372D02*
X4159Y8372D01*
X4163Y8371D01*
X4164Y8371D01*
X4166Y8370D01*
X4167Y8370D01*
X4168Y8369D01*
X4169Y8369D01*
X4170Y8368D01*
X4170Y8368D01*
X4171Y8368D01*
X4171Y8368D01*
X4171Y8368D01*
X4173Y8367D01*
X4175Y8366D01*
X4177Y8363D01*
X4180Y8361D01*
X4182Y8359D01*
X4182Y8358D01*
X4183Y8357D01*
X4184Y8356D01*
X4184Y8355D01*
X4185Y8354D01*
X4185Y8354D01*
X4185Y8353D01*
X4185Y8353D01*
X4186Y8351D01*
X4187Y8350D01*
X4188Y8346D01*
X4189Y8342D01*
X4189Y8340D01*
X4189Y8339D01*
X4190Y8337D01*
X4190Y8336D01*
X4190Y8334D01*
Y8333D01*
X4190Y8332D01*
Y8332D01*
Y8331D01*
Y8331D01*
X4190Y8327D01*
X4189Y8323D01*
X4189Y8321D01*
X4189Y8319D01*
X4188Y8318D01*
X4188Y8316D01*
X4187Y8315D01*
X4187Y8313D01*
X4187Y8312D01*
X4186Y8311D01*
X4186Y8310D01*
X4186Y8310D01*
X4186Y8310D01*
Y8309D01*
X4185Y8308D01*
X4184Y8306D01*
X4183Y8304D01*
X4182Y8303D01*
X4181Y8301D01*
X4180Y8300D01*
X4179Y8299D01*
X4178Y8298D01*
X4177Y8297D01*
X4176Y8296D01*
X4175Y8295D01*
X4175Y8295D01*
X4174Y8294D01*
X4174Y8294D01*
X4173Y8294D01*
X4173Y8294D01*
X4172Y8293D01*
X4170Y8292D01*
X4168Y8291D01*
X4166Y8291D01*
X4163Y8290D01*
X4159Y8289D01*
X4158Y8289D01*
X4156Y8289D01*
X4155Y8289D01*
X4154Y8289D01*
X4153Y8289D01*
X4152D01*
X4149Y8289D01*
X4147Y8289D01*
X4145Y8289D01*
X4143Y8290D01*
X4141Y8290D01*
X4139Y8291D01*
X4138Y8291D01*
X4136Y8292D01*
X4135Y8293D01*
X4134Y8293D01*
X4133Y8294D01*
X4132Y8294D01*
X4131Y8295D01*
X4131Y8295D01*
X4130Y8295D01*
X4130Y8295D01*
X4129Y8297D01*
X4127Y8298D01*
X4126Y8300D01*
X4125Y8302D01*
X4124Y8303D01*
X4123Y8305D01*
X4122Y8307D01*
X4121Y8308D01*
X4120Y8310D01*
X4120Y8311D01*
X4119Y8312D01*
X4119Y8313D01*
X4118Y8314D01*
X4118Y8315D01*
X4118Y8316D01*
Y8316D01*
X4129Y8318D01*
X4129Y8317D01*
X4130Y8315D01*
X4131Y8313D01*
X4131Y8312D01*
X4132Y8310D01*
X4133Y8309D01*
X4133Y8308D01*
X4134Y8307D01*
X4135Y8306D01*
X4135Y8305D01*
X4136Y8304D01*
X4136Y8304D01*
X4137Y8304D01*
X4137Y8303D01*
X4137Y8303D01*
X4137Y8303D01*
X4139Y8302D01*
X4140Y8301D01*
X4141Y8301D01*
X4142Y8300D01*
X4145Y8299D01*
X4147Y8298D01*
X4148Y8298D01*
X4150Y8298D01*
X4150Y8298D01*
X4151Y8298D01*
X4152Y8298D01*
X4153D01*
X4155Y8298D01*
X4158Y8298D01*
X4160Y8299D01*
X4162Y8300D01*
X4164Y8300D01*
X4165Y8301D01*
X4165Y8301D01*
X4166Y8301D01*
X4166Y8301D01*
X4166Y8302D01*
X4167D01*
X4169Y8303D01*
X4171Y8305D01*
X4172Y8307D01*
X4174Y8309D01*
X4175Y8310D01*
X4175Y8311D01*
X4175Y8312D01*
X4176Y8312D01*
X4176Y8313D01*
X4176Y8313D01*
Y8313D01*
X4177Y8316D01*
X4178Y8319D01*
X4178Y8322D01*
X4178Y8325D01*
X4179Y8326D01*
Y8328D01*
X4179Y8329D01*
X4179Y8330D01*
Y8330D01*
Y8331D01*
Y8331D01*
Y8331D01*
X4179Y8334D01*
X4178Y8337D01*
X4178Y8340D01*
X4178Y8342D01*
X4177Y8343D01*
X4177Y8344D01*
X4177Y8345D01*
X4177Y8346D01*
X4177Y8346D01*
X4176Y8347D01*
X4176Y8347D01*
Y8347D01*
X4175Y8350D01*
X4174Y8352D01*
X4172Y8354D01*
X4171Y8356D01*
X4170Y8357D01*
X4169Y8358D01*
X4168Y8358D01*
X4168Y8359D01*
X4168Y8359D01*
X4168D01*
X4166Y8360D01*
X4165Y8360D01*
X4162Y8362D01*
X4160Y8362D01*
X4157Y8363D01*
X4156Y8363D01*
X4155Y8363D01*
X4154Y8363D01*
X4153D01*
X4153Y8363D01*
X4152D01*
X4149Y8363D01*
X4146Y8363D01*
X4144Y8362D01*
X4142Y8361D01*
X4140Y8361D01*
X4140Y8360D01*
X4139Y8360D01*
X4139Y8360D01*
X4138Y8360D01*
X4138Y8359D01*
X4138D01*
X4137Y8358D01*
X4136Y8358D01*
X4135Y8356D01*
X4133Y8354D01*
X4132Y8351D01*
X4131Y8349D01*
X4131Y8349D01*
X4131Y8348D01*
X4130Y8347D01*
X4130Y8347D01*
X4130Y8347D01*
Y8346D01*
X4119Y8349D01*
X4120Y8351D01*
X4121Y8353D01*
X4122Y8355D01*
X4123Y8356D01*
X4124Y8358D01*
X4125Y8359D01*
X4126Y8361D01*
X4126Y8362D01*
X4127Y8363D01*
X4128Y8364D01*
X4129Y8365D01*
X4130Y8365D01*
X4130Y8366D01*
X4131Y8366D01*
X4131Y8366D01*
X4131Y8366D01*
X4133Y8367D01*
X4134Y8369D01*
X4136Y8369D01*
X4138Y8370D01*
X4140Y8371D01*
X4141Y8371D01*
X4144Y8372D01*
X4146Y8372D01*
X4147Y8372D01*
X4149Y8372D01*
X4150Y8373D01*
X4150Y8373D01*
X4154D01*
X4156Y8372D01*
D02*
G37*
G36*
X4023Y8371D02*
X4025Y8371D01*
X4028Y8370D01*
X4030Y8369D01*
X4031Y8369D01*
X4032Y8368D01*
X4032Y8368D01*
X4033Y8368D01*
X4033Y8367D01*
X4034Y8367D01*
X4034Y8367D01*
X4034Y8367D01*
X4036Y8365D01*
X4038Y8363D01*
X4039Y8360D01*
X4041Y8358D01*
X4042Y8356D01*
X4042Y8355D01*
X4042Y8355D01*
X4042Y8354D01*
X4043Y8354D01*
X4043Y8353D01*
Y8353D01*
X4043Y8351D01*
X4044Y8350D01*
X4045Y8346D01*
X4045Y8342D01*
X4045Y8338D01*
X4046Y8337D01*
Y8335D01*
X4046Y8334D01*
X4046Y8332D01*
Y8331D01*
Y8331D01*
Y8330D01*
Y8330D01*
X4046Y8326D01*
X4045Y8322D01*
X4045Y8319D01*
X4045Y8315D01*
X4044Y8312D01*
X4043Y8310D01*
X4042Y8307D01*
X4042Y8305D01*
X4041Y8303D01*
X4040Y8301D01*
X4040Y8300D01*
X4039Y8299D01*
X4039Y8298D01*
X4038Y8298D01*
X4038Y8297D01*
X4038Y8297D01*
X4036Y8295D01*
X4035Y8294D01*
X4034Y8293D01*
X4032Y8292D01*
X4031Y8291D01*
X4029Y8291D01*
X4027Y8290D01*
X4026Y8290D01*
X4025Y8289D01*
X4023Y8289D01*
X4022Y8289D01*
X4021Y8289D01*
X4021D01*
X4020Y8289D01*
X4019D01*
X4018Y8289D01*
X4016Y8289D01*
X4013Y8289D01*
X4011Y8290D01*
X4009Y8291D01*
X4008Y8291D01*
X4007Y8292D01*
X4006Y8292D01*
X4006Y8293D01*
X4005Y8293D01*
X4005Y8293D01*
X4005Y8293D01*
X4005D01*
X4003Y8295D01*
X4001Y8298D01*
X3999Y8300D01*
X3998Y8302D01*
X3997Y8304D01*
X3997Y8305D01*
X3996Y8305D01*
X3996Y8306D01*
X3996Y8306D01*
X3996Y8307D01*
Y8307D01*
X3995Y8309D01*
X3995Y8310D01*
X3994Y8314D01*
X3994Y8318D01*
X3993Y8322D01*
X3993Y8323D01*
X3993Y8325D01*
Y8326D01*
X3993Y8328D01*
Y8329D01*
Y8329D01*
Y8330D01*
Y8330D01*
Y8332D01*
X3993Y8334D01*
X3993Y8336D01*
X3993Y8338D01*
X3993Y8340D01*
X3993Y8341D01*
X3994Y8343D01*
X3994Y8344D01*
X3994Y8345D01*
X3994Y8346D01*
X3994Y8347D01*
X3994Y8348D01*
X3995Y8348D01*
X3995Y8349D01*
X3995Y8349D01*
Y8349D01*
X3995Y8352D01*
X3996Y8354D01*
X3997Y8356D01*
X3998Y8358D01*
X3999Y8359D01*
X3999Y8360D01*
X3999Y8361D01*
X4000Y8361D01*
X4000Y8361D01*
Y8361D01*
X4001Y8363D01*
X4002Y8365D01*
X4004Y8366D01*
X4005Y8367D01*
X4006Y8368D01*
X4007Y8368D01*
X4008Y8369D01*
X4008Y8369D01*
X4008D01*
X4010Y8370D01*
X4012Y8370D01*
X4014Y8371D01*
X4015Y8371D01*
X4017Y8371D01*
X4018D01*
X4018Y8372D01*
X4021D01*
X4023Y8371D01*
D02*
G37*
G36*
X7412Y8341D02*
X7414Y8341D01*
X7417Y8341D01*
X7420Y8340D01*
X7421Y8339D01*
X7422Y8339D01*
X7423Y8338D01*
X7424Y8338D01*
X7425Y8337D01*
X7425Y8337D01*
X7426Y8337D01*
X7426Y8336D01*
X7426Y8336D01*
X7427Y8336D01*
X7428Y8335D01*
X7429Y8334D01*
X7431Y8331D01*
X7432Y8329D01*
X7433Y8326D01*
X7434Y8325D01*
X7434Y8324D01*
X7434Y8323D01*
X7434Y8322D01*
X7435Y8321D01*
X7435Y8321D01*
X7435Y8321D01*
Y8321D01*
X7425Y8319D01*
X7424Y8321D01*
X7424Y8324D01*
X7423Y8325D01*
X7422Y8327D01*
X7421Y8328D01*
X7421Y8329D01*
X7420Y8329D01*
X7420Y8330D01*
X7418Y8331D01*
X7417Y8332D01*
X7415Y8332D01*
X7414Y8333D01*
X7412Y8333D01*
X7411Y8333D01*
X7411Y8333D01*
X7410D01*
X7408Y8333D01*
X7406Y8333D01*
X7405Y8332D01*
X7403Y8332D01*
X7402Y8331D01*
X7401Y8330D01*
X7401Y8330D01*
X7401Y8330D01*
X7399Y8328D01*
X7398Y8327D01*
X7398Y8325D01*
X7397Y8324D01*
X7397Y8323D01*
X7397Y8322D01*
X7397Y8321D01*
Y8321D01*
Y8321D01*
X7397Y8319D01*
X7397Y8318D01*
X7398Y8316D01*
X7398Y8314D01*
X7399Y8313D01*
X7400Y8312D01*
X7401Y8311D01*
X7402Y8311D01*
X7402Y8310D01*
X7402D01*
X7404Y8309D01*
X7406Y8308D01*
X7408Y8308D01*
X7410Y8307D01*
X7411Y8307D01*
X7412Y8307D01*
X7413Y8307D01*
X7414D01*
X7415Y8307D01*
X7415Y8307D01*
X7415D01*
X7416Y8298D01*
X7415Y8299D01*
X7413Y8299D01*
X7412Y8299D01*
X7411Y8299D01*
X7410Y8300D01*
X7409D01*
X7407Y8299D01*
X7404Y8299D01*
X7402Y8298D01*
X7401Y8297D01*
X7400Y8296D01*
X7399Y8296D01*
X7398Y8295D01*
X7398Y8295D01*
X7397Y8294D01*
X7396Y8293D01*
X7395Y8291D01*
X7394Y8290D01*
X7394Y8288D01*
X7393Y8286D01*
X7393Y8285D01*
Y8285D01*
X7393Y8284D01*
Y8284D01*
Y8284D01*
Y8284D01*
Y8283D01*
X7393Y8281D01*
X7394Y8279D01*
X7395Y8277D01*
X7396Y8275D01*
X7396Y8274D01*
X7397Y8273D01*
X7398Y8272D01*
X7398Y8272D01*
X7398Y8272D01*
X7398Y8272D01*
X7399Y8271D01*
X7400Y8270D01*
X7402Y8269D01*
X7404Y8268D01*
X7406Y8268D01*
X7407Y8267D01*
X7408Y8267D01*
X7409D01*
X7409Y8267D01*
X7410D01*
X7412Y8267D01*
X7414Y8268D01*
X7416Y8268D01*
X7417Y8269D01*
X7419Y8269D01*
X7419Y8270D01*
X7420Y8270D01*
X7420Y8271D01*
X7421Y8271D01*
X7422Y8272D01*
X7423Y8274D01*
X7424Y8276D01*
X7424Y8278D01*
X7425Y8280D01*
X7425Y8281D01*
X7426Y8282D01*
X7426Y8282D01*
X7426Y8283D01*
X7426Y8283D01*
Y8283D01*
X7436Y8282D01*
X7436Y8280D01*
X7435Y8278D01*
X7435Y8276D01*
X7434Y8275D01*
X7433Y8273D01*
X7433Y8272D01*
X7432Y8271D01*
X7431Y8269D01*
X7431Y8268D01*
X7430Y8268D01*
X7429Y8267D01*
X7429Y8266D01*
X7428Y8266D01*
X7428Y8265D01*
X7428Y8265D01*
X7428Y8265D01*
X7426Y8264D01*
X7425Y8263D01*
X7424Y8262D01*
X7422Y8261D01*
X7420Y8261D01*
X7419Y8260D01*
X7416Y8259D01*
X7415Y8259D01*
X7414Y8259D01*
X7413Y8259D01*
X7412Y8259D01*
X7411Y8259D01*
X7410D01*
X7408Y8259D01*
X7406Y8259D01*
X7404Y8259D01*
X7402Y8260D01*
X7400Y8260D01*
X7399Y8261D01*
X7397Y8262D01*
X7396Y8262D01*
X7395Y8263D01*
X7394Y8264D01*
X7393Y8264D01*
X7392Y8265D01*
X7391Y8265D01*
X7391Y8266D01*
X7391Y8266D01*
X7390Y8266D01*
X7389Y8267D01*
X7388Y8269D01*
X7387Y8270D01*
X7386Y8272D01*
X7385Y8273D01*
X7385Y8275D01*
X7384Y8276D01*
X7384Y8278D01*
X7383Y8279D01*
X7383Y8280D01*
X7383Y8281D01*
X7383Y8282D01*
X7383Y8283D01*
Y8284D01*
Y8284D01*
Y8284D01*
X7383Y8287D01*
X7383Y8289D01*
X7384Y8291D01*
X7385Y8293D01*
X7385Y8295D01*
X7386Y8296D01*
X7386Y8296D01*
X7386Y8296D01*
X7386Y8297D01*
X7387Y8297D01*
Y8297D01*
X7388Y8299D01*
X7390Y8300D01*
X7392Y8302D01*
X7394Y8302D01*
X7395Y8303D01*
X7396Y8303D01*
X7397Y8304D01*
X7397Y8304D01*
X7398Y8304D01*
X7398Y8304D01*
X7398D01*
X7396Y8305D01*
X7394Y8306D01*
X7393Y8307D01*
X7392Y8308D01*
X7391Y8309D01*
X7390Y8310D01*
X7390Y8311D01*
X7389Y8311D01*
X7389Y8313D01*
X7388Y8314D01*
X7387Y8316D01*
X7387Y8317D01*
X7387Y8319D01*
X7387Y8320D01*
Y8320D01*
Y8320D01*
Y8320D01*
X7387Y8322D01*
X7387Y8324D01*
X7388Y8326D01*
X7388Y8328D01*
X7389Y8329D01*
X7389Y8330D01*
X7390Y8331D01*
X7390Y8331D01*
Y8331D01*
X7391Y8333D01*
X7392Y8334D01*
X7394Y8336D01*
X7395Y8337D01*
X7396Y8338D01*
X7397Y8338D01*
X7398Y8338D01*
X7398Y8339D01*
X7398Y8339D01*
X7398D01*
X7400Y8340D01*
X7402Y8340D01*
X7404Y8341D01*
X7406Y8341D01*
X7408Y8341D01*
X7409D01*
X7409Y8342D01*
X7410D01*
X7412Y8341D01*
D02*
G37*
G36*
X7469Y8340D02*
X7470Y8338D01*
X7472Y8336D01*
X7473Y8334D01*
X7475Y8333D01*
X7476Y8332D01*
X7476Y8331D01*
X7476Y8331D01*
X7477Y8331D01*
X7477Y8331D01*
X7479Y8329D01*
X7482Y8327D01*
X7484Y8325D01*
X7486Y8324D01*
X7488Y8323D01*
X7489Y8322D01*
X7490Y8322D01*
X7490Y8322D01*
X7491Y8321D01*
X7491Y8321D01*
X7491D01*
Y8311D01*
X7489Y8312D01*
X7488Y8313D01*
X7486Y8314D01*
X7484Y8315D01*
X7483Y8315D01*
X7482Y8316D01*
X7481Y8316D01*
X7481Y8317D01*
X7481Y8317D01*
X7481D01*
X7479Y8318D01*
X7477Y8319D01*
X7475Y8320D01*
X7474Y8321D01*
X7473Y8322D01*
X7472Y8323D01*
X7471Y8323D01*
X7471Y8324D01*
Y8260D01*
X7461D01*
Y8342D01*
X7468D01*
X7469Y8340D01*
D02*
G37*
G36*
X7546Y8342D02*
X7549Y8342D01*
X7553Y8341D01*
X7554Y8341D01*
X7556Y8340D01*
X7557Y8340D01*
X7558Y8339D01*
X7559Y8339D01*
X7560Y8338D01*
X7560Y8338D01*
X7561Y8338D01*
X7561Y8338D01*
X7561Y8338D01*
X7563Y8337D01*
X7565Y8336D01*
X7567Y8333D01*
X7570Y8331D01*
X7572Y8329D01*
X7572Y8328D01*
X7573Y8327D01*
X7574Y8326D01*
X7574Y8325D01*
X7575Y8324D01*
X7575Y8324D01*
X7575Y8323D01*
X7575Y8323D01*
X7576Y8321D01*
X7577Y8320D01*
X7578Y8316D01*
X7579Y8312D01*
X7579Y8310D01*
X7579Y8309D01*
X7580Y8307D01*
X7580Y8306D01*
X7580Y8304D01*
Y8303D01*
X7580Y8302D01*
Y8302D01*
Y8301D01*
Y8301D01*
X7580Y8297D01*
X7579Y8293D01*
X7579Y8291D01*
X7579Y8289D01*
X7578Y8288D01*
X7578Y8286D01*
X7577Y8285D01*
X7577Y8283D01*
X7577Y8282D01*
X7576Y8281D01*
X7576Y8280D01*
X7576Y8280D01*
X7576Y8280D01*
Y8279D01*
X7575Y8278D01*
X7574Y8276D01*
X7573Y8274D01*
X7572Y8273D01*
X7571Y8271D01*
X7570Y8270D01*
X7569Y8269D01*
X7568Y8268D01*
X7567Y8267D01*
X7566Y8266D01*
X7565Y8265D01*
X7565Y8265D01*
X7564Y8264D01*
X7564Y8264D01*
X7563Y8264D01*
X7563Y8264D01*
X7562Y8263D01*
X7560Y8262D01*
X7558Y8261D01*
X7556Y8261D01*
X7553Y8260D01*
X7549Y8259D01*
X7548Y8259D01*
X7546Y8259D01*
X7545Y8259D01*
X7544Y8259D01*
X7543Y8259D01*
X7542D01*
X7539Y8259D01*
X7537Y8259D01*
X7535Y8259D01*
X7533Y8260D01*
X7531Y8260D01*
X7529Y8261D01*
X7528Y8261D01*
X7526Y8262D01*
X7525Y8263D01*
X7524Y8263D01*
X7523Y8264D01*
X7522Y8264D01*
X7521Y8265D01*
X7521Y8265D01*
X7520Y8265D01*
X7520Y8265D01*
X7519Y8267D01*
X7517Y8268D01*
X7516Y8270D01*
X7515Y8272D01*
X7514Y8273D01*
X7513Y8275D01*
X7512Y8277D01*
X7511Y8278D01*
X7510Y8280D01*
X7510Y8281D01*
X7509Y8282D01*
X7509Y8283D01*
X7508Y8284D01*
X7508Y8285D01*
X7508Y8286D01*
Y8286D01*
X7519Y8288D01*
X7519Y8287D01*
X7520Y8285D01*
X7521Y8283D01*
X7521Y8282D01*
X7522Y8280D01*
X7523Y8279D01*
X7523Y8278D01*
X7524Y8277D01*
X7525Y8276D01*
X7525Y8275D01*
X7526Y8274D01*
X7526Y8274D01*
X7527Y8274D01*
X7527Y8273D01*
X7527Y8273D01*
X7527Y8273D01*
X7529Y8272D01*
X7530Y8271D01*
X7531Y8271D01*
X7532Y8270D01*
X7535Y8269D01*
X7537Y8268D01*
X7538Y8268D01*
X7540Y8268D01*
X7540Y8268D01*
X7541Y8268D01*
X7542Y8268D01*
X7543D01*
X7545Y8268D01*
X7548Y8268D01*
X7550Y8269D01*
X7552Y8270D01*
X7554Y8270D01*
X7555Y8271D01*
X7555Y8271D01*
X7556Y8271D01*
X7556Y8271D01*
X7556Y8272D01*
X7557D01*
X7559Y8273D01*
X7561Y8275D01*
X7562Y8277D01*
X7564Y8279D01*
X7565Y8280D01*
X7565Y8281D01*
X7565Y8282D01*
X7566Y8282D01*
X7566Y8283D01*
X7566Y8283D01*
Y8283D01*
X7567Y8286D01*
X7568Y8289D01*
X7568Y8292D01*
X7568Y8295D01*
X7569Y8296D01*
Y8298D01*
X7569Y8299D01*
X7569Y8300D01*
Y8300D01*
Y8301D01*
Y8301D01*
Y8301D01*
X7569Y8304D01*
X7568Y8307D01*
X7568Y8310D01*
X7568Y8312D01*
X7567Y8313D01*
X7567Y8314D01*
X7567Y8315D01*
X7567Y8316D01*
X7567Y8316D01*
X7566Y8317D01*
X7566Y8317D01*
Y8317D01*
X7565Y8320D01*
X7564Y8322D01*
X7562Y8324D01*
X7561Y8326D01*
X7560Y8327D01*
X7559Y8328D01*
X7558Y8328D01*
X7558Y8329D01*
X7558Y8329D01*
X7558D01*
X7556Y8330D01*
X7555Y8330D01*
X7552Y8332D01*
X7550Y8332D01*
X7547Y8333D01*
X7546Y8333D01*
X7545Y8333D01*
X7544Y8333D01*
X7543D01*
X7543Y8333D01*
X7542D01*
X7539Y8333D01*
X7536Y8333D01*
X7534Y8332D01*
X7532Y8331D01*
X7530Y8331D01*
X7530Y8330D01*
X7529Y8330D01*
X7529Y8330D01*
X7528Y8330D01*
X7528Y8329D01*
X7528D01*
X7527Y8328D01*
X7526Y8328D01*
X7525Y8326D01*
X7523Y8324D01*
X7522Y8321D01*
X7521Y8319D01*
X7521Y8319D01*
X7521Y8318D01*
X7520Y8317D01*
X7520Y8317D01*
X7520Y8317D01*
Y8316D01*
X7509Y8319D01*
X7510Y8321D01*
X7511Y8323D01*
X7512Y8325D01*
X7513Y8326D01*
X7514Y8328D01*
X7515Y8329D01*
X7516Y8331D01*
X7516Y8332D01*
X7517Y8333D01*
X7518Y8334D01*
X7519Y8335D01*
X7520Y8335D01*
X7520Y8336D01*
X7521Y8336D01*
X7521Y8336D01*
X7521Y8336D01*
X7523Y8337D01*
X7524Y8339D01*
X7526Y8339D01*
X7528Y8340D01*
X7530Y8341D01*
X7531Y8341D01*
X7534Y8342D01*
X7536Y8342D01*
X7537Y8342D01*
X7539Y8342D01*
X7540Y8343D01*
X7540Y8343D01*
X7544D01*
X7546Y8342D01*
D02*
G37*
G36*
X7759Y8340D02*
X7760Y8338D01*
X7762Y8336D01*
X7763Y8334D01*
X7765Y8333D01*
X7766Y8332D01*
X7766Y8331D01*
X7766Y8331D01*
X7767Y8331D01*
X7767Y8331D01*
X7769Y8329D01*
X7772Y8327D01*
X7774Y8325D01*
X7776Y8324D01*
X7778Y8323D01*
X7779Y8322D01*
X7780Y8322D01*
X7780Y8322D01*
X7781Y8321D01*
X7781Y8321D01*
X7781D01*
Y8311D01*
X7779Y8312D01*
X7778Y8313D01*
X7776Y8314D01*
X7774Y8315D01*
X7773Y8315D01*
X7772Y8316D01*
X7771Y8316D01*
X7771Y8317D01*
X7771Y8317D01*
X7771D01*
X7769Y8318D01*
X7767Y8319D01*
X7765Y8320D01*
X7764Y8321D01*
X7763Y8322D01*
X7762Y8323D01*
X7761Y8323D01*
X7761Y8324D01*
Y8260D01*
X7751D01*
Y8342D01*
X7758D01*
X7759Y8340D01*
D02*
G37*
G36*
X7724Y8298D02*
X7715Y8297D01*
X7714Y8298D01*
X7713Y8299D01*
X7712Y8300D01*
X7711Y8301D01*
X7710Y8302D01*
X7709Y8302D01*
X7709Y8303D01*
X7709Y8303D01*
X7707Y8304D01*
X7706Y8304D01*
X7704Y8305D01*
X7703Y8305D01*
X7702Y8305D01*
X7701Y8305D01*
X7698D01*
X7697Y8305D01*
X7695Y8304D01*
X7692Y8304D01*
X7691Y8303D01*
X7689Y8302D01*
X7688Y8301D01*
X7688Y8301D01*
X7688Y8300D01*
X7687Y8300D01*
Y8300D01*
X7686Y8299D01*
X7686Y8298D01*
X7685Y8296D01*
X7684Y8294D01*
X7683Y8291D01*
X7683Y8290D01*
X7683Y8289D01*
Y8288D01*
X7683Y8287D01*
Y8287D01*
Y8287D01*
Y8287D01*
Y8285D01*
X7683Y8283D01*
X7683Y8281D01*
X7684Y8278D01*
X7685Y8276D01*
X7686Y8275D01*
X7686Y8274D01*
X7686Y8274D01*
X7687Y8273D01*
X7687Y8273D01*
X7687Y8272D01*
X7687Y8272D01*
X7688Y8272D01*
X7688Y8271D01*
X7689Y8270D01*
X7690Y8270D01*
X7692Y8269D01*
X7694Y8268D01*
X7696Y8268D01*
X7697Y8267D01*
X7698Y8267D01*
X7699Y8267D01*
X7699Y8267D01*
X7700D01*
X7702Y8267D01*
X7704Y8268D01*
X7706Y8268D01*
X7707Y8269D01*
X7708Y8269D01*
X7709Y8270D01*
X7710Y8270D01*
X7710Y8271D01*
X7711Y8272D01*
X7713Y8274D01*
X7714Y8276D01*
X7714Y8278D01*
X7715Y8279D01*
X7715Y8280D01*
X7715Y8281D01*
X7715Y8281D01*
Y8282D01*
X7715Y8282D01*
Y8282D01*
X7726Y8281D01*
X7726Y8279D01*
X7725Y8278D01*
X7725Y8276D01*
X7724Y8274D01*
X7724Y8273D01*
X7723Y8272D01*
X7722Y8270D01*
X7721Y8269D01*
X7721Y8268D01*
X7720Y8267D01*
X7720Y8267D01*
X7719Y8266D01*
X7718Y8265D01*
X7718Y8265D01*
X7718Y8265D01*
X7718Y8265D01*
X7716Y8264D01*
X7715Y8263D01*
X7714Y8262D01*
X7712Y8261D01*
X7711Y8261D01*
X7709Y8260D01*
X7706Y8259D01*
X7705Y8259D01*
X7704Y8259D01*
X7703Y8259D01*
X7702Y8259D01*
X7701Y8259D01*
X7700D01*
X7697Y8259D01*
X7695Y8259D01*
X7693Y8260D01*
X7691Y8260D01*
X7689Y8261D01*
X7687Y8262D01*
X7686Y8263D01*
X7684Y8264D01*
X7683Y8264D01*
X7682Y8265D01*
X7681Y8266D01*
X7680Y8267D01*
X7679Y8268D01*
X7679Y8268D01*
X7679Y8268D01*
X7678Y8268D01*
X7677Y8270D01*
X7676Y8272D01*
X7675Y8273D01*
X7675Y8275D01*
X7674Y8276D01*
X7674Y8278D01*
X7673Y8281D01*
X7673Y8282D01*
X7672Y8284D01*
X7672Y8285D01*
X7672Y8286D01*
X7672Y8286D01*
Y8287D01*
Y8287D01*
Y8287D01*
X7672Y8290D01*
X7672Y8292D01*
X7673Y8293D01*
X7673Y8295D01*
X7674Y8297D01*
X7674Y8299D01*
X7675Y8300D01*
X7676Y8301D01*
X7676Y8302D01*
X7677Y8304D01*
X7678Y8304D01*
X7678Y8305D01*
X7679Y8306D01*
X7679Y8306D01*
X7679Y8306D01*
X7679Y8306D01*
X7681Y8308D01*
X7682Y8309D01*
X7684Y8310D01*
X7685Y8311D01*
X7687Y8311D01*
X7688Y8312D01*
X7690Y8313D01*
X7691Y8313D01*
X7692Y8313D01*
X7694Y8313D01*
X7695Y8314D01*
X7695Y8314D01*
X7696Y8314D01*
X7697D01*
X7699Y8314D01*
X7700Y8314D01*
X7703Y8313D01*
X7706Y8312D01*
X7708Y8311D01*
X7709Y8311D01*
X7710Y8310D01*
X7711Y8310D01*
X7711Y8310D01*
X7712Y8309D01*
X7712Y8309D01*
X7712Y8309D01*
X7713Y8309D01*
X7708Y8331D01*
X7676D01*
Y8340D01*
X7716D01*
X7724Y8298D01*
D02*
G37*
G36*
X7836Y8342D02*
X7839Y8342D01*
X7843Y8341D01*
X7844Y8341D01*
X7846Y8340D01*
X7847Y8340D01*
X7848Y8339D01*
X7849Y8339D01*
X7850Y8338D01*
X7850Y8338D01*
X7851Y8338D01*
X7851Y8338D01*
X7851Y8338D01*
X7853Y8337D01*
X7855Y8336D01*
X7857Y8333D01*
X7860Y8331D01*
X7862Y8329D01*
X7862Y8328D01*
X7863Y8327D01*
X7864Y8326D01*
X7864Y8325D01*
X7865Y8324D01*
X7865Y8324D01*
X7865Y8323D01*
X7865Y8323D01*
X7866Y8321D01*
X7867Y8320D01*
X7868Y8316D01*
X7869Y8312D01*
X7869Y8310D01*
X7869Y8309D01*
X7870Y8307D01*
X7870Y8306D01*
X7870Y8304D01*
Y8303D01*
X7870Y8302D01*
Y8302D01*
Y8301D01*
Y8301D01*
X7870Y8297D01*
X7869Y8293D01*
X7869Y8291D01*
X7869Y8289D01*
X7868Y8288D01*
X7868Y8286D01*
X7867Y8285D01*
X7867Y8283D01*
X7867Y8282D01*
X7866Y8281D01*
X7866Y8280D01*
X7866Y8280D01*
X7866Y8280D01*
Y8279D01*
X7865Y8278D01*
X7864Y8276D01*
X7863Y8274D01*
X7862Y8273D01*
X7861Y8271D01*
X7860Y8270D01*
X7859Y8269D01*
X7858Y8268D01*
X7857Y8267D01*
X7856Y8266D01*
X7855Y8265D01*
X7855Y8265D01*
X7854Y8264D01*
X7854Y8264D01*
X7853Y8264D01*
X7853Y8264D01*
X7852Y8263D01*
X7850Y8262D01*
X7848Y8261D01*
X7846Y8261D01*
X7843Y8260D01*
X7839Y8259D01*
X7838Y8259D01*
X7836Y8259D01*
X7835Y8259D01*
X7834Y8259D01*
X7833Y8259D01*
X7832D01*
X7829Y8259D01*
X7827Y8259D01*
X7825Y8259D01*
X7823Y8260D01*
X7821Y8260D01*
X7819Y8261D01*
X7818Y8261D01*
X7816Y8262D01*
X7815Y8263D01*
X7814Y8263D01*
X7813Y8264D01*
X7812Y8264D01*
X7811Y8265D01*
X7811Y8265D01*
X7810Y8265D01*
X7810Y8265D01*
X7809Y8267D01*
X7807Y8268D01*
X7806Y8270D01*
X7805Y8272D01*
X7804Y8273D01*
X7803Y8275D01*
X7802Y8277D01*
X7801Y8278D01*
X7800Y8280D01*
X7800Y8281D01*
X7799Y8282D01*
X7799Y8283D01*
X7798Y8284D01*
X7798Y8285D01*
X7798Y8286D01*
Y8286D01*
X7809Y8288D01*
X7809Y8287D01*
X7810Y8285D01*
X7811Y8283D01*
X7811Y8282D01*
X7812Y8280D01*
X7813Y8279D01*
X7813Y8278D01*
X7814Y8277D01*
X7815Y8276D01*
X7815Y8275D01*
X7816Y8274D01*
X7816Y8274D01*
X7817Y8274D01*
X7817Y8273D01*
X7817Y8273D01*
X7817Y8273D01*
X7819Y8272D01*
X7820Y8271D01*
X7821Y8271D01*
X7822Y8270D01*
X7825Y8269D01*
X7827Y8268D01*
X7828Y8268D01*
X7830Y8268D01*
X7830Y8268D01*
X7831Y8268D01*
X7832Y8268D01*
X7833D01*
X7835Y8268D01*
X7838Y8268D01*
X7840Y8269D01*
X7842Y8270D01*
X7844Y8270D01*
X7845Y8271D01*
X7845Y8271D01*
X7846Y8271D01*
X7846Y8271D01*
X7846Y8272D01*
X7847D01*
X7849Y8273D01*
X7851Y8275D01*
X7852Y8277D01*
X7854Y8279D01*
X7855Y8280D01*
X7855Y8281D01*
X7855Y8282D01*
X7856Y8282D01*
X7856Y8283D01*
X7856Y8283D01*
Y8283D01*
X7857Y8286D01*
X7858Y8289D01*
X7858Y8292D01*
X7858Y8295D01*
X7859Y8296D01*
Y8298D01*
X7859Y8299D01*
X7859Y8300D01*
Y8300D01*
Y8301D01*
Y8301D01*
Y8301D01*
X7859Y8304D01*
X7858Y8307D01*
X7858Y8310D01*
X7858Y8312D01*
X7857Y8313D01*
X7857Y8314D01*
X7857Y8315D01*
X7857Y8316D01*
X7857Y8316D01*
X7856Y8317D01*
X7856Y8317D01*
Y8317D01*
X7855Y8320D01*
X7854Y8322D01*
X7852Y8324D01*
X7851Y8326D01*
X7850Y8327D01*
X7849Y8328D01*
X7848Y8328D01*
X7848Y8329D01*
X7848Y8329D01*
X7848D01*
X7846Y8330D01*
X7845Y8330D01*
X7842Y8332D01*
X7840Y8332D01*
X7837Y8333D01*
X7836Y8333D01*
X7835Y8333D01*
X7834Y8333D01*
X7833D01*
X7833Y8333D01*
X7832D01*
X7829Y8333D01*
X7826Y8333D01*
X7824Y8332D01*
X7822Y8331D01*
X7820Y8331D01*
X7820Y8330D01*
X7819Y8330D01*
X7819Y8330D01*
X7818Y8330D01*
X7818Y8329D01*
X7818D01*
X7817Y8328D01*
X7816Y8328D01*
X7815Y8326D01*
X7813Y8324D01*
X7812Y8321D01*
X7811Y8319D01*
X7811Y8319D01*
X7811Y8318D01*
X7810Y8317D01*
X7810Y8317D01*
X7810Y8317D01*
Y8316D01*
X7799Y8319D01*
X7800Y8321D01*
X7801Y8323D01*
X7802Y8325D01*
X7803Y8326D01*
X7804Y8328D01*
X7805Y8329D01*
X7806Y8331D01*
X7806Y8332D01*
X7807Y8333D01*
X7808Y8334D01*
X7809Y8335D01*
X7810Y8335D01*
X7810Y8336D01*
X7811Y8336D01*
X7811Y8336D01*
X7811Y8336D01*
X7813Y8337D01*
X7814Y8339D01*
X7816Y8339D01*
X7818Y8340D01*
X7820Y8341D01*
X7821Y8341D01*
X7824Y8342D01*
X7826Y8342D01*
X7827Y8342D01*
X7829Y8342D01*
X7830Y8343D01*
X7830Y8343D01*
X7834D01*
X7836Y8342D01*
D02*
G37*
G36*
X6766Y4510D02*
X6768Y4508D01*
X6769Y4506D01*
X6771Y4504D01*
X6772Y4503D01*
X6773Y4502D01*
X6774Y4501D01*
X6774Y4501D01*
X6774Y4501D01*
X6774Y4501D01*
X6777Y4499D01*
X6779Y4497D01*
X6782Y4495D01*
X6784Y4494D01*
X6786Y4493D01*
X6787Y4492D01*
X6787Y4492D01*
X6788Y4492D01*
X6788Y4491D01*
X6789Y4491D01*
X6789D01*
Y4481D01*
X6787Y4482D01*
X6785Y4483D01*
X6783Y4484D01*
X6782Y4485D01*
X6780Y4485D01*
X6779Y4486D01*
X6779Y4486D01*
X6779Y4487D01*
X6778Y4487D01*
X6778D01*
X6776Y4488D01*
X6774Y4489D01*
X6773Y4490D01*
X6771Y4491D01*
X6770Y4492D01*
X6769Y4493D01*
X6769Y4493D01*
X6769Y4494D01*
Y4430D01*
X6759D01*
Y4512D01*
X6765D01*
X6766Y4510D01*
D02*
G37*
G36*
X6950Y4430D02*
X6921D01*
X6918Y4430D01*
X6916Y4430D01*
X6913Y4430D01*
X6911Y4431D01*
X6910Y4431D01*
X6909Y4431D01*
X6909Y4431D01*
X6908Y4431D01*
X6908D01*
X6908Y4431D01*
X6908D01*
X6906Y4432D01*
X6904Y4433D01*
X6902Y4433D01*
X6901Y4434D01*
X6900Y4434D01*
X6899Y4435D01*
X6898Y4435D01*
X6898Y4435D01*
X6897Y4437D01*
X6895Y4438D01*
X6894Y4439D01*
X6893Y4440D01*
X6892Y4441D01*
X6891Y4442D01*
X6891Y4443D01*
X6891Y4443D01*
X6889Y4445D01*
X6888Y4447D01*
X6887Y4449D01*
X6886Y4450D01*
X6886Y4452D01*
X6886Y4453D01*
X6885Y4453D01*
X6885Y4454D01*
X6885Y4454D01*
X6885Y4455D01*
Y4455D01*
X6884Y4457D01*
X6884Y4460D01*
X6883Y4463D01*
X6883Y4466D01*
X6883Y4467D01*
X6883Y4468D01*
Y4469D01*
X6883Y4469D01*
Y4470D01*
Y4471D01*
Y4471D01*
Y4471D01*
X6883Y4475D01*
X6883Y4479D01*
X6884Y4480D01*
X6884Y4482D01*
X6884Y4483D01*
X6884Y4485D01*
X6885Y4486D01*
X6885Y4487D01*
X6885Y4488D01*
X6886Y4489D01*
X6886Y4489D01*
X6886Y4490D01*
X6886Y4490D01*
Y4490D01*
X6887Y4493D01*
X6889Y4496D01*
X6891Y4498D01*
X6892Y4500D01*
X6893Y4501D01*
X6893Y4502D01*
X6894Y4503D01*
X6895Y4503D01*
X6895Y4504D01*
X6895Y4504D01*
X6896Y4504D01*
X6896Y4504D01*
X6898Y4506D01*
X6900Y4507D01*
X6902Y4508D01*
X6904Y4509D01*
X6905Y4509D01*
X6906Y4509D01*
X6906Y4510D01*
X6907Y4510D01*
X6907Y4510D01*
X6908Y4510D01*
X6908D01*
X6910Y4510D01*
X6912Y4511D01*
X6914Y4511D01*
X6917Y4511D01*
X6919D01*
X6920Y4511D01*
X6950D01*
Y4430D01*
D02*
G37*
G36*
X6877D02*
X6866D01*
X6857Y4455D01*
X6823D01*
X6813Y4430D01*
X6801D01*
X6834Y4511D01*
X6846D01*
X6877Y4430D01*
D02*
G37*
G36*
X5971Y6210D02*
X5941D01*
X5939Y6210D01*
X5936Y6210D01*
X5934Y6211D01*
X5932Y6211D01*
X5931Y6211D01*
X5930Y6211D01*
X5929Y6211D01*
X5929Y6211D01*
X5929D01*
X5929Y6212D01*
X5928D01*
X5926Y6212D01*
X5925Y6213D01*
X5923Y6213D01*
X5921Y6214D01*
X5920Y6215D01*
X5919Y6215D01*
X5919Y6215D01*
X5919Y6216D01*
X5917Y6217D01*
X5916Y6218D01*
X5914Y6219D01*
X5913Y6220D01*
X5912Y6221D01*
X5912Y6222D01*
X5911Y6223D01*
X5911Y6223D01*
X5910Y6225D01*
X5909Y6227D01*
X5908Y6229D01*
X5907Y6231D01*
X5907Y6232D01*
X5906Y6233D01*
X5906Y6234D01*
X5906Y6234D01*
X5906Y6234D01*
X5906Y6235D01*
Y6235D01*
X5905Y6238D01*
X5904Y6240D01*
X5904Y6243D01*
X5904Y6246D01*
X5904Y6247D01*
X5904Y6248D01*
Y6249D01*
X5904Y6250D01*
Y6250D01*
Y6251D01*
Y6251D01*
Y6251D01*
X5904Y6255D01*
X5904Y6259D01*
X5904Y6260D01*
X5905Y6262D01*
X5905Y6264D01*
X5905Y6265D01*
X5905Y6266D01*
X5906Y6267D01*
X5906Y6268D01*
X5906Y6269D01*
X5906Y6270D01*
X5907Y6270D01*
X5907Y6270D01*
Y6271D01*
X5908Y6274D01*
X5910Y6276D01*
X5911Y6279D01*
X5913Y6281D01*
X5914Y6282D01*
X5914Y6282D01*
X5915Y6283D01*
X5915Y6283D01*
X5916Y6284D01*
X5916Y6284D01*
X5916Y6284D01*
X5916Y6284D01*
X5918Y6286D01*
X5920Y6287D01*
X5922Y6288D01*
X5924Y6289D01*
X5926Y6289D01*
X5927Y6290D01*
X5927Y6290D01*
X5928Y6290D01*
X5928Y6290D01*
X5928Y6290D01*
X5928D01*
X5930Y6291D01*
X5933Y6291D01*
X5935Y6291D01*
X5937Y6291D01*
X5939D01*
X5940Y6291D01*
X5971D01*
Y6210D01*
D02*
G37*
G36*
X5898D02*
X5886D01*
X5877Y6235D01*
X5843D01*
X5834Y6210D01*
X5822D01*
X5855Y6291D01*
X5867D01*
X5898Y6210D01*
D02*
G37*
G36*
X5820Y6239D02*
Y6230D01*
X5785D01*
Y6210D01*
X5775D01*
Y6230D01*
X5764D01*
Y6239D01*
X5775D01*
Y6291D01*
X5783D01*
X5820Y6239D01*
D02*
G37*
%LPC*%
G36*
X5377Y6426D02*
X5340D01*
Y6400D01*
X5377Y6426D01*
D02*
G37*
G36*
X4870Y6913D02*
X4869D01*
X4868Y6913D01*
X4867Y6913D01*
X4866Y6913D01*
X4865Y6912D01*
X4863Y6911D01*
X4861Y6910D01*
X4860Y6909D01*
X4859Y6908D01*
X4858Y6907D01*
X4858Y6907D01*
X4858Y6907D01*
Y6907D01*
X4857Y6905D01*
X4856Y6904D01*
X4856Y6902D01*
X4855Y6900D01*
X4855Y6898D01*
X4854Y6895D01*
X4854Y6891D01*
X4854Y6889D01*
X4853Y6887D01*
X4853Y6885D01*
Y6883D01*
X4853Y6882D01*
Y6881D01*
Y6880D01*
Y6880D01*
Y6880D01*
Y6876D01*
X4853Y6873D01*
X4854Y6870D01*
X4854Y6867D01*
X4854Y6865D01*
X4855Y6863D01*
X4855Y6861D01*
X4855Y6859D01*
X4856Y6858D01*
X4856Y6857D01*
X4857Y6856D01*
X4857Y6855D01*
X4857Y6854D01*
X4858Y6854D01*
X4858Y6854D01*
X4858Y6853D01*
X4859Y6852D01*
X4860Y6851D01*
X4861Y6850D01*
X4862Y6850D01*
X4863Y6849D01*
X4864Y6848D01*
X4865Y6848D01*
X4867Y6847D01*
X4868Y6847D01*
X4868Y6847D01*
X4869Y6847D01*
X4869D01*
X4871Y6847D01*
X4872Y6847D01*
X4873Y6848D01*
X4874Y6848D01*
X4876Y6849D01*
X4878Y6850D01*
X4879Y6851D01*
X4880Y6852D01*
X4880Y6853D01*
X4881Y6853D01*
X4881Y6853D01*
X4881Y6853D01*
X4882Y6855D01*
X4882Y6856D01*
X4883Y6858D01*
X4884Y6860D01*
X4884Y6863D01*
X4884Y6865D01*
X4885Y6869D01*
X4885Y6871D01*
X4885Y6873D01*
X4885Y6875D01*
Y6877D01*
X4886Y6878D01*
Y6879D01*
Y6880D01*
Y6880D01*
Y6880D01*
X4885Y6884D01*
X4885Y6887D01*
X4885Y6890D01*
X4885Y6893D01*
X4884Y6895D01*
X4884Y6897D01*
X4883Y6899D01*
X4883Y6901D01*
X4882Y6903D01*
X4882Y6904D01*
X4882Y6905D01*
X4881Y6906D01*
X4881Y6907D01*
X4881Y6907D01*
X4881Y6907D01*
X4880Y6907D01*
X4880Y6908D01*
X4879Y6909D01*
X4878Y6910D01*
X4877Y6911D01*
X4875Y6912D01*
X4873Y6913D01*
X4872Y6913D01*
X4871Y6913D01*
X4870Y6913D01*
D02*
G37*
G36*
X5579Y4502D02*
X5552D01*
X5550Y4502D01*
X5549Y4502D01*
X5548Y4502D01*
X5546Y4501D01*
X5545Y4501D01*
X5544Y4501D01*
X5544Y4500D01*
X5542Y4500D01*
X5541Y4499D01*
X5541Y4499D01*
X5540Y4498D01*
X5539Y4497D01*
X5538Y4495D01*
X5537Y4494D01*
X5537Y4492D01*
X5536Y4491D01*
X5536Y4490D01*
X5536Y4489D01*
Y4489D01*
Y4489D01*
Y4489D01*
X5536Y4487D01*
X5536Y4486D01*
X5537Y4485D01*
X5537Y4484D01*
X5538Y4483D01*
X5538Y4482D01*
X5538Y4482D01*
X5538Y4482D01*
X5539Y4481D01*
X5540Y4479D01*
X5541Y4479D01*
X5542Y4478D01*
X5543Y4477D01*
X5544Y4477D01*
X5544Y4477D01*
X5545Y4477D01*
X5546Y4476D01*
X5548Y4476D01*
X5550Y4476D01*
X5552Y4476D01*
X5554Y4475D01*
X5554Y4475D01*
X5579D01*
Y4502D01*
D02*
G37*
G36*
X5549Y4252D02*
X5522D01*
X5520Y4252D01*
X5519Y4252D01*
X5518Y4252D01*
X5516Y4251D01*
X5515Y4251D01*
X5514Y4251D01*
X5514Y4250D01*
X5512Y4250D01*
X5511Y4249D01*
X5511Y4249D01*
X5510Y4248D01*
X5509Y4247D01*
X5508Y4245D01*
X5507Y4244D01*
X5507Y4242D01*
X5506Y4241D01*
X5506Y4240D01*
X5506Y4239D01*
Y4239D01*
Y4239D01*
Y4239D01*
X5506Y4237D01*
X5506Y4236D01*
X5507Y4235D01*
X5507Y4234D01*
X5508Y4233D01*
X5508Y4232D01*
X5508Y4232D01*
X5508Y4232D01*
X5509Y4231D01*
X5510Y4229D01*
X5511Y4229D01*
X5512Y4228D01*
X5513Y4227D01*
X5514Y4227D01*
X5514Y4227D01*
X5515Y4227D01*
X5516Y4226D01*
X5518Y4226D01*
X5520Y4226D01*
X5522Y4226D01*
X5524Y4225D01*
X5524Y4225D01*
X5549D01*
Y4252D01*
D02*
G37*
G36*
X5456Y4253D02*
X5455D01*
X5453Y4253D01*
X5452Y4253D01*
X5450Y4252D01*
X5449Y4251D01*
X5448Y4251D01*
X5447Y4250D01*
X5446Y4250D01*
X5446Y4250D01*
X5445Y4248D01*
X5444Y4247D01*
X5443Y4245D01*
X5443Y4244D01*
X5443Y4242D01*
X5442Y4241D01*
X5442Y4241D01*
Y4241D01*
Y4240D01*
Y4240D01*
X5442Y4238D01*
X5443Y4237D01*
X5443Y4235D01*
X5444Y4234D01*
X5445Y4233D01*
X5445Y4232D01*
X5446Y4232D01*
X5446Y4231D01*
X5447Y4230D01*
X5449Y4229D01*
X5451Y4229D01*
X5452Y4228D01*
X5453Y4228D01*
X5454Y4228D01*
X5455Y4228D01*
X5455D01*
X5458Y4228D01*
X5459Y4228D01*
X5461Y4229D01*
X5462Y4230D01*
X5464Y4230D01*
X5464Y4231D01*
X5465Y4231D01*
X5465Y4231D01*
X5466Y4233D01*
X5467Y4235D01*
X5468Y4236D01*
X5468Y4238D01*
X5468Y4239D01*
X5469Y4240D01*
X5469Y4240D01*
Y4241D01*
Y4241D01*
Y4241D01*
X5468Y4243D01*
X5468Y4244D01*
X5468Y4246D01*
X5467Y4247D01*
X5466Y4248D01*
X5466Y4249D01*
X5465Y4249D01*
X5465Y4250D01*
X5464Y4251D01*
X5462Y4252D01*
X5460Y4252D01*
X5459Y4253D01*
X5458Y4253D01*
X5456Y4253D01*
X5456Y4253D01*
D02*
G37*
G36*
X5456Y4220D02*
X5454D01*
X5453Y4220D01*
X5451Y4219D01*
X5449Y4218D01*
X5447Y4217D01*
X5446Y4216D01*
X5445Y4216D01*
X5444Y4215D01*
X5444Y4215D01*
Y4215D01*
X5443Y4214D01*
X5442Y4213D01*
X5441Y4211D01*
X5440Y4209D01*
X5440Y4207D01*
X5439Y4206D01*
X5439Y4205D01*
Y4204D01*
X5439Y4204D01*
Y4203D01*
Y4203D01*
Y4203D01*
Y4202D01*
X5439Y4200D01*
X5440Y4198D01*
X5440Y4196D01*
X5441Y4195D01*
X5442Y4193D01*
X5443Y4192D01*
X5443Y4192D01*
X5444Y4192D01*
X5444Y4191D01*
X5445Y4191D01*
X5445Y4190D01*
X5447Y4189D01*
X5449Y4188D01*
X5451Y4187D01*
X5453Y4187D01*
X5454Y4187D01*
X5454D01*
X5455Y4187D01*
X5455D01*
X5457Y4187D01*
X5459Y4187D01*
X5460Y4188D01*
X5462Y4188D01*
X5463Y4188D01*
X5463Y4189D01*
X5464Y4189D01*
X5464Y4189D01*
X5465Y4190D01*
X5467Y4191D01*
X5468Y4192D01*
X5469Y4193D01*
X5469Y4194D01*
X5470Y4194D01*
X5470Y4195D01*
X5470Y4195D01*
X5471Y4197D01*
X5471Y4198D01*
X5472Y4200D01*
X5472Y4201D01*
X5472Y4202D01*
X5472Y4203D01*
Y4203D01*
Y4203D01*
X5472Y4205D01*
X5472Y4206D01*
X5471Y4208D01*
X5471Y4210D01*
X5470Y4212D01*
X5469Y4213D01*
X5468Y4214D01*
X5468Y4215D01*
X5467Y4215D01*
X5467Y4216D01*
X5466Y4217D01*
X5464Y4218D01*
X5462Y4219D01*
X5460Y4219D01*
X5458Y4220D01*
X5458Y4220D01*
X5457D01*
X5456Y4220D01*
D02*
G37*
G36*
X5151Y5823D02*
Y5786D01*
X5176D01*
X5151Y5823D01*
D02*
G37*
G36*
X6662Y6015D02*
Y5978D01*
X6687D01*
X6662Y6015D01*
D02*
G37*
G36*
X6605Y6023D02*
X6604D01*
X6603Y6023D01*
X6602Y6023D01*
X6601Y6022D01*
X6600Y6022D01*
X6598Y6021D01*
X6596Y6020D01*
X6595Y6018D01*
X6594Y6017D01*
X6593Y6017D01*
X6593Y6017D01*
X6593Y6016D01*
Y6016D01*
X6592Y6015D01*
X6591Y6013D01*
X6591Y6011D01*
X6590Y6009D01*
X6590Y6007D01*
X6589Y6005D01*
X6589Y6001D01*
X6588Y5998D01*
X6588Y5996D01*
X6588Y5995D01*
Y5993D01*
X6588Y5992D01*
Y5991D01*
Y5990D01*
Y5990D01*
Y5990D01*
Y5986D01*
X6588Y5983D01*
X6588Y5980D01*
X6589Y5977D01*
X6589Y5975D01*
X6590Y5972D01*
X6590Y5971D01*
X6590Y5969D01*
X6591Y5967D01*
X6591Y5966D01*
X6592Y5965D01*
X6592Y5964D01*
X6592Y5964D01*
X6593Y5963D01*
X6593Y5963D01*
X6593Y5963D01*
X6594Y5962D01*
X6595Y5961D01*
X6596Y5960D01*
X6597Y5959D01*
X6598Y5959D01*
X6599Y5958D01*
X6600Y5957D01*
X6602Y5957D01*
X6603Y5957D01*
X6603Y5957D01*
X6604Y5957D01*
X6604D01*
X6606Y5957D01*
X6607Y5957D01*
X6608Y5957D01*
X6609Y5958D01*
X6611Y5959D01*
X6613Y5960D01*
X6614Y5961D01*
X6615Y5962D01*
X6615Y5962D01*
X6616Y5963D01*
X6616Y5963D01*
X6616Y5963D01*
X6617Y5964D01*
X6617Y5966D01*
X6618Y5968D01*
X6618Y5970D01*
X6619Y5972D01*
X6619Y5974D01*
X6620Y5979D01*
X6620Y5981D01*
X6620Y5983D01*
X6620Y5985D01*
Y5986D01*
X6620Y5988D01*
Y5989D01*
Y5990D01*
Y5990D01*
Y5990D01*
X6620Y5993D01*
X6620Y5997D01*
X6620Y6000D01*
X6620Y6002D01*
X6619Y6005D01*
X6619Y6007D01*
X6618Y6009D01*
X6618Y6011D01*
X6617Y6012D01*
X6617Y6014D01*
X6617Y6015D01*
X6616Y6016D01*
X6616Y6016D01*
X6616Y6017D01*
X6616Y6017D01*
X6615Y6017D01*
X6615Y6018D01*
X6614Y6019D01*
X6613Y6020D01*
X6612Y6020D01*
X6610Y6022D01*
X6608Y6022D01*
X6607Y6023D01*
X6606Y6023D01*
X6605Y6023D01*
D02*
G37*
G36*
X6365Y5503D02*
X6364D01*
X6362Y5503D01*
X6360Y5503D01*
X6359Y5502D01*
X6357Y5501D01*
X6356Y5501D01*
X6355Y5500D01*
X6355Y5500D01*
X6355Y5500D01*
X6353Y5498D01*
X6352Y5497D01*
X6352Y5495D01*
X6351Y5494D01*
X6351Y5492D01*
X6351Y5491D01*
X6351Y5491D01*
Y5491D01*
Y5490D01*
Y5490D01*
X6351Y5488D01*
X6351Y5487D01*
X6352Y5485D01*
X6353Y5484D01*
X6353Y5483D01*
X6354Y5482D01*
X6354Y5482D01*
X6355Y5481D01*
X6356Y5480D01*
X6358Y5479D01*
X6359Y5479D01*
X6361Y5478D01*
X6362Y5478D01*
X6363Y5478D01*
X6363Y5478D01*
X6364D01*
X6366Y5478D01*
X6368Y5478D01*
X6370Y5479D01*
X6371Y5480D01*
X6372Y5480D01*
X6373Y5481D01*
X6373Y5481D01*
X6374Y5481D01*
X6375Y5483D01*
X6376Y5485D01*
X6376Y5486D01*
X6377Y5488D01*
X6377Y5489D01*
X6377Y5490D01*
X6377Y5490D01*
Y5491D01*
Y5491D01*
Y5491D01*
X6377Y5493D01*
X6377Y5494D01*
X6376Y5496D01*
X6375Y5497D01*
X6375Y5498D01*
X6374Y5499D01*
X6374Y5499D01*
X6374Y5500D01*
X6372Y5501D01*
X6370Y5502D01*
X6369Y5502D01*
X6367Y5503D01*
X6366Y5503D01*
X6365Y5503D01*
X6365Y5503D01*
D02*
G37*
G36*
X6365Y5470D02*
X6363D01*
X6362Y5470D01*
X6359Y5469D01*
X6357Y5468D01*
X6356Y5467D01*
X6354Y5466D01*
X6353Y5466D01*
X6352Y5465D01*
X6352Y5465D01*
Y5465D01*
X6351Y5464D01*
X6351Y5463D01*
X6350Y5461D01*
X6349Y5459D01*
X6348Y5457D01*
X6348Y5456D01*
X6348Y5455D01*
Y5454D01*
X6348Y5454D01*
Y5453D01*
Y5453D01*
Y5453D01*
Y5452D01*
X6348Y5450D01*
X6348Y5448D01*
X6349Y5446D01*
X6350Y5445D01*
X6351Y5443D01*
X6351Y5442D01*
X6352Y5442D01*
X6352Y5442D01*
X6352Y5441D01*
X6353Y5441D01*
X6354Y5440D01*
X6356Y5439D01*
X6358Y5438D01*
X6360Y5437D01*
X6361Y5437D01*
X6362Y5437D01*
X6363D01*
X6363Y5437D01*
X6364D01*
X6366Y5437D01*
X6367Y5437D01*
X6369Y5438D01*
X6370Y5438D01*
X6371Y5438D01*
X6372Y5439D01*
X6372Y5439D01*
X6373Y5439D01*
X6374Y5440D01*
X6375Y5441D01*
X6376Y5442D01*
X6377Y5443D01*
X6378Y5444D01*
X6378Y5444D01*
X6378Y5445D01*
X6379Y5445D01*
X6379Y5447D01*
X6380Y5448D01*
X6380Y5450D01*
X6380Y5451D01*
X6380Y5452D01*
X6380Y5453D01*
Y5453D01*
Y5453D01*
X6380Y5455D01*
X6380Y5456D01*
X6380Y5458D01*
X6379Y5460D01*
X6378Y5462D01*
X6377Y5463D01*
X6377Y5464D01*
X6376Y5465D01*
X6376Y5465D01*
X6375Y5466D01*
X6374Y5467D01*
X6372Y5468D01*
X6370Y5469D01*
X6368Y5469D01*
X6367Y5470D01*
X6366Y5470D01*
X6365D01*
X6365Y5470D01*
D02*
G37*
G36*
X6605Y5753D02*
X6604D01*
X6603Y5753D01*
X6602Y5753D01*
X6600Y5752D01*
X6598Y5751D01*
X6596Y5750D01*
X6595Y5750D01*
X6594Y5749D01*
X6593Y5748D01*
X6593Y5748D01*
Y5748D01*
X6592Y5747D01*
X6592Y5746D01*
X6590Y5744D01*
X6590Y5741D01*
X6589Y5739D01*
X6589Y5737D01*
X6589Y5736D01*
Y5736D01*
X6588Y5735D01*
Y5735D01*
Y5734D01*
Y5734D01*
Y5733D01*
X6589Y5731D01*
X6589Y5728D01*
X6590Y5726D01*
X6591Y5724D01*
X6592Y5723D01*
X6592Y5722D01*
X6592Y5722D01*
X6593Y5721D01*
X6593Y5721D01*
X6593Y5721D01*
X6593Y5721D01*
X6594Y5720D01*
X6595Y5719D01*
X6597Y5718D01*
X6599Y5717D01*
X6600Y5717D01*
X6602Y5716D01*
X6603Y5716D01*
X6603D01*
X6604Y5716D01*
X6604D01*
X6606Y5716D01*
X6607Y5716D01*
X6609Y5717D01*
X6611Y5717D01*
X6613Y5718D01*
X6614Y5719D01*
X6615Y5720D01*
X6616Y5721D01*
X6616Y5721D01*
X6616D01*
X6617Y5722D01*
X6617Y5723D01*
X6619Y5725D01*
X6619Y5727D01*
X6620Y5729D01*
X6620Y5731D01*
X6620Y5731D01*
Y5732D01*
X6620Y5733D01*
Y5733D01*
Y5733D01*
Y5733D01*
X6620Y5735D01*
X6620Y5737D01*
X6620Y5739D01*
X6619Y5742D01*
X6618Y5744D01*
X6618Y5745D01*
X6617Y5745D01*
X6617Y5746D01*
X6616Y5747D01*
X6616Y5747D01*
X6616Y5747D01*
X6616Y5747D01*
Y5748D01*
X6615Y5748D01*
X6614Y5749D01*
X6613Y5750D01*
X6612Y5751D01*
X6610Y5752D01*
X6608Y5752D01*
X6606Y5753D01*
X6606Y5753D01*
X6605Y5753D01*
X6605Y5753D01*
D02*
G37*
G36*
X5615Y5909D02*
X5588D01*
Y5882D01*
X5588Y5880D01*
X5588Y5879D01*
X5588Y5878D01*
X5589Y5876D01*
X5589Y5875D01*
X5589Y5874D01*
X5590Y5874D01*
X5590Y5872D01*
X5591Y5871D01*
X5591Y5871D01*
X5592Y5870D01*
X5593Y5869D01*
X5595Y5868D01*
X5596Y5867D01*
X5598Y5867D01*
X5599Y5866D01*
X5600Y5866D01*
X5601Y5866D01*
X5601D01*
X5601D01*
X5601D01*
X5603Y5866D01*
X5604Y5866D01*
X5605Y5867D01*
X5606Y5867D01*
X5607Y5868D01*
X5608Y5868D01*
X5608Y5868D01*
X5608Y5868D01*
X5609Y5869D01*
X5611Y5870D01*
X5611Y5871D01*
X5612Y5872D01*
X5613Y5873D01*
X5613Y5874D01*
X5613Y5874D01*
X5613Y5875D01*
X5614Y5876D01*
X5614Y5878D01*
X5614Y5880D01*
X5614Y5882D01*
X5615Y5884D01*
X5615Y5884D01*
Y5909D01*
D02*
G37*
G36*
X5631Y5836D02*
X5595Y5810D01*
X5631D01*
Y5836D01*
D02*
G37*
G36*
X5600Y5766D02*
X5599D01*
X5599D01*
X5599D01*
X5597Y5765D01*
X5596Y5765D01*
X5594Y5764D01*
X5593Y5764D01*
X5592Y5763D01*
X5591Y5762D01*
X5591Y5762D01*
X5590Y5762D01*
X5589Y5760D01*
X5588Y5759D01*
X5588Y5757D01*
X5587Y5756D01*
X5587Y5754D01*
X5587Y5753D01*
X5587Y5753D01*
Y5752D01*
X5587Y5750D01*
X5587Y5749D01*
X5588Y5747D01*
X5589Y5746D01*
X5589Y5744D01*
X5590Y5744D01*
X5590Y5743D01*
X5590Y5743D01*
X5592Y5742D01*
X5593Y5741D01*
X5595Y5740D01*
X5596Y5740D01*
X5598Y5739D01*
X5599Y5739D01*
X5599Y5739D01*
X5599D01*
X5600D01*
X5600D01*
X5602Y5739D01*
X5603Y5740D01*
X5605Y5740D01*
X5606Y5741D01*
X5607Y5742D01*
X5608Y5742D01*
X5608Y5743D01*
X5609Y5743D01*
X5610Y5744D01*
X5611Y5746D01*
X5611Y5748D01*
X5612Y5749D01*
X5612Y5750D01*
X5612Y5751D01*
X5612Y5752D01*
Y5752D01*
X5612Y5754D01*
X5612Y5756D01*
X5611Y5758D01*
X5610Y5759D01*
X5610Y5761D01*
X5609Y5761D01*
X5609Y5762D01*
X5609Y5762D01*
X5607Y5763D01*
X5605Y5764D01*
X5604Y5765D01*
X5602Y5765D01*
X5601Y5765D01*
X5600Y5766D01*
X5600Y5766D01*
D02*
G37*
G36*
X5637Y5769D02*
X5637D01*
X5637D01*
X5635Y5769D01*
X5634Y5769D01*
X5632Y5768D01*
X5630Y5767D01*
X5628Y5767D01*
X5627Y5766D01*
X5626Y5765D01*
X5625Y5765D01*
X5625Y5764D01*
X5624Y5764D01*
X5623Y5763D01*
X5622Y5761D01*
X5621Y5759D01*
X5621Y5757D01*
X5620Y5755D01*
X5620Y5755D01*
Y5754D01*
X5620Y5753D01*
Y5751D01*
X5620Y5750D01*
X5621Y5748D01*
X5622Y5746D01*
X5623Y5744D01*
X5624Y5743D01*
X5624Y5742D01*
X5625Y5741D01*
X5625Y5741D01*
X5625D01*
X5626Y5740D01*
X5627Y5739D01*
X5629Y5738D01*
X5631Y5737D01*
X5633Y5737D01*
X5634Y5736D01*
X5635Y5736D01*
X5636D01*
X5636Y5736D01*
X5637D01*
X5637D01*
X5637D01*
X5638D01*
X5640Y5736D01*
X5642Y5737D01*
X5644Y5737D01*
X5645Y5738D01*
X5647Y5739D01*
X5648Y5740D01*
X5648Y5740D01*
X5648Y5740D01*
X5649Y5741D01*
X5649Y5741D01*
X5650Y5742D01*
X5651Y5744D01*
X5652Y5746D01*
X5653Y5748D01*
X5653Y5750D01*
X5653Y5751D01*
Y5751D01*
X5653Y5752D01*
Y5752D01*
X5653Y5754D01*
X5653Y5756D01*
X5652Y5757D01*
X5652Y5758D01*
X5652Y5759D01*
X5651Y5760D01*
X5651Y5761D01*
X5651Y5761D01*
X5650Y5762D01*
X5649Y5764D01*
X5648Y5765D01*
X5647Y5766D01*
X5646Y5766D01*
X5646Y5767D01*
X5645Y5767D01*
X5645Y5767D01*
X5643Y5768D01*
X5642Y5768D01*
X5640Y5768D01*
X5639Y5769D01*
X5638Y5769D01*
X5637Y5769D01*
D02*
G37*
G36*
X4020Y8363D02*
X4019D01*
X4018Y8363D01*
X4017Y8363D01*
X4016Y8363D01*
X4015Y8362D01*
X4013Y8361D01*
X4011Y8360D01*
X4010Y8359D01*
X4009Y8358D01*
X4008Y8357D01*
X4008Y8357D01*
X4008Y8357D01*
Y8357D01*
X4007Y8355D01*
X4006Y8354D01*
X4006Y8352D01*
X4005Y8350D01*
X4005Y8348D01*
X4004Y8345D01*
X4004Y8341D01*
X4004Y8339D01*
X4003Y8337D01*
X4003Y8335D01*
Y8333D01*
X4003Y8332D01*
Y8331D01*
Y8330D01*
Y8330D01*
Y8330D01*
Y8326D01*
X4003Y8323D01*
X4004Y8320D01*
X4004Y8317D01*
X4004Y8315D01*
X4005Y8313D01*
X4005Y8311D01*
X4005Y8309D01*
X4006Y8308D01*
X4006Y8307D01*
X4007Y8306D01*
X4007Y8305D01*
X4007Y8304D01*
X4008Y8304D01*
X4008Y8304D01*
X4008Y8303D01*
X4009Y8302D01*
X4010Y8301D01*
X4011Y8300D01*
X4012Y8300D01*
X4013Y8299D01*
X4014Y8298D01*
X4015Y8298D01*
X4017Y8297D01*
X4018Y8297D01*
X4018Y8297D01*
X4019Y8297D01*
X4019D01*
X4021Y8297D01*
X4022Y8297D01*
X4023Y8298D01*
X4024Y8298D01*
X4026Y8299D01*
X4028Y8300D01*
X4029Y8301D01*
X4030Y8302D01*
X4030Y8303D01*
X4031Y8303D01*
X4031Y8303D01*
X4031Y8303D01*
X4032Y8305D01*
X4032Y8306D01*
X4033Y8308D01*
X4034Y8310D01*
X4034Y8313D01*
X4034Y8315D01*
X4035Y8319D01*
X4035Y8321D01*
X4035Y8323D01*
X4035Y8325D01*
Y8327D01*
X4036Y8328D01*
Y8329D01*
Y8330D01*
Y8330D01*
Y8330D01*
X4035Y8334D01*
X4035Y8337D01*
X4035Y8340D01*
X4035Y8343D01*
X4034Y8345D01*
X4034Y8347D01*
X4033Y8349D01*
X4033Y8351D01*
X4032Y8353D01*
X4032Y8354D01*
X4032Y8355D01*
X4031Y8356D01*
X4031Y8357D01*
X4031Y8357D01*
X4031Y8357D01*
X4030Y8357D01*
X4030Y8358D01*
X4029Y8359D01*
X4028Y8360D01*
X4027Y8361D01*
X4025Y8362D01*
X4023Y8363D01*
X4022Y8363D01*
X4021Y8363D01*
X4020Y8363D01*
D02*
G37*
G36*
X6939Y4502D02*
X6920D01*
X6919Y4502D01*
X6917D01*
X6916Y4501D01*
X6915Y4501D01*
X6914Y4501D01*
X6912Y4501D01*
X6912Y4501D01*
X6911Y4501D01*
X6910Y4500D01*
X6910Y4500D01*
X6909Y4500D01*
X6909Y4500D01*
X6908Y4500D01*
X6908Y4500D01*
X6907Y4499D01*
X6906Y4499D01*
X6904Y4498D01*
X6902Y4496D01*
X6901Y4494D01*
X6900Y4493D01*
X6899Y4492D01*
X6899Y4491D01*
X6898Y4491D01*
X6898Y4491D01*
Y4491D01*
X6897Y4489D01*
X6897Y4488D01*
X6896Y4485D01*
X6895Y4482D01*
X6894Y4478D01*
X6894Y4477D01*
X6894Y4476D01*
X6894Y4474D01*
Y4473D01*
X6894Y4472D01*
Y4472D01*
Y4471D01*
Y4471D01*
X6894Y4468D01*
X6894Y4465D01*
X6895Y4462D01*
X6895Y4461D01*
X6895Y4460D01*
X6895Y4459D01*
X6895Y4458D01*
X6896Y4457D01*
X6896Y4457D01*
X6896Y4456D01*
X6896Y4456D01*
X6896Y4456D01*
Y4456D01*
X6897Y4453D01*
X6898Y4451D01*
X6899Y4449D01*
X6900Y4448D01*
X6901Y4447D01*
X6901Y4446D01*
X6902Y4445D01*
X6902Y4445D01*
X6903Y4444D01*
X6904Y4443D01*
X6906Y4443D01*
X6907Y4442D01*
X6908Y4442D01*
X6909Y4441D01*
X6909Y4441D01*
X6909Y4441D01*
X6909D01*
X6911Y4441D01*
X6913Y4440D01*
X6915Y4440D01*
X6917Y4440D01*
X6919Y4440D01*
X6920Y4440D01*
X6939D01*
Y4502D01*
D02*
G37*
G36*
X6840Y4503D02*
X6839Y4500D01*
X6839Y4497D01*
X6838Y4494D01*
X6837Y4492D01*
X6836Y4491D01*
X6836Y4489D01*
X6835Y4488D01*
X6835Y4487D01*
X6835Y4487D01*
X6835Y4486D01*
X6835Y4486D01*
Y4486D01*
X6826Y4463D01*
X6854D01*
X6845Y4487D01*
X6844Y4490D01*
X6843Y4493D01*
X6842Y4496D01*
X6841Y4498D01*
X6841Y4499D01*
X6841Y4500D01*
X6841Y4501D01*
X6841Y4501D01*
X6841Y4502D01*
X6840Y4502D01*
X6840Y4503D01*
Y4503D01*
D02*
G37*
G36*
X5960Y6282D02*
X5941D01*
X5940Y6282D01*
X5938D01*
X5937Y6282D01*
X5935Y6281D01*
X5934Y6281D01*
X5933Y6281D01*
X5932Y6281D01*
X5932Y6281D01*
X5931Y6281D01*
X5930Y6281D01*
X5930Y6280D01*
X5929Y6280D01*
X5929Y6280D01*
X5929Y6280D01*
X5928Y6280D01*
X5927Y6279D01*
X5925Y6278D01*
X5923Y6276D01*
X5922Y6275D01*
X5921Y6273D01*
X5920Y6272D01*
X5919Y6272D01*
X5919Y6271D01*
X5919Y6271D01*
Y6271D01*
X5918Y6270D01*
X5917Y6268D01*
X5916Y6265D01*
X5916Y6262D01*
X5915Y6259D01*
X5915Y6257D01*
X5915Y6256D01*
X5915Y6255D01*
Y6254D01*
X5915Y6253D01*
Y6252D01*
Y6252D01*
Y6251D01*
X5915Y6248D01*
X5915Y6245D01*
X5915Y6242D01*
X5916Y6241D01*
X5916Y6240D01*
X5916Y6239D01*
X5916Y6238D01*
X5916Y6238D01*
X5917Y6237D01*
X5917Y6236D01*
X5917Y6236D01*
X5917Y6236D01*
Y6236D01*
X5918Y6233D01*
X5919Y6231D01*
X5920Y6230D01*
X5921Y6228D01*
X5921Y6227D01*
X5922Y6226D01*
X5923Y6226D01*
X5923Y6225D01*
X5924Y6224D01*
X5925Y6224D01*
X5926Y6223D01*
X5927Y6222D01*
X5928Y6222D01*
X5929Y6222D01*
X5930Y6221D01*
X5930Y6221D01*
X5930D01*
X5932Y6221D01*
X5934Y6220D01*
X5936Y6220D01*
X5938Y6220D01*
X5940Y6220D01*
X5941Y6220D01*
X5960D01*
Y6282D01*
D02*
G37*
G36*
X5861Y6283D02*
X5860Y6280D01*
X5859Y6278D01*
X5858Y6275D01*
X5857Y6272D01*
X5857Y6271D01*
X5857Y6270D01*
X5856Y6269D01*
X5856Y6268D01*
X5856Y6267D01*
X5855Y6266D01*
X5855Y6266D01*
Y6266D01*
X5847Y6244D01*
X5874D01*
X5865Y6267D01*
X5864Y6270D01*
X5864Y6273D01*
X5863Y6276D01*
X5862Y6278D01*
X5862Y6279D01*
X5862Y6280D01*
X5861Y6281D01*
X5861Y6282D01*
X5861Y6282D01*
X5861Y6283D01*
X5861Y6283D01*
Y6283D01*
D02*
G37*
G36*
X5785Y6275D02*
Y6239D01*
X5811D01*
X5785Y6275D01*
D02*
G37*
%LPD*%
D13*
X4621Y2826D02*
X4629D01*
X4220D02*
X4439D01*
X3796D02*
X3964D01*
X3450D02*
X3755D01*
X3128D02*
X3296D01*
X4601Y2823D02*
X4647D01*
X4212D02*
X4439D01*
X3796D02*
X3974D01*
X3450D02*
X3755D01*
X3128D02*
X3308D01*
X4586Y2821D02*
X4662D01*
X4200D02*
X4439D01*
X3796D02*
X3989D01*
X3450D02*
X3755D01*
X3128D02*
X3321D01*
X4576Y2818D02*
X4672D01*
X4192D02*
X4439D01*
X3796D02*
X3999D01*
X3450D02*
X3755D01*
X3128D02*
X3331D01*
X4571Y2816D02*
X4677D01*
X4190D02*
X4439D01*
X3796D02*
X4002D01*
X3450D02*
X3755D01*
X3128D02*
X3336D01*
X4563Y2813D02*
X4685D01*
X4182D02*
X4439D01*
X3796D02*
X4009D01*
X3450D02*
X3755D01*
X3128D02*
X3344D01*
X4555Y2811D02*
X4690D01*
X4179D02*
X4439D01*
X3796D02*
X4014D01*
X3450D02*
X3755D01*
X3128D02*
X3349D01*
X4553Y2808D02*
X4693D01*
X4174D02*
X4439D01*
X3796D02*
X4019D01*
X3450D02*
X3755D01*
X3128D02*
X3351D01*
X4548Y2806D02*
X4700D01*
X4172D02*
X4439D01*
X3796D02*
X4025D01*
X3450D02*
X3755D01*
X3128D02*
X3356D01*
X4543Y2803D02*
X4705D01*
X4167D02*
X4439D01*
X3796D02*
X4030D01*
X3450D02*
X3755D01*
X3128D02*
X3364D01*
X4540Y2800D02*
X4708D01*
X4167D02*
X4439D01*
X3796D02*
X4032D01*
X3450D02*
X3755D01*
X3128D02*
X3364D01*
X4538Y2798D02*
X4713D01*
X4164D02*
X4439D01*
X3796D02*
X4037D01*
X3450D02*
X3755D01*
X3128D02*
X3369D01*
X4533Y2795D02*
X4715D01*
X4159D02*
X4439D01*
X3796D02*
X4040D01*
X3450D02*
X3755D01*
X3128D02*
X3374D01*
X4530Y2793D02*
X4718D01*
X4159D02*
X4439D01*
X3796D02*
X4042D01*
X3450D02*
X3755D01*
X3128D02*
X3374D01*
X4525Y2790D02*
X4720D01*
X4157D02*
X4439D01*
X3796D02*
X4045D01*
X3450D02*
X3755D01*
X3128D02*
X3379D01*
X4522Y2788D02*
X4726D01*
X4152D02*
X4439D01*
X3796D02*
X4050D01*
X3450D02*
X3755D01*
X3128D02*
X3382D01*
X4522Y2785D02*
X4728D01*
X4152D02*
X4439D01*
X3796D02*
X4052D01*
X3450D02*
X3755D01*
X3128D02*
X3384D01*
X4517Y2783D02*
X4731D01*
X4149D02*
X4439D01*
X3796D02*
X4055D01*
X3450D02*
X3755D01*
X3128D02*
X3387D01*
X4515Y2780D02*
X4733D01*
X4149D02*
X4439D01*
X3796D02*
X4058D01*
X3450D02*
X3755D01*
X3128D02*
X3390D01*
X4515Y2778D02*
X4736D01*
X4146D02*
X4439D01*
X3796D02*
X4060D01*
X3450D02*
X3755D01*
X3128D02*
X3392D01*
X4510Y2775D02*
X4738D01*
X4144D02*
X4439D01*
X3796D02*
X4060D01*
X3450D02*
X3755D01*
X3128D02*
X3395D01*
X4507Y2773D02*
X4738D01*
X4144D02*
X4439D01*
X3796D02*
X4065D01*
X3450D02*
X3755D01*
X3128D02*
X3397D01*
X4507Y2770D02*
X4741D01*
X4141D02*
X4439D01*
X3796D02*
X4065D01*
X3450D02*
X3755D01*
X3128D02*
X3397D01*
X4505Y2767D02*
X4743D01*
X4141D02*
X4439D01*
X3796D02*
X4068D01*
X3450D02*
X3755D01*
X3128D02*
X3402D01*
X4502Y2765D02*
X4746D01*
X4139D02*
X4228D01*
X3958D02*
X4070D01*
X3796D02*
X3857D01*
X3572D02*
X3633D01*
X3290D02*
X3402D01*
X4639Y2762D02*
X4746D01*
X4502D02*
X4609D01*
X4139D02*
X4220D01*
X3966D02*
X4073D01*
X3796D02*
X3857D01*
X3572D02*
X3633D01*
X3301D02*
X3405D01*
X4652Y2760D02*
X4751D01*
X4499D02*
X4596D01*
X4136D02*
X4212D01*
X3976D02*
X4073D01*
X3796D02*
X3857D01*
X3572D02*
X3633D01*
X3311D02*
X3407D01*
X4660Y2757D02*
X4751D01*
X4497D02*
X4588D01*
X4136D02*
X4210D01*
X3984D02*
X4075D01*
X3796D02*
X3857D01*
X3572D02*
X3633D01*
X3318D02*
X3410D01*
X4662Y2755D02*
X4751D01*
X4494D02*
X4586D01*
X4136D02*
X4207D01*
X3989D02*
X4075D01*
X3796D02*
X3857D01*
X3572D02*
X3633D01*
X3321D02*
X3410D01*
X4670Y2752D02*
X4753D01*
X4494D02*
X4578D01*
X4134D02*
X4205D01*
X3994D02*
X4078D01*
X3796D02*
X3857D01*
X3572D02*
X3633D01*
X3326D02*
X3412D01*
X4675Y2750D02*
X4756D01*
X4492D02*
X4576D01*
X4134D02*
X4202D01*
X3999D02*
X4080D01*
X3796D02*
X3857D01*
X3572D02*
X3633D01*
X3331D02*
X3412D01*
X4675Y2747D02*
X4756D01*
X4492D02*
X4571D01*
X4134D02*
X4200D01*
X3999D02*
X4080D01*
X3796D02*
X3857D01*
X3572D02*
X3633D01*
X3334D02*
X3412D01*
X4680Y2745D02*
X4759D01*
X4489D02*
X4568D01*
X4134D02*
X4197D01*
X4004D02*
X4083D01*
X3796D02*
X3857D01*
X3572D02*
X3633D01*
X3336D02*
X3417D01*
X4685Y2742D02*
X4761D01*
X4487D02*
X4563D01*
X4134D02*
X4197D01*
X4007D02*
X4083D01*
X3796D02*
X3857D01*
X3572D02*
X3633D01*
X3341D02*
X3417D01*
X4685Y2740D02*
X4761D01*
X4487D02*
X4563D01*
X4131D02*
X4195D01*
X4009D02*
X4085D01*
X3796D02*
X3857D01*
X3572D02*
X3633D01*
X3344D02*
X3417D01*
X4690Y2737D02*
X4761D01*
X4487D02*
X4560D01*
X4131D02*
X4195D01*
X4012D02*
X4088D01*
X3796D02*
X3857D01*
X3572D02*
X3633D01*
X3346D02*
X3420D01*
X4693Y2734D02*
X4764D01*
X4484D02*
X4555D01*
X4131D02*
X4195D01*
X4014D02*
X4088D01*
X3796D02*
X3857D01*
X3572D02*
X3633D01*
X3349D02*
X3420D01*
X4693Y2732D02*
X4764D01*
X4484D02*
X4555D01*
X4131D02*
X4192D01*
X4017D02*
X4088D01*
X3796D02*
X3857D01*
X3572D02*
X3633D01*
X3351D02*
X3420D01*
X4695Y2729D02*
X4766D01*
X4484D02*
X4553D01*
X4131D02*
X4192D01*
X4019D02*
X4091D01*
X3796D02*
X3857D01*
X3572D02*
X3633D01*
X3351D02*
X3423D01*
X4698Y2727D02*
X4766D01*
X4482D02*
X4550D01*
X4131D02*
X4192D01*
X4022D02*
X4091D01*
X3796D02*
X3857D01*
X3572D02*
X3633D01*
X3356D02*
X3425D01*
X4698Y2724D02*
X4766D01*
X4482D02*
X4548D01*
X4131D02*
X4192D01*
X4022D02*
X4091D01*
X3796D02*
X3857D01*
X3572D02*
X3633D01*
X3356D02*
X3425D01*
X4700Y2722D02*
X4769D01*
X4479D02*
X4548D01*
X4131D02*
X4192D01*
X4025D02*
X4091D01*
X3796D02*
X3857D01*
X3572D02*
X3633D01*
X3359D02*
X3425D01*
X4703Y2719D02*
X4769D01*
X4479D02*
X4545D01*
X4131D02*
X4192D01*
X4027D02*
X4093D01*
X3796D02*
X3857D01*
X3572D02*
X3633D01*
X3359D02*
X3425D01*
X4703Y2717D02*
X4769D01*
X4479D02*
X4545D01*
X4131D02*
X4192D01*
X4027D02*
X4093D01*
X3796D02*
X3857D01*
X3572D02*
X3633D01*
X3359D02*
X3428D01*
X4705Y2714D02*
X4769D01*
X4477D02*
X4543D01*
X4131D02*
X4192D01*
X4030D02*
X4096D01*
X3796D02*
X3857D01*
X3572D02*
X3633D01*
X3362D02*
X3428D01*
X4705Y2712D02*
X4771D01*
X4477D02*
X4540D01*
X4131D02*
X4195D01*
X4030D02*
X4096D01*
X3796D02*
X3857D01*
X3572D02*
X3633D01*
X3364D02*
X3428D01*
X4708Y2709D02*
X4771D01*
X4477D02*
X4540D01*
X4131D02*
X4195D01*
X4030D02*
X4096D01*
X3796D02*
X3857D01*
X3572D02*
X3633D01*
X3364D02*
X3428D01*
X4708Y2707D02*
X4774D01*
X4477D02*
X4540D01*
X4134D02*
X4195D01*
X4032D02*
X4096D01*
X3796D02*
X3857D01*
X3572D02*
X3633D01*
X3367D02*
X3428D01*
X4708Y2704D02*
X4774D01*
X4477D02*
X4538D01*
X4134D02*
X4197D01*
X4035D02*
X4098D01*
X3796D02*
X3857D01*
X3572D02*
X3633D01*
X3367D02*
X3430D01*
X3128D02*
X3288D01*
X4710Y2701D02*
X4774D01*
X4474D02*
X4538D01*
X4134D02*
X4197D01*
X4035D02*
X4098D01*
X3796D02*
X3857D01*
X3572D02*
X3633D01*
X3367D02*
X3430D01*
X3128D02*
X3288D01*
X4710Y2699D02*
X4774D01*
X4474D02*
X4538D01*
X4134D02*
X4200D01*
X4035D02*
X4098D01*
X3796D02*
X3857D01*
X3572D02*
X3633D01*
X3367D02*
X3430D01*
X3128D02*
X3288D01*
X4713Y2696D02*
X4774D01*
X4474D02*
X4538D01*
X4134D02*
X4202D01*
X4035D02*
X4098D01*
X3796D02*
X3857D01*
X3572D02*
X3633D01*
X3369D02*
X3433D01*
X3128D02*
X3288D01*
X4713Y2694D02*
X4774D01*
X4474D02*
X4538D01*
X4134D02*
X4205D01*
X4037D02*
X4098D01*
X3796D02*
X3857D01*
X3572D02*
X3633D01*
X3369D02*
X3433D01*
X3128D02*
X3288D01*
X4713Y2691D02*
X4774D01*
X4472D02*
X4535D01*
X4136D02*
X4207D01*
X4037D02*
X4098D01*
X3796D02*
X3857D01*
X3572D02*
X3633D01*
X3372D02*
X3433D01*
X3128D02*
X3288D01*
X4713Y2689D02*
X4774D01*
X4472D02*
X4535D01*
X4136D02*
X4212D01*
X4037D02*
X4098D01*
X3796D02*
X3857D01*
X3572D02*
X3633D01*
X3372D02*
X3433D01*
X3128D02*
X3288D01*
X4713Y2686D02*
X4776D01*
X4472D02*
X4535D01*
X4136D02*
X4212D01*
X4037D02*
X4098D01*
X3796D02*
X3857D01*
X3572D02*
X3633D01*
X3372D02*
X3433D01*
X3128D02*
X3288D01*
X4713Y2684D02*
X4776D01*
X4472D02*
X4533D01*
X4139D02*
X4220D01*
X4037D02*
X4098D01*
X3796D02*
X3857D01*
X3572D02*
X3633D01*
X3372D02*
X3433D01*
X3128D02*
X3288D01*
X4715Y2681D02*
X4776D01*
X4472D02*
X4533D01*
X4141D02*
X4439D01*
X4037D02*
X4098D01*
X3796D02*
X3857D01*
X3572D02*
X3633D01*
X3372D02*
X3433D01*
X3128D02*
X3288D01*
X4715Y2679D02*
X4776D01*
X4472D02*
X4533D01*
X4141D02*
X4439D01*
X4037D02*
X4098D01*
X3796D02*
X3857D01*
X3572D02*
X3633D01*
X3372D02*
X3433D01*
X3128D02*
X3288D01*
X4715Y2676D02*
X4776D01*
X4472D02*
X4533D01*
X4141D02*
X4439D01*
X4037D02*
X4098D01*
X3796D02*
X3857D01*
X3572D02*
X3633D01*
X3372D02*
X3433D01*
X3128D02*
X3288D01*
X4715Y2674D02*
X4776D01*
X4472D02*
X4533D01*
X4144D02*
X4439D01*
X4037D02*
X4098D01*
X3796D02*
X3857D01*
X3572D02*
X3633D01*
X3372D02*
X3433D01*
X3128D02*
X3288D01*
X4715Y2671D02*
X4776D01*
X4472D02*
X4533D01*
X4144D02*
X4439D01*
X4037D02*
X4098D01*
X3796D02*
X3857D01*
X3572D02*
X3633D01*
X3372D02*
X3433D01*
X3128D02*
X3288D01*
X4715Y2668D02*
X4776D01*
X4472D02*
X4533D01*
X4146D02*
X4439D01*
X4037D02*
X4098D01*
X3796D02*
X3857D01*
X3572D02*
X3633D01*
X3372D02*
X3433D01*
X3128D02*
X3288D01*
X4715Y2666D02*
X4776D01*
X4472D02*
X4533D01*
X4149D02*
X4439D01*
X4037D02*
X4098D01*
X3796D02*
X3857D01*
X3572D02*
X3633D01*
X3372D02*
X3433D01*
X3128D02*
X3288D01*
X4713Y2663D02*
X4776D01*
X4472D02*
X4533D01*
X4149D02*
X4439D01*
X4037D02*
X4098D01*
X3796D02*
X3857D01*
X3572D02*
X3633D01*
X3372D02*
X3433D01*
X3128D02*
X3288D01*
X4713Y2661D02*
X4776D01*
X4472D02*
X4535D01*
X4152D02*
X4439D01*
X4037D02*
X4098D01*
X3796D02*
X3857D01*
X3572D02*
X3633D01*
X3372D02*
X3433D01*
X3128D02*
X3288D01*
X4713Y2658D02*
X4774D01*
X4472D02*
X4535D01*
X4154D02*
X4439D01*
X4037D02*
X4098D01*
X3796D02*
X3857D01*
X3572D02*
X3633D01*
X3372D02*
X3433D01*
X3128D02*
X3288D01*
X4713Y2656D02*
X4774D01*
X4472D02*
X4535D01*
X4157D02*
X4439D01*
X4037D02*
X4098D01*
X3796D02*
X3857D01*
X3572D02*
X3633D01*
X3369D02*
X3433D01*
X3128D02*
X3288D01*
X4713Y2653D02*
X4774D01*
X4474D02*
X4538D01*
X4159D02*
X4439D01*
X4037D02*
X4098D01*
X3796D02*
X3857D01*
X3572D02*
X3633D01*
X3369D02*
X3433D01*
X3128D02*
X3288D01*
X4713Y2651D02*
X4774D01*
X4474D02*
X4538D01*
X4162D02*
X4439D01*
X4035D02*
X4098D01*
X3796D02*
X3857D01*
X3572D02*
X3633D01*
X3367D02*
X3430D01*
X3128D02*
X3288D01*
X4710Y2648D02*
X4774D01*
X4474D02*
X4538D01*
X4164D02*
X4439D01*
X4035D02*
X4098D01*
X3796D02*
X3857D01*
X3572D02*
X3633D01*
X3367D02*
X3430D01*
X3128D02*
X3288D01*
X4710Y2646D02*
X4774D01*
X4474D02*
X4538D01*
X4167D02*
X4439D01*
X4035D02*
X4098D01*
X3796D02*
X3857D01*
X3572D02*
X3633D01*
X3367D02*
X3430D01*
X3128D02*
X3288D01*
X4708Y2643D02*
X4774D01*
X4477D02*
X4540D01*
X4169D02*
X4439D01*
X4032D02*
X4096D01*
X3796D02*
X3857D01*
X3572D02*
X3633D01*
X3367D02*
X3430D01*
X4708Y2640D02*
X4774D01*
X4477D02*
X4540D01*
X4172D02*
X4439D01*
X4032D02*
X4096D01*
X3796D02*
X3857D01*
X3572D02*
X3633D01*
X3364D02*
X3428D01*
X4708Y2638D02*
X4771D01*
X4477D02*
X4540D01*
X4174D02*
X4439D01*
X4030D02*
X4096D01*
X3796D02*
X3857D01*
X3572D02*
X3633D01*
X3364D02*
X3428D01*
X4705Y2635D02*
X4771D01*
X4477D02*
X4543D01*
X4179D02*
X4439D01*
X4030D02*
X4096D01*
X3796D02*
X3857D01*
X3572D02*
X3633D01*
X3362D02*
X3428D01*
X4705Y2633D02*
X4769D01*
X4477D02*
X4543D01*
X4182D02*
X4439D01*
X4030D02*
X4096D01*
X3796D02*
X3857D01*
X3572D02*
X3633D01*
X3362D02*
X3428D01*
X4703Y2630D02*
X4769D01*
X4479D02*
X4545D01*
X4190D02*
X4439D01*
X4027D02*
X4093D01*
X3796D02*
X3857D01*
X3572D02*
X3633D01*
X3359D02*
X3425D01*
X4700Y2628D02*
X4769D01*
X4479D02*
X4548D01*
X4190D02*
X4439D01*
X4025D02*
X4091D01*
X3796D02*
X3857D01*
X3572D02*
X3633D01*
X3359D02*
X3425D01*
X4700Y2625D02*
X4769D01*
X4479D02*
X4548D01*
X4190D02*
X4439D01*
X4025D02*
X4091D01*
X3796D02*
X3857D01*
X3572D02*
X3633D01*
X3356D02*
X3425D01*
X4698Y2623D02*
X4766D01*
X4482D02*
X4548D01*
X4187D02*
X4439D01*
X4022D02*
X4091D01*
X3796D02*
X3857D01*
X3572D02*
X3633D01*
X3356D02*
X3425D01*
X4698Y2620D02*
X4766D01*
X4593D02*
X4654D01*
X4482D02*
X4553D01*
X4185D02*
X4289D01*
X4019D02*
X4091D01*
X3796D02*
X3857D01*
X3572D02*
X3633D01*
X3351D02*
X3423D01*
X4695Y2618D02*
X4766D01*
X4593D02*
X4654D01*
X4484D02*
X4553D01*
X4182D02*
X4281D01*
X4019D02*
X4088D01*
X3796D02*
X3857D01*
X3572D02*
X3633D01*
X3351D02*
X3423D01*
X4693Y2615D02*
X4764D01*
X4593D02*
X4654D01*
X4484D02*
X4555D01*
X4182D02*
X4273D01*
X4014D02*
X4088D01*
X3796D02*
X3857D01*
X3572D02*
X3633D01*
X3349D02*
X3420D01*
X4690Y2613D02*
X4761D01*
X4593D02*
X4654D01*
X4484D02*
X4558D01*
X4179D02*
X4266D01*
X4014D02*
X4088D01*
X3796D02*
X3857D01*
X3572D02*
X3633D01*
X3346D02*
X3420D01*
X4690Y2610D02*
X4761D01*
X4593D02*
X4654D01*
X4487D02*
X4560D01*
X4179D02*
X4263D01*
X4012D02*
X4085D01*
X3796D02*
X3857D01*
X3572D02*
X3633D01*
X3344D02*
X3420D01*
X4685Y2607D02*
X4761D01*
X4593D02*
X4654D01*
X4487D02*
X4563D01*
X4177D02*
X4258D01*
X4009D02*
X4083D01*
X3796D02*
X3857D01*
X3572D02*
X3633D01*
X3341D02*
X3417D01*
X4682Y2605D02*
X4759D01*
X4593D02*
X4654D01*
X4489D02*
X4566D01*
X4174D02*
X4256D01*
X4004D02*
X4083D01*
X3796D02*
X3857D01*
X3572D02*
X3633D01*
X3339D02*
X3417D01*
X4680Y2602D02*
X4759D01*
X4593D02*
X4654D01*
X4489D02*
X4568D01*
X4174D02*
X4251D01*
X4004D02*
X4083D01*
X3796D02*
X3857D01*
X3572D02*
X3633D01*
X3336D02*
X3415D01*
X4675Y2600D02*
X4756D01*
X4593D02*
X4654D01*
X4492D02*
X4571D01*
X4174D02*
X4248D01*
X3999D02*
X4080D01*
X3796D02*
X3857D01*
X3572D02*
X3633D01*
X3334D02*
X3412D01*
X4670Y2597D02*
X4753D01*
X4593D02*
X4654D01*
X4492D02*
X4576D01*
X4172D02*
X4246D01*
X3994D02*
X4078D01*
X3796D02*
X3857D01*
X3572D02*
X3633D01*
X3329D02*
X3412D01*
X4670Y2595D02*
X4753D01*
X4593D02*
X4654D01*
X4494D02*
X4578D01*
X4172D02*
X4243D01*
X3992D02*
X4078D01*
X3796D02*
X3857D01*
X3572D02*
X3633D01*
X3326D02*
X3410D01*
X4670Y2592D02*
X4751D01*
X4593D02*
X4654D01*
X4494D02*
X4578D01*
X4169D02*
X4240D01*
X3986D02*
X4075D01*
X3796D02*
X3857D01*
X3572D02*
X3633D01*
X3318D02*
X3410D01*
X4670Y2590D02*
X4751D01*
X4593D02*
X4654D01*
X4497D02*
X4578D01*
X4169D02*
X4240D01*
X3981D02*
X4075D01*
X3796D02*
X3857D01*
X3572D02*
X3633D01*
X3316D02*
X3407D01*
X4670Y2587D02*
X4748D01*
X4593D02*
X4654D01*
X4499D02*
X4578D01*
X4167D02*
X4238D01*
X3974D02*
X4073D01*
X3796D02*
X3857D01*
X3572D02*
X3633D01*
X3306D02*
X3405D01*
X4670Y2585D02*
X4746D01*
X4593D02*
X4654D01*
X4502D02*
X4578D01*
X4167D02*
X4235D01*
X3961D02*
X4070D01*
X3796D02*
X3857D01*
X3572D02*
X3633D01*
X3293D02*
X3405D01*
X4670Y2582D02*
X4746D01*
X4593D02*
X4654D01*
X4502D02*
X4578D01*
X4167D02*
X4233D01*
X3892D02*
X4068D01*
X3796D02*
X3857D01*
X3572D02*
X3633D01*
X3128D02*
X3402D01*
X4670Y2580D02*
X4743D01*
X4593D02*
X4654D01*
X4505D02*
X4578D01*
X4164D02*
X4233D01*
X3892D02*
X4068D01*
X3796D02*
X3857D01*
X3572D02*
X3633D01*
X3128D02*
X3400D01*
X4670Y2577D02*
X4741D01*
X4593D02*
X4654D01*
X4507D02*
X4578D01*
X4164D02*
X4230D01*
X3892D02*
X4065D01*
X3796D02*
X3857D01*
X3572D02*
X3633D01*
X3128D02*
X3397D01*
X4670Y2574D02*
X4738D01*
X4593D02*
X4654D01*
X4507D02*
X4578D01*
X4164D02*
X4230D01*
X3892D02*
X4063D01*
X3796D02*
X3857D01*
X3572D02*
X3633D01*
X3128D02*
X3397D01*
X4670Y2572D02*
X4738D01*
X4593D02*
X4654D01*
X4510D02*
X4578D01*
X4164D02*
X4228D01*
X3892D02*
X4060D01*
X3796D02*
X3857D01*
X3572D02*
X3633D01*
X3128D02*
X3395D01*
X4670Y2569D02*
X4736D01*
X4593D02*
X4654D01*
X4515D02*
X4578D01*
X4162D02*
X4228D01*
X3892D02*
X4058D01*
X3796D02*
X3857D01*
X3572D02*
X3633D01*
X3128D02*
X3390D01*
X4670Y2567D02*
X4733D01*
X4593D02*
X4654D01*
X4515D02*
X4578D01*
X4162D02*
X4225D01*
X3892D02*
X4058D01*
X3796D02*
X3857D01*
X3572D02*
X3633D01*
X3128D02*
X3390D01*
X4670Y2564D02*
X4731D01*
X4593D02*
X4654D01*
X4517D02*
X4578D01*
X4162D02*
X4225D01*
X3892D02*
X4052D01*
X3796D02*
X3857D01*
X3572D02*
X3633D01*
X3128D02*
X3387D01*
X4670Y2562D02*
X4728D01*
X4593D02*
X4654D01*
X4522D02*
X4578D01*
X4159D02*
X4225D01*
X3892D02*
X4050D01*
X3796D02*
X3857D01*
X3572D02*
X3633D01*
X3128D02*
X3382D01*
X4670Y2559D02*
X4726D01*
X4593D02*
X4654D01*
X4522D02*
X4578D01*
X4159D02*
X4223D01*
X3892D02*
X4050D01*
X3796D02*
X3857D01*
X3572D02*
X3633D01*
X3128D02*
X3382D01*
X4670Y2557D02*
X4720D01*
X4593D02*
X4654D01*
X4525D02*
X4578D01*
X4159D02*
X4223D01*
X3892D02*
X4045D01*
X3796D02*
X3857D01*
X3572D02*
X3633D01*
X3128D02*
X3379D01*
X4670Y2554D02*
X4718D01*
X4593D02*
X4654D01*
X4530D02*
X4578D01*
X4159D02*
X4220D01*
X3892D02*
X4042D01*
X3796D02*
X3857D01*
X3572D02*
X3633D01*
X3128D02*
X3374D01*
X4670Y2552D02*
X4715D01*
X4593D02*
X4654D01*
X4533D02*
X4578D01*
X4159D02*
X4220D01*
X3892D02*
X4037D01*
X3796D02*
X3857D01*
X3572D02*
X3633D01*
X3128D02*
X3372D01*
X4670Y2549D02*
X4713D01*
X4593D02*
X4654D01*
X4538D02*
X4578D01*
X4159D02*
X4220D01*
X3892D02*
X4035D01*
X3796D02*
X3857D01*
X3572D02*
X3633D01*
X3128D02*
X3367D01*
X4670Y2547D02*
X4708D01*
X4593D02*
X4654D01*
X4540D02*
X4578D01*
X4159D02*
X4220D01*
X3892D02*
X4030D01*
X3796D02*
X3857D01*
X3572D02*
X3633D01*
X3128D02*
X3364D01*
X4670Y2544D02*
X4705D01*
X4593D02*
X4654D01*
X4545D02*
X4578D01*
X4157D02*
X4220D01*
X3892D02*
X4027D01*
X3796D02*
X3857D01*
X3572D02*
X3633D01*
X3128D02*
X3359D01*
X4670Y2541D02*
X4700D01*
X4593D02*
X4654D01*
X4548D02*
X4578D01*
X4157D02*
X4220D01*
X3892D02*
X4022D01*
X3796D02*
X3857D01*
X3572D02*
X3633D01*
X3128D02*
X3356D01*
X4670Y2539D02*
X4693D01*
X4593D02*
X4654D01*
X4555D02*
X4578D01*
X4157D02*
X4218D01*
X3892D02*
X4017D01*
X3796D02*
X3857D01*
X3572D02*
X3633D01*
X3128D02*
X3349D01*
X4670Y2536D02*
X4690D01*
X4593D02*
X4654D01*
X4558D02*
X4578D01*
X4157D02*
X4218D01*
X3892D02*
X4014D01*
X3796D02*
X3857D01*
X3572D02*
X3633D01*
X3128D02*
X3346D01*
X4670Y2534D02*
X4685D01*
X4593D02*
X4654D01*
X4563D02*
X4578D01*
X4157D02*
X4218D01*
X3892D02*
X4007D01*
X3796D02*
X3857D01*
X3572D02*
X3633D01*
X3128D02*
X3341D01*
X4670Y2531D02*
X4677D01*
X4593D02*
X4654D01*
X4571D02*
X4578D01*
X4157D02*
X4218D01*
X3892D02*
X3999D01*
X3796D02*
X3857D01*
X3572D02*
X3633D01*
X3128D02*
X3331D01*
X4593Y2529D02*
X4654D01*
X4157D02*
X4218D01*
X3892D02*
X3994D01*
X3796D02*
X3857D01*
X3572D02*
X3633D01*
X3128D02*
X3326D01*
X4593Y2526D02*
X4654D01*
X4157D02*
X4218D01*
X3892D02*
X3984D01*
X3796D02*
X3857D01*
X3572D02*
X3633D01*
X3128D02*
X3316D01*
X4593Y2524D02*
X4654D01*
X4157D02*
X4218D01*
X3892D02*
X3966D01*
X3796D02*
X3857D01*
X3572D02*
X3633D01*
X3128D02*
X3298D01*
X4593Y2521D02*
X4654D01*
X4593Y2519D02*
X4654D01*
X4593Y2516D02*
X4654D01*
X4593Y2513D02*
X4654D01*
X4593Y2511D02*
X4654D01*
X4593Y2508D02*
X4654D01*
X4593Y2506D02*
X4654D01*
X4593Y2503D02*
X4654D01*
X4593Y2501D02*
X4654D01*
X4593Y2498D02*
X4654D01*
X4593Y2496D02*
X4654D01*
X4545Y2425D02*
X4548D01*
X4494D02*
X4499D01*
X4263D02*
X4266D01*
X4210D02*
X4212D01*
X3971D02*
X3974D01*
X3915D02*
X3920D01*
X3870D02*
X3875D01*
X3816D02*
X3819D01*
X3704D02*
X3707D01*
X3481D02*
X3486D01*
X3260D02*
X3265D01*
X4545Y2422D02*
X4548D01*
X4494D02*
X4499D01*
X4263D02*
X4266D01*
X4210D02*
X4212D01*
X3971D02*
X3976D01*
X3915D02*
X3920D01*
X3870D02*
X3875D01*
X3816D02*
X3819D01*
X3702D02*
X3707D01*
X3481D02*
X3486D01*
X3260D02*
X3265D01*
X4693Y2419D02*
X4728D01*
X4642D02*
X4654D01*
X4593D02*
X4609D01*
X4543D02*
X4548D01*
X4492D02*
X4499D01*
X4426D02*
X4441D01*
X4367D02*
X4418D01*
X4345D02*
X4357D01*
X4299D02*
X4312D01*
X4263D02*
X4268D01*
X4210D02*
X4215D01*
X4098D02*
X4131D01*
X4027D02*
X4058D01*
X3969D02*
X3976D01*
X3915D02*
X3923D01*
X3867D02*
X3875D01*
X3814D02*
X3821D01*
X3771D02*
X3786D01*
X3725D02*
X3740D01*
X3699D02*
X3707D01*
X3636D02*
X3649D01*
X3605D02*
X3618D01*
X3532D02*
X3567D01*
X3481D02*
X3486D01*
X3400D02*
X3450D01*
X3377D02*
X3390D01*
X3306D02*
X3336D01*
X3257D02*
X3265D01*
X3194D02*
X3207D01*
X3141D02*
X3166D01*
X4687Y2417D02*
X4733D01*
X4642D02*
X4654D01*
X4593D02*
X4609D01*
X4540D02*
X4550D01*
X4487D02*
X4499D01*
X4426D02*
X4441D01*
X4367D02*
X4418D01*
X4345D02*
X4357D01*
X4299D02*
X4312D01*
X4261D02*
X4268D01*
X4207D02*
X4215D01*
X4091D02*
X4136D01*
X4019D02*
X4065D01*
X3969D02*
X3976D01*
X3915D02*
X3923D01*
X3867D02*
X3875D01*
X3814D02*
X3821D01*
X3771D02*
X3786D01*
X3725D02*
X3740D01*
X3697D02*
X3707D01*
X3636D02*
X3649D01*
X3605D02*
X3618D01*
X3527D02*
X3572D01*
X3478D02*
X3489D01*
X3400D02*
X3450D01*
X3377D02*
X3390D01*
X3298D02*
X3344D01*
X3255D02*
X3265D01*
X3194D02*
X3207D01*
X3136D02*
X3171D01*
X4685Y2414D02*
X4736D01*
X4642D02*
X4654D01*
X4593D02*
X4609D01*
X4540D02*
X4553D01*
X4487D02*
X4499D01*
X4426D02*
X4441D01*
X4367D02*
X4418D01*
X4345D02*
X4357D01*
X4299D02*
X4312D01*
X4258D02*
X4268D01*
X4207D02*
X4218D01*
X4091D02*
X4139D01*
X4017D02*
X4068D01*
X3969D02*
X3976D01*
X3915D02*
X3923D01*
X3867D02*
X3875D01*
X3814D02*
X3824D01*
X3771D02*
X3786D01*
X3725D02*
X3740D01*
X3694D02*
X3707D01*
X3636D02*
X3649D01*
X3605D02*
X3618D01*
X3527D02*
X3575D01*
X3478D02*
X3489D01*
X3400D02*
X3450D01*
X3377D02*
X3390D01*
X3296D02*
X3346D01*
X3252D02*
X3265D01*
X3194D02*
X3207D01*
X3136D02*
X3174D01*
X4682Y2412D02*
X4738D01*
X4642D02*
X4654D01*
X4593D02*
X4609D01*
X4538D02*
X4553D01*
X4484D02*
X4499D01*
X4426D02*
X4441D01*
X4367D02*
X4418D01*
X4345D02*
X4357D01*
X4299D02*
X4312D01*
X4258D02*
X4271D01*
X4207D02*
X4218D01*
X4091D02*
X4144D01*
X4014D02*
X4070D01*
X3966D02*
X3976D01*
X3915D02*
X3925D01*
X3865D02*
X3875D01*
X3814D02*
X3824D01*
X3771D02*
X3786D01*
X3725D02*
X3740D01*
X3692D02*
X3707D01*
X3636D02*
X3649D01*
X3605D02*
X3618D01*
X3527D02*
X3577D01*
X3478D02*
X3491D01*
X3400D02*
X3450D01*
X3377D02*
X3390D01*
X3293D02*
X3349D01*
X3250D02*
X3265D01*
X3194D02*
X3207D01*
X3133D02*
X3174D01*
X4715Y2409D02*
X4743D01*
X4677D02*
X4705D01*
X4642D02*
X4654D01*
X4593D02*
X4609D01*
X4538D02*
X4553D01*
X4479D02*
X4499D01*
X4426D02*
X4441D01*
X4367D02*
X4418D01*
X4345D02*
X4357D01*
X4299D02*
X4312D01*
X4258D02*
X4271D01*
X4205D02*
X4220D01*
X4119D02*
X4144D01*
X4091D02*
X4108D01*
X4047D02*
X4073D01*
X4012D02*
X4037D01*
X3966D02*
X3976D01*
X3915D02*
X3928D01*
X3862D02*
X3877D01*
X3814D02*
X3824D01*
X3771D02*
X3786D01*
X3725D02*
X3740D01*
X3689D02*
X3707D01*
X3636D02*
X3649D01*
X3605D02*
X3618D01*
X3555D02*
X3580D01*
X3527D02*
X3544D01*
X3476D02*
X3494D01*
X3400D02*
X3450D01*
X3377D02*
X3390D01*
X3326D02*
X3351D01*
X3290D02*
X3313D01*
X3247D02*
X3265D01*
X3194D02*
X3207D01*
X3158D02*
X3176D01*
X3130D02*
X3151D01*
X4720Y2407D02*
X4743D01*
X4677D02*
X4700D01*
X4642D02*
X4654D01*
X4593D02*
X4609D01*
X4538D02*
X4555D01*
X4479D02*
X4499D01*
X4426D02*
X4441D01*
X4385D02*
X4400D01*
X4345D02*
X4357D01*
X4299D02*
X4312D01*
X4256D02*
X4271D01*
X4205D02*
X4220D01*
X4126D02*
X4146D01*
X4091D02*
X4103D01*
X4052D02*
X4075D01*
X4009D02*
X4030D01*
X3964D02*
X3979D01*
X3913D02*
X3928D01*
X3862D02*
X3877D01*
X3814D02*
X3826D01*
X3771D02*
X3786D01*
X3725D02*
X3740D01*
X3687D02*
X3707D01*
X3636D02*
X3649D01*
X3605D02*
X3618D01*
X3562D02*
X3583D01*
X3527D02*
X3539D01*
X3473D02*
X3494D01*
X3417D02*
X3433D01*
X3377D02*
X3390D01*
X3334D02*
X3354D01*
X3288D02*
X3311D01*
X3245D02*
X3265D01*
X3194D02*
X3207D01*
X3161D02*
X3176D01*
X3130D02*
X3146D01*
X4728Y2404D02*
X4746D01*
X4675D02*
X4693D01*
X4642D02*
X4654D01*
X4593D02*
X4609D01*
X4535D02*
X4555D01*
X4477D02*
X4499D01*
X4426D02*
X4441D01*
X4385D02*
X4400D01*
X4345D02*
X4357D01*
X4299D02*
X4312D01*
X4256D02*
X4271D01*
X4205D02*
X4220D01*
X4129D02*
X4149D01*
X4091D02*
X4098D01*
X4058D02*
X4078D01*
X4007D02*
X4027D01*
X3961D02*
X3979D01*
X3913D02*
X3928D01*
X3862D02*
X3877D01*
X3811D02*
X3829D01*
X3771D02*
X3786D01*
X3725D02*
X3740D01*
X3684D02*
X3707D01*
X3636D02*
X3649D01*
X3605D02*
X3618D01*
X3565D02*
X3585D01*
X3527D02*
X3534D01*
X3473D02*
X3494D01*
X3417D02*
X3433D01*
X3377D02*
X3390D01*
X3336D02*
X3356D01*
X3285D02*
X3306D01*
X3242D02*
X3265D01*
X3194D02*
X3207D01*
X3163D02*
X3176D01*
X3136D02*
X3143D01*
X4731Y2402D02*
X4748D01*
X4675D02*
X4690D01*
X4642D02*
X4654D01*
X4593D02*
X4609D01*
X4533D02*
X4558D01*
X4472D02*
X4499D01*
X4426D02*
X4441D01*
X4385D02*
X4400D01*
X4345D02*
X4357D01*
X4299D02*
X4312D01*
X4253D02*
X4271D01*
X4205D02*
X4223D01*
X4134D02*
X4152D01*
X4091D02*
X4093D01*
X4063D02*
X4080D01*
X4004D02*
X4022D01*
X3961D02*
X3979D01*
X3913D02*
X3931D01*
X3859D02*
X3877D01*
X3811D02*
X3829D01*
X3771D02*
X3786D01*
X3725D02*
X3740D01*
X3682D02*
X3707D01*
X3636D02*
X3649D01*
X3605D02*
X3618D01*
X3570D02*
X3588D01*
X3527D02*
X3529D01*
X3471D02*
X3496D01*
X3417D02*
X3433D01*
X3377D02*
X3390D01*
X3341D02*
X3359D01*
X3283D02*
X3301D01*
X3240D02*
X3265D01*
X3194D02*
X3207D01*
X3163D02*
X3176D01*
X4731Y2399D02*
X4748D01*
X4672D02*
X4690D01*
X4642D02*
X4654D01*
X4593D02*
X4609D01*
X4533D02*
X4558D01*
X4472D02*
X4499D01*
X4426D02*
X4441D01*
X4385D02*
X4400D01*
X4345D02*
X4357D01*
X4299D02*
X4312D01*
X4253D02*
X4271D01*
X4205D02*
X4223D01*
X4134D02*
X4152D01*
X4065D02*
X4080D01*
X4004D02*
X4019D01*
X3961D02*
X3979D01*
X3913D02*
X3931D01*
X3859D02*
X3877D01*
X3811D02*
X3829D01*
X3771D02*
X3786D01*
X3725D02*
X3740D01*
X3682D02*
X3707D01*
X3636D02*
X3649D01*
X3605D02*
X3618D01*
X3570D02*
X3588D01*
X3471D02*
X3496D01*
X3417D02*
X3433D01*
X3377D02*
X3390D01*
X3344D02*
X3359D01*
X3283D02*
X3298D01*
X3237D02*
X3265D01*
X3194D02*
X3207D01*
X3163D02*
X3176D01*
X4736Y2397D02*
X4751D01*
X4670D02*
X4687D01*
X4642D02*
X4654D01*
X4593D02*
X4609D01*
X4533D02*
X4560D01*
X4469D02*
X4499D01*
X4426D02*
X4441D01*
X4385D02*
X4400D01*
X4345D02*
X4357D01*
X4299D02*
X4312D01*
X4251D02*
X4273D01*
X4205D02*
X4225D01*
X4136D02*
X4152D01*
X4065D02*
X4080D01*
X4004D02*
X4019D01*
X3958D02*
X3981D01*
X3913D02*
X3933D01*
X3859D02*
X3877D01*
X3811D02*
X3831D01*
X3771D02*
X3786D01*
X3725D02*
X3740D01*
X3679D02*
X3707D01*
X3636D02*
X3649D01*
X3605D02*
X3618D01*
X3572D02*
X3588D01*
X3471D02*
X3499D01*
X3417D02*
X3433D01*
X3377D02*
X3390D01*
X3344D02*
X3359D01*
X3283D02*
X3298D01*
X3235D02*
X3265D01*
X3194D02*
X3207D01*
X3161D02*
X3176D01*
X4736Y2394D02*
X4751D01*
X4670D02*
X4685D01*
X4642D02*
X4654D01*
X4593D02*
X4609D01*
X4548D02*
X4560D01*
X4530D02*
X4545D01*
X4466D02*
X4499D01*
X4426D02*
X4441D01*
X4385D02*
X4400D01*
X4345D02*
X4357D01*
X4299D02*
X4312D01*
X4251D02*
X4273D01*
X4205D02*
X4225D01*
X4139D02*
X4154D01*
X4068D02*
X4083D01*
X4002D02*
X4017D01*
X3958D02*
X3981D01*
X3913D02*
X3933D01*
X3857D02*
X3880D01*
X3809D02*
X3831D01*
X3771D02*
X3786D01*
X3725D02*
X3740D01*
X3677D02*
X3707D01*
X3636D02*
X3649D01*
X3605D02*
X3618D01*
X3575D02*
X3590D01*
X3486D02*
X3499D01*
X3468D02*
X3483D01*
X3417D02*
X3433D01*
X3377D02*
X3390D01*
X3346D02*
X3362D01*
X3280D02*
X3296D01*
X3232D02*
X3265D01*
X3194D02*
X3207D01*
X3158D02*
X3176D01*
X4736Y2392D02*
X4751D01*
X4670D02*
X4685D01*
X4642D02*
X4654D01*
X4593D02*
X4609D01*
X4548D02*
X4563D01*
X4530D02*
X4545D01*
X4464D02*
X4499D01*
X4426D02*
X4441D01*
X4385D02*
X4400D01*
X4345D02*
X4357D01*
X4299D02*
X4312D01*
X4251D02*
X4273D01*
X4202D02*
X4228D01*
X4139D02*
X4154D01*
X4068D02*
X4083D01*
X4002D02*
X4014D01*
X3958D02*
X3981D01*
X3913D02*
X3936D01*
X3854D02*
X3880D01*
X3809D02*
X3831D01*
X3771D02*
X3786D01*
X3725D02*
X3740D01*
X3694D02*
X3707D01*
X3674D02*
X3692D01*
X3636D02*
X3649D01*
X3605D02*
X3618D01*
X3575D02*
X3590D01*
X3486D02*
X3501D01*
X3468D02*
X3481D01*
X3417D02*
X3433D01*
X3377D02*
X3390D01*
X3349D02*
X3362D01*
X3280D02*
X3296D01*
X3252D02*
X3265D01*
X3229D02*
X3250D01*
X3194D02*
X3207D01*
X3156D02*
X3176D01*
X4738Y2389D02*
X4751D01*
X4670D02*
X4682D01*
X4642D02*
X4654D01*
X4593D02*
X4609D01*
X4548D02*
X4563D01*
X4530D02*
X4543D01*
X4484D02*
X4499D01*
X4461D02*
X4479D01*
X4426D02*
X4441D01*
X4385D02*
X4400D01*
X4345D02*
X4357D01*
X4299D02*
X4312D01*
X4248D02*
X4273D01*
X4202D02*
X4228D01*
X4141D02*
X4154D01*
X4068D02*
X4083D01*
X3999D02*
X4014D01*
X3956D02*
X3981D01*
X3910D02*
X3936D01*
X3854D02*
X3880D01*
X3809D02*
X3834D01*
X3771D02*
X3786D01*
X3725D02*
X3740D01*
X3694D02*
X3707D01*
X3671D02*
X3689D01*
X3636D02*
X3649D01*
X3605D02*
X3618D01*
X3577D02*
X3590D01*
X3486D02*
X3501D01*
X3466D02*
X3481D01*
X3417D02*
X3433D01*
X3377D02*
X3390D01*
X3349D02*
X3364D01*
X3280D02*
X3296D01*
X3252D02*
X3265D01*
X3229D02*
X3247D01*
X3194D02*
X3207D01*
X3148D02*
X3174D01*
X4738Y2386D02*
X4753D01*
X4670D02*
X4682D01*
X4642D02*
X4654D01*
X4593D02*
X4609D01*
X4550D02*
X4566D01*
X4527D02*
X4540D01*
X4484D02*
X4499D01*
X4459D02*
X4477D01*
X4426D02*
X4441D01*
X4385D02*
X4400D01*
X4345D02*
X4357D01*
X4299D02*
X4312D01*
X4248D02*
X4273D01*
X4202D02*
X4228D01*
X4141D02*
X4157D01*
X4070D02*
X4083D01*
X3999D02*
X4014D01*
X3953D02*
X3981D01*
X3910D02*
X3938D01*
X3852D02*
X3882D01*
X3809D02*
X3837D01*
X3771D02*
X3786D01*
X3725D02*
X3740D01*
X3694D02*
X3707D01*
X3669D02*
X3687D01*
X3636D02*
X3649D01*
X3605D02*
X3618D01*
X3577D02*
X3593D01*
X3489D02*
X3504D01*
X3466D02*
X3481D01*
X3417D02*
X3433D01*
X3377D02*
X3390D01*
X3349D02*
X3364D01*
X3280D02*
X3293D01*
X3252D02*
X3265D01*
X3227D02*
X3245D01*
X3194D02*
X3207D01*
X3143D02*
X3171D01*
X4738Y2384D02*
X4753D01*
X4670D02*
X4682D01*
X4642D02*
X4654D01*
X4593D02*
X4609D01*
X4553D02*
X4566D01*
X4525D02*
X4540D01*
X4484D02*
X4499D01*
X4456D02*
X4477D01*
X4426D02*
X4441D01*
X4385D02*
X4400D01*
X4345D02*
X4357D01*
X4299D02*
X4312D01*
X4263D02*
X4273D01*
X4246D02*
X4261D01*
X4202D02*
X4230D01*
X4141D02*
X4157D01*
X4070D02*
X4083D01*
X3999D02*
X4014D01*
X3953D02*
X3981D01*
X3910D02*
X3938D01*
X3852D02*
X3882D01*
X3824D02*
X3837D01*
X3809D02*
X3821D01*
X3771D02*
X3786D01*
X3725D02*
X3740D01*
X3694D02*
X3707D01*
X3666D02*
X3684D01*
X3636D02*
X3649D01*
X3605D02*
X3618D01*
X3577D02*
X3593D01*
X3489D02*
X3504D01*
X3466D02*
X3478D01*
X3417D02*
X3433D01*
X3377D02*
X3390D01*
X3349D02*
X3364D01*
X3280D02*
X3293D01*
X3252D02*
X3265D01*
X3224D02*
X3242D01*
X3194D02*
X3207D01*
X3138D02*
X3169D01*
X4738Y2381D02*
X4753D01*
X4667D02*
X4682D01*
X4642D02*
X4654D01*
X4593D02*
X4609D01*
X4553D02*
X4568D01*
X4525D02*
X4540D01*
X4484D02*
X4499D01*
X4454D02*
X4472D01*
X4426D02*
X4441D01*
X4385D02*
X4400D01*
X4345D02*
X4357D01*
X4299D02*
X4312D01*
X4263D02*
X4276D01*
X4246D02*
X4258D01*
X4218D02*
X4233D01*
X4202D02*
X4215D01*
X4141D02*
X4157D01*
X4070D02*
X4083D01*
X3999D02*
X4014D01*
X3953D02*
X3984D01*
X3925D02*
X3938D01*
X3908D02*
X3923D01*
X3870D02*
X3882D01*
X3852D02*
X3867D01*
X3824D02*
X3837D01*
X3809D02*
X3821D01*
X3771D02*
X3786D01*
X3725D02*
X3740D01*
X3694D02*
X3707D01*
X3664D02*
X3682D01*
X3636D02*
X3649D01*
X3605D02*
X3618D01*
X3577D02*
X3593D01*
X3491D02*
X3504D01*
X3463D02*
X3478D01*
X3417D02*
X3433D01*
X3377D02*
X3390D01*
X3349D02*
X3364D01*
X3280D02*
X3293D01*
X3252D02*
X3265D01*
X3222D02*
X3240D01*
X3194D02*
X3207D01*
X3136D02*
X3166D01*
X4738Y2379D02*
X4753D01*
X4667D02*
X4682D01*
X4642D02*
X4654D01*
X4593D02*
X4609D01*
X4553D02*
X4568D01*
X4525D02*
X4538D01*
X4484D02*
X4499D01*
X4451D02*
X4469D01*
X4426D02*
X4441D01*
X4385D02*
X4400D01*
X4345D02*
X4357D01*
X4299D02*
X4312D01*
X4263D02*
X4276D01*
X4243D02*
X4258D01*
X4220D02*
X4233D01*
X4202D02*
X4215D01*
X4141D02*
X4157D01*
X4070D02*
X4083D01*
X3999D02*
X4014D01*
X3969D02*
X3984D01*
X3951D02*
X3966D01*
X3928D02*
X3941D01*
X3908D02*
X3923D01*
X3870D02*
X3882D01*
X3849D02*
X3865D01*
X3824D02*
X3839D01*
X3806D02*
X3821D01*
X3771D02*
X3786D01*
X3725D02*
X3740D01*
X3694D02*
X3707D01*
X3661D02*
X3679D01*
X3636D02*
X3649D01*
X3605D02*
X3618D01*
X3577D02*
X3593D01*
X3494D02*
X3506D01*
X3463D02*
X3476D01*
X3417D02*
X3433D01*
X3377D02*
X3390D01*
X3349D02*
X3364D01*
X3280D02*
X3293D01*
X3252D02*
X3265D01*
X3219D02*
X3237D01*
X3194D02*
X3207D01*
X3133D02*
X3158D01*
X4738Y2376D02*
X4753D01*
X4670D02*
X4682D01*
X4642D02*
X4654D01*
X4593D02*
X4609D01*
X4555D02*
X4568D01*
X4522D02*
X4538D01*
X4484D02*
X4499D01*
X4449D02*
X4469D01*
X4426D02*
X4441D01*
X4385D02*
X4400D01*
X4345D02*
X4357D01*
X4299D02*
X4312D01*
X4263D02*
X4276D01*
X4243D02*
X4258D01*
X4220D02*
X4233D01*
X4202D02*
X4215D01*
X4141D02*
X4157D01*
X4070D02*
X4083D01*
X3999D02*
X4014D01*
X3971D02*
X3984D01*
X3951D02*
X3966D01*
X3928D02*
X3941D01*
X3908D02*
X3923D01*
X3870D02*
X3882D01*
X3849D02*
X3865D01*
X3826D02*
X3839D01*
X3806D02*
X3821D01*
X3771D02*
X3786D01*
X3725D02*
X3740D01*
X3694D02*
X3707D01*
X3659D02*
X3679D01*
X3636D02*
X3649D01*
X3605D02*
X3618D01*
X3577D02*
X3593D01*
X3494D02*
X3509D01*
X3461D02*
X3476D01*
X3417D02*
X3433D01*
X3377D02*
X3390D01*
X3349D02*
X3364D01*
X3280D02*
X3293D01*
X3252D02*
X3265D01*
X3217D02*
X3235D01*
X3194D02*
X3207D01*
X3130D02*
X3153D01*
X4738Y2374D02*
X4753D01*
X4670D02*
X4682D01*
X4642D02*
X4654D01*
X4593D02*
X4609D01*
X4555D02*
X4571D01*
X4522D02*
X4538D01*
X4484D02*
X4499D01*
X4446D02*
X4466D01*
X4426D02*
X4441D01*
X4385D02*
X4400D01*
X4345D02*
X4357D01*
X4299D02*
X4312D01*
X4263D02*
X4279D01*
X4240D02*
X4256D01*
X4220D02*
X4235D01*
X4200D02*
X4212D01*
X4141D02*
X4157D01*
X4070D02*
X4083D01*
X3999D02*
X4014D01*
X3971D02*
X3984D01*
X3948D02*
X3964D01*
X3928D02*
X3943D01*
X3908D02*
X3923D01*
X3870D02*
X3882D01*
X3847D02*
X3862D01*
X3829D02*
X3842D01*
X3806D02*
X3821D01*
X3771D02*
X3786D01*
X3725D02*
X3740D01*
X3694D02*
X3707D01*
X3656D02*
X3677D01*
X3636D02*
X3649D01*
X3605D02*
X3618D01*
X3577D02*
X3593D01*
X3494D02*
X3509D01*
X3458D02*
X3473D01*
X3417D02*
X3433D01*
X3377D02*
X3390D01*
X3349D02*
X3364D01*
X3280D02*
X3293D01*
X3252D02*
X3265D01*
X3214D02*
X3232D01*
X3194D02*
X3207D01*
X3130D02*
X3148D01*
X4738Y2371D02*
X4751D01*
X4698D02*
X4715D01*
X4670D02*
X4682D01*
X4642D02*
X4654D01*
X4593D02*
X4609D01*
X4520D02*
X4571D01*
X4484D02*
X4499D01*
X4444D02*
X4464D01*
X4426D02*
X4441D01*
X4385D02*
X4400D01*
X4345D02*
X4357D01*
X4299D02*
X4312D01*
X4263D02*
X4279D01*
X4240D02*
X4256D01*
X4223D02*
X4235D01*
X4200D02*
X4212D01*
X4141D02*
X4154D01*
X4068D02*
X4083D01*
X3999D02*
X4014D01*
X3971D02*
X3984D01*
X3948D02*
X3961D01*
X3931D02*
X3943D01*
X3908D02*
X3920D01*
X3870D02*
X3885D01*
X3847D02*
X3862D01*
X3829D02*
X3844D01*
X3806D02*
X3821D01*
X3771D02*
X3786D01*
X3725D02*
X3740D01*
X3694D02*
X3707D01*
X3654D02*
X3671D01*
X3636D02*
X3649D01*
X3605D02*
X3618D01*
X3577D02*
X3590D01*
X3458D02*
X3511D01*
X3417D02*
X3433D01*
X3377D02*
X3390D01*
X3349D02*
X3362D01*
X3280D02*
X3296D01*
X3252D02*
X3265D01*
X3212D02*
X3229D01*
X3194D02*
X3207D01*
X3130D02*
X3146D01*
X4736Y2369D02*
X4751D01*
X4698D02*
X4715D01*
X4670D02*
X4685D01*
X4639D02*
X4654D01*
X4593D02*
X4609D01*
X4520D02*
X4573D01*
X4484D02*
X4499D01*
X4426D02*
X4461D01*
X4385D02*
X4400D01*
X4345D02*
X4357D01*
X4299D02*
X4312D01*
X4263D02*
X4279D01*
X4240D02*
X4256D01*
X4223D02*
X4235D01*
X4200D02*
X4212D01*
X4141D02*
X4154D01*
X4068D02*
X4083D01*
X4002D02*
X4014D01*
X3971D02*
X3984D01*
X3931D02*
X3961D01*
X3908D02*
X3920D01*
X3870D02*
X3885D01*
X3847D02*
X3859D01*
X3829D02*
X3844D01*
X3806D02*
X3821D01*
X3771D02*
X3786D01*
X3725D02*
X3740D01*
X3694D02*
X3707D01*
X3651D02*
X3671D01*
X3636D02*
X3649D01*
X3605D02*
X3618D01*
X3575D02*
X3590D01*
X3458D02*
X3511D01*
X3417D02*
X3433D01*
X3377D02*
X3390D01*
X3349D02*
X3362D01*
X3280D02*
X3296D01*
X3252D02*
X3265D01*
X3209D02*
X3227D01*
X3194D02*
X3207D01*
X3128D02*
X3143D01*
X4736Y2366D02*
X4751D01*
X4693D02*
X4713D01*
X4670D02*
X4685D01*
X4639D02*
X4654D01*
X4593D02*
X4609D01*
X4517D02*
X4576D01*
X4484D02*
X4499D01*
X4426D02*
X4459D01*
X4385D02*
X4400D01*
X4345D02*
X4357D01*
X4299D02*
X4312D01*
X4266D02*
X4279D01*
X4225D02*
X4253D01*
X4197D02*
X4212D01*
X4139D02*
X4154D01*
X4068D02*
X4083D01*
X4002D02*
X4017D01*
X3974D02*
X3986D01*
X3933D02*
X3961D01*
X3908D02*
X3920D01*
X3870D02*
X3885D01*
X3831D02*
X3859D01*
X3806D02*
X3819D01*
X3771D02*
X3786D01*
X3725D02*
X3740D01*
X3694D02*
X3707D01*
X3636D02*
X3669D01*
X3605D02*
X3618D01*
X3575D02*
X3590D01*
X3456D02*
X3511D01*
X3417D02*
X3433D01*
X3377D02*
X3390D01*
X3346D02*
X3362D01*
X3280D02*
X3296D01*
X3252D02*
X3265D01*
X3194D02*
X3227D01*
X3128D02*
X3143D01*
X4733Y2364D02*
X4751D01*
X4690D02*
X4708D01*
X4672D02*
X4687D01*
X4639D02*
X4654D01*
X4593D02*
X4609D01*
X4517D02*
X4576D01*
X4484D02*
X4499D01*
X4426D02*
X4456D01*
X4385D02*
X4400D01*
X4345D02*
X4357D01*
X4299D02*
X4312D01*
X4266D02*
X4279D01*
X4225D02*
X4251D01*
X4197D02*
X4212D01*
X4136D02*
X4152D01*
X4065D02*
X4080D01*
X4004D02*
X4019D01*
X3974D02*
X3986D01*
X3933D02*
X3958D01*
X3905D02*
X3920D01*
X3872D02*
X3885D01*
X3831D02*
X3859D01*
X3806D02*
X3819D01*
X3771D02*
X3786D01*
X3725D02*
X3740D01*
X3694D02*
X3707D01*
X3636D02*
X3664D01*
X3605D02*
X3618D01*
X3572D02*
X3588D01*
X3456D02*
X3514D01*
X3417D02*
X3433D01*
X3377D02*
X3390D01*
X3344D02*
X3359D01*
X3283D02*
X3298D01*
X3252D02*
X3265D01*
X3194D02*
X3222D01*
X3169D02*
X3181D01*
X3128D02*
X3143D01*
X4733Y2361D02*
X4748D01*
X4672D02*
X4708D01*
X4639D02*
X4654D01*
X4593D02*
X4609D01*
X4517D02*
X4576D01*
X4484D02*
X4499D01*
X4426D02*
X4454D01*
X4385D02*
X4400D01*
X4342D02*
X4357D01*
X4299D02*
X4314D01*
X4266D02*
X4279D01*
X4228D02*
X4251D01*
X4197D02*
X4212D01*
X4136D02*
X4152D01*
X4065D02*
X4080D01*
X4004D02*
X4019D01*
X3974D02*
X3986D01*
X3936D02*
X3958D01*
X3905D02*
X3920D01*
X3872D02*
X3885D01*
X3831D02*
X3857D01*
X3804D02*
X3819D01*
X3771D02*
X3786D01*
X3725D02*
X3740D01*
X3694D02*
X3707D01*
X3636D02*
X3664D01*
X3605D02*
X3618D01*
X3572D02*
X3588D01*
X3456D02*
X3514D01*
X3417D02*
X3433D01*
X3377D02*
X3390D01*
X3344D02*
X3359D01*
X3283D02*
X3298D01*
X3252D02*
X3265D01*
X3194D02*
X3222D01*
X3166D02*
X3181D01*
X3128D02*
X3143D01*
X4731Y2359D02*
X4746D01*
X4675D02*
X4705D01*
X4639D02*
X4654D01*
X4596D02*
X4611D01*
X4563D02*
X4578D01*
X4515D02*
X4530D01*
X4484D02*
X4499D01*
X4426D02*
X4451D01*
X4385D02*
X4400D01*
X4342D02*
X4357D01*
X4301D02*
X4317D01*
X4266D02*
X4281D01*
X4228D02*
X4251D01*
X4197D02*
X4212D01*
X4134D02*
X4149D01*
X4091D02*
X4096D01*
X4060D02*
X4080D01*
X4004D02*
X4022D01*
X3974D02*
X3989D01*
X3936D02*
X3958D01*
X3905D02*
X3920D01*
X3872D02*
X3885D01*
X3834D02*
X3854D01*
X3804D02*
X3816D01*
X3768D02*
X3783D01*
X3725D02*
X3740D01*
X3694D02*
X3707D01*
X3636D02*
X3661D01*
X3605D02*
X3618D01*
X3570D02*
X3585D01*
X3527D02*
X3532D01*
X3501D02*
X3517D01*
X3453D02*
X3468D01*
X3417D02*
X3433D01*
X3377D02*
X3390D01*
X3341D02*
X3359D01*
X3283D02*
X3303D01*
X3252D02*
X3265D01*
X3194D02*
X3219D01*
X3166D02*
X3181D01*
X3128D02*
X3143D01*
X4726Y2356D02*
X4746D01*
X4675D02*
X4700D01*
X4637D02*
X4652D01*
X4596D02*
X4614D01*
X4563D02*
X4578D01*
X4515D02*
X4530D01*
X4484D02*
X4499D01*
X4426D02*
X4449D01*
X4385D02*
X4400D01*
X4339D02*
X4357D01*
X4301D02*
X4317D01*
X4266D02*
X4281D01*
X4228D02*
X4248D01*
X4197D02*
X4210D01*
X4129D02*
X4149D01*
X4091D02*
X4098D01*
X4058D02*
X4075D01*
X4007D02*
X4027D01*
X3974D02*
X3989D01*
X3938D02*
X3956D01*
X3905D02*
X3920D01*
X3872D02*
X3887D01*
X3837D02*
X3854D01*
X3804D02*
X3816D01*
X3768D02*
X3783D01*
X3727D02*
X3745D01*
X3694D02*
X3707D01*
X3636D02*
X3656D01*
X3605D02*
X3618D01*
X3565D02*
X3585D01*
X3527D02*
X3534D01*
X3501D02*
X3517D01*
X3450D02*
X3466D01*
X3417D02*
X3433D01*
X3377D02*
X3390D01*
X3336D02*
X3356D01*
X3288D02*
X3306D01*
X3252D02*
X3265D01*
X3194D02*
X3214D01*
X3163D02*
X3181D01*
X3130D02*
X3146D01*
X4723Y2353D02*
X4743D01*
X4677D02*
X4700D01*
X4634D02*
X4652D01*
X4599D02*
X4616D01*
X4566D02*
X4578D01*
X4512D02*
X4527D01*
X4484D02*
X4499D01*
X4426D02*
X4446D01*
X4385D02*
X4400D01*
X4337D02*
X4355D01*
X4301D02*
X4319D01*
X4266D02*
X4281D01*
X4230D02*
X4248D01*
X4197D02*
X4210D01*
X4126D02*
X4146D01*
X4091D02*
X4103D01*
X4055D02*
X4075D01*
X4007D02*
X4030D01*
X3974D02*
X3989D01*
X3938D02*
X3956D01*
X3905D02*
X3918D01*
X3875D02*
X3887D01*
X3837D02*
X3854D01*
X3804D02*
X3816D01*
X3763D02*
X3783D01*
X3730D02*
X3748D01*
X3694D02*
X3707D01*
X3636D02*
X3656D01*
X3605D02*
X3618D01*
X3562D02*
X3583D01*
X3527D02*
X3537D01*
X3504D02*
X3519D01*
X3450D02*
X3466D01*
X3417D02*
X3433D01*
X3377D02*
X3390D01*
X3334D02*
X3356D01*
X3288D02*
X3308D01*
X3252D02*
X3265D01*
X3194D02*
X3214D01*
X3161D02*
X3179D01*
X3130D02*
X3146D01*
X4677Y2351D02*
X4743D01*
X4599D02*
X4649D01*
X4566D02*
X4581D01*
X4510D02*
X4525D01*
X4484D02*
X4499D01*
X4426D02*
X4444D01*
X4385D02*
X4400D01*
X4304D02*
X4355D01*
X4266D02*
X4281D01*
X4233D02*
X4246D01*
X4197D02*
X4210D01*
X4091D02*
X4144D01*
X4012D02*
X4073D01*
X3976D02*
X3989D01*
X3938D02*
X3953D01*
X3905D02*
X3918D01*
X3875D02*
X3887D01*
X3837D02*
X3852D01*
X3801D02*
X3816D01*
X3730D02*
X3781D01*
X3694D02*
X3707D01*
X3636D02*
X3654D01*
X3605D02*
X3618D01*
X3527D02*
X3580D01*
X3504D02*
X3519D01*
X3450D02*
X3466D01*
X3417D02*
X3433D01*
X3377D02*
X3390D01*
X3290D02*
X3351D01*
X3252D02*
X3265D01*
X3194D02*
X3212D01*
X3130D02*
X3176D01*
X4675Y2348D02*
X4738D01*
X4601D02*
X4647D01*
X4568D02*
X4583D01*
X4510D02*
X4525D01*
X4484D02*
X4499D01*
X4426D02*
X4441D01*
X4385D02*
X4400D01*
X4304D02*
X4352D01*
X4268D02*
X4281D01*
X4233D02*
X4246D01*
X4195D02*
X4210D01*
X4091D02*
X4141D01*
X4014D02*
X4070D01*
X3976D02*
X3989D01*
X3941D02*
X3953D01*
X3903D02*
X3918D01*
X3875D02*
X3890D01*
X3839D02*
X3852D01*
X3801D02*
X3816D01*
X3732D02*
X3778D01*
X3694D02*
X3707D01*
X3636D02*
X3649D01*
X3605D02*
X3618D01*
X3527D02*
X3577D01*
X3506D02*
X3522D01*
X3448D02*
X3463D01*
X3417D02*
X3433D01*
X3377D02*
X3390D01*
X3293D02*
X3349D01*
X3252D02*
X3265D01*
X3194D02*
X3207D01*
X3133D02*
X3176D01*
X4675Y2346D02*
X4736D01*
X4601D02*
X4647D01*
X4568D02*
X4583D01*
X4510D02*
X4525D01*
X4484D02*
X4499D01*
X4426D02*
X4439D01*
X4385D02*
X4400D01*
X4306D02*
X4350D01*
X4268D02*
X4281D01*
X4233D02*
X4243D01*
X4195D02*
X4210D01*
X4091D02*
X4139D01*
X4014D02*
X4068D01*
X3976D02*
X3989D01*
X3941D02*
X3951D01*
X3903D02*
X3918D01*
X3875D02*
X3890D01*
X3839D02*
X3852D01*
X3801D02*
X3816D01*
X3732D02*
X3778D01*
X3694D02*
X3707D01*
X3636D02*
X3649D01*
X3605D02*
X3618D01*
X3527D02*
X3575D01*
X3506D02*
X3522D01*
X3448D02*
X3463D01*
X3417D02*
X3433D01*
X3377D02*
X3390D01*
X3296D02*
X3349D01*
X3252D02*
X3265D01*
X3194D02*
X3207D01*
X3136D02*
X3174D01*
X4690Y2343D02*
X4731D01*
X4670D02*
X4687D01*
X4606D02*
X4642D01*
X4571D02*
X4586D01*
X4507D02*
X4522D01*
X4484D02*
X4499D01*
X4426D02*
X4439D01*
X4385D02*
X4400D01*
X4312D02*
X4347D01*
X4268D02*
X4284D01*
X4235D02*
X4243D01*
X4195D02*
X4210D01*
X4093D02*
X4134D01*
X4022D02*
X4063D01*
X3976D02*
X3992D01*
X3943D02*
X3951D01*
X3903D02*
X3915D01*
X3875D02*
X3890D01*
X3842D02*
X3849D01*
X3801D02*
X3816D01*
X3738D02*
X3773D01*
X3694D02*
X3707D01*
X3636D02*
X3646D01*
X3605D02*
X3618D01*
X3529D02*
X3570D01*
X3509D02*
X3524D01*
X3445D02*
X3463D01*
X3417D02*
X3433D01*
X3377D02*
X3390D01*
X3298D02*
X3341D01*
X3252D02*
X3265D01*
X3194D02*
X3204D01*
X3138D02*
X3171D01*
X4695Y2341D02*
X4723D01*
X4667D02*
X4685D01*
X4614D02*
X4637D01*
X4571D02*
X4586D01*
X4507D02*
X4522D01*
X4484D02*
X4499D01*
X4426D02*
X4433D01*
X4385D02*
X4400D01*
X4317D02*
X4339D01*
X4271D02*
X4284D01*
X4235D02*
X4240D01*
X4195D02*
X4210D01*
X4101D02*
X4129D01*
X4027D02*
X4058D01*
X3976D02*
X3992D01*
X3943D02*
X3951D01*
X3903D02*
X3915D01*
X3875D02*
X3890D01*
X3844D02*
X3847D01*
X3801D02*
X3814D01*
X3743D02*
X3768D01*
X3694D02*
X3707D01*
X3636D02*
X3644D01*
X3605D02*
X3618D01*
X3537D02*
X3565D01*
X3509D02*
X3524D01*
X3445D02*
X3461D01*
X3417D02*
X3433D01*
X3377D02*
X3390D01*
X3306D02*
X3336D01*
X3252D02*
X3265D01*
X3194D02*
X3199D01*
X3143D02*
X3166D01*
X4703Y2338D02*
X4718D01*
X4667D02*
X4682D01*
X4616D02*
X4632D01*
X4426D02*
X4433D01*
X4322D02*
X4334D01*
X4235D02*
X4240D01*
X4106D02*
X4121D01*
X4035D02*
X4050D01*
X3946D02*
X3948D01*
X3844D02*
X3847D01*
X3748D02*
X3763D01*
X3636D02*
X3641D01*
X3542D02*
X3557D01*
X3313D02*
X3329D01*
X3194D02*
X3199D01*
X3148D02*
X3161D01*
X4426Y2336D02*
X4431D01*
X3636D02*
X3638D01*
X3194D02*
X3196D01*
D47*
X6735Y4092D02*
G03*
X6735Y4092I-12J0D01*
G01*
X5672Y6379D02*
G03*
X5672Y6379I-12J0D01*
G01*
D80*
X5692Y4260D02*
Y4680D01*
X6693Y4260D02*
Y4680D01*
X5692D02*
X6693D01*
X5692Y4260D02*
X6693D01*
X5720Y6754D02*
X6020D01*
X5720Y6344D02*
X6020D01*
Y6754D01*
X5720Y6344D02*
Y6754D01*
D97*
X6622Y4360D02*
G03*
X6622Y4360I-30J0D01*
G01*
M02*
