G04*
G04 #@! TF.GenerationSoftware,Altium Limited,Altium Designer,19.0.15 (446)*
G04*
G04 Layer_Physical_Order=2*
G04 Layer_Color=36540*
%FSLAX42Y42*%
%MOMM*%
G71*
G01*
G75*
%ADD49C,1.00*%
%ADD83C,2.00*%
%ADD85C,6.00*%
%ADD86C,0.70*%
%ADD87C,0.50*%
%ADD88C,0.60*%
%ADD90C,0.90*%
G36*
X8900Y3000D02*
X5966D01*
X5963Y3004D01*
X5960Y3013D01*
X5971Y3029D01*
X5975Y3050D01*
X5971Y3071D01*
X5959Y3090D01*
X5953Y3094D01*
Y3106D01*
X5959Y3110D01*
X5971Y3129D01*
X5975Y3150D01*
X5971Y3171D01*
X5959Y3190D01*
X5940Y3202D01*
X5919Y3206D01*
X5898Y3202D01*
X5879Y3190D01*
X5867Y3171D01*
X5863Y3150D01*
X5867Y3129D01*
X5879Y3110D01*
X5885Y3106D01*
Y3094D01*
X5879Y3090D01*
X5867Y3071D01*
X5863Y3050D01*
X5867Y3029D01*
X5878Y3013D01*
X5874Y3000D01*
X5766D01*
X5763Y3004D01*
X5760Y3013D01*
X5771Y3029D01*
X5775Y3050D01*
X5771Y3071D01*
X5759Y3090D01*
X5753Y3094D01*
Y3106D01*
X5759Y3110D01*
X5771Y3129D01*
X5775Y3150D01*
X5771Y3171D01*
X5759Y3190D01*
X5740Y3202D01*
X5719Y3206D01*
X5698Y3202D01*
X5679Y3190D01*
X5667Y3171D01*
X5663Y3150D01*
X5667Y3129D01*
X5679Y3110D01*
X5685Y3106D01*
Y3094D01*
X5679Y3090D01*
X5667Y3071D01*
X5663Y3050D01*
X5667Y3029D01*
X5678Y3013D01*
X5674Y3000D01*
X5564D01*
X5560Y3013D01*
X5571Y3029D01*
X5575Y3050D01*
X5571Y3071D01*
X5559Y3090D01*
X5553Y3094D01*
Y3106D01*
X5559Y3110D01*
X5571Y3129D01*
X5575Y3150D01*
X5571Y3171D01*
X5559Y3190D01*
X5540Y3202D01*
X5519Y3206D01*
X5498Y3202D01*
X5479Y3190D01*
X5467Y3171D01*
X5463Y3150D01*
X5467Y3129D01*
X5479Y3110D01*
X5485Y3106D01*
Y3094D01*
X5479Y3090D01*
X5467Y3071D01*
X5463Y3050D01*
X5467Y3029D01*
X5478Y3013D01*
X5474Y3000D01*
X5450D01*
X5400Y3050D01*
X2900D01*
Y9500D01*
X8900D01*
Y3000D01*
D02*
G37*
%LPC*%
G36*
X6860Y9406D02*
X6842Y9402D01*
X6828Y9392D01*
X6818Y9378D01*
X6814Y9360D01*
X6818Y9342D01*
X6828Y9328D01*
X6842Y9318D01*
X6860Y9314D01*
X6878Y9318D01*
X6892Y9328D01*
X6902Y9342D01*
X6906Y9360D01*
X6902Y9378D01*
X6892Y9392D01*
X6878Y9402D01*
X6860Y9406D01*
D02*
G37*
G36*
X5819Y9246D02*
X5798Y9242D01*
X5779Y9230D01*
X5767Y9211D01*
X5763Y9190D01*
X5767Y9169D01*
X5779Y9150D01*
X5798Y9138D01*
X5819Y9134D01*
X5840Y9138D01*
X5859Y9150D01*
X5871Y9169D01*
X5875Y9190D01*
X5871Y9211D01*
X5859Y9230D01*
X5840Y9242D01*
X5819Y9246D01*
D02*
G37*
G36*
X6730Y9120D02*
X6490D01*
Y8880D01*
X6730D01*
Y9120D01*
D02*
G37*
G36*
X4950D02*
X4710D01*
Y8880D01*
X4950D01*
Y9120D01*
D02*
G37*
G36*
X4310Y8626D02*
X4292Y8622D01*
X4278Y8612D01*
X4268Y8598D01*
X4264Y8580D01*
X4268Y8562D01*
X4278Y8548D01*
X4292Y8538D01*
X4310Y8534D01*
X4328Y8538D01*
X4342Y8548D01*
X4352Y8562D01*
X4356Y8580D01*
X4352Y8598D01*
X4342Y8612D01*
X4328Y8622D01*
X4310Y8626D01*
D02*
G37*
G36*
X4150D02*
X4132Y8622D01*
X4118Y8612D01*
X4108Y8598D01*
X4104Y8580D01*
X4108Y8562D01*
X4118Y8548D01*
X4132Y8538D01*
X4150Y8534D01*
X4168Y8538D01*
X4182Y8548D01*
X4192Y8562D01*
X4196Y8580D01*
X4192Y8598D01*
X4182Y8612D01*
X4168Y8622D01*
X4150Y8626D01*
D02*
G37*
G36*
X6530Y8606D02*
X6509Y8602D01*
X6490Y8590D01*
X6478Y8571D01*
X6474Y8550D01*
X6478Y8529D01*
X6490Y8510D01*
X6509Y8498D01*
X6530Y8494D01*
X6551Y8498D01*
X6570Y8510D01*
X6582Y8529D01*
X6586Y8550D01*
X6582Y8571D01*
X6570Y8590D01*
X6551Y8602D01*
X6530Y8606D01*
D02*
G37*
G36*
X6960Y8581D02*
X6942Y8577D01*
X6928Y8567D01*
X6918Y8553D01*
X6914Y8535D01*
X6918Y8517D01*
X6928Y8503D01*
X6942Y8493D01*
X6960Y8489D01*
X6978Y8493D01*
X6992Y8503D01*
X7002Y8517D01*
X7006Y8535D01*
X7002Y8553D01*
X6992Y8567D01*
X6978Y8577D01*
X6960Y8581D01*
D02*
G37*
G36*
X7730Y8576D02*
X7712Y8572D01*
X7698Y8562D01*
X7688Y8548D01*
X7684Y8530D01*
X7688Y8512D01*
X7698Y8498D01*
X7712Y8488D01*
X7730Y8484D01*
X7748Y8488D01*
X7762Y8498D01*
X7772Y8512D01*
X7776Y8530D01*
X7772Y8548D01*
X7762Y8562D01*
X7748Y8572D01*
X7730Y8576D01*
D02*
G37*
G36*
X7530D02*
X7512Y8572D01*
X7498Y8562D01*
X7488Y8548D01*
X7484Y8530D01*
X7488Y8512D01*
X7498Y8498D01*
X7512Y8488D01*
X7530Y8484D01*
X7548Y8488D01*
X7562Y8498D01*
X7572Y8512D01*
X7576Y8530D01*
X7572Y8548D01*
X7562Y8562D01*
X7548Y8572D01*
X7530Y8576D01*
D02*
G37*
G36*
X4310Y8376D02*
X4292Y8372D01*
X4278Y8362D01*
X4268Y8348D01*
X4264Y8330D01*
X4268Y8312D01*
X4278Y8298D01*
X4292Y8288D01*
X4310Y8284D01*
X4328Y8288D01*
X4342Y8298D01*
X4352Y8312D01*
X4356Y8330D01*
X4352Y8348D01*
X4342Y8362D01*
X4328Y8372D01*
X4310Y8376D01*
D02*
G37*
G36*
X4150D02*
X4132Y8372D01*
X4118Y8362D01*
X4108Y8348D01*
X4104Y8330D01*
X4108Y8312D01*
X4118Y8298D01*
X4132Y8288D01*
X4150Y8284D01*
X4168Y8288D01*
X4182Y8298D01*
X4192Y8312D01*
X4196Y8330D01*
X4192Y8348D01*
X4182Y8362D01*
X4168Y8372D01*
X4150Y8376D01*
D02*
G37*
G36*
X7700Y8342D02*
X7682Y8338D01*
X7668Y8328D01*
X7658Y8314D01*
X7654Y8296D01*
X7658Y8278D01*
X7668Y8264D01*
X7682Y8254D01*
X7700Y8250D01*
X7718Y8254D01*
X7732Y8264D01*
X7742Y8278D01*
X7746Y8296D01*
X7742Y8314D01*
X7732Y8328D01*
X7718Y8338D01*
X7700Y8342D01*
D02*
G37*
G36*
X7550Y8341D02*
X7532Y8337D01*
X7518Y8327D01*
X7508Y8313D01*
X7504Y8295D01*
X7508Y8277D01*
X7518Y8263D01*
X7532Y8253D01*
X7550Y8249D01*
X7568Y8253D01*
X7582Y8263D01*
X7592Y8277D01*
X7596Y8295D01*
X7592Y8313D01*
X7582Y8327D01*
X7568Y8337D01*
X7550Y8341D01*
D02*
G37*
G36*
X4170Y7826D02*
X4152Y7822D01*
X4138Y7812D01*
X4128Y7798D01*
X4124Y7780D01*
X4128Y7762D01*
X4138Y7748D01*
X4152Y7738D01*
X4170Y7734D01*
X4188Y7738D01*
X4202Y7748D01*
X4212Y7762D01*
X4216Y7780D01*
X4212Y7798D01*
X4202Y7812D01*
X4188Y7822D01*
X4170Y7826D01*
D02*
G37*
G36*
X7585Y7766D02*
X7567Y7762D01*
X7553Y7752D01*
X7543Y7738D01*
X7539Y7720D01*
X7543Y7702D01*
X7553Y7688D01*
X7567Y7678D01*
X7585Y7674D01*
X7603Y7678D01*
X7617Y7688D01*
X7627Y7702D01*
X7631Y7720D01*
X7627Y7738D01*
X7617Y7752D01*
X7603Y7762D01*
X7585Y7766D01*
D02*
G37*
G36*
X4395Y7366D02*
X4377Y7362D01*
X4363Y7352D01*
X4353Y7338D01*
X4349Y7320D01*
X4353Y7302D01*
X4363Y7288D01*
X4377Y7278D01*
X4395Y7274D01*
X4413Y7278D01*
X4427Y7288D01*
X4437Y7302D01*
X4441Y7320D01*
X4437Y7338D01*
X4427Y7352D01*
X4413Y7362D01*
X4395Y7366D01*
D02*
G37*
G36*
X3975D02*
X3957Y7362D01*
X3943Y7352D01*
X3933Y7338D01*
X3929Y7320D01*
X3933Y7302D01*
X3943Y7288D01*
X3957Y7278D01*
X3975Y7274D01*
X3993Y7278D01*
X4007Y7288D01*
X4017Y7302D01*
X4021Y7320D01*
X4017Y7338D01*
X4007Y7352D01*
X3993Y7362D01*
X3975Y7366D01*
D02*
G37*
G36*
X7820Y7306D02*
X7802Y7302D01*
X7788Y7292D01*
X7778Y7278D01*
X7774Y7260D01*
X7778Y7242D01*
X7788Y7228D01*
X7802Y7218D01*
X7820Y7214D01*
X7838Y7218D01*
X7852Y7228D01*
X7862Y7242D01*
X7866Y7260D01*
X7862Y7278D01*
X7852Y7292D01*
X7838Y7302D01*
X7820Y7306D01*
D02*
G37*
G36*
X7390D02*
X7372Y7302D01*
X7358Y7292D01*
X7348Y7278D01*
X7344Y7260D01*
X7348Y7242D01*
X7358Y7228D01*
X7372Y7218D01*
X7390Y7214D01*
X7408Y7218D01*
X7422Y7228D01*
X7432Y7242D01*
X7436Y7260D01*
X7432Y7278D01*
X7422Y7292D01*
X7408Y7302D01*
X7390Y7306D01*
D02*
G37*
G36*
X4960Y7256D02*
X4942Y7252D01*
X4928Y7242D01*
X4918Y7228D01*
X4914Y7210D01*
X4918Y7192D01*
X4928Y7178D01*
X4942Y7168D01*
X4960Y7164D01*
X4978Y7168D01*
X4992Y7178D01*
X5002Y7192D01*
X5006Y7210D01*
X5002Y7228D01*
X4992Y7242D01*
X4978Y7252D01*
X4960Y7256D01*
D02*
G37*
G36*
X5060Y7166D02*
X5039Y7162D01*
X5020Y7150D01*
X5008Y7131D01*
X5004Y7110D01*
X5008Y7089D01*
X5020Y7070D01*
X5039Y7058D01*
X5060Y7054D01*
X5081Y7058D01*
X5100Y7070D01*
X5112Y7089D01*
X5116Y7110D01*
X5112Y7131D01*
X5100Y7150D01*
X5081Y7162D01*
X5060Y7166D01*
D02*
G37*
G36*
X6026Y7168D02*
X6008Y7165D01*
X5991Y7158D01*
X5976Y7147D01*
X5965Y7132D01*
X5958Y7115D01*
X5955Y7097D01*
X5958Y7079D01*
X5965Y7062D01*
X5976Y7047D01*
X5991Y7036D01*
X6008Y7029D01*
X6026Y7026D01*
X6044Y7029D01*
X6061Y7036D01*
X6076Y7047D01*
X6087Y7062D01*
X6094Y7079D01*
X6097Y7097D01*
X6094Y7115D01*
X6087Y7132D01*
X6076Y7147D01*
X6061Y7158D01*
X6044Y7165D01*
X6026Y7168D01*
D02*
G37*
G36*
X6770Y7106D02*
X6749Y7102D01*
X6730Y7090D01*
X6718Y7071D01*
X6714Y7050D01*
X6718Y7029D01*
X6730Y7010D01*
X6749Y6998D01*
X6770Y6994D01*
X6791Y6998D01*
X6810Y7010D01*
X6822Y7029D01*
X6826Y7050D01*
X6822Y7071D01*
X6810Y7090D01*
X6791Y7102D01*
X6770Y7106D01*
D02*
G37*
G36*
X6630Y7081D02*
X6612Y7077D01*
X6598Y7067D01*
X6588Y7053D01*
X6584Y7035D01*
X6588Y7017D01*
X6598Y7003D01*
X6612Y6993D01*
X6630Y6989D01*
X6648Y6993D01*
X6662Y7003D01*
X6672Y7017D01*
X6676Y7035D01*
X6672Y7053D01*
X6662Y7067D01*
X6648Y7077D01*
X6630Y7081D01*
D02*
G37*
G36*
X4760Y6981D02*
X4743Y6977D01*
X4728Y6967D01*
X4718Y6953D01*
X4714Y6935D01*
X4718Y6917D01*
X4728Y6903D01*
X4743Y6893D01*
X4760Y6889D01*
X4778Y6893D01*
X4793Y6903D01*
X4802Y6917D01*
X4806Y6935D01*
X4802Y6953D01*
X4793Y6967D01*
X4778Y6977D01*
X4760Y6981D01*
D02*
G37*
G36*
X7080Y6931D02*
X7062Y6927D01*
X7048Y6917D01*
X7038Y6903D01*
X7034Y6885D01*
X7038Y6867D01*
X7048Y6853D01*
X7062Y6843D01*
X7080Y6839D01*
X7098Y6843D01*
X7112Y6853D01*
X7122Y6867D01*
X7126Y6885D01*
X7122Y6903D01*
X7112Y6917D01*
X7098Y6927D01*
X7080Y6931D01*
D02*
G37*
G36*
X6241Y6866D02*
X6224Y6862D01*
X6209Y6852D01*
X6199Y6838D01*
X6195Y6820D01*
X6199Y6802D01*
X6209Y6788D01*
X6224Y6778D01*
X6241Y6774D01*
X6259Y6778D01*
X6274Y6788D01*
X6283Y6802D01*
X6287Y6820D01*
X6283Y6838D01*
X6274Y6852D01*
X6259Y6862D01*
X6241Y6866D01*
D02*
G37*
G36*
X5460Y6916D02*
X5442Y6912D01*
X5428Y6902D01*
X5418Y6888D01*
X5414Y6870D01*
X5418Y6852D01*
X5427Y6838D01*
X5429Y6835D01*
Y6825D01*
X5427Y6822D01*
X5418Y6808D01*
X5414Y6790D01*
X5418Y6772D01*
X5428Y6758D01*
X5442Y6748D01*
X5460Y6744D01*
X5478Y6748D01*
X5492Y6758D01*
X5502Y6772D01*
X5506Y6790D01*
X5502Y6808D01*
X5493Y6822D01*
X5491Y6825D01*
Y6835D01*
X5493Y6838D01*
X5502Y6852D01*
X5506Y6870D01*
X5502Y6888D01*
X5492Y6902D01*
X5478Y6912D01*
X5460Y6916D01*
D02*
G37*
G36*
X5060Y6826D02*
X5039Y6822D01*
X5020Y6810D01*
X5008Y6791D01*
X5004Y6770D01*
X5008Y6749D01*
X5020Y6730D01*
X5039Y6718D01*
X5060Y6714D01*
X5081Y6718D01*
X5100Y6730D01*
X5112Y6749D01*
X5116Y6770D01*
X5112Y6791D01*
X5100Y6810D01*
X5081Y6822D01*
X5060Y6826D01*
D02*
G37*
G36*
X6770Y6816D02*
X6749Y6812D01*
X6730Y6800D01*
X6718Y6781D01*
X6714Y6760D01*
X6718Y6739D01*
X6730Y6720D01*
X6749Y6708D01*
X6770Y6704D01*
X6791Y6708D01*
X6810Y6720D01*
X6822Y6739D01*
X6826Y6760D01*
X6822Y6781D01*
X6810Y6800D01*
X6791Y6812D01*
X6770Y6816D01*
D02*
G37*
G36*
X6625Y6776D02*
X6607Y6772D01*
X6592Y6762D01*
X6582Y6748D01*
X6579Y6730D01*
X6582Y6712D01*
X6592Y6698D01*
X6607Y6688D01*
X6625Y6684D01*
X6642Y6688D01*
X6657Y6698D01*
X6667Y6712D01*
X6671Y6730D01*
X6667Y6748D01*
X6657Y6762D01*
X6642Y6772D01*
X6625Y6776D01*
D02*
G37*
G36*
X4960Y6736D02*
X4942Y6732D01*
X4928Y6722D01*
X4918Y6708D01*
X4914Y6690D01*
X4918Y6672D01*
X4928Y6658D01*
X4942Y6648D01*
X4960Y6644D01*
X4978Y6648D01*
X4992Y6658D01*
X5002Y6672D01*
X5006Y6690D01*
X5002Y6708D01*
X4992Y6722D01*
X4978Y6732D01*
X4960Y6736D01*
D02*
G37*
G36*
X4760Y6651D02*
X4743Y6647D01*
X4728Y6637D01*
X4718Y6623D01*
X4714Y6605D01*
X4718Y6587D01*
X4728Y6573D01*
X4743Y6563D01*
X4760Y6559D01*
X4778Y6563D01*
X4793Y6573D01*
X4802Y6587D01*
X4806Y6605D01*
X4802Y6623D01*
X4793Y6637D01*
X4778Y6647D01*
X4760Y6651D01*
D02*
G37*
G36*
X5380Y6626D02*
X5359Y6622D01*
X5340Y6610D01*
X5328Y6591D01*
X5324Y6570D01*
X5328Y6549D01*
X5340Y6530D01*
X5359Y6518D01*
X5380Y6514D01*
X5401Y6518D01*
X5420Y6530D01*
X5432Y6549D01*
X5436Y6570D01*
X5432Y6591D01*
X5420Y6610D01*
X5401Y6622D01*
X5380Y6626D01*
D02*
G37*
G36*
X4650Y6406D02*
X4629Y6402D01*
X4610Y6390D01*
X4598Y6371D01*
X4594Y6350D01*
X4598Y6329D01*
X4610Y6310D01*
X4629Y6298D01*
X4650Y6294D01*
X4671Y6298D01*
X4690Y6310D01*
X4702Y6329D01*
X4706Y6350D01*
X4702Y6371D01*
X4690Y6390D01*
X4671Y6402D01*
X4650Y6406D01*
D02*
G37*
G36*
X8100Y6226D02*
X8082Y6222D01*
X8068Y6212D01*
X8058Y6198D01*
X8054Y6180D01*
X8058Y6162D01*
X8068Y6148D01*
X8082Y6138D01*
X8100Y6134D01*
X8118Y6138D01*
X8132Y6148D01*
X8142Y6162D01*
X8146Y6180D01*
X8142Y6198D01*
X8132Y6212D01*
X8118Y6222D01*
X8100Y6226D01*
D02*
G37*
G36*
X5368Y6124D02*
X5350Y6120D01*
X5335Y6110D01*
X5325Y6095D01*
X5322Y6082D01*
X5311Y6071D01*
X5306Y6072D01*
X5288Y6069D01*
X5274Y6059D01*
X5264Y6044D01*
X5260Y6026D01*
X5264Y6009D01*
X5274Y5994D01*
X5288Y5984D01*
X5306Y5980D01*
X5324Y5984D01*
X5338Y5994D01*
X5348Y6009D01*
X5351Y6022D01*
X5363Y6033D01*
X5368Y6032D01*
X5385Y6036D01*
X5400Y6045D01*
X5410Y6060D01*
X5413Y6078D01*
X5410Y6095D01*
X5400Y6110D01*
X5385Y6120D01*
X5368Y6124D01*
D02*
G37*
G36*
X6046Y6063D02*
X6029Y6059D01*
X6014Y6049D01*
X6012Y6047D01*
X6000D01*
X5998Y6049D01*
X5984Y6059D01*
X5966Y6063D01*
X5948Y6059D01*
X5934Y6049D01*
X5923D01*
X5908Y6059D01*
X5891Y6063D01*
X5873Y6059D01*
X5858Y6049D01*
X5851D01*
X5837Y6059D01*
X5819Y6063D01*
X5801Y6059D01*
X5787Y6049D01*
X5779D01*
X5764Y6059D01*
X5746Y6063D01*
X5729Y6059D01*
X5714Y6049D01*
X5704Y6034D01*
X5701Y6017D01*
X5704Y5999D01*
X5714Y5984D01*
X5729Y5974D01*
X5746Y5971D01*
X5764Y5974D01*
X5779Y5984D01*
X5787D01*
X5801Y5974D01*
X5819Y5971D01*
X5837Y5974D01*
X5851Y5984D01*
X5858D01*
X5873Y5974D01*
X5891Y5971D01*
X5908Y5974D01*
X5923Y5984D01*
X5934D01*
X5948Y5974D01*
X5966Y5971D01*
X5984Y5974D01*
X5998Y5984D01*
X6000Y5986D01*
X6012D01*
X6014Y5984D01*
X6029Y5974D01*
X6046Y5971D01*
X6064Y5974D01*
X6079Y5984D01*
X6088Y5999D01*
X6092Y6017D01*
X6088Y6034D01*
X6079Y6049D01*
X6064Y6059D01*
X6046Y6063D01*
D02*
G37*
G36*
X8100Y6096D02*
X8082Y6092D01*
X8068Y6082D01*
X8058Y6068D01*
X8054Y6050D01*
X8058Y6032D01*
X8068Y6018D01*
X8082Y6008D01*
X8100Y6004D01*
X8118Y6008D01*
X8132Y6018D01*
X8142Y6032D01*
X8146Y6050D01*
X8142Y6068D01*
X8132Y6082D01*
X8118Y6092D01*
X8100Y6096D01*
D02*
G37*
G36*
X6444Y5981D02*
X6427Y5978D01*
X6412Y5968D01*
X6402Y5953D01*
X6399Y5936D01*
X6402Y5918D01*
X6412Y5903D01*
X6427Y5893D01*
X6444Y5890D01*
X6462Y5893D01*
X6477Y5903D01*
X6487Y5918D01*
X6490Y5936D01*
X6487Y5953D01*
X6477Y5968D01*
X6462Y5978D01*
X6444Y5981D01*
D02*
G37*
G36*
X8100Y5971D02*
X8082Y5967D01*
X8068Y5957D01*
X8058Y5943D01*
X8054Y5925D01*
X8058Y5907D01*
X8068Y5893D01*
X8082Y5883D01*
X8100Y5879D01*
X8118Y5883D01*
X8132Y5893D01*
X8142Y5907D01*
X8146Y5925D01*
X8142Y5943D01*
X8132Y5957D01*
X8118Y5967D01*
X8100Y5971D01*
D02*
G37*
G36*
X5332D02*
X5314Y5967D01*
X5300Y5957D01*
X5290Y5943D01*
X5286Y5925D01*
X5290Y5907D01*
X5300Y5893D01*
X5314Y5883D01*
X5332Y5879D01*
X5350Y5883D01*
X5364Y5893D01*
X5374Y5907D01*
X5378Y5925D01*
X5374Y5943D01*
X5364Y5957D01*
X5350Y5967D01*
X5332Y5971D01*
D02*
G37*
G36*
X3730Y5981D02*
X3709Y5977D01*
X3690Y5965D01*
X3678Y5946D01*
X3674Y5925D01*
X3678Y5904D01*
X3690Y5885D01*
X3709Y5873D01*
X3730Y5869D01*
X3751Y5873D01*
X3770Y5885D01*
X3782Y5904D01*
X3786Y5925D01*
X3782Y5946D01*
X3770Y5965D01*
X3751Y5977D01*
X3730Y5981D01*
D02*
G37*
G36*
X4670Y5884D02*
X4648Y5880D01*
X4630Y5868D01*
X4618Y5850D01*
X4614Y5828D01*
X4618Y5807D01*
X4630Y5789D01*
X4648Y5777D01*
X4670Y5772D01*
X4691Y5777D01*
X4709Y5789D01*
X4721Y5807D01*
X4726Y5828D01*
X4721Y5850D01*
X4709Y5868D01*
X4691Y5880D01*
X4670Y5884D01*
D02*
G37*
G36*
X8100Y5846D02*
X8082Y5842D01*
X8068Y5832D01*
X8058Y5818D01*
X8054Y5800D01*
X8058Y5782D01*
X8068Y5768D01*
X8082Y5758D01*
X8100Y5754D01*
X8118Y5758D01*
X8132Y5768D01*
X8142Y5782D01*
X8146Y5800D01*
X8142Y5818D01*
X8132Y5832D01*
X8118Y5842D01*
X8100Y5846D01*
D02*
G37*
G36*
X5230Y5865D02*
X5209Y5861D01*
X5190Y5849D01*
X5178Y5830D01*
X5174Y5809D01*
X5178Y5787D01*
X5190Y5769D01*
X5209Y5757D01*
X5230Y5753D01*
X5251Y5757D01*
X5270Y5769D01*
X5282Y5787D01*
X5286Y5809D01*
X5282Y5830D01*
X5270Y5849D01*
X5251Y5861D01*
X5230Y5865D01*
D02*
G37*
G36*
X6575Y5807D02*
X6554Y5802D01*
X6535Y5790D01*
X6523Y5772D01*
X6519Y5751D01*
X6523Y5729D01*
X6535Y5711D01*
X6554Y5699D01*
X6575Y5694D01*
X6596Y5699D01*
X6615Y5711D01*
X6627Y5729D01*
X6631Y5751D01*
X6627Y5772D01*
X6615Y5790D01*
X6596Y5802D01*
X6575Y5807D01*
D02*
G37*
G36*
X8100Y5716D02*
X8082Y5712D01*
X8068Y5702D01*
X8058Y5688D01*
X8054Y5670D01*
X8058Y5652D01*
X8068Y5638D01*
X8082Y5628D01*
X8100Y5624D01*
X8118Y5628D01*
X8132Y5638D01*
X8142Y5652D01*
X8146Y5670D01*
X8142Y5688D01*
X8132Y5702D01*
X8118Y5712D01*
X8100Y5716D01*
D02*
G37*
G36*
X5159Y5687D02*
X5137Y5683D01*
X5119Y5670D01*
X5107Y5652D01*
X5103Y5631D01*
X5107Y5609D01*
X5119Y5591D01*
X5137Y5579D01*
X5159Y5575D01*
X5180Y5579D01*
X5199Y5591D01*
X5211Y5609D01*
X5215Y5631D01*
X5211Y5652D01*
X5199Y5670D01*
X5180Y5683D01*
X5159Y5687D01*
D02*
G37*
G36*
X5730Y5662D02*
X5713Y5659D01*
X5698Y5649D01*
X5688Y5634D01*
X5684Y5616D01*
X5688Y5599D01*
X5698Y5584D01*
X5713Y5574D01*
X5730Y5570D01*
X5748Y5574D01*
X5763Y5584D01*
X5773Y5599D01*
X5776Y5616D01*
X5773Y5634D01*
X5763Y5649D01*
X5748Y5659D01*
X5730Y5662D01*
D02*
G37*
G36*
X6459Y5656D02*
X6442Y5652D01*
X6427Y5642D01*
X6417Y5628D01*
X6414Y5610D01*
X6417Y5592D01*
X6427Y5578D01*
X6442Y5568D01*
X6459Y5564D01*
X6477Y5568D01*
X6492Y5578D01*
X6502Y5592D01*
X6505Y5610D01*
X6502Y5628D01*
X6492Y5642D01*
X6477Y5652D01*
X6459Y5656D01*
D02*
G37*
G36*
X8105Y5471D02*
X8087Y5467D01*
X8073Y5457D01*
X8063Y5443D01*
X8059Y5425D01*
X8063Y5407D01*
X8073Y5393D01*
X8087Y5383D01*
X8105Y5379D01*
X8123Y5383D01*
X8137Y5393D01*
X8147Y5407D01*
X8151Y5425D01*
X8147Y5443D01*
X8137Y5457D01*
X8123Y5467D01*
X8105Y5471D01*
D02*
G37*
G36*
X6241Y5415D02*
X6224Y5411D01*
X6209Y5401D01*
X6199Y5386D01*
X6195Y5369D01*
X6199Y5351D01*
X6209Y5336D01*
X6224Y5326D01*
X6241Y5323D01*
X6259Y5326D01*
X6274Y5336D01*
X6283Y5351D01*
X6287Y5369D01*
X6283Y5386D01*
X6274Y5401D01*
X6259Y5411D01*
X6241Y5415D01*
D02*
G37*
G36*
X5701Y5307D02*
X5683Y5304D01*
X5668Y5294D01*
X5659Y5279D01*
X5655Y5262D01*
X5659Y5244D01*
X5668Y5229D01*
X5683Y5219D01*
X5701Y5216D01*
X5718Y5219D01*
X5733Y5229D01*
X5743Y5244D01*
X5747Y5262D01*
X5743Y5279D01*
X5733Y5294D01*
X5718Y5304D01*
X5701Y5307D01*
D02*
G37*
G36*
X6066Y5218D02*
X6049Y5214D01*
X6034Y5204D01*
X6024Y5190D01*
X6020Y5172D01*
X6024Y5154D01*
X6034Y5140D01*
X6049Y5130D01*
X6066Y5126D01*
X6084Y5130D01*
X6099Y5140D01*
X6109Y5154D01*
X6112Y5172D01*
X6109Y5190D01*
X6099Y5204D01*
X6084Y5214D01*
X6066Y5218D01*
D02*
G37*
G36*
X7130Y5146D02*
X7112Y5142D01*
X7098Y5132D01*
X7088Y5118D01*
X7084Y5100D01*
X7088Y5082D01*
X7098Y5068D01*
X7112Y5058D01*
X7130Y5054D01*
X7148Y5058D01*
X7162Y5068D01*
X7172Y5082D01*
X7176Y5100D01*
X7172Y5118D01*
X7162Y5132D01*
X7148Y5142D01*
X7130Y5146D01*
D02*
G37*
G36*
X5737Y5129D02*
X5716Y5124D01*
X5698Y5112D01*
X5686Y5094D01*
X5681Y5073D01*
X5686Y5051D01*
X5698Y5033D01*
X5716Y5021D01*
X5737Y5017D01*
X5759Y5021D01*
X5777Y5033D01*
X5789Y5051D01*
X5793Y5073D01*
X5789Y5094D01*
X5777Y5112D01*
X5759Y5124D01*
X5737Y5129D01*
D02*
G37*
G36*
X6130Y5076D02*
X6112Y5072D01*
X6097Y5062D01*
X6087Y5048D01*
X6084Y5030D01*
X6087Y5012D01*
X6097Y4998D01*
X6112Y4988D01*
X6130Y4984D01*
X6147Y4988D01*
X6162Y4998D01*
X6172Y5012D01*
X6176Y5030D01*
X6172Y5048D01*
X6162Y5062D01*
X6147Y5072D01*
X6130Y5076D01*
D02*
G37*
G36*
X6002D02*
X5984Y5072D01*
X5970Y5062D01*
X5960Y5048D01*
X5956Y5030D01*
X5960Y5012D01*
X5970Y4998D01*
X5984Y4988D01*
X6002Y4984D01*
X6020Y4988D01*
X6034Y4998D01*
X6044Y5012D01*
X6048Y5030D01*
X6044Y5048D01*
X6034Y5062D01*
X6020Y5072D01*
X6002Y5076D01*
D02*
G37*
G36*
X6637Y5046D02*
X6619Y5042D01*
X6605Y5032D01*
X6595Y5018D01*
X6591Y5000D01*
X6595Y4982D01*
X6605Y4968D01*
X6619Y4958D01*
X6637Y4954D01*
X6655Y4958D01*
X6669Y4968D01*
X6679Y4982D01*
X6683Y5000D01*
X6679Y5018D01*
X6669Y5032D01*
X6655Y5042D01*
X6637Y5046D01*
D02*
G37*
G36*
X6740Y4936D02*
X6722Y4932D01*
X6708Y4922D01*
X6698Y4907D01*
X6694Y4890D01*
X6698Y4872D01*
X6708Y4857D01*
X6722Y4847D01*
X6740Y4844D01*
X6758Y4847D01*
X6772Y4857D01*
X6782Y4872D01*
X6786Y4890D01*
X6782Y4907D01*
X6772Y4922D01*
X6758Y4932D01*
X6740Y4936D01*
D02*
G37*
G36*
X7766Y4926D02*
X7749Y4922D01*
X7734Y4912D01*
X7724Y4898D01*
X7720Y4880D01*
X7724Y4862D01*
X7734Y4848D01*
X7749Y4838D01*
X7766Y4834D01*
X7784Y4838D01*
X7799Y4848D01*
X7809Y4862D01*
X7812Y4880D01*
X7809Y4898D01*
X7799Y4912D01*
X7784Y4922D01*
X7766Y4926D01*
D02*
G37*
G36*
X5340Y4636D02*
X5322Y4632D01*
X5308Y4622D01*
X5298Y4608D01*
X5294Y4590D01*
X5298Y4572D01*
X5308Y4558D01*
X5322Y4548D01*
X5340Y4544D01*
X5358Y4548D01*
X5372Y4558D01*
X5382Y4572D01*
X5386Y4590D01*
X5382Y4608D01*
X5372Y4622D01*
X5358Y4632D01*
X5340Y4636D01*
D02*
G37*
G36*
X7170Y4626D02*
X7152Y4622D01*
X7138Y4612D01*
X7128Y4598D01*
X7124Y4580D01*
X7128Y4562D01*
X7138Y4548D01*
X7152Y4538D01*
X7170Y4534D01*
X7188Y4538D01*
X7202Y4548D01*
X7212Y4562D01*
X7216Y4580D01*
X7212Y4598D01*
X7202Y4612D01*
X7188Y4622D01*
X7170Y4626D01*
D02*
G37*
G36*
X5340Y4386D02*
X5322Y4382D01*
X5308Y4372D01*
X5298Y4358D01*
X5294Y4340D01*
X5298Y4322D01*
X5308Y4308D01*
X5322Y4298D01*
X5340Y4294D01*
X5358Y4298D01*
X5372Y4308D01*
X5382Y4322D01*
X5386Y4340D01*
X5382Y4358D01*
X5372Y4372D01*
X5358Y4382D01*
X5340Y4386D01*
D02*
G37*
G36*
X6130Y4376D02*
X6112Y4372D01*
X6098Y4362D01*
X6088Y4348D01*
X6084Y4330D01*
X6088Y4312D01*
X6098Y4298D01*
X6112Y4288D01*
X6130Y4284D01*
X6148Y4288D01*
X6162Y4298D01*
X6172Y4312D01*
X6176Y4330D01*
X6172Y4348D01*
X6162Y4362D01*
X6148Y4372D01*
X6130Y4376D01*
D02*
G37*
G36*
X6000D02*
X5982Y4372D01*
X5968Y4362D01*
X5958Y4348D01*
X5954Y4330D01*
X5958Y4312D01*
X5968Y4298D01*
X5982Y4288D01*
X6000Y4284D01*
X6018Y4288D01*
X6032Y4298D01*
X6042Y4312D01*
X6046Y4330D01*
X6042Y4348D01*
X6032Y4362D01*
X6018Y4372D01*
X6000Y4376D01*
D02*
G37*
G36*
X5456Y4111D02*
X5433Y4107D01*
X5413Y4093D01*
X5400Y4073D01*
X5395Y4050D01*
X5400Y4027D01*
X5413Y4007D01*
X5433Y3993D01*
X5456Y3989D01*
X5480Y3993D01*
X5500Y4007D01*
X5513Y4027D01*
X5518Y4050D01*
X5513Y4073D01*
X5500Y4093D01*
X5480Y4107D01*
X5456Y4111D01*
D02*
G37*
G36*
X4497D02*
X4474Y4107D01*
X4454Y4093D01*
X4441Y4073D01*
X4436Y4050D01*
X4441Y4027D01*
X4454Y4007D01*
X4474Y3993D01*
X4497Y3989D01*
X4521Y3993D01*
X4541Y4007D01*
X4554Y4027D01*
X4559Y4050D01*
X4554Y4073D01*
X4541Y4093D01*
X4521Y4107D01*
X4497Y4111D01*
D02*
G37*
G36*
X6740Y4076D02*
X6722Y4073D01*
X6708Y4063D01*
X6698Y4048D01*
X6694Y4030D01*
X6698Y4013D01*
X6708Y3998D01*
X6722Y3988D01*
X6740Y3984D01*
X6758Y3988D01*
X6772Y3998D01*
X6782Y4013D01*
X6786Y4030D01*
X6782Y4048D01*
X6772Y4063D01*
X6758Y4073D01*
X6740Y4076D01*
D02*
G37*
G36*
X3620Y4231D02*
X3597Y4227D01*
X3577Y4213D01*
X3563Y4193D01*
X3559Y4170D01*
X3563Y4147D01*
X3577Y4127D01*
X3597Y4113D01*
X3607Y4111D01*
Y4099D01*
X3597Y4097D01*
X3577Y4083D01*
X3563Y4063D01*
X3559Y4040D01*
X3563Y4017D01*
X3577Y3997D01*
X3597Y3983D01*
X3620Y3979D01*
X3643Y3983D01*
X3663Y3997D01*
X3677Y4017D01*
X3681Y4040D01*
X3677Y4063D01*
X3663Y4083D01*
X3643Y4097D01*
X3633Y4099D01*
Y4111D01*
X3643Y4113D01*
X3663Y4127D01*
X3677Y4147D01*
X3681Y4170D01*
X3677Y4193D01*
X3663Y4213D01*
X3643Y4227D01*
X3620Y4231D01*
D02*
G37*
G36*
X3470D02*
X3447Y4227D01*
X3427Y4213D01*
X3413Y4193D01*
X3409Y4170D01*
X3413Y4147D01*
X3427Y4127D01*
X3447Y4113D01*
X3457Y4111D01*
Y4099D01*
X3447Y4097D01*
X3427Y4083D01*
X3413Y4063D01*
X3409Y4040D01*
X3413Y4017D01*
X3427Y3997D01*
X3447Y3983D01*
X3470Y3979D01*
X3493Y3983D01*
X3513Y3997D01*
X3527Y4017D01*
X3531Y4040D01*
X3527Y4063D01*
X3513Y4083D01*
X3493Y4097D01*
X3483Y4099D01*
Y4111D01*
X3493Y4113D01*
X3513Y4127D01*
X3527Y4147D01*
X3531Y4170D01*
X3527Y4193D01*
X3513Y4213D01*
X3493Y4227D01*
X3470Y4231D01*
D02*
G37*
G36*
X6637Y3966D02*
X6619Y3962D01*
X6605Y3952D01*
X6595Y3938D01*
X6591Y3920D01*
X6595Y3902D01*
X6605Y3888D01*
X6619Y3878D01*
X6637Y3874D01*
X6655Y3878D01*
X6669Y3888D01*
X6679Y3902D01*
X6683Y3920D01*
X6679Y3938D01*
X6669Y3952D01*
X6655Y3962D01*
X6637Y3966D01*
D02*
G37*
G36*
X6500Y3756D02*
X6482Y3752D01*
X6468Y3742D01*
X6458Y3728D01*
X6454Y3710D01*
X6458Y3692D01*
X6468Y3678D01*
X6482Y3668D01*
X6500Y3664D01*
X6518Y3668D01*
X6532Y3678D01*
X6542Y3692D01*
X6546Y3710D01*
X6542Y3728D01*
X6532Y3742D01*
X6518Y3752D01*
X6500Y3756D01*
D02*
G37*
G36*
X6320Y3639D02*
X6302Y3635D01*
X6288Y3625D01*
X6278Y3610D01*
X6274Y3593D01*
X6278Y3575D01*
X6288Y3560D01*
X6302Y3551D01*
X6320Y3547D01*
X6338Y3551D01*
X6352Y3560D01*
X6362Y3575D01*
X6366Y3593D01*
X6362Y3610D01*
X6352Y3625D01*
X6338Y3635D01*
X6320Y3639D01*
D02*
G37*
%LPD*%
D49*
X5772Y7097D02*
D03*
X5899Y6970D02*
D03*
D83*
X5402Y8356D02*
D03*
X6353Y8350D02*
D03*
X6349Y7917D02*
D03*
X5398Y7923D02*
D03*
X6960Y9000D02*
D03*
X5180D02*
D03*
D85*
X8510Y7300D02*
D03*
X3290D02*
D03*
D86*
X8232Y4060D02*
D03*
X5262Y7228D02*
D03*
X3988Y6487D02*
D03*
X4130Y5033D02*
D03*
Y4520D02*
D03*
X7900Y6651D02*
D03*
X8510Y8236D02*
D03*
X3000Y9006D02*
D03*
Y7889D02*
D03*
Y5925D02*
D03*
Y4880D02*
D03*
X8020Y5030D02*
D03*
X8215Y4700D02*
D03*
X8063D02*
D03*
X6230Y6428D02*
D03*
X5831Y6509D02*
D03*
X5915Y6505D02*
D03*
X5915Y6604D02*
D03*
X5831D02*
D03*
X7680Y4060D02*
D03*
X7496D02*
D03*
X7320Y4063D02*
D03*
X4836Y5825D02*
D03*
X5880Y3860D02*
D03*
X5863Y3427D02*
D03*
X5274Y3588D02*
D03*
X5255Y3862D02*
D03*
X5078Y4040D02*
D03*
X4130D02*
D03*
X4310Y3867D02*
D03*
X4320Y3588D02*
D03*
X4673D02*
D03*
X4500Y3425D02*
D03*
X4917Y3445D02*
D03*
X3840Y3340D02*
D03*
X3720Y3588D02*
D03*
X3350Y3588D02*
D03*
X3550Y3412D02*
D03*
X4090Y6210D02*
D03*
X3730Y5800D02*
D03*
X4090Y5756D02*
D03*
X5468Y7130D02*
D03*
X5108Y6323D02*
D03*
X6510Y3909D02*
D03*
X6230Y3800D02*
D03*
X5016Y5920D02*
D03*
X6563Y5360D02*
D03*
X6789Y5880D02*
D03*
Y5610D02*
D03*
X4720Y6790D02*
D03*
Y7090D02*
D03*
X5648Y4993D02*
D03*
X5077Y5543D02*
D03*
X5034Y5124D02*
D03*
X4853Y4943D02*
D03*
X5306Y5056D02*
D03*
X5486Y5237D02*
D03*
X5520Y4990D02*
D03*
X5380D02*
D03*
X5000Y5200D02*
D03*
X4860D02*
D03*
X7419Y3050D02*
D03*
X7119D02*
D03*
X6819D02*
D03*
X6519D02*
D03*
X7419Y3150D02*
D03*
X7119D02*
D03*
X6819D02*
D03*
X6519D02*
D03*
X5619Y3050D02*
D03*
X6019D02*
D03*
X5820D02*
D03*
X6019Y3150D02*
D03*
X5819D02*
D03*
X5619D02*
D03*
D87*
X5455Y8575D02*
D03*
X6349Y6912D02*
D03*
X7790Y5609D02*
D03*
Y5735D02*
D03*
Y5860D02*
D03*
X7790Y5985D02*
D03*
Y6240D02*
D03*
X7790Y6115D02*
D03*
X3490Y5545D02*
D03*
Y6430D02*
D03*
X3290Y6270D02*
D03*
Y6594D02*
D03*
Y5388D02*
D03*
Y5730D02*
D03*
X8300Y6550D02*
D03*
X8307Y5171D02*
D03*
X8510Y5326D02*
D03*
X8730Y5171D02*
D03*
X8510Y5010D02*
D03*
X8720Y6550D02*
D03*
X8510Y6730D02*
D03*
X8020Y8430D02*
D03*
X7430Y8530D02*
D03*
X7319Y8420D02*
D03*
X6199Y8810D02*
D03*
X6490D02*
D03*
Y9240D02*
D03*
X6197D02*
D03*
X5310Y9242D02*
D03*
X4030Y8363D02*
D03*
X6880Y5200D02*
D03*
X7120Y7540D02*
D03*
X7230Y7442D02*
D03*
X8070Y7540D02*
D03*
X7980Y7446D02*
D03*
X8020Y8370D02*
D03*
X8120Y8249D02*
D03*
X8020Y8154D02*
D03*
Y8657D02*
D03*
Y8880D02*
D03*
X8140Y8770D02*
D03*
X5610Y9350D02*
D03*
X8560Y9204D02*
D03*
X8130D02*
D03*
X8350Y8900D02*
D03*
X7658Y9204D02*
D03*
X7228D02*
D03*
X7447Y8900D02*
D03*
X3450Y8950D02*
D03*
X3230Y9254D02*
D03*
X3660D02*
D03*
X4140D02*
D03*
X4559Y9250D02*
D03*
X4349Y8950D02*
D03*
X6171Y8471D02*
D03*
X6280Y8592D02*
D03*
X6961Y8220D02*
D03*
X6919Y8093D02*
D03*
X7031Y7979D02*
D03*
X3800Y7496D02*
D03*
X4559Y7490D02*
D03*
X4870Y8130D02*
D03*
X4770Y8035D02*
D03*
X4960Y8360D02*
D03*
X4840Y8250D02*
D03*
X4430Y8332D02*
D03*
Y8580D02*
D03*
X3785Y8400D02*
D03*
X3790Y8180D02*
D03*
X3780Y8940D02*
D03*
X3660Y8830D02*
D03*
X6470Y6732D02*
D03*
Y7131D02*
D03*
X5760Y5490D02*
D03*
X7826Y4580D02*
D03*
X6510Y4326D02*
D03*
X5748D02*
D03*
X6510Y4624D02*
D03*
X5748D02*
D03*
X6262Y5736D02*
D03*
X5525Y5837D02*
D03*
X6510Y5000D02*
D03*
X8105Y6300D02*
D03*
Y5550D02*
D03*
X4944Y6870D02*
D03*
X4930Y6540D02*
D03*
X6890Y6960D02*
D03*
X7645Y8530D02*
D03*
X4230Y8580D02*
D03*
X7785Y7889D02*
D03*
X4370Y7930D02*
D03*
X4020Y8213D02*
D03*
X7440Y8171D02*
D03*
D88*
X7515Y8075D02*
D03*
X7610Y7985D02*
D03*
Y8075D02*
D03*
X7705Y7985D02*
D03*
Y8075D02*
D03*
X7518Y7985D02*
D03*
X4100Y8117D02*
D03*
X4195Y8026D02*
D03*
Y8117D02*
D03*
X4290Y8026D02*
D03*
Y8117D02*
D03*
X4103Y8026D02*
D03*
D90*
X8510Y7525D02*
D03*
X8735Y7300D02*
D03*
X8285D02*
D03*
X8510Y7075D02*
D03*
X8660Y7150D02*
D03*
X8360D02*
D03*
X8685Y7450D02*
D03*
X8360D02*
D03*
X3290Y7525D02*
D03*
X3515Y7300D02*
D03*
X3065D02*
D03*
X3290Y7075D02*
D03*
X3440Y7150D02*
D03*
X3140D02*
D03*
X3465Y7450D02*
D03*
X3140D02*
D03*
M02*
